<svg xmlns="http://www.w3.org/2000/svg" xmlns:xlink="http://www.w3.org/1999/xlink" width="1440" viewBox="0 0 1440 810" height="810" version="1.0"><defs><g id="l"><path d="M 16.269531 -20.863281 L 1.511719 -20.863281 L 1.511719 -18.746094 L 13.09375 -18.746094 L 3.085938 0 L 5.867188 0 L 16.269531 -19.652344 Z M 16.269531 -20.863281"/></g><g id="m"><path d="M 5.59375 -2.117188 L 10.824219 -7.289062 C 14.363281 -10.765625 15.90625 -12.699219 15.90625 -15.542969 C 15.90625 -18.65625 13.820312 -21.285156 9.554688 -21.285156 C 5.382812 -21.285156 2.78125 -18.988281 2.359375 -14.636719 L 2.328125 -14.332031 L 4.929688 -14.332031 L 4.957031 -14.636719 C 5.261719 -17.566406 6.5625 -19.230469 9.253906 -19.230469 C 11.761719 -19.230469 13.003906 -17.386719 13.003906 -15.238281 C 13.003906 -13.214844 11.824219 -11.703125 9.375 -9.191406 L 1.8125 -1.480469 L 1.8125 0 L 15.8125 0 L 15.8125 -2.117188 Z M 5.59375 -2.117188"/></g><g id="o"><path d="M 8.769531 -21.285156 C 3.023438 -21.285156 1.238281 -16.507812 1.238281 -10.433594 C 1.238281 -4.382812 3.023438 0.421875 8.769531 0.421875 C 14.515625 0.421875 16.296875 -4.382812 16.296875 -10.433594 C 16.296875 -16.507812 14.515625 -21.285156 8.769531 -21.285156 Z M 8.769531 -1.632812 C 5.441406 -1.632812 4.140625 -4.988281 4.140625 -10.433594 C 4.140625 -15.90625 5.441406 -19.230469 8.769531 -19.230469 C 12.09375 -19.230469 13.394531 -15.90625 13.394531 -10.433594 C 13.394531 -4.988281 12.09375 -1.632812 8.769531 -1.632812 Z M 8.769531 -1.632812"/></g><g id="n"><path d="M 5.714844 -21.167969 C 2.992188 -21.167969 1.238281 -19.320312 1.238281 -16.359375 C 1.238281 -13.425781 2.992188 -11.550781 5.714844 -11.550781 C 8.4375 -11.550781 10.191406 -13.425781 10.191406 -16.359375 C 10.191406 -19.320312 8.4375 -21.167969 5.714844 -21.167969 Z M 5.746094 0 L 19.292969 -20.863281 L 16.660156 -20.863281 L 3.113281 0 Z M 5.714844 -19.351562 C 6.863281 -19.351562 7.648438 -18.324219 7.648438 -16.359375 C 7.648438 -14.421875 6.863281 -13.363281 5.714844 -13.363281 C 4.566406 -13.363281 3.78125 -14.421875 3.78125 -16.359375 C 3.78125 -18.324219 4.566406 -19.351562 5.714844 -19.351562 Z M 16.660156 -9.191406 C 13.9375 -9.191406 12.1875 -7.347656 12.1875 -4.382812 C 12.1875 -1.453125 13.9375 0.421875 16.660156 0.421875 C 19.382812 0.421875 21.136719 -1.453125 21.136719 -4.382812 C 21.136719 -7.347656 19.382812 -9.191406 16.660156 -9.191406 Z M 16.660156 -7.378906 C 17.808594 -7.378906 18.597656 -6.351562 18.597656 -4.382812 C 18.597656 -2.449219 17.808594 -1.390625 16.660156 -1.390625 C 15.511719 -1.390625 14.726562 -2.449219 14.726562 -4.382812 C 14.726562 -6.351562 15.511719 -7.378906 16.660156 -7.378906 Z M 16.660156 -7.378906"/></g><g id="p"><path d="M 17.234375 -14.382812 L 17.234375 -11.359375 L 24.191406 -11.359375 C 24.191406 -6.046875 20.605469 -2.332031 15.765625 -2.332031 C 9.890625 -2.332031 6.175781 -7.601562 6.175781 -14.945312 C 6.175781 -22.160156 9.933594 -27.472656 16.027344 -27.472656 C 20.992188 -27.472656 23.628906 -24.578125 24.492188 -20.300781 L 24.578125 -19.871094 L 28.292969 -19.871094 L 28.25 -20.300781 C 27.644531 -26.132812 23.671875 -30.410156 16.113281 -30.410156 C 7.644531 -30.410156 2.03125 -23.84375 2.03125 -14.773438 C 2.03125 -6.046875 6.867188 0.605469 15.550781 0.605469 C 18.964844 0.605469 21.597656 -0.519531 23.285156 -2.417969 L 24.621094 -5.183594 L 24.621094 0 L 27.90625 0 L 27.90625 -14.382812 Z M 17.234375 -14.382812"/></g><g id="q"><path d="M 24.148438 -3.023438 L 8.035156 -3.023438 L 8.035156 -13.390625 L 22.417969 -13.390625 L 22.417969 -16.414062 L 8.035156 -16.414062 L 8.035156 -26.78125 L 23.714844 -26.78125 L 23.714844 -29.804688 L 4.320312 -29.804688 L 4.320312 0 L 24.148438 0 Z M 24.148438 -3.023438"/></g><g id="r"><path d="M 27.644531 0 L 27.558594 -29.804688 L 23.929688 -29.804688 L 23.929688 -14.902344 C 23.929688 -11.402344 23.972656 -7.128906 24.0625 -3.628906 L 10.023438 -29.804688 L 4.320312 -29.804688 L 4.320312 0 L 8.035156 0 L 8.035156 -14.902344 C 8.035156 -18.402344 7.992188 -22.679688 7.90625 -26.175781 L 21.945312 0 Z M 27.644531 0"/></g><g id="s"><path d="M 23.929688 -7.820312 C 23.671875 -10.800781 22.503906 -13.519531 20.085938 -14.644531 C 22.851562 -15.507812 25.398438 -17.753906 25.398438 -21.683594 C 25.398438 -26.695312 22.289062 -29.070312 17.96875 -29.632812 C 16.632812 -29.804688 15.59375 -29.804688 14.082031 -29.804688 L 4.320312 -29.804688 L 4.320312 0 L 8.035156 0 L 8.035156 -12.828125 L 13.648438 -12.828125 C 14.339844 -12.828125 15.074219 -12.828125 15.765625 -12.785156 C 18.703125 -12.570312 19.871094 -10.539062 20.214844 -7.472656 C 20.605469 -3.800781 20.992188 -1.902344 21.816406 0 L 25.917969 0 C 24.707031 -1.597656 24.277344 -3.929688 23.929688 -7.820312 Z M 8.035156 -15.851562 L 8.035156 -26.78125 L 14.082031 -26.78125 C 15.421875 -26.78125 16.242188 -26.738281 17.0625 -26.609375 C 19.828125 -26.175781 21.425781 -24.664062 21.425781 -21.339844 C 21.425781 -17.96875 19.394531 -16.199219 16.632812 -15.941406 C 15.808594 -15.851562 15.074219 -15.851562 13.738281 -15.851562 Z M 8.035156 -15.851562"/></g><g id="t"><path d="M 19.699219 -10.539062 L 23.238281 0 L 27.257812 0 L 16.976562 -29.804688 L 11.964844 -29.804688 L 1.253906 0 L 5.226562 0 L 8.726562 -10.539062 Z M 9.761719 -13.5625 L 14.382812 -26.867188 L 18.703125 -13.5625 Z M 9.761719 -13.5625"/></g><g id="u"><path d="M 24.148438 -3.023438 L 8.035156 -3.023438 L 8.035156 -29.804688 L 4.320312 -29.804688 L 4.320312 0 L 24.148438 0 Z M 24.148438 -3.023438"/></g><g id="w"><path d="M 17.453125 -29.632812 C 16.113281 -29.804688 15.074219 -29.804688 13.5625 -29.804688 L 4.320312 -29.804688 L 4.320312 0 L 8.035156 0 L 8.035156 -12.179688 L 13.5625 -12.179688 C 15.074219 -12.179688 16.113281 -12.179688 17.453125 -12.355469 C 21.769531 -12.914062 25.183594 -15.941406 25.183594 -20.992188 C 25.183594 -26.046875 22.203125 -29.027344 17.453125 -29.632812 Z M 17.234375 -15.507812 C 16.414062 -15.335938 15.25 -15.292969 13.910156 -15.292969 L 8.035156 -15.292969 L 8.035156 -26.695312 L 13.910156 -26.695312 C 15.25 -26.695312 16.414062 -26.652344 17.234375 -26.480469 C 19.351562 -26.003906 21.210938 -24.449219 21.210938 -20.992188 C 21.210938 -17.539062 19.351562 -15.984375 17.234375 -15.507812 Z M 17.234375 -15.507812"/></g><g id="x"><path d="M 16.113281 -30.410156 C 7.042969 -30.410156 2.03125 -24.019531 2.03125 -14.902344 C 2.03125 -5.832031 7.042969 0.605469 16.113281 0.605469 C 25.183594 0.605469 30.195312 -5.832031 30.195312 -14.902344 C 30.195312 -24.019531 25.183594 -30.410156 16.113281 -30.410156 Z M 16.113281 -2.332031 C 9.847656 -2.332031 6.175781 -7.171875 6.175781 -14.902344 C 6.175781 -22.679688 9.847656 -27.472656 16.113281 -27.472656 C 22.375 -27.472656 26.046875 -22.679688 26.046875 -14.902344 C 26.046875 -7.171875 22.375 -2.332031 16.113281 -2.332031 Z M 16.113281 -2.332031"/></g><g id="y"><path d="M 26.4375 -29.804688 L 22.722656 -29.804688 L 22.722656 -11.359375 C 22.722656 -10.410156 22.722656 -9.503906 22.636719 -8.726562 C 22.289062 -4.96875 19.828125 -2.332031 15.25 -2.332031 C 10.667969 -2.332031 8.207031 -4.96875 7.863281 -8.726562 C 7.777344 -9.503906 7.777344 -10.410156 7.777344 -11.359375 L 7.777344 -29.804688 L 4.058594 -29.804688 L 4.058594 -11.015625 C 4.058594 -10.066406 4.058594 -9.199219 4.148438 -8.335938 C 4.578125 -3.371094 7.949219 0.605469 15.25 0.605469 C 22.550781 0.605469 25.917969 -3.371094 26.351562 -8.335938 C 26.4375 -9.199219 26.4375 -10.066406 26.4375 -11.015625 Z M 26.4375 -29.804688"/></g><g id="z"><path d="M 26.4375 -26.78125 L 26.4375 -29.804688 L 1.46875 -29.804688 L 1.46875 -26.78125 L 12.09375 -26.78125 L 12.09375 0 L 15.808594 0 L 15.808594 -26.78125 Z M 26.4375 -26.78125"/></g><g id="A"><path d="M 8.035156 0 L 8.035156 -29.804688 L 4.320312 -29.804688 L 4.320312 0 Z M 8.035156 0"/></g><g id="J"><path d="M 10.34375 -5.535156 L 12.203125 0 L 14.3125 0 L 8.914062 -15.648438 L 6.28125 -15.648438 L 0.65625 0 L 2.746094 0 L 4.582031 -5.535156 Z M 5.125 -7.121094 L 7.550781 -14.105469 L 9.820312 -7.121094 Z M 5.125 -7.121094"/></g><g id="K"><path d="M 12.566406 -4.105469 C 12.429688 -5.671875 11.816406 -7.097656 10.546875 -7.6875 C 11.996094 -8.140625 13.335938 -9.320312 13.335938 -11.386719 C 13.335938 -14.015625 11.703125 -15.261719 9.433594 -15.558594 C 8.730469 -15.648438 8.1875 -15.648438 7.394531 -15.648438 L 2.269531 -15.648438 L 2.269531 0 L 4.21875 0 L 4.21875 -6.734375 L 7.167969 -6.734375 C 7.53125 -6.734375 7.914062 -6.734375 8.277344 -6.714844 C 9.820312 -6.601562 10.433594 -5.535156 10.613281 -3.921875 C 10.820312 -1.996094 11.023438 -0.996094 11.453125 0 L 13.609375 0 C 12.972656 -0.839844 12.746094 -2.0625 12.566406 -4.105469 Z M 4.21875 -8.324219 L 4.21875 -14.0625 L 7.394531 -14.0625 C 8.097656 -14.0625 8.527344 -14.039062 8.957031 -13.972656 C 10.410156 -13.742188 11.25 -12.949219 11.25 -11.203125 C 11.25 -9.433594 10.183594 -8.503906 8.730469 -8.367188 C 8.300781 -8.324219 7.914062 -8.324219 7.210938 -8.324219 Z M 4.21875 -8.324219"/></g><g id="L"><path d="M 13.878906 -14.0625 L 13.878906 -15.648438 L 0.769531 -15.648438 L 0.769531 -14.0625 L 6.351562 -14.0625 L 6.351562 0 L 8.300781 0 L 8.300781 -14.0625 Z M 13.878906 -14.0625"/></g><g id="M"><path d="M 4.21875 0 L 4.21875 -15.648438 L 2.269531 -15.648438 L 2.269531 0 Z M 4.21875 0"/></g><g id="N"><path d="M 7.121094 -15.964844 C 4.242188 -15.964844 1.90625 -14.265625 1.90625 -11.566406 C 1.90625 -8.980469 3.832031 -7.871094 6.601562 -7.234375 C 9.34375 -6.601562 10.433594 -5.738281 10.433594 -3.832031 C 10.433594 -2.199219 8.980469 -1.226562 7.191406 -1.226562 C 5.148438 -1.226562 3.71875 -2.382812 3.265625 -4.445312 L 1.179688 -4.445312 C 1.519531 -1.429688 3.695312 0.316406 7.144531 0.316406 C 10.160156 0.316406 12.519531 -1.453125 12.519531 -4.195312 C 12.519531 -6.847656 10.796875 -8.253906 7.347656 -9.050781 C 4.96875 -9.59375 3.992188 -10.320312 3.992188 -12.019531 C 3.992188 -13.652344 5.308594 -14.425781 6.960938 -14.425781 C 8.9375 -14.425781 10.09375 -13.289062 10.273438 -11.316406 L 12.359375 -11.316406 C 12.066406 -13.992188 10.363281 -15.964844 7.121094 -15.964844 Z M 7.121094 -15.964844"/></g><g id="O"><path d="M 9.164062 -15.558594 C 8.460938 -15.648438 7.914062 -15.648438 7.121094 -15.648438 L 2.269531 -15.648438 L 2.269531 0 L 4.21875 0 L 4.21875 -6.394531 L 7.121094 -6.394531 C 7.914062 -6.394531 8.460938 -6.394531 9.164062 -6.488281 C 11.429688 -6.78125 13.222656 -8.367188 13.222656 -11.023438 C 13.222656 -13.675781 11.65625 -15.242188 9.164062 -15.558594 Z M 9.050781 -8.140625 C 8.617188 -8.050781 8.007812 -8.027344 7.304688 -8.027344 L 4.21875 -8.027344 L 4.21875 -14.015625 L 7.304688 -14.015625 C 8.007812 -14.015625 8.617188 -13.992188 9.050781 -13.902344 C 10.160156 -13.652344 11.136719 -12.835938 11.136719 -11.023438 C 11.136719 -9.207031 10.160156 -8.390625 9.050781 -8.140625 Z M 9.050781 -8.140625"/></g><g id="P"><path d="M 8.460938 -15.964844 C 3.695312 -15.964844 1.066406 -12.609375 1.066406 -7.824219 C 1.066406 -3.0625 3.695312 0.316406 8.460938 0.316406 C 13.222656 0.316406 15.851562 -3.0625 15.851562 -7.824219 C 15.851562 -12.609375 13.222656 -15.964844 8.460938 -15.964844 Z M 8.460938 -1.226562 C 5.171875 -1.226562 3.242188 -3.765625 3.242188 -7.824219 C 3.242188 -11.90625 5.171875 -14.425781 8.460938 -14.425781 C 11.75 -14.425781 13.675781 -11.90625 13.675781 -7.824219 C 13.675781 -3.765625 11.75 -1.226562 8.460938 -1.226562 Z M 8.460938 -1.226562"/></g><g id="Q"><path d="M 12.679688 -1.585938 L 4.21875 -1.585938 L 4.21875 -15.648438 L 2.269531 -15.648438 L 2.269531 0 L 12.679688 0 Z M 12.679688 -1.585938"/></g><g id="R"><path d="M 8.460938 -15.964844 C 4.015625 -15.964844 1.066406 -12.519531 1.066406 -7.757812 C 1.066406 -3.175781 3.605469 0.316406 8.164062 0.316406 C 12.292969 0.316406 14.402344 -2.15625 14.695312 -4.988281 L 14.71875 -5.214844 L 12.769531 -5.214844 L 12.722656 -4.988281 C 12.269531 -2.746094 10.886719 -1.226562 8.277344 -1.226562 C 5.195312 -1.226562 3.242188 -3.992188 3.242188 -7.847656 C 3.242188 -11.636719 5.214844 -14.425781 8.414062 -14.425781 C 11.023438 -14.425781 12.40625 -12.90625 12.859375 -10.660156 L 12.90625 -10.433594 L 14.855469 -10.433594 L 14.832031 -10.660156 C 14.515625 -13.722656 12.429688 -15.964844 8.460938 -15.964844 Z M 8.460938 -15.964844"/></g><g id="S"><path d="M 14.515625 0 L 14.46875 -15.648438 L 12.566406 -15.648438 L 12.566406 -7.824219 C 12.566406 -5.988281 12.585938 -3.742188 12.632812 -1.90625 L 5.261719 -15.648438 L 2.269531 -15.648438 L 2.269531 0 L 4.21875 0 L 4.21875 -7.824219 C 4.21875 -9.660156 4.195312 -11.90625 4.152344 -13.742188 L 11.519531 0 Z M 14.515625 0"/></g><g id="T"><path d="M 12.679688 -1.585938 L 4.21875 -1.585938 L 4.21875 -7.03125 L 11.769531 -7.03125 L 11.769531 -8.617188 L 4.21875 -8.617188 L 4.21875 -14.0625 L 12.453125 -14.0625 L 12.453125 -15.648438 L 2.269531 -15.648438 L 2.269531 0 L 12.679688 0 Z M 12.679688 -1.585938"/></g><g id="U"><path d="M 17.871094 -15.648438 L 14.71875 -15.648438 L 10.117188 -1.65625 L 5.488281 -15.648438 L 2.269531 -15.648438 L 2.269531 0 L 4.21875 0 L 4.21875 -8.050781 C 4.21875 -9.980469 4.21875 -12.132812 4.171875 -13.835938 C 4.671875 -12.15625 5.398438 -9.980469 6.03125 -8.121094 L 8.84375 0 L 11.292969 0 L 14.0625 -8.074219 C 14.71875 -9.980469 15.445312 -12.179688 15.964844 -13.878906 C 15.921875 -12.179688 15.921875 -10 15.921875 -8.050781 L 15.921875 0 L 17.871094 0 Z M 17.871094 -15.648438"/></g><g id="Z"><path d="M 4.039062 -9.707031 C 2.109375 -9.707031 0.675781 -8.34375 0.675781 -6.316406 C 0.675781 -4.425781 1.847656 -3.089844 3.832031 -3.089844 C 4.523438 -3.089844 5.0625 -3.269531 5.570312 -3.695312 L 6.109375 -4.550781 C 6.011719 -1.777344 5.101562 -0.746094 3.820312 -0.746094 C 2.855469 -0.746094 2.289062 -1.296875 2.070312 -2.371094 L 2.039062 -2.507812 L 0.773438 -2.507812 L 0.785156 -2.371094 C 0.9375 -0.8125 2.097656 0.191406 3.722656 0.191406 C 5.679688 0.191406 7.40625 -1.378906 7.40625 -5.210938 C 7.40625 -8.371094 6.164062 -9.707031 4.039062 -9.707031 Z M 4.039062 -4.027344 C 2.59375 -4.027344 2 -5.128906 2 -6.453125 C 2 -7.832031 2.855469 -8.769531 4.039062 -8.769531 C 5.238281 -8.769531 6.027344 -7.75 6.027344 -6.425781 C 6.027344 -4.839844 5.117188 -4.027344 4.039062 -4.027344 Z M 4.039062 -4.027344"/></g><g id="aa"><path d="M 4.164062 -6.425781 C 3.476562 -6.425781 2.9375 -6.246094 2.425781 -5.820312 L 1.890625 -4.964844 C 1.984375 -7.734375 2.894531 -8.769531 4.179688 -8.769531 C 5.144531 -8.769531 5.707031 -8.21875 5.929688 -7.144531 L 5.957031 -7.003906 L 7.226562 -7.003906 L 7.210938 -7.144531 C 7.058594 -8.699219 5.902344 -9.707031 4.273438 -9.707031 C 2.316406 -9.707031 0.59375 -8.136719 0.59375 -4.300781 C 0.59375 -1.144531 1.832031 0.191406 3.957031 0.191406 C 5.886719 0.191406 7.320312 -1.171875 7.320312 -3.199219 C 7.320312 -5.089844 6.148438 -6.425781 4.164062 -6.425781 Z M 3.957031 -0.746094 C 2.757812 -0.746094 1.972656 -1.765625 1.972656 -3.089844 C 1.972656 -4.675781 2.882812 -5.488281 3.957031 -5.488281 C 5.40625 -5.488281 6 -4.386719 6 -3.0625 C 6 -1.683594 5.144531 -0.746094 3.957031 -0.746094 Z M 3.957031 -0.746094"/></g><g id="ac"><path d="M 4.234375 -6.273438 C 3.652344 -6.273438 3.183594 -6.148438 2.730469 -5.875 L 2.136719 -5.238281 L 2.566406 -8.550781 L 7.003906 -8.550781 L 7.003906 -9.515625 L 1.597656 -9.515625 L 0.9375 -3.984375 L 2.070312 -3.984375 C 2.539062 -4.964844 3.171875 -5.335938 4.054688 -5.335938 C 5.324219 -5.335938 6.082031 -4.441406 6.082031 -3.007812 C 6.082031 -1.570312 5.253906 -0.746094 4 -0.746094 C 2.8125 -0.746094 2.21875 -1.433594 2 -2.523438 L 1.972656 -2.660156 L 0.785156 -2.660156 L 0.800781 -2.523438 C 0.980469 -0.730469 2.097656 0.191406 4.011719 0.191406 C 5.777344 0.191406 7.40625 -0.992188 7.40625 -3.089844 C 7.40625 -4.894531 6.355469 -6.273438 4.234375 -6.273438 Z M 4.234375 -6.273438"/></g><g id="ar"><path d="M 5.460938 -5.0625 C 6.453125 -5.351562 7.144531 -6.207031 7.144531 -7.292969 C 7.144531 -8.730469 6.039062 -9.707031 4.289062 -9.707031 C 2.359375 -9.707031 1.1875 -8.632812 1.007812 -6.910156 L 0.992188 -6.769531 L 2.179688 -6.769531 L 2.191406 -6.910156 C 2.316406 -8.164062 3.128906 -8.769531 4.136719 -8.769531 C 5.144531 -8.769531 5.820312 -8.109375 5.820312 -7.15625 C 5.820312 -5.957031 4.910156 -5.296875 3.777344 -5.296875 L 3.542969 -5.296875 L 3.542969 -4.328125 L 3.777344 -4.328125 C 5.324219 -4.328125 6.039062 -3.695312 6.039062 -2.578125 C 6.039062 -1.421875 5.199219 -0.746094 4.027344 -0.746094 C 2.867188 -0.746094 1.957031 -1.335938 1.820312 -2.675781 L 1.804688 -2.8125 L 0.621094 -2.8125 L 0.632812 -2.675781 C 0.839844 -0.621094 2.109375 0.191406 3.917969 0.191406 C 5.75 0.191406 7.363281 -0.867188 7.363281 -2.648438 C 7.363281 -3.886719 6.632812 -4.730469 5.460938 -5.0625 Z M 5.460938 -5.0625"/></g><g id="ab"><path d="M 2.605469 -9.652344 C 1.363281 -9.652344 0.566406 -8.8125 0.566406 -7.460938 C 0.566406 -6.121094 1.363281 -5.265625 2.605469 -5.265625 C 3.847656 -5.265625 4.648438 -6.121094 4.648438 -7.460938 C 4.648438 -8.8125 3.847656 -9.652344 2.605469 -9.652344 Z M 2.621094 0 L 8.796875 -9.515625 L 7.597656 -9.515625 L 1.421875 0 Z M 2.605469 -8.824219 C 3.128906 -8.824219 3.488281 -8.355469 3.488281 -7.460938 C 3.488281 -6.578125 3.128906 -6.09375 2.605469 -6.09375 C 2.082031 -6.09375 1.722656 -6.578125 1.722656 -7.460938 C 1.722656 -8.355469 2.082031 -8.824219 2.605469 -8.824219 Z M 7.597656 -4.191406 C 6.355469 -4.191406 5.558594 -3.351562 5.558594 -2 C 5.558594 -0.660156 6.355469 0.191406 7.597656 0.191406 C 8.839844 0.191406 9.636719 -0.660156 9.636719 -2 C 9.636719 -3.351562 8.839844 -4.191406 7.597656 -4.191406 Z M 7.597656 -3.363281 C 8.121094 -3.363281 8.480469 -2.894531 8.480469 -2 C 8.480469 -1.117188 8.121094 -0.632812 7.597656 -0.632812 C 7.074219 -0.632812 6.714844 -1.117188 6.714844 -2 C 6.714844 -2.894531 7.074219 -3.363281 7.597656 -3.363281 Z M 7.597656 -3.363281"/></g><g id="ag"><path d="M 6.136719 -14.746094 C 3.203125 -14.746094 1.027344 -12.671875 1.027344 -9.59375 C 1.027344 -6.722656 2.808594 -4.691406 5.824219 -4.691406 C 6.871094 -4.691406 7.6875 -4.964844 8.460938 -5.613281 L 9.28125 -6.914062 C 9.132812 -2.703125 7.75 -1.132812 5.800781 -1.132812 C 4.335938 -1.132812 3.476562 -1.96875 3.140625 -3.601562 L 3.101562 -3.8125 L 1.171875 -3.8125 L 1.195312 -3.601562 C 1.425781 -1.234375 3.183594 0.292969 5.65625 0.292969 C 8.628906 0.292969 11.25 -2.09375 11.25 -7.917969 C 11.25 -12.714844 9.363281 -14.746094 6.136719 -14.746094 Z M 6.136719 -6.117188 C 3.9375 -6.117188 3.039062 -7.792969 3.039062 -9.804688 C 3.039062 -11.898438 4.335938 -13.320312 6.136719 -13.320312 C 7.960938 -13.320312 9.152344 -11.773438 9.152344 -9.761719 C 9.152344 -7.351562 7.769531 -6.117188 6.136719 -6.117188 Z M 6.136719 -6.117188"/></g><g id="ah"><path d="M 8.296875 -7.6875 C 9.804688 -8.128906 10.851562 -9.425781 10.851562 -11.082031 C 10.851562 -13.257812 9.175781 -14.746094 6.515625 -14.746094 C 3.582031 -14.746094 1.800781 -13.113281 1.527344 -10.496094 L 1.507812 -10.285156 L 3.308594 -10.285156 L 3.332031 -10.496094 C 3.519531 -12.402344 4.753906 -13.320312 6.285156 -13.320312 C 7.8125 -13.320312 8.839844 -12.316406 8.839844 -10.871094 C 8.839844 -9.050781 7.457031 -8.042969 5.738281 -8.042969 L 5.382812 -8.042969 L 5.382812 -6.578125 L 5.738281 -6.578125 C 8.085938 -6.578125 9.175781 -5.613281 9.175781 -3.917969 C 9.175781 -2.15625 7.898438 -1.132812 6.117188 -1.132812 C 4.355469 -1.132812 2.972656 -2.03125 2.765625 -4.0625 L 2.742188 -4.273438 L 0.941406 -4.273438 L 0.964844 -4.0625 C 1.277344 -0.941406 3.203125 0.292969 5.949219 0.292969 C 8.734375 0.292969 11.1875 -1.320312 11.1875 -4.023438 C 11.1875 -5.90625 10.074219 -7.183594 8.296875 -7.6875 Z M 8.296875 -7.6875"/></g><g id="aj"><path d="M 8.503906 -14.453125 L 7.351562 -14.453125 C 6.851562 -14.453125 6.347656 -14.347656 5.78125 -13.992188 L 2.722656 -12.085938 L 2.722656 -10.179688 L 6.703125 -12.546875 L 6.703125 0 L 8.503906 0 Z M 8.503906 -14.453125"/></g><g id="ai"><path d="M 3.957031 -14.664062 C 2.074219 -14.664062 0.859375 -13.386719 0.859375 -11.332031 C 0.859375 -9.300781 2.074219 -8 3.957031 -8 C 5.84375 -8 7.058594 -9.300781 7.058594 -11.332031 C 7.058594 -13.386719 5.84375 -14.664062 3.957031 -14.664062 Z M 3.980469 0 L 13.363281 -14.453125 L 11.542969 -14.453125 L 2.15625 0 Z M 3.957031 -13.40625 C 4.753906 -13.40625 5.300781 -12.695312 5.300781 -11.332031 C 5.300781 -9.992188 4.753906 -9.257812 3.957031 -9.257812 C 3.164062 -9.257812 2.617188 -9.992188 2.617188 -11.332031 C 2.617188 -12.695312 3.164062 -13.40625 3.957031 -13.40625 Z M 11.542969 -6.367188 C 9.65625 -6.367188 8.441406 -5.089844 8.441406 -3.039062 C 8.441406 -1.003906 9.65625 0.292969 11.542969 0.292969 C 13.425781 0.292969 14.640625 -1.003906 14.640625 -3.039062 C 14.640625 -5.089844 13.425781 -6.367188 11.542969 -6.367188 Z M 11.542969 -5.109375 C 12.335938 -5.109375 12.882812 -4.398438 12.882812 -3.039062 C 12.882812 -1.695312 12.335938 -0.964844 11.542969 -0.964844 C 10.746094 -0.964844 10.199219 -1.695312 10.199219 -3.039062 C 10.199219 -4.398438 10.746094 -5.109375 11.542969 -5.109375 Z M 11.542969 -5.109375"/></g><g id="as"><path d="M 4.039062 -9.707031 C 2.109375 -9.707031 0.675781 -8.34375 0.675781 -6.316406 C 0.675781 -4.425781 1.847656 -3.089844 3.832031 -3.089844 C 4.523438 -3.089844 5.0625 -3.269531 5.570312 -3.695312 L 6.109375 -4.550781 C 6.011719 -1.777344 5.101562 -0.746094 3.820312 -0.746094 C 2.855469 -0.746094 2.289062 -1.296875 2.070312 -2.371094 L 2.039062 -2.511719 L 0.773438 -2.511719 L 0.785156 -2.371094 C 0.9375 -0.8125 2.097656 0.191406 3.722656 0.191406 C 5.679688 0.191406 7.40625 -1.378906 7.40625 -5.210938 C 7.40625 -8.371094 6.164062 -9.707031 4.039062 -9.707031 Z M 4.039062 -4.027344 C 2.59375 -4.027344 2 -5.128906 2 -6.453125 C 2 -7.832031 2.855469 -8.769531 4.039062 -8.769531 C 5.242188 -8.769531 6.027344 -7.75 6.027344 -6.425781 C 6.027344 -4.839844 5.117188 -4.027344 4.039062 -4.027344 Z M 4.039062 -4.027344"/></g><g id="at"><path d="M 4.234375 -6.273438 C 3.65625 -6.273438 3.1875 -6.152344 2.730469 -5.875 L 2.136719 -5.242188 L 2.566406 -8.550781 L 7.003906 -8.550781 L 7.003906 -9.515625 L 1.601562 -9.515625 L 0.9375 -3.984375 L 2.070312 -3.984375 C 2.539062 -4.964844 3.171875 -5.335938 4.054688 -5.335938 C 5.324219 -5.335938 6.082031 -4.441406 6.082031 -3.007812 C 6.082031 -1.570312 5.253906 -0.746094 4 -0.746094 C 2.8125 -0.746094 2.21875 -1.433594 2 -2.523438 L 1.972656 -2.660156 L 0.785156 -2.660156 L 0.800781 -2.523438 C 0.980469 -0.730469 2.097656 0.191406 4.011719 0.191406 C 5.777344 0.191406 7.40625 -0.992188 7.40625 -3.089844 C 7.40625 -4.894531 6.355469 -6.273438 4.234375 -6.273438 Z M 4.234375 -6.273438"/></g><g id="au"><path d="M 2.605469 -9.652344 C 1.367188 -9.652344 0.566406 -8.8125 0.566406 -7.460938 C 0.566406 -6.121094 1.367188 -5.269531 2.605469 -5.269531 C 3.847656 -5.269531 4.648438 -6.121094 4.648438 -7.460938 C 4.648438 -8.8125 3.847656 -9.652344 2.605469 -9.652344 Z M 2.621094 0 L 8.796875 -9.515625 L 7.597656 -9.515625 L 1.421875 0 Z M 2.605469 -8.824219 C 3.128906 -8.824219 3.488281 -8.355469 3.488281 -7.460938 C 3.488281 -6.578125 3.128906 -6.09375 2.605469 -6.09375 C 2.082031 -6.09375 1.722656 -6.578125 1.722656 -7.460938 C 1.722656 -8.355469 2.082031 -8.824219 2.605469 -8.824219 Z M 7.597656 -4.191406 C 6.355469 -4.191406 5.558594 -3.351562 5.558594 -2 C 5.558594 -0.660156 6.355469 0.191406 7.597656 0.191406 C 8.839844 0.191406 9.640625 -0.660156 9.640625 -2 C 9.640625 -3.351562 8.839844 -4.191406 7.597656 -4.191406 Z M 7.597656 -3.363281 C 8.121094 -3.363281 8.480469 -2.894531 8.480469 -2 C 8.480469 -1.117188 8.121094 -0.632812 7.597656 -0.632812 C 7.074219 -0.632812 6.714844 -1.117188 6.714844 -2 C 6.714844 -2.894531 7.074219 -3.363281 7.597656 -3.363281 Z M 7.597656 -3.363281"/></g><g id="av"><path d="M 11.058594 0 L 11.023438 -11.921875 L 9.570312 -11.921875 L 9.570312 -5.960938 C 9.570312 -4.5625 9.589844 -2.851562 9.625 -1.453125 L 4.007812 -11.921875 L 1.726562 -11.921875 L 1.726562 0 L 3.214844 0 L 3.214844 -5.960938 C 3.214844 -7.359375 3.195312 -9.070312 3.160156 -10.46875 L 8.777344 0 Z M 11.058594 0"/></g><g id="aw"><path d="M 5.0625 -9.398438 C 1.953125 -9.398438 0.519531 -7.171875 0.519531 -4.578125 C 0.519531 -2.003906 1.953125 0.242188 5.0625 0.242188 C 8.171875 0.242188 9.605469 -2.003906 9.605469 -4.578125 C 9.605469 -7.171875 8.171875 -9.398438 5.0625 -9.398438 Z M 5.0625 -0.898438 C 3.214844 -0.898438 2.140625 -2.4375 2.140625 -4.578125 C 2.140625 -6.738281 3.214844 -8.257812 5.0625 -8.257812 C 6.910156 -8.257812 7.980469 -6.738281 7.980469 -4.578125 C 7.980469 -2.4375 6.910156 -0.898438 5.0625 -0.898438 Z M 5.0625 -0.898438"/></g><g id="ax"><path d="M 3.058594 -7.949219 L 4.769531 -7.949219 L 4.769531 -9.085938 L 3.058594 -9.085938 L 3.058594 -11.214844 L 1.570312 -11.214844 L 1.570312 -9.085938 L 0.34375 -9.085938 L 0.34375 -7.949219 L 1.570312 -7.949219 L 1.570312 -2.609375 C 1.570312 -2.089844 1.570312 -1.710938 1.589844 -1.46875 C 1.675781 -0.328125 2.261719 0.136719 3.402344 0.136719 C 3.816406 0.136719 4.234375 0.121094 4.664062 0.0507812 L 4.664062 -1.035156 C 3.507812 -0.898438 3.144531 -1.089844 3.074219 -1.96875 C 3.058594 -2.210938 3.058594 -2.367188 3.058594 -2.679688 Z M 3.058594 -7.949219"/></g><g id="az"><path d="M 3.9375 -9.398438 C 2.054688 -9.398438 0.777344 -8.398438 0.777344 -6.722656 C 0.777344 -5.113281 2.089844 -4.441406 3.730469 -3.992188 C 5.269531 -3.578125 5.890625 -3.109375 5.890625 -2.230469 C 5.890625 -1.347656 5.097656 -0.898438 4.113281 -0.898438 C 3.058594 -0.898438 2.210938 -1.363281 1.96875 -2.695312 L 0.414062 -2.695312 C 0.691406 -0.621094 2.125 0.242188 4.007812 0.242188 C 5.945312 0.242188 7.410156 -0.621094 7.410156 -2.351562 C 7.410156 -3.90625 6.410156 -4.734375 4.300781 -5.285156 C 3.058594 -5.613281 2.296875 -5.976562 2.296875 -6.894531 C 2.296875 -7.6875 2.78125 -8.257812 3.816406 -8.257812 C 4.890625 -8.257812 5.546875 -7.621094 5.753906 -6.546875 L 7.308594 -6.546875 C 7.117188 -8.222656 5.996094 -9.398438 3.9375 -9.398438 Z M 3.9375 -9.398438"/></g><g id="aA"><path d="M 6.53125 0 L 8.015625 0 C 7.878906 -1.019531 7.84375 -1.640625 7.84375 -2.332031 L 7.84375 -5.769531 C 7.84375 -6.167969 7.828125 -6.617188 7.792969 -6.980469 C 7.636719 -8.484375 6.722656 -9.398438 4.542969 -9.398438 C 2.523438 -9.398438 1.15625 -8.277344 1.019531 -6.324219 L 2.574219 -6.324219 C 2.679688 -7.585938 3.300781 -8.257812 4.542969 -8.257812 C 5.769531 -8.257812 6.253906 -7.707031 6.324219 -6.859375 C 6.359375 -6.511719 6.359375 -6.152344 6.359375 -5.753906 L 6.359375 -5.511719 L 5.769531 -5.511719 C 2.175781 -5.511719 0.621094 -4.441406 0.621094 -2.367188 C 0.621094 -0.671875 1.917969 0.242188 3.578125 0.242188 C 4.457031 0.242188 5.253906 0.105469 5.875 -0.328125 L 6.375 -1.3125 Z M 4.078125 -0.898438 C 2.953125 -0.898438 2.246094 -1.382812 2.246094 -2.488281 C 2.246094 -4.058594 3.835938 -4.597656 6.359375 -4.40625 L 6.359375 -3.472656 C 6.359375 -1.8125 5.460938 -0.898438 4.078125 -0.898438 Z M 4.078125 -0.898438"/></g><g id="aB"><path d="M 2.019531 -12.164062 C 1.484375 -12.164062 1.070312 -11.75 1.070312 -11.214844 C 1.070312 -10.675781 1.484375 -10.261719 2.019531 -10.261719 C 2.558594 -10.261719 2.972656 -10.675781 2.972656 -11.214844 C 2.972656 -11.75 2.558594 -12.164062 2.019531 -12.164062 Z M 2.765625 0 L 2.765625 -9.15625 L 1.277344 -9.15625 L 1.277344 0 Z M 2.765625 0"/></g><g id="aC"><path d="M 4.820312 -9.398438 C 2.523438 -9.398438 0.519531 -7.652344 0.519531 -4.5625 C 0.519531 -1.210938 2.28125 0.242188 4.597656 0.242188 C 6.632812 0.242188 8.15625 -0.792969 8.605469 -2.917969 L 7.050781 -2.917969 C 6.738281 -1.589844 5.890625 -0.898438 4.683594 -0.898438 C 3.316406 -0.898438 2.140625 -2.003906 2.140625 -4.664062 C 2.140625 -7.136719 3.351562 -8.257812 4.785156 -8.257812 C 6.011719 -8.257812 6.808594 -7.550781 7.136719 -6.082031 L 8.691406 -6.082031 C 8.414062 -8.085938 7.015625 -9.398438 4.820312 -9.398438 Z M 4.820312 -9.398438"/></g><g id="aD"><path d="M 2.695312 -12.699219 L 1.210938 -12.699219 L 1.210938 -2.574219 C 1.210938 -2.074219 1.210938 -1.675781 1.226562 -1.363281 C 1.277344 -0.207031 1.917969 0.0703125 2.78125 0.0703125 C 3.128906 0.0703125 3.507812 0.0507812 3.835938 0 L 3.835938 -1.070312 C 3.023438 -0.984375 2.746094 -1.175781 2.710938 -1.761719 C 2.695312 -2.054688 2.695312 -2.351562 2.695312 -2.625 Z M 2.695312 -12.699219"/></g><g id="aE"><path d="M 8.757812 -9.15625 L 7.136719 -9.15625 L 4.421875 -1.105469 L 1.691406 -9.15625 L 0.015625 -9.15625 L 3.664062 0.464844 L 3.542969 0.792969 C 3.074219 2.003906 2.46875 2.402344 1.554688 2.402344 C 1.398438 2.402344 1.242188 2.402344 1.019531 2.382812 L 1.019531 3.59375 C 1.242188 3.628906 1.453125 3.628906 1.78125 3.628906 C 3.265625 3.628906 4.25 2.710938 4.992188 0.777344 Z M 8.757812 -9.15625"/></g><g id="aF"><path d="M 9.277344 -9.15625 L 7.792969 -9.15625 L 7.792969 -7.894531 L 7.1875 -8.792969 C 6.722656 -9.175781 5.753906 -9.398438 4.992188 -9.398438 C 2.625 -9.398438 0.519531 -7.828125 0.519531 -4.441406 C 0.519531 -1.761719 2.003906 0.242188 4.683594 0.242188 C 5.613281 0.242188 6.582031 -0.0507812 7.101562 -0.484375 L 7.792969 -1.46875 L 7.792969 -1.3125 C 7.792969 -1.035156 7.792969 -0.742188 7.773438 -0.3125 C 7.707031 1.453125 6.722656 2.488281 4.90625 2.488281 C 3.335938 2.488281 2.4375 1.710938 2.316406 0.585938 L 2.296875 0.433594 L 0.792969 0.433594 L 0.8125 0.605469 C 1.003906 2.539062 2.296875 3.628906 4.90625 3.628906 C 7.550781 3.628906 9.175781 2.210938 9.261719 -0.464844 C 9.277344 -0.96875 9.277344 -1.675781 9.277344 -2.246094 Z M 4.90625 -0.898438 C 3.074219 -0.898438 2.140625 -2.539062 2.140625 -4.613281 C 2.140625 -7.015625 3.386719 -8.257812 4.992188 -8.257812 C 6.304688 -8.257812 7.792969 -7.359375 7.792969 -4.992188 L 7.792969 -4.492188 C 7.792969 -1.867188 6.425781 -0.898438 4.90625 -0.898438 Z M 4.90625 -0.898438"/></g><g id="aG"><path d="M 8.984375 -6.722656 C 8.847656 -8.328125 7.722656 -9.398438 5.71875 -9.398438 C 4.785156 -9.398438 4.113281 -9.242188 3.335938 -8.636719 L 2.765625 -7.585938 L 2.765625 -9.15625 L 1.277344 -9.15625 L 1.277344 0 L 2.765625 0 L 2.765625 -4.027344 C 2.765625 -7.152344 3.972656 -8.222656 5.40625 -8.222656 C 6.824219 -8.222656 7.410156 -7.429688 7.5 -6.359375 C 7.53125 -5.890625 7.53125 -5.511719 7.53125 -5.046875 L 7.53125 0 L 9.019531 0 L 9.019531 -5.148438 C 9.019531 -5.890625 9.019531 -6.253906 8.984375 -6.722656 Z M 8.984375 -6.722656"/></g><g id="aH"><path d="M 2.886719 -10.917969 C 3.007812 -11.664062 3.75 -11.921875 4.871094 -11.714844 L 4.871094 -12.941406 C 4.5625 -12.992188 4.199219 -13.027344 3.816406 -13.027344 C 2.453125 -13.027344 1.554688 -12.285156 1.398438 -10.953125 C 1.363281 -10.644531 1.347656 -10.195312 1.347656 -9.847656 L 1.347656 -9.085938 L 0.363281 -9.085938 L 0.363281 -7.949219 L 1.347656 -7.949219 L 1.347656 0 L 2.832031 0 L 2.832031 -7.949219 L 4.714844 -7.949219 L 4.714844 -9.085938 L 2.832031 -9.085938 L 2.832031 -9.984375 C 2.832031 -10.246094 2.851562 -10.675781 2.886719 -10.917969 Z M 2.886719 -10.917969"/></g><clipPath id="c"><path d="M0 0H448V450H0z"/></clipPath><clipPath id="e"><path d="M0 0H813V810H0z"/></clipPath><clipPath id="f"><path d="M 894 326.585938 L 913 326.585938 L 913 345 L 894 345 Z M 894 326.585938"/></clipPath><clipPath id="g"><path d="M 882.796875 346 L 924.046875 346 L 924.046875 434 L 882.796875 434 Z M 882.796875 346"/></clipPath><clipPath id="h"><path d="M 1009 326.585938 L 1027 326.585938 L 1027 345 L 1009 345 Z M 1009 326.585938"/></clipPath><clipPath id="k"><path d="M 1 1 L 170.921875 1 L 170.921875 170.601562 L 1 170.601562 Z M 1 1"/></clipPath><clipPath id="j"><path d="M0 0H171V171H0z"/></clipPath><clipPath id="D"><path d="M 1 1 L 171 1 L 171 170.800781 L 1 170.800781 Z M 1 1"/></clipPath><clipPath id="C"><path d="M0 0H172V171H0z"/></clipPath><clipPath id="G"><path d="M 1 1 L 170.640625 1 L 170.640625 171 L 1 171 Z M 1 1"/></clipPath><clipPath id="F"><path d="M0 0H171V172H0z"/></clipPath><clipPath id="I"><path d="M0 0H172V172H0z"/></clipPath><clipPath id="V"><path d="M 674 340.910156 L 683 340.910156 L 683 349 L 674 349 Z M 674 340.910156"/></clipPath><clipPath id="W"><path d="M 669.519531 349 L 688.269531 349 L 688.269531 390 L 669.519531 390 Z M 669.519531 349"/></clipPath><clipPath id="X"><path d="M 727 340.910156 L 736 340.910156 L 736 349 L 727 349 Z M 727 340.910156"/></clipPath><clipPath id="Y"><path d="M 719.34375 349 L 743 349 L 743 390 L 719.34375 390 Z M 719.34375 349"/></clipPath><clipPath id="ad"><path d="M 683 659.046875 L 696 659.046875 L 696 672 L 683 672 Z M 683 659.046875"/></clipPath><clipPath id="ae"><path d="M 675.613281 672 L 704.113281 672 L 704.113281 733 L 675.613281 733 Z M 675.613281 672"/></clipPath><clipPath id="af"><path d="M 763 659.046875 L 776 659.046875 L 776 672 L 763 672 Z M 763 659.046875"/></clipPath><clipPath id="am"><path d="M 0.441406 0.878906 L 35.71875 0.878906 L 35.71875 38.800781 L 0.441406 38.800781 Z M 0.441406 0.878906"/></clipPath><clipPath id="al"><path d="M0 0H36V39H0z"/></clipPath><clipPath id="an"><path d="M 505 510.273438 L 514 510.273438 L 514 519 L 505 519 Z M 505 510.273438"/></clipPath><clipPath id="ao"><path d="M 500.15625 519 L 518.90625 519 L 518.90625 559 L 500.15625 559 Z M 500.15625 519"/></clipPath><clipPath id="ap"><path d="M 557 510.273438 L 567 510.273438 L 567 519 L 557 519 Z M 557 510.273438"/></clipPath><clipPath id="aq"><path d="M 550 519 L 573.980469 519 L 573.980469 559.773438 L 550 559.773438 Z M 550 519"/></clipPath><mask id="b"><g filter="url(#a)"><path fill-opacity=".427" d="M-144 -81H1584V891H-144z"/></g></mask><mask id="d"><g filter="url(#a)"><path fill-opacity=".4" d="M-144 -81H1584V891H-144z"/></g></mask><mask id="i"><g filter="url(#a)"><path fill-opacity=".388" d="M-144 -81H1584V891H-144z"/></g></mask><mask id="B"><g filter="url(#a)"><path fill-opacity=".388" d="M-144 -81H1584V891H-144z"/></g></mask><mask id="E"><g filter="url(#a)"><path fill-opacity=".388" d="M-144 -81H1584V891H-144z"/></g></mask><mask id="H"><g filter="url(#a)"><path fill-opacity=".388" d="M-144 -81H1584V891H-144z"/></g></mask><mask id="ak"><g filter="url(#a)"><path fill-opacity=".427" d="M-144 -81H1584V891H-144z"/></g></mask><filter x="0%" y="0%" width="100%" xmlns:xlink="http://www.w3.org/1999/xlink" xlink:type="simple" xlink:actuate="onLoad" height="100%" id="a" xlink:show="other"><feColorMatrix values="0 0 0 0 1 0 0 0 0 1 0 0 0 0 1 0 0 0 1 0" color-interpolation-filters="sRGB"/></filter></defs><g mask="url(#b)"><g><g clip-path="url(#c)" transform="translate(396 210)"><path fill="#F03612" d="M 223.492188 448.6875 C 163.824219 448.6875 107.636719 425.464844 65.476562 383.210938 C 23.222656 341.050781 0 284.867188 0 225.195312 C 0 165.527344 23.222656 109.339844 65.476562 67.179688 C 107.636719 24.929688 163.824219 1.703125 223.492188 1.703125 C 283.160156 1.703125 339.347656 24.929688 381.507812 67.179688 C 423.757812 109.429688 446.984375 165.527344 446.984375 225.195312 C 446.984375 284.867188 423.757812 341.050781 381.507812 383.210938 C 339.347656 425.464844 283.160156 448.6875 223.492188 448.6875 Z M 223.492188 15.101562 C 167.394531 15.101562 114.605469 36.988281 74.945312 76.648438 C 35.285156 116.308594 13.398438 169.101562 13.398438 225.195312 C 13.398438 281.292969 35.285156 334.082031 74.945312 373.742188 C 114.605469 413.40625 167.394531 435.289062 223.492188 435.289062 C 279.585938 435.289062 332.378906 413.40625 372.039062 373.742188 C 411.699219 334.082031 433.585938 281.292969 433.585938 225.195312 C 433.585938 169.101562 411.699219 116.308594 372.039062 76.648438 C 332.378906 36.988281 279.585938 15.101562 223.492188 15.101562 Z M 223.492188 15.101562"/></g></g></g><g mask="url(#d)"><g><g clip-path="url(#e)" transform="translate(313)"><path fill="#F00" d="M 407 0 C 183.324219 0 2 181.324219 2 405 C 2 628.675781 183.324219 810 407 810 C 630.675781 810 812 628.675781 812 405 C 812 181.324219 630.675781 0 407 0 Z M 407 0"/></g></g></g><g clip-path="url(#f)"><path fill="#FFFDFD" d="M 903.46875 344.335938 C 908.332031 344.335938 912.277344 340.367188 912.277344 335.472656 C 912.277344 330.578125 908.332031 326.609375 903.46875 326.609375 C 898.605469 326.609375 894.664062 330.578125 894.664062 335.472656 C 894.664062 340.367188 898.605469 344.335938 903.46875 344.335938"/></g><g clip-path="url(#g)"><path fill="#FFFDFD" d="M 894.046875 346.292969 C 887.808594 346.292969 882.792969 351.414062 882.792969 357.796875 L 882.792969 385.011719 C 882.792969 390.300781 890.488281 390.300781 890.488281 385.011719 L 890.488281 360.128906 L 892.308594 360.128906 L 892.308594 428.257812 C 892.308594 435.332031 902.554688 435.125 902.554688 428.257812 L 902.554688 388.707031 L 904.316406 388.707031 L 904.316406 428.257812 C 904.316406 435.125 914.617188 435.332031 914.617188 428.257812 L 914.617188 360.128906 L 916.398438 360.128906 L 916.398438 385.011719 C 916.398438 390.34375 924.050781 390.34375 924.035156 385.011719 L 924.035156 357.960938 C 924.035156 352.074219 919.492188 346.304688 912.644531 346.304688 L 894.046875 346.292969"/></g><g clip-path="url(#h)"><path fill="#FFFDFD" d="M 1017.976562 344.136719 C 1022.808594 344.125 1026.707031 340.214844 1026.695312 335.390625 C 1026.707031 330.570312 1022.808594 326.660156 1017.976562 326.644531 C 1013.195312 326.660156 1009.296875 330.570312 1009.3125 335.390625 C 1009.296875 340.214844 1013.195312 344.125 1017.976562 344.136719"/></g><path fill="#FFFDFD" d="M 1016.722656 399.550781 L 1016.722656 429.769531 C 1016.71875 435.269531 1008.511719 435.269531 1008.527344 429.769531 L 1008.527344 399.761719 L 997.460938 399.761719 L 1009.257812 358.699219 L 1007.433594 358.699219 L 1000.59375 381.847656 C 998.953125 386.90625 992.046875 384.832031 993.652344 379.4375 L 1001.21875 354.300781 C 1002.054688 351.425781 1005.667969 346.34375 1011.921875 346.339844 L 1023.875 346.339844 C 1030.09375 346.34375 1033.722656 351.46875 1034.683594 354.300781 L 1042.25 379.386719 C 1043.796875 384.804688 1036.945312 387.042969 1035.308594 381.796875 L 1028.46875 358.699219 L 1026.488281 358.699219 L 1038.335938 399.761719 L 1027.320312 399.761719 L 1027.320312 429.824219 C 1027.320312 435.269531 1019.148438 435.242188 1019.125 429.824219 L 1019.125 399.550781 L 1016.722656 399.550781"/><g mask="url(#i)"><g><g clip-path="url(#j)" transform="translate(449 265)"><g clip-path="url(#k)"><path fill="#FFFDFD" d="M 86.058594 1.011719 C 39.25 1.011719 1.308594 38.957031 1.308594 85.761719 C 1.308594 132.566406 39.25 170.511719 86.058594 170.511719 C 132.863281 170.511719 170.808594 132.566406 170.808594 85.761719 C 170.808594 38.957031 132.863281 1.011719 86.058594 1.011719 Z M 86.058594 1.011719"/></g></g></g></g><g fill="#FFF"><use x="873.478" y="477.761" xmlns:xlink="http://www.w3.org/1999/xlink" xlink:href="#l" xlink:type="simple" xlink:actuate="onLoad" xlink:show="embed"/></g><g fill="#FFF"><use x="892.376" y="477.761" xmlns:xlink="http://www.w3.org/1999/xlink" xlink:href="#m" xlink:type="simple" xlink:actuate="onLoad" xlink:show="embed"/></g><g fill="#FFF"><use x="911.273" y="477.761" xmlns:xlink="http://www.w3.org/1999/xlink" xlink:href="#n" xlink:type="simple" xlink:actuate="onLoad" xlink:show="embed"/></g><g fill="#FFF"><use x="987.94" y="477.761" xmlns:xlink="http://www.w3.org/1999/xlink" xlink:href="#l" xlink:type="simple" xlink:actuate="onLoad" xlink:show="embed"/></g><g fill="#FFF"><use x="1006.838" y="477.761" xmlns:xlink="http://www.w3.org/1999/xlink" xlink:href="#o" xlink:type="simple" xlink:actuate="onLoad" xlink:show="embed"/></g><g fill="#FFF"><use x="1025.735" y="477.761" xmlns:xlink="http://www.w3.org/1999/xlink" xlink:href="#n" xlink:type="simple" xlink:actuate="onLoad" xlink:show="embed"/></g><g fill="#FFF"><use x="473.921" y="150.229" xmlns:xlink="http://www.w3.org/1999/xlink" xlink:href="#p" xlink:type="simple" xlink:actuate="onLoad" xlink:show="embed"/></g><g fill="#FFF"><use x="506.534" y="150.229" xmlns:xlink="http://www.w3.org/1999/xlink" xlink:href="#q" xlink:type="simple" xlink:actuate="onLoad" xlink:show="embed"/></g><g fill="#FFF"><use x="533.834" y="150.229" xmlns:xlink="http://www.w3.org/1999/xlink" xlink:href="#r" xlink:type="simple" xlink:actuate="onLoad" xlink:show="embed"/></g><g fill="#FFF"><use x="566.792" y="150.229" xmlns:xlink="http://www.w3.org/1999/xlink" xlink:href="#q" xlink:type="simple" xlink:actuate="onLoad" xlink:show="embed"/></g><g fill="#FFF"><use x="594.092" y="150.229" xmlns:xlink="http://www.w3.org/1999/xlink" xlink:href="#s" xlink:type="simple" xlink:actuate="onLoad" xlink:show="embed"/></g><g fill="#FFF"><use x="622.775" y="150.229" xmlns:xlink="http://www.w3.org/1999/xlink" xlink:href="#t" xlink:type="simple" xlink:actuate="onLoad" xlink:show="embed"/></g><g fill="#FFF"><use x="652.321" y="150.229" xmlns:xlink="http://www.w3.org/1999/xlink" xlink:href="#u" xlink:type="simple" xlink:actuate="onLoad" xlink:show="embed"/></g><g fill="#FFF"><use x="679.102" y="150.229" xmlns:xlink="http://www.w3.org/1999/xlink" xlink:href="#v" xlink:type="simple" xlink:actuate="onLoad" xlink:show="embed"/></g><g fill="#FFF"><use x="690.377" y="150.229" xmlns:xlink="http://www.w3.org/1999/xlink" xlink:href="#w" xlink:type="simple" xlink:actuate="onLoad" xlink:show="embed"/></g><g fill="#FFF"><use x="718.152" y="150.229" xmlns:xlink="http://www.w3.org/1999/xlink" xlink:href="#x" xlink:type="simple" xlink:actuate="onLoad" xlink:show="embed"/></g><g fill="#FFF"><use x="751.931" y="150.229" xmlns:xlink="http://www.w3.org/1999/xlink" xlink:href="#w" xlink:type="simple" xlink:actuate="onLoad" xlink:show="embed"/></g><g fill="#FFF"><use x="779.706" y="150.229" xmlns:xlink="http://www.w3.org/1999/xlink" xlink:href="#y" xlink:type="simple" xlink:actuate="onLoad" xlink:show="embed"/></g><g fill="#FFF"><use x="811.11" y="150.229" xmlns:xlink="http://www.w3.org/1999/xlink" xlink:href="#u" xlink:type="simple" xlink:actuate="onLoad" xlink:show="embed"/></g><g fill="#FFF"><use x="837.891" y="150.229" xmlns:xlink="http://www.w3.org/1999/xlink" xlink:href="#t" xlink:type="simple" xlink:actuate="onLoad" xlink:show="embed"/></g><g fill="#FFF"><use x="867.437" y="150.229" xmlns:xlink="http://www.w3.org/1999/xlink" xlink:href="#z" xlink:type="simple" xlink:actuate="onLoad" xlink:show="embed"/></g><g fill="#FFF"><use x="895.817" y="150.229" xmlns:xlink="http://www.w3.org/1999/xlink" xlink:href="#A" xlink:type="simple" xlink:actuate="onLoad" xlink:show="embed"/></g><g fill="#FFF"><use x="909.165" y="150.229" xmlns:xlink="http://www.w3.org/1999/xlink" xlink:href="#x" xlink:type="simple" xlink:actuate="onLoad" xlink:show="embed"/></g><g fill="#FFF"><use x="942.944" y="150.229" xmlns:xlink="http://www.w3.org/1999/xlink" xlink:href="#r" xlink:type="simple" xlink:actuate="onLoad" xlink:show="embed"/></g><g mask="url(#B)"><g><g clip-path="url(#C)" transform="translate(619 260)"><g clip-path="url(#D)"><path fill="#FFFDFD" d="M 86.15625 1.226562 C 39.351562 1.226562 1.40625 39.167969 1.40625 85.976562 C 1.40625 132.78125 39.351562 170.726562 86.15625 170.726562 C 132.964844 170.726562 170.90625 132.78125 170.90625 85.976562 C 170.90625 39.167969 132.964844 1.226562 86.15625 1.226562 Z M 86.15625 1.226562"/></g></g></g></g><g mask="url(#E)"><g><g clip-path="url(#F)" transform="translate(450 434)"><g clip-path="url(#G)"><path fill="#FFFDFD" d="M 85.792969 1.375 C 38.988281 1.375 1.042969 39.320312 1.042969 86.125 C 1.042969 132.929688 38.988281 170.875 85.792969 170.875 C 132.597656 170.875 170.542969 132.929688 170.542969 86.125 C 170.542969 39.320312 132.597656 1.375 85.792969 1.375 Z M 85.792969 1.375"/></g></g></g></g><g mask="url(#H)"><g><g clip-path="url(#I)" transform="translate(619 434)"><path fill="#FFFDFD" d="M 86.15625 1.375 C 39.351562 1.375 1.40625 39.320312 1.40625 86.125 C 1.40625 132.929688 39.351562 170.875 86.15625 170.875 C 132.964844 170.875 170.90625 132.929688 170.90625 86.125 C 170.90625 39.320312 132.964844 1.375 86.15625 1.375 Z M 86.15625 1.375"/></g></g></g><g fill="#FFF"><use x="494.664" y="317.605" xmlns:xlink="http://www.w3.org/1999/xlink" xlink:href="#J" xlink:type="simple" xlink:actuate="onLoad" xlink:show="embed"/></g><g fill="#FFF"><use x="510.177" y="317.605" xmlns:xlink="http://www.w3.org/1999/xlink" xlink:href="#K" xlink:type="simple" xlink:actuate="onLoad" xlink:show="embed"/></g><g fill="#FFF"><use x="525.236" y="317.605" xmlns:xlink="http://www.w3.org/1999/xlink" xlink:href="#L" xlink:type="simple" xlink:actuate="onLoad" xlink:show="embed"/></g><g fill="#FFF"><use x="540.137" y="317.605" xmlns:xlink="http://www.w3.org/1999/xlink" xlink:href="#M" xlink:type="simple" xlink:actuate="onLoad" xlink:show="embed"/></g><g fill="#FFF"><use x="547.145" y="317.605" xmlns:xlink="http://www.w3.org/1999/xlink" xlink:href="#N" xlink:type="simple" xlink:actuate="onLoad" xlink:show="embed"/></g><g fill="#FFF"><use x="561.433" y="317.605" xmlns:xlink="http://www.w3.org/1999/xlink" xlink:href="#L" xlink:type="simple" xlink:actuate="onLoad" xlink:show="embed"/></g><g fill="#FFF"><use x="469.5" y="492.584" xmlns:xlink="http://www.w3.org/1999/xlink" xlink:href="#O" xlink:type="simple" xlink:actuate="onLoad" xlink:show="embed"/></g><g fill="#FFF"><use x="484.083" y="492.584" xmlns:xlink="http://www.w3.org/1999/xlink" xlink:href="#P" xlink:type="simple" xlink:actuate="onLoad" xlink:show="embed"/></g><g fill="#FFF"><use x="501.819" y="492.584" xmlns:xlink="http://www.w3.org/1999/xlink" xlink:href="#Q" xlink:type="simple" xlink:actuate="onLoad" xlink:show="embed"/></g><g fill="#FFF"><use x="515.88" y="492.584" xmlns:xlink="http://www.w3.org/1999/xlink" xlink:href="#M" xlink:type="simple" xlink:actuate="onLoad" xlink:show="embed"/></g><g fill="#FFF"><use x="522.888" y="492.584" xmlns:xlink="http://www.w3.org/1999/xlink" xlink:href="#L" xlink:type="simple" xlink:actuate="onLoad" xlink:show="embed"/></g><g fill="#FFF"><use x="537.789" y="492.584" xmlns:xlink="http://www.w3.org/1999/xlink" xlink:href="#M" xlink:type="simple" xlink:actuate="onLoad" xlink:show="embed"/></g><g fill="#FFF"><use x="544.797" y="492.584" xmlns:xlink="http://www.w3.org/1999/xlink" xlink:href="#R" xlink:type="simple" xlink:actuate="onLoad" xlink:show="embed"/></g><g fill="#FFF"><use x="561.671" y="492.584" xmlns:xlink="http://www.w3.org/1999/xlink" xlink:href="#M" xlink:type="simple" xlink:actuate="onLoad" xlink:show="embed"/></g><g fill="#FFF"><use x="568.679" y="492.584" xmlns:xlink="http://www.w3.org/1999/xlink" xlink:href="#J" xlink:type="simple" xlink:actuate="onLoad" xlink:show="embed"/></g><g fill="#FFF"><use x="584.192" y="492.584" xmlns:xlink="http://www.w3.org/1999/xlink" xlink:href="#S" xlink:type="simple" xlink:actuate="onLoad" xlink:show="embed"/></g><g fill="#FFF"><use x="645.143" y="317.605" xmlns:xlink="http://www.w3.org/1999/xlink" xlink:href="#N" xlink:type="simple" xlink:actuate="onLoad" xlink:show="embed"/></g><g fill="#FFF"><use x="659.432" y="317.605" xmlns:xlink="http://www.w3.org/1999/xlink" xlink:href="#R" xlink:type="simple" xlink:actuate="onLoad" xlink:show="embed"/></g><g fill="#FFF"><use x="676.305" y="317.605" xmlns:xlink="http://www.w3.org/1999/xlink" xlink:href="#M" xlink:type="simple" xlink:actuate="onLoad" xlink:show="embed"/></g><g fill="#FFF"><use x="683.314" y="317.605" xmlns:xlink="http://www.w3.org/1999/xlink" xlink:href="#T" xlink:type="simple" xlink:actuate="onLoad" xlink:show="embed"/></g><g fill="#FFF"><use x="697.647" y="317.605" xmlns:xlink="http://www.w3.org/1999/xlink" xlink:href="#S" xlink:type="simple" xlink:actuate="onLoad" xlink:show="embed"/></g><g fill="#FFF"><use x="714.952" y="317.605" xmlns:xlink="http://www.w3.org/1999/xlink" xlink:href="#L" xlink:type="simple" xlink:actuate="onLoad" xlink:show="embed"/></g><g fill="#FFF"><use x="729.853" y="317.605" xmlns:xlink="http://www.w3.org/1999/xlink" xlink:href="#M" xlink:type="simple" xlink:actuate="onLoad" xlink:show="embed"/></g><g fill="#FFF"><use x="736.861" y="317.605" xmlns:xlink="http://www.w3.org/1999/xlink" xlink:href="#N" xlink:type="simple" xlink:actuate="onLoad" xlink:show="embed"/></g><g fill="#FFF"><use x="751.149" y="317.605" xmlns:xlink="http://www.w3.org/1999/xlink" xlink:href="#L" xlink:type="simple" xlink:actuate="onLoad" xlink:show="embed"/></g><g fill="#FFF"><use x="635.176" y="493.367" xmlns:xlink="http://www.w3.org/1999/xlink" xlink:href="#T" xlink:type="simple" xlink:actuate="onLoad" xlink:show="embed"/></g><g fill="#FFF"><use x="649.51" y="493.367" xmlns:xlink="http://www.w3.org/1999/xlink" xlink:href="#R" xlink:type="simple" xlink:actuate="onLoad" xlink:show="embed"/></g><g fill="#FFF"><use x="666.384" y="493.367" xmlns:xlink="http://www.w3.org/1999/xlink" xlink:href="#P" xlink:type="simple" xlink:actuate="onLoad" xlink:show="embed"/></g><g fill="#FFF"><use x="684.12" y="493.367" xmlns:xlink="http://www.w3.org/1999/xlink" xlink:href="#S" xlink:type="simple" xlink:actuate="onLoad" xlink:show="embed"/></g><g fill="#FFF"><use x="701.425" y="493.367" xmlns:xlink="http://www.w3.org/1999/xlink" xlink:href="#P" xlink:type="simple" xlink:actuate="onLoad" xlink:show="embed"/></g><g fill="#FFF"><use x="719.16" y="493.367" xmlns:xlink="http://www.w3.org/1999/xlink" xlink:href="#U" xlink:type="simple" xlink:actuate="onLoad" xlink:show="embed"/></g><g fill="#FFF"><use x="739.822" y="493.367" xmlns:xlink="http://www.w3.org/1999/xlink" xlink:href="#M" xlink:type="simple" xlink:actuate="onLoad" xlink:show="embed"/></g><g fill="#FFF"><use x="746.83" y="493.367" xmlns:xlink="http://www.w3.org/1999/xlink" xlink:href="#N" xlink:type="simple" xlink:actuate="onLoad" xlink:show="embed"/></g><g fill="#FFF"><use x="761.118" y="493.367" xmlns:xlink="http://www.w3.org/1999/xlink" xlink:href="#L" xlink:type="simple" xlink:actuate="onLoad" xlink:show="embed"/></g><g clip-path="url(#V)"><path fill="#FFFDFD" d="M 678.914062 348.988281 C 681.125 348.988281 682.917969 347.183594 682.917969 344.953125 C 682.917969 342.726562 681.125 340.921875 678.914062 340.921875 C 676.703125 340.921875 674.914062 342.726562 674.914062 344.953125 C 674.914062 347.183594 676.703125 348.988281 678.914062 348.988281"/></g><g clip-path="url(#W)"><path fill="#FFFDFD" d="M 674.632812 349.878906 C 671.796875 349.878906 669.519531 352.210938 669.519531 355.117188 L 669.519531 367.503906 C 669.519531 369.910156 673.015625 369.910156 673.015625 367.503906 L 673.015625 356.175781 L 673.84375 356.175781 L 673.84375 387.1875 C 673.84375 390.40625 678.5 390.3125 678.5 387.1875 L 678.5 369.1875 L 679.300781 369.1875 L 679.300781 387.1875 C 679.300781 390.3125 683.984375 390.40625 683.984375 387.1875 L 683.984375 356.175781 L 684.792969 356.175781 L 684.792969 367.503906 C 684.792969 369.929688 688.269531 369.929688 688.261719 367.503906 L 688.261719 355.191406 C 688.261719 352.511719 686.199219 349.886719 683.085938 349.886719 L 674.632812 349.878906"/></g><g clip-path="url(#X)"><path fill="#FFFDFD" d="M 731.367188 348.898438 C 733.605469 348.890625 735.414062 347.113281 735.410156 344.917969 C 735.414062 342.722656 733.605469 340.941406 731.367188 340.9375 C 729.148438 340.941406 727.339844 342.722656 727.347656 344.917969 C 727.339844 347.113281 729.148438 348.890625 731.367188 348.898438"/></g><g clip-path="url(#Y)"><path fill="#FFFDFD" d="M 730.785156 374.121094 L 730.785156 387.875 C 730.78125 390.378906 726.976562 390.378906 726.984375 387.875 L 726.984375 374.214844 L 721.851562 374.214844 L 727.324219 355.527344 L 726.476562 355.527344 L 723.304688 366.0625 C 722.542969 368.363281 719.339844 367.421875 720.082031 364.964844 L 723.59375 353.523438 C 723.980469 352.214844 725.65625 349.902344 728.558594 349.898438 L 734.101562 349.898438 C 736.984375 349.902344 738.667969 352.234375 739.113281 353.523438 L 742.625 364.941406 C 743.339844 367.410156 740.164062 368.425781 739.402344 366.039062 L 736.230469 355.527344 L 735.3125 355.527344 L 740.808594 374.214844 L 735.699219 374.214844 L 735.699219 387.902344 C 735.699219 390.378906 731.910156 390.367188 731.898438 387.902344 L 731.898438 374.121094 L 730.785156 374.121094"/></g><g fill="#FFF"><use x="665.476" y="409.85" xmlns:xlink="http://www.w3.org/1999/xlink" xlink:href="#Z" xlink:type="simple" xlink:actuate="onLoad" xlink:show="embed"/></g><g fill="#FFF"><use x="673.887" y="409.85" xmlns:xlink="http://www.w3.org/1999/xlink" xlink:href="#aa" xlink:type="simple" xlink:actuate="onLoad" xlink:show="embed"/></g><g fill="#FFF"><use x="682.298" y="409.85" xmlns:xlink="http://www.w3.org/1999/xlink" xlink:href="#ab" xlink:type="simple" xlink:actuate="onLoad" xlink:show="embed"/></g><g fill="#FFF"><use x="717.674" y="409.85" xmlns:xlink="http://www.w3.org/1999/xlink" xlink:href="#Z" xlink:type="simple" xlink:actuate="onLoad" xlink:show="embed"/></g><g fill="#FFF"><use x="726.085" y="409.85" xmlns:xlink="http://www.w3.org/1999/xlink" xlink:href="#ac" xlink:type="simple" xlink:actuate="onLoad" xlink:show="embed"/></g><g fill="#FFF"><use x="734.496" y="409.85" xmlns:xlink="http://www.w3.org/1999/xlink" xlink:href="#ab" xlink:type="simple" xlink:actuate="onLoad" xlink:show="embed"/></g><g clip-path="url(#ad)"><path fill="#FFFDFD" d="M 689.894531 671.285156 C 693.253906 671.285156 695.976562 668.546875 695.976562 665.171875 C 695.976562 661.792969 693.253906 659.058594 689.894531 659.058594 C 686.535156 659.058594 683.808594 661.792969 683.808594 665.171875 C 683.808594 668.546875 686.535156 671.285156 689.894531 671.285156"/></g><g clip-path="url(#ae)"><path fill="#FFFDFD" d="M 683.382812 672.636719 C 679.074219 672.636719 675.609375 676.164062 675.609375 680.570312 L 675.609375 699.339844 C 675.609375 702.988281 680.925781 702.988281 680.925781 699.339844 L 680.925781 682.175781 L 682.183594 682.175781 L 682.183594 729.167969 C 682.183594 734.046875 689.261719 733.902344 689.261719 729.167969 L 689.261719 701.886719 L 690.480469 701.886719 L 690.480469 729.167969 C 690.480469 733.902344 697.597656 734.046875 697.597656 729.167969 L 697.597656 682.175781 L 698.824219 682.175781 L 698.824219 699.339844 C 698.824219 703.015625 704.113281 703.015625 704.101562 699.339844 L 704.101562 680.679688 C 704.101562 676.621094 700.964844 672.644531 696.234375 672.644531 L 683.382812 672.636719"/></g><g clip-path="url(#af)"><path fill="#FFFDFD" d="M 769.332031 671.148438 C 772.691406 671.140625 775.402344 668.441406 775.398438 665.117188 C 775.402344 661.789062 772.691406 659.09375 769.332031 659.085938 C 766.003906 659.09375 763.292969 661.789062 763.304688 665.117188 C 763.292969 668.441406 766.003906 671.140625 769.332031 671.148438"/></g><path fill="#FFFDFD" d="M 768.460938 709.367188 L 768.460938 730.207031 C 768.457031 734 762.746094 734 762.757812 730.207031 L 762.757812 709.511719 L 755.0625 709.511719 L 763.269531 681.191406 L 761.996094 681.191406 L 757.238281 697.15625 C 756.097656 700.644531 751.292969 699.214844 752.410156 695.496094 L 757.675781 678.15625 C 758.253906 676.171875 760.769531 672.667969 765.121094 672.664062 L 773.4375 672.664062 C 777.761719 672.667969 780.285156 676.203125 780.953125 678.15625 L 786.21875 695.457031 C 787.292969 699.195312 782.527344 700.738281 781.390625 697.121094 L 776.632812 681.191406 L 775.25 681.191406 L 783.496094 709.511719 L 775.832031 709.511719 L 775.832031 730.242188 C 775.832031 734 770.148438 733.980469 770.132812 730.242188 L 770.132812 709.367188 L 768.460938 709.367188"/><g fill="#FFF"><use x="669.155" y="763.771" xmlns:xlink="http://www.w3.org/1999/xlink" xlink:href="#ag" xlink:type="simple" xlink:actuate="onLoad" xlink:show="embed"/></g><g fill="#FFF"><use x="682.246" y="763.771" xmlns:xlink="http://www.w3.org/1999/xlink" xlink:href="#ah" xlink:type="simple" xlink:actuate="onLoad" xlink:show="embed"/></g><g fill="#FFF"><use x="695.338" y="763.771" xmlns:xlink="http://www.w3.org/1999/xlink" xlink:href="#ai" xlink:type="simple" xlink:actuate="onLoad" xlink:show="embed"/></g><g fill="#FFF"><use x="748.449" y="763.771" xmlns:xlink="http://www.w3.org/1999/xlink" xlink:href="#ag" xlink:type="simple" xlink:actuate="onLoad" xlink:show="embed"/></g><g fill="#FFF"><use x="761.54" y="763.771" xmlns:xlink="http://www.w3.org/1999/xlink" xlink:href="#aj" xlink:type="simple" xlink:actuate="onLoad" xlink:show="embed"/></g><g fill="#FFF"><use x="774.631" y="763.771" xmlns:xlink="http://www.w3.org/1999/xlink" xlink:href="#ai" xlink:type="simple" xlink:actuate="onLoad" xlink:show="embed"/></g><g mask="url(#ak)"><g><g clip-path="url(#al)" transform="translate(703 626)"><g clip-path="url(#am)"><path stroke-linecap="round" transform="matrix(-2.84523 -5.26998 5.21851 -2.81744 25.132 33.072)" fill="none" d="M 2.999947 0.000236156 L 3.759009 0.000150093" stroke="#F03612"/></g><path stroke-linecap="round" transform="matrix(-2.84523 -5.26998 5.21851 -2.81744 25.132 33.072)" fill="#F03612" stroke-linejoin="round" d="M 2.499721 -1.500097 L 0.499807 0.000199845 L 2.499781 1.500073 Z M 2.499721 -1.500097" stroke="#F03612"/></g></g></g><g clip-path="url(#an)"><path fill="#FFFDFD" d="M 509.550781 518.351562 C 511.761719 518.351562 513.554688 516.546875 513.554688 514.316406 C 513.554688 512.089844 511.761719 510.285156 509.550781 510.285156 C 507.339844 510.285156 505.550781 512.089844 505.550781 514.316406 C 505.550781 516.546875 507.339844 518.351562 509.550781 518.351562"/></g><g clip-path="url(#ao)"><path fill="#FFFDFD" d="M 505.269531 519.246094 C 502.433594 519.246094 500.152344 521.574219 500.152344 524.480469 L 500.152344 536.867188 C 500.152344 539.273438 503.652344 539.273438 503.652344 536.867188 L 503.652344 525.539062 L 504.480469 525.539062 L 504.480469 556.550781 C 504.480469 559.769531 509.136719 559.675781 509.136719 556.550781 L 509.136719 538.550781 L 509.9375 538.550781 L 509.9375 556.550781 C 509.9375 559.675781 514.621094 559.769531 514.621094 556.550781 L 514.621094 525.539062 L 515.425781 525.539062 L 515.425781 536.867188 C 515.425781 539.292969 518.90625 539.292969 518.898438 536.867188 L 518.898438 524.554688 C 518.898438 521.875 516.835938 519.25 513.722656 519.25 L 505.269531 519.246094"/></g><g clip-path="url(#ap)"><path fill="#FFFDFD" d="M 562.003906 518.261719 C 564.242188 518.253906 566.050781 516.476562 566.046875 514.28125 C 566.050781 512.085938 564.242188 510.304688 562.003906 510.300781 C 559.785156 510.304688 557.976562 512.085938 557.984375 514.28125 C 557.976562 516.476562 559.785156 518.253906 562.003906 518.261719"/></g><g clip-path="url(#aq)"><path fill="#FFFDFD" d="M 561.421875 543.484375 L 561.421875 557.242188 C 561.417969 559.742188 557.613281 559.742188 557.621094 557.242188 L 557.621094 543.578125 L 552.488281 543.578125 L 557.960938 524.890625 L 557.113281 524.890625 L 553.941406 535.425781 C 553.179688 537.730469 549.976562 536.785156 550.71875 534.332031 L 554.230469 522.886719 C 554.617188 521.578125 556.292969 519.265625 559.195312 519.261719 L 564.738281 519.261719 C 567.621094 519.265625 569.304688 521.597656 569.75 522.886719 L 573.257812 534.304688 C 573.976562 536.773438 570.800781 537.789062 570.039062 535.402344 L 566.867188 524.890625 L 565.949219 524.890625 L 571.445312 543.578125 L 566.335938 543.578125 L 566.335938 557.265625 C 566.335938 559.742188 562.546875 559.730469 562.535156 557.265625 L 562.535156 543.484375 L 561.421875 543.484375"/></g><g fill="#FFF"><use x="496.112" y="579.214" xmlns:xlink="http://www.w3.org/1999/xlink" xlink:href="#Z" xlink:type="simple" xlink:actuate="onLoad" xlink:show="embed"/></g><g fill="#FFF"><use x="504.523" y="579.214" xmlns:xlink="http://www.w3.org/1999/xlink" xlink:href="#ar" xlink:type="simple" xlink:actuate="onLoad" xlink:show="embed"/></g><g fill="#FFF"><use x="512.934" y="579.214" xmlns:xlink="http://www.w3.org/1999/xlink" xlink:href="#ab" xlink:type="simple" xlink:actuate="onLoad" xlink:show="embed"/></g><g fill="#FFF"><use x="548.327" y="579.203" xmlns:xlink="http://www.w3.org/1999/xlink" xlink:href="#as" xlink:type="simple" xlink:actuate="onLoad" xlink:show="embed"/></g><g fill="#FFF"><use x="556.739" y="579.203" xmlns:xlink="http://www.w3.org/1999/xlink" xlink:href="#at" xlink:type="simple" xlink:actuate="onLoad" xlink:show="embed"/></g><g fill="#FFF"><use x="565.15" y="579.203" xmlns:xlink="http://www.w3.org/1999/xlink" xlink:href="#au" xlink:type="simple" xlink:actuate="onLoad" xlink:show="embed"/></g><g fill="#FFF"><use x="642.885" y="537.355" xmlns:xlink="http://www.w3.org/1999/xlink" xlink:href="#av" xlink:type="simple" xlink:actuate="onLoad" xlink:show="embed"/></g><g fill="#FFF"><use x="656.066" y="537.355" xmlns:xlink="http://www.w3.org/1999/xlink" xlink:href="#aw" xlink:type="simple" xlink:actuate="onLoad" xlink:show="embed"/></g><g fill="#FFF"><use x="666.967" y="537.355" xmlns:xlink="http://www.w3.org/1999/xlink" xlink:href="#ax" xlink:type="simple" xlink:actuate="onLoad" xlink:show="embed"/></g><g fill="#FFF"><use x="673.152" y="537.355" xmlns:xlink="http://www.w3.org/1999/xlink" xlink:href="#ay" xlink:type="simple" xlink:actuate="onLoad" xlink:show="embed"/></g><g fill="#FFF"><use x="677.661" y="537.355" xmlns:xlink="http://www.w3.org/1999/xlink" xlink:href="#az" xlink:type="simple" xlink:actuate="onLoad" xlink:show="embed"/></g><g fill="#FFF"><use x="686.369" y="537.355" xmlns:xlink="http://www.w3.org/1999/xlink" xlink:href="#ax" xlink:type="simple" xlink:actuate="onLoad" xlink:show="embed"/></g><g fill="#FFF"><use x="692.553" y="537.355" xmlns:xlink="http://www.w3.org/1999/xlink" xlink:href="#aA" xlink:type="simple" xlink:actuate="onLoad" xlink:show="embed"/></g><g fill="#FFF"><use x="702.504" y="537.355" xmlns:xlink="http://www.w3.org/1999/xlink" xlink:href="#ax" xlink:type="simple" xlink:actuate="onLoad" xlink:show="embed"/></g><g fill="#FFF"><use x="708.689" y="537.355" xmlns:xlink="http://www.w3.org/1999/xlink" xlink:href="#aB" xlink:type="simple" xlink:actuate="onLoad" xlink:show="embed"/></g><g fill="#FFF"><use x="713.579" y="537.355" xmlns:xlink="http://www.w3.org/1999/xlink" xlink:href="#az" xlink:type="simple" xlink:actuate="onLoad" xlink:show="embed"/></g><g fill="#FFF"><use x="722.286" y="537.355" xmlns:xlink="http://www.w3.org/1999/xlink" xlink:href="#ax" xlink:type="simple" xlink:actuate="onLoad" xlink:show="embed"/></g><g fill="#FFF"><use x="728.471" y="537.355" xmlns:xlink="http://www.w3.org/1999/xlink" xlink:href="#aC" xlink:type="simple" xlink:actuate="onLoad" xlink:show="embed"/></g><g fill="#FFF"><use x="738.387" y="537.355" xmlns:xlink="http://www.w3.org/1999/xlink" xlink:href="#aA" xlink:type="simple" xlink:actuate="onLoad" xlink:show="embed"/></g><g fill="#FFF"><use x="748.338" y="537.355" xmlns:xlink="http://www.w3.org/1999/xlink" xlink:href="#aD" xlink:type="simple" xlink:actuate="onLoad" xlink:show="embed"/></g><g fill="#FFF"><use x="753.383" y="537.355" xmlns:xlink="http://www.w3.org/1999/xlink" xlink:href="#aD" xlink:type="simple" xlink:actuate="onLoad" xlink:show="embed"/></g><g fill="#FFF"><use x="758.428" y="537.355" xmlns:xlink="http://www.w3.org/1999/xlink" xlink:href="#aE" xlink:type="simple" xlink:actuate="onLoad" xlink:show="embed"/></g><g fill="#FFF"><use x="661.147" y="561.25" xmlns:xlink="http://www.w3.org/1999/xlink" xlink:href="#az" xlink:type="simple" xlink:actuate="onLoad" xlink:show="embed"/></g><g fill="#FFF"><use x="669.855" y="561.25" xmlns:xlink="http://www.w3.org/1999/xlink" xlink:href="#aB" xlink:type="simple" xlink:actuate="onLoad" xlink:show="embed"/></g><g fill="#FFF"><use x="674.744" y="561.25" xmlns:xlink="http://www.w3.org/1999/xlink" xlink:href="#aF" xlink:type="simple" xlink:actuate="onLoad" xlink:show="embed"/></g><g fill="#FFF"><use x="686.146" y="561.25" xmlns:xlink="http://www.w3.org/1999/xlink" xlink:href="#aG" xlink:type="simple" xlink:actuate="onLoad" xlink:show="embed"/></g><g fill="#FFF"><use x="697.168" y="561.25" xmlns:xlink="http://www.w3.org/1999/xlink" xlink:href="#aB" xlink:type="simple" xlink:actuate="onLoad" xlink:show="embed"/></g><g fill="#FFF"><use x="702.057" y="561.25" xmlns:xlink="http://www.w3.org/1999/xlink" xlink:href="#aH" xlink:type="simple" xlink:actuate="onLoad" xlink:show="embed"/></g><g fill="#FFF"><use x="707.845" y="561.25" xmlns:xlink="http://www.w3.org/1999/xlink" xlink:href="#aB" xlink:type="simple" xlink:actuate="onLoad" xlink:show="embed"/></g><g fill="#FFF"><use x="712.734" y="561.25" xmlns:xlink="http://www.w3.org/1999/xlink" xlink:href="#aC" xlink:type="simple" xlink:actuate="onLoad" xlink:show="embed"/></g><g fill="#FFF"><use x="722.651" y="561.25" xmlns:xlink="http://www.w3.org/1999/xlink" xlink:href="#aA" xlink:type="simple" xlink:actuate="onLoad" xlink:show="embed"/></g><g fill="#FFF"><use x="732.602" y="561.25" xmlns:xlink="http://www.w3.org/1999/xlink" xlink:href="#aG" xlink:type="simple" xlink:actuate="onLoad" xlink:show="embed"/></g><g fill="#FFF"><use x="743.624" y="561.25" xmlns:xlink="http://www.w3.org/1999/xlink" xlink:href="#ax" xlink:type="simple" xlink:actuate="onLoad" xlink:show="embed"/></g><g fill="#FFF"><use x="472.785" y="367.19" xmlns:xlink="http://www.w3.org/1999/xlink" xlink:href="#av" xlink:type="simple" xlink:actuate="onLoad" xlink:show="embed"/></g><g fill="#FFF"><use x="485.966" y="367.19" xmlns:xlink="http://www.w3.org/1999/xlink" xlink:href="#aw" xlink:type="simple" xlink:actuate="onLoad" xlink:show="embed"/></g><g fill="#FFF"><use x="496.867" y="367.19" xmlns:xlink="http://www.w3.org/1999/xlink" xlink:href="#ax" xlink:type="simple" xlink:actuate="onLoad" xlink:show="embed"/></g><g fill="#FFF"><use x="503.052" y="367.19" xmlns:xlink="http://www.w3.org/1999/xlink" xlink:href="#ay" xlink:type="simple" xlink:actuate="onLoad" xlink:show="embed"/></g><g fill="#FFF"><use x="507.561" y="367.19" xmlns:xlink="http://www.w3.org/1999/xlink" xlink:href="#az" xlink:type="simple" xlink:actuate="onLoad" xlink:show="embed"/></g><g fill="#FFF"><use x="516.269" y="367.19" xmlns:xlink="http://www.w3.org/1999/xlink" xlink:href="#ax" xlink:type="simple" xlink:actuate="onLoad" xlink:show="embed"/></g><g fill="#FFF"><use x="522.453" y="367.19" xmlns:xlink="http://www.w3.org/1999/xlink" xlink:href="#aA" xlink:type="simple" xlink:actuate="onLoad" xlink:show="embed"/></g><g fill="#FFF"><use x="532.404" y="367.19" xmlns:xlink="http://www.w3.org/1999/xlink" xlink:href="#ax" xlink:type="simple" xlink:actuate="onLoad" xlink:show="embed"/></g><g fill="#FFF"><use x="538.589" y="367.19" xmlns:xlink="http://www.w3.org/1999/xlink" xlink:href="#aB" xlink:type="simple" xlink:actuate="onLoad" xlink:show="embed"/></g><g fill="#FFF"><use x="543.479" y="367.19" xmlns:xlink="http://www.w3.org/1999/xlink" xlink:href="#az" xlink:type="simple" xlink:actuate="onLoad" xlink:show="embed"/></g><g fill="#FFF"><use x="552.186" y="367.19" xmlns:xlink="http://www.w3.org/1999/xlink" xlink:href="#ax" xlink:type="simple" xlink:actuate="onLoad" xlink:show="embed"/></g><g fill="#FFF"><use x="558.371" y="367.19" xmlns:xlink="http://www.w3.org/1999/xlink" xlink:href="#aC" xlink:type="simple" xlink:actuate="onLoad" xlink:show="embed"/></g><g fill="#FFF"><use x="568.287" y="367.19" xmlns:xlink="http://www.w3.org/1999/xlink" xlink:href="#aA" xlink:type="simple" xlink:actuate="onLoad" xlink:show="embed"/></g><g fill="#FFF"><use x="578.238" y="367.19" xmlns:xlink="http://www.w3.org/1999/xlink" xlink:href="#aD" xlink:type="simple" xlink:actuate="onLoad" xlink:show="embed"/></g><g fill="#FFF"><use x="583.283" y="367.19" xmlns:xlink="http://www.w3.org/1999/xlink" xlink:href="#aD" xlink:type="simple" xlink:actuate="onLoad" xlink:show="embed"/></g><g fill="#FFF"><use x="588.328" y="367.19" xmlns:xlink="http://www.w3.org/1999/xlink" xlink:href="#aE" xlink:type="simple" xlink:actuate="onLoad" xlink:show="embed"/></g><g fill="#FFF"><use x="491.047" y="391.085" xmlns:xlink="http://www.w3.org/1999/xlink" xlink:href="#az" xlink:type="simple" xlink:actuate="onLoad" xlink:show="embed"/></g><g fill="#FFF"><use x="499.755" y="391.085" xmlns:xlink="http://www.w3.org/1999/xlink" xlink:href="#aB" xlink:type="simple" xlink:actuate="onLoad" xlink:show="embed"/></g><g fill="#FFF"><use x="504.644" y="391.085" xmlns:xlink="http://www.w3.org/1999/xlink" xlink:href="#aF" xlink:type="simple" xlink:actuate="onLoad" xlink:show="embed"/></g><g fill="#FFF"><use x="516.046" y="391.085" xmlns:xlink="http://www.w3.org/1999/xlink" xlink:href="#aG" xlink:type="simple" xlink:actuate="onLoad" xlink:show="embed"/></g><g fill="#FFF"><use x="527.068" y="391.085" xmlns:xlink="http://www.w3.org/1999/xlink" xlink:href="#aB" xlink:type="simple" xlink:actuate="onLoad" xlink:show="embed"/></g><g fill="#FFF"><use x="531.957" y="391.085" xmlns:xlink="http://www.w3.org/1999/xlink" xlink:href="#aH" xlink:type="simple" xlink:actuate="onLoad" xlink:show="embed"/></g><g fill="#FFF"><use x="537.745" y="391.085" xmlns:xlink="http://www.w3.org/1999/xlink" xlink:href="#aB" xlink:type="simple" xlink:actuate="onLoad" xlink:show="embed"/></g><g fill="#FFF"><use x="542.634" y="391.085" xmlns:xlink="http://www.w3.org/1999/xlink" xlink:href="#aC" xlink:type="simple" xlink:actuate="onLoad" xlink:show="embed"/></g><g fill="#FFF"><use x="552.551" y="391.085" xmlns:xlink="http://www.w3.org/1999/xlink" xlink:href="#aA" xlink:type="simple" xlink:actuate="onLoad" xlink:show="embed"/></g><g fill="#FFF"><use x="562.502" y="391.085" xmlns:xlink="http://www.w3.org/1999/xlink" xlink:href="#aG" xlink:type="simple" xlink:actuate="onLoad" xlink:show="embed"/></g><g fill="#FFF"><use x="573.524" y="391.085" xmlns:xlink="http://www.w3.org/1999/xlink" xlink:href="#ax" xlink:type="simple" xlink:actuate="onLoad" xlink:show="embed"/></g></svg>