<svg xmlns="http://www.w3.org/2000/svg" xmlns:xlink="http://www.w3.org/1999/xlink" width="1440" viewBox="0 0 1440 810" height="810" version="1.0"><defs><g id="n"><path d="M 15.828125 -18.765625 L 15.828125 -16.78125 L 6.828125 0 L 2.75 0 L 11.375 -15.828125 L 1.46875 -15.828125 L 1.46875 -18.765625 Z M 15.828125 -18.765625"/></g><g id="o"><path d="M 8.515625 -19.15625 C 13.378906 -19.15625 15.8125 -15.898438 15.8125 -9.390625 C 15.8125 -2.878906 13.378906 0.375 8.515625 0.375 C 3.640625 0.375 1.203125 -2.878906 1.203125 -9.390625 C 1.203125 -15.898438 3.640625 -19.15625 8.515625 -19.15625 Z M 5.984375 -4.125 C 6.523438 -2.988281 7.367188 -2.421875 8.515625 -2.421875 C 9.660156 -2.421875 10.5 -2.988281 11.03125 -4.125 C 11.5625 -5.257812 11.828125 -7.015625 11.828125 -9.390625 C 11.828125 -11.773438 11.5625 -13.53125 11.03125 -14.65625 C 10.5 -15.78125 9.660156 -16.34375 8.515625 -16.34375 C 7.359375 -16.34375 6.507812 -15.78125 5.96875 -14.65625 C 5.4375 -13.53125 5.171875 -11.773438 5.171875 -9.390625 C 5.171875 -7.015625 5.441406 -5.257812 5.984375 -4.125 Z M 5.984375 -4.125"/></g><g id="p"><path d="M 2.09375 -17.90625 C 2.832031 -18.695312 3.851562 -19.09375 5.15625 -19.09375 C 6.46875 -19.09375 7.5 -18.695312 8.25 -17.90625 C 9.007812 -17.125 9.390625 -16.035156 9.390625 -14.640625 C 9.390625 -13.242188 9.007812 -12.144531 8.25 -11.34375 C 7.5 -10.539062 6.472656 -10.140625 5.171875 -10.140625 C 3.878906 -10.140625 2.859375 -10.539062 2.109375 -11.34375 C 1.359375 -12.144531 0.984375 -13.242188 0.984375 -14.640625 C 0.984375 -16.035156 1.351562 -17.125 2.09375 -17.90625 Z M 5.828125 0 L 2.90625 0 L 15.09375 -18.765625 L 18.015625 -18.765625 Z M 5.171875 -17.109375 C 4.140625 -17.109375 3.625 -16.285156 3.625 -14.640625 C 3.625 -12.960938 4.140625 -12.125 5.171875 -12.125 C 6.222656 -12.125 6.75 -12.960938 6.75 -14.640625 C 6.75 -16.285156 6.222656 -17.109375 5.171875 -17.109375 Z M 12.5 -7.375 C 13.25 -8.164062 14.273438 -8.5625 15.578125 -8.5625 C 16.890625 -8.5625 17.921875 -8.164062 18.671875 -7.375 C 19.421875 -6.59375 19.796875 -5.503906 19.796875 -4.109375 C 19.796875 -2.710938 19.421875 -1.613281 18.671875 -0.8125 C 17.921875 -0.0195312 16.890625 0.375 15.578125 0.375 C 14.273438 0.375 13.25 -0.0195312 12.5 -0.8125 C 11.75 -1.613281 11.375 -2.710938 11.375 -4.109375 C 11.375 -5.503906 11.75 -6.59375 12.5 -7.375 Z M 17.140625 -4.109375 C 17.140625 -5.753906 16.617188 -6.578125 15.578125 -6.578125 C 14.546875 -6.578125 14.03125 -5.753906 14.03125 -4.109375 C 14.03125 -2.441406 14.546875 -1.609375 15.578125 -1.609375 C 16.617188 -1.609375 17.140625 -2.441406 17.140625 -4.109375 Z M 17.140625 -4.109375"/></g><g id="q"><path d="M 7.34375 -2.96875 L 15.28125 -2.96875 L 15.28125 0 L 1.609375 0 L 1.609375 -1.765625 L 7.921875 -7.9375 C 9.242188 -9.25 10.160156 -10.289062 10.671875 -11.0625 C 11.191406 -11.84375 11.453125 -12.671875 11.453125 -13.546875 C 11.453125 -14.398438 11.210938 -15.082031 10.734375 -15.59375 C 10.265625 -16.113281 9.609375 -16.375 8.765625 -16.375 C 7.835938 -16.375 7.132812 -16.085938 6.65625 -15.515625 C 6.175781 -14.941406 5.867188 -14.085938 5.734375 -12.953125 L 5.71875 -12.671875 L 1.984375 -12.671875 L 2.015625 -12.953125 C 2.210938 -14.960938 2.914062 -16.5 4.125 -17.5625 C 5.34375 -18.632812 7.003906 -19.171875 9.109375 -19.171875 C 11.117188 -19.171875 12.671875 -18.679688 13.765625 -17.703125 C 14.867188 -16.722656 15.421875 -15.410156 15.421875 -13.765625 C 15.421875 -12.609375 15.09375 -11.515625 14.4375 -10.484375 C 13.789062 -9.460938 12.585938 -8.085938 10.828125 -6.359375 Z M 7.34375 -2.96875"/></g><g id="r"><path d="M 14.9375 -12.984375 L 25.1875 -12.984375 L 25.1875 0 L 21.09375 0 L 20.765625 -4.125 L 19.625 -1.546875 C 18.21875 -0.171875 16.148438 0.515625 13.421875 0.515625 C 9.878906 0.515625 7.066406 -0.65625 4.984375 -3 C 2.910156 -5.351562 1.875 -8.546875 1.875 -12.578125 C 1.875 -16.660156 3.050781 -19.910156 5.40625 -22.328125 C 7.769531 -24.742188 10.773438 -25.953125 14.421875 -25.953125 C 17.734375 -25.953125 20.320312 -25.144531 22.1875 -23.53125 C 24.0625 -21.925781 25.132812 -19.8125 25.40625 -17.1875 L 25.4375 -16.8125 L 20.359375 -16.8125 L 20.28125 -17.1875 C 19.613281 -20.5 17.632812 -22.15625 14.34375 -22.15625 C 12.25 -22.15625 10.546875 -21.316406 9.234375 -19.640625 C 7.921875 -17.972656 7.265625 -15.71875 7.265625 -12.875 C 7.265625 -9.800781 7.898438 -7.429688 9.171875 -5.765625 C 10.453125 -4.109375 12.128906 -3.28125 14.203125 -3.28125 C 15.847656 -3.28125 17.21875 -3.785156 18.3125 -4.796875 C 19.40625 -5.804688 20.070312 -7.207031 20.3125 -9 L 14.9375 -9 Z M 14.9375 -12.984375"/></g><g id="s"><path d="M 21.640625 -4.015625 L 21.640625 0 L 3.28125 0 L 3.28125 -25.4375 L 21.28125 -25.4375 L 21.28125 -21.46875 L 8.375 -21.46875 L 8.375 -14.75 L 20.359375 -14.75 L 20.359375 -10.734375 L 8.375 -10.734375 L 8.375 -4.015625 Z M 21.640625 -4.015625"/></g><g id="t"><path d="M 25.625 0 L 18.65625 0 L 8.1875 -19.328125 C 8.3125 -17.015625 8.375 -14.40625 8.375 -11.5 L 8.375 0 L 3.28125 0 L 3.28125 -25.4375 L 10.03125 -25.4375 L 20.71875 -5.75 C 20.601562 -8.039062 20.546875 -10.707031 20.546875 -13.75 L 20.546875 -25.4375 L 25.59375 -25.4375 Z M 25.625 0"/></g><g id="u"><path d="M 21.71875 -6.421875 C 22.039062 -3.390625 22.65625 -1.25 23.5625 0 L 18 0 C 17.382812 -1.695312 16.960938 -3.585938 16.734375 -5.671875 C 16.390625 -8.554688 15.25 -10.070312 13.3125 -10.21875 C 12.84375 -10.238281 12.179688 -10.25 11.328125 -10.25 L 8.375 -10.25 L 8.375 0 L 3.28125 0 L 3.28125 -25.4375 L 12.578125 -25.4375 C 13.972656 -25.4375 15.203125 -25.378906 16.265625 -25.265625 C 18.273438 -25.015625 19.890625 -24.34375 21.109375 -23.25 C 22.328125 -22.15625 22.9375 -20.578125 22.9375 -18.515625 C 22.9375 -16.910156 22.492188 -15.585938 21.609375 -14.546875 C 20.722656 -13.503906 19.503906 -12.757812 17.953125 -12.3125 C 20.140625 -11.476562 21.394531 -9.515625 21.71875 -6.421875 Z M 8.375 -14.046875 L 11.875 -14.046875 C 12.882812 -14.046875 13.570312 -14.0625 13.9375 -14.09375 C 16.375 -14.3125 17.59375 -15.523438 17.59375 -17.734375 C 17.59375 -18.890625 17.300781 -19.742188 16.71875 -20.296875 C 16.144531 -20.847656 15.316406 -21.195312 14.234375 -21.34375 C 13.640625 -21.425781 12.925781 -21.46875 12.09375 -21.46875 L 8.375 -21.46875 Z M 8.375 -14.046875"/></g><g id="v"><path d="M 17.078125 -7.671875 L 8.515625 -7.671875 L 5.96875 0 L 0.546875 0 L 9.734375 -25.4375 L 16.109375 -25.4375 L 25.109375 0 L 19.578125 0 Z M 12.828125 -21.09375 L 9.8125 -11.6875 L 15.78125 -11.6875 Z M 12.828125 -21.09375"/></g><g id="w"><path d="M 21.640625 -4.234375 L 21.640625 0 L 3.28125 0 L 3.28125 -25.4375 L 8.375 -25.4375 L 8.375 -4.234375 Z M 21.640625 -4.234375"/></g><g id="y"><path d="M 15.78125 -25.265625 C 17.820312 -25.035156 19.472656 -24.25 20.734375 -22.90625 C 22.003906 -21.570312 22.640625 -19.773438 22.640625 -17.515625 C 22.640625 -15.273438 21.988281 -13.484375 20.6875 -12.140625 C 19.382812 -10.804688 17.75 -10.015625 15.78125 -9.765625 C 14.726562 -9.648438 13.5 -9.59375 12.09375 -9.59375 L 8.375 -9.59375 L 8.375 0 L 3.28125 0 L 3.28125 -25.4375 L 12.09375 -25.4375 C 13.519531 -25.4375 14.75 -25.378906 15.78125 -25.265625 Z M 14.265625 -13.71875 C 16.285156 -14.007812 17.296875 -15.273438 17.296875 -17.515625 C 17.296875 -19.753906 16.285156 -21.019531 14.265625 -21.3125 C 13.703125 -21.382812 12.953125 -21.421875 12.015625 -21.421875 L 8.375 -21.421875 L 8.375 -13.609375 L 12.015625 -13.609375 C 12.953125 -13.609375 13.703125 -13.644531 14.265625 -13.71875 Z M 14.265625 -13.71875"/></g><g id="z"><path d="M 14.453125 -25.953125 C 18.335938 -25.953125 21.40625 -24.753906 23.65625 -22.359375 C 25.90625 -19.960938 27.03125 -16.75 27.03125 -12.71875 C 27.03125 -8.71875 25.90625 -5.507812 23.65625 -3.09375 C 21.40625 -0.6875 18.335938 0.515625 14.453125 0.515625 C 10.566406 0.515625 7.5 -0.6875 5.25 -3.09375 C 3 -5.507812 1.875 -8.71875 1.875 -12.71875 C 1.875 -16.75 2.992188 -19.960938 5.234375 -22.359375 C 7.472656 -24.753906 10.546875 -25.953125 14.453125 -25.953125 Z M 9.125 -5.765625 C 10.414062 -4.109375 12.191406 -3.28125 14.453125 -3.28125 C 16.710938 -3.28125 18.484375 -4.113281 19.765625 -5.78125 C 21.046875 -7.457031 21.6875 -9.769531 21.6875 -12.71875 C 21.6875 -15.695312 21.046875 -18.015625 19.765625 -19.671875 C 18.484375 -21.328125 16.710938 -22.15625 14.453125 -22.15625 C 12.171875 -22.15625 10.390625 -21.328125 9.109375 -19.671875 C 7.828125 -18.015625 7.1875 -15.695312 7.1875 -12.71875 C 7.1875 -9.75 7.832031 -7.429688 9.125 -5.765625 Z M 9.125 -5.765625"/></g><g id="A"><path d="M 23.9375 -25.4375 L 23.9375 -10.359375 C 23.9375 -9.160156 23.910156 -8.164062 23.859375 -7.375 C 23.679688 -5.0625 22.738281 -3.164062 21.03125 -1.6875 C 19.320312 -0.21875 16.796875 0.515625 13.453125 0.515625 C 10.085938 0.515625 7.550781 -0.21875 5.84375 -1.6875 C 4.132812 -3.164062 3.195312 -5.0625 3.03125 -7.375 C 2.976562 -8.164062 2.953125 -9.160156 2.953125 -10.359375 L 2.953125 -25.4375 L 8 -25.4375 L 8 -9.84375 C 8 -8.988281 8.023438 -8.375 8.078125 -8 C 8.203125 -6.5 8.710938 -5.335938 9.609375 -4.515625 C 10.503906 -3.691406 11.785156 -3.28125 13.453125 -3.28125 C 15.109375 -3.28125 16.382812 -3.691406 17.28125 -4.515625 C 18.175781 -5.335938 18.6875 -6.5 18.8125 -8 C 18.851562 -8.375 18.875 -8.988281 18.875 -9.84375 L 18.875 -25.4375 Z M 23.9375 -25.4375"/></g><g id="B"><path d="M 23.1875 -21.46875 L 14.5625 -21.46875 L 14.5625 0 L 9.484375 0 L 9.484375 -21.46875 L 0.84375 -21.46875 L 0.84375 -25.4375 L 23.1875 -25.4375 Z M 23.1875 -21.46875"/></g><g id="C"><path d="M 8.375 0 L 3.28125 0 L 3.28125 -25.4375 L 8.375 -25.4375 Z M 8.375 0"/></g><g id="M"><path d="M 10.328125 -4.640625 L 5.15625 -4.640625 L 3.609375 0 L 0.328125 0 L 5.890625 -15.390625 L 9.75 -15.390625 L 15.1875 0 L 11.84375 0 Z M 7.765625 -12.765625 L 5.9375 -7.078125 L 9.546875 -7.078125 Z M 7.765625 -12.765625"/></g><g id="N"><path d="M 13.140625 -3.875 C 13.335938 -2.050781 13.707031 -0.757812 14.25 0 L 10.890625 0 C 10.515625 -1.03125 10.257812 -2.175781 10.125 -3.4375 C 9.914062 -5.175781 9.226562 -6.09375 8.0625 -6.1875 C 7.769531 -6.195312 7.363281 -6.203125 6.84375 -6.203125 L 5.0625 -6.203125 L 5.0625 0 L 1.984375 0 L 1.984375 -15.390625 L 7.609375 -15.390625 C 8.453125 -15.390625 9.195312 -15.351562 9.84375 -15.28125 C 11.0625 -15.132812 12.035156 -14.726562 12.765625 -14.0625 C 13.503906 -13.40625 13.875 -12.453125 13.875 -11.203125 C 13.875 -10.234375 13.601562 -9.429688 13.0625 -8.796875 C 12.53125 -8.171875 11.796875 -7.722656 10.859375 -7.453125 C 12.191406 -6.941406 12.953125 -5.75 13.140625 -3.875 Z M 5.0625 -8.5 L 7.1875 -8.5 C 7.789062 -8.5 8.207031 -8.503906 8.4375 -8.515625 C 9.90625 -8.648438 10.640625 -9.390625 10.640625 -10.734375 C 10.640625 -11.429688 10.460938 -11.945312 10.109375 -12.28125 C 9.765625 -12.613281 9.265625 -12.828125 8.609375 -12.921875 C 8.253906 -12.960938 7.820312 -12.984375 7.3125 -12.984375 L 5.0625 -12.984375 Z M 5.0625 -8.5"/></g><g id="O"><path d="M 14.03125 -12.984375 L 8.8125 -12.984375 L 8.8125 0 L 5.734375 0 L 5.734375 -12.984375 L 0.515625 -12.984375 L 0.515625 -15.390625 L 14.03125 -15.390625 Z M 14.03125 -12.984375"/></g><g id="P"><path d="M 5.0625 0 L 1.984375 0 L 1.984375 -15.390625 L 5.0625 -15.390625 Z M 5.0625 0"/></g><g id="Q"><path d="M 7.09375 -15.703125 C 8.851562 -15.703125 10.195312 -15.265625 11.125 -14.390625 C 12.050781 -13.515625 12.601562 -12.335938 12.78125 -10.859375 L 9.640625 -10.859375 C 9.546875 -11.671875 9.273438 -12.296875 8.828125 -12.734375 C 8.390625 -13.179688 7.773438 -13.40625 6.984375 -13.40625 C 6.347656 -13.40625 5.828125 -13.25 5.421875 -12.9375 C 5.015625 -12.625 4.8125 -12.171875 4.8125 -11.578125 C 4.8125 -10.921875 5.050781 -10.40625 5.53125 -10.03125 C 6.019531 -9.664062 6.875 -9.34375 8.09375 -9.0625 C 9.78125 -8.675781 11.019531 -8.085938 11.8125 -7.296875 C 12.613281 -6.503906 13.015625 -5.484375 13.015625 -4.234375 C 13.015625 -2.835938 12.460938 -1.726562 11.359375 -0.90625 C 10.253906 -0.09375 8.90625 0.3125 7.3125 0.3125 C 5.4375 0.3125 3.941406 -0.0976562 2.828125 -0.921875 C 1.710938 -1.753906 1.082031 -2.960938 0.9375 -4.546875 L 4.078125 -4.546875 C 4.242188 -3.734375 4.613281 -3.101562 5.1875 -2.65625 C 5.769531 -2.207031 6.46875 -1.984375 7.28125 -1.984375 C 7.988281 -1.984375 8.582031 -2.160156 9.0625 -2.515625 C 9.550781 -2.878906 9.796875 -3.347656 9.796875 -3.921875 C 9.796875 -4.578125 9.5625 -5.101562 9.09375 -5.5 C 8.625 -5.90625 7.832031 -6.242188 6.71875 -6.515625 C 4.988281 -6.929688 3.695312 -7.484375 2.84375 -8.171875 C 2 -8.867188 1.578125 -9.878906 1.578125 -11.203125 C 1.578125 -12.566406 2.113281 -13.65625 3.1875 -14.46875 C 4.257812 -15.289062 5.5625 -15.703125 7.09375 -15.703125 Z M 7.09375 -15.703125"/></g><g id="R"><path d="M 9.546875 -15.28125 C 10.785156 -15.144531 11.785156 -14.671875 12.546875 -13.859375 C 13.316406 -13.054688 13.703125 -11.96875 13.703125 -10.59375 C 13.703125 -9.238281 13.304688 -8.15625 12.515625 -7.34375 C 11.722656 -6.539062 10.734375 -6.0625 9.546875 -5.90625 C 8.910156 -5.832031 8.164062 -5.796875 7.3125 -5.796875 L 5.0625 -5.796875 L 5.0625 0 L 1.984375 0 L 1.984375 -15.390625 L 7.3125 -15.390625 C 8.175781 -15.390625 8.921875 -15.351562 9.546875 -15.28125 Z M 8.640625 -8.296875 C 9.859375 -8.472656 10.46875 -9.238281 10.46875 -10.59375 C 10.46875 -11.945312 9.859375 -12.710938 8.640625 -12.890625 C 8.296875 -12.941406 7.84375 -12.96875 7.28125 -12.96875 L 5.0625 -12.96875 L 5.0625 -8.234375 L 7.28125 -8.234375 C 7.84375 -8.234375 8.296875 -8.253906 8.640625 -8.296875 Z M 8.640625 -8.296875"/></g><g id="S"><path d="M 8.75 -15.703125 C 11.09375 -15.703125 12.945312 -14.976562 14.3125 -13.53125 C 15.675781 -12.082031 16.359375 -10.140625 16.359375 -7.703125 C 16.359375 -5.273438 15.675781 -3.332031 14.3125 -1.875 C 12.945312 -0.414062 11.085938 0.3125 8.734375 0.3125 C 6.390625 0.3125 4.535156 -0.414062 3.171875 -1.875 C 1.816406 -3.332031 1.140625 -5.273438 1.140625 -7.703125 C 1.140625 -10.140625 1.816406 -12.082031 3.171875 -13.53125 C 4.523438 -14.976562 6.382812 -15.703125 8.75 -15.703125 Z M 5.515625 -3.484375 C 6.296875 -2.484375 7.367188 -1.984375 8.734375 -1.984375 C 10.109375 -1.984375 11.179688 -2.488281 11.953125 -3.5 C 12.734375 -4.507812 13.125 -5.910156 13.125 -7.703125 C 13.125 -9.492188 12.734375 -10.890625 11.953125 -11.890625 C 11.179688 -12.898438 10.113281 -13.40625 8.75 -13.40625 C 7.363281 -13.40625 6.28125 -12.898438 5.5 -11.890625 C 4.726562 -10.890625 4.34375 -9.488281 4.34375 -7.6875 C 4.34375 -5.894531 4.734375 -4.492188 5.515625 -3.484375 Z M 5.515625 -3.484375"/></g><g id="T"><path d="M 13.09375 -2.5625 L 13.09375 0 L 1.984375 0 L 1.984375 -15.390625 L 5.0625 -15.390625 L 5.0625 -2.5625 Z M 13.09375 -2.5625"/></g><g id="U"><path d="M 8.59375 -15.703125 C 10.601562 -15.703125 12.171875 -15.210938 13.296875 -14.234375 C 14.429688 -13.265625 15.078125 -11.984375 15.234375 -10.390625 L 15.265625 -10.171875 L 12.1875 -10.171875 L 12.140625 -10.390625 C 11.734375 -12.398438 10.535156 -13.40625 8.546875 -13.40625 C 7.296875 -13.40625 6.289062 -12.898438 5.53125 -11.890625 C 4.769531 -10.890625 4.390625 -9.519531 4.390625 -7.78125 C 4.390625 -5.925781 4.769531 -4.492188 5.53125 -3.484375 C 6.289062 -2.484375 7.28125 -1.984375 8.5 -1.984375 C 9.476562 -1.984375 10.265625 -2.257812 10.859375 -2.8125 C 11.460938 -3.363281 11.867188 -4.128906 12.078125 -5.109375 L 12.109375 -5.328125 L 15.171875 -5.328125 L 15.15625 -5.109375 C 14.988281 -3.441406 14.300781 -2.117188 13.09375 -1.140625 C 11.894531 -0.171875 10.316406 0.3125 8.359375 0.3125 C 6.191406 0.3125 4.445312 -0.398438 3.125 -1.828125 C 1.800781 -3.253906 1.140625 -5.179688 1.140625 -7.609375 C 1.140625 -10.078125 1.835938 -12.039062 3.234375 -13.5 C 4.628906 -14.96875 6.414062 -15.703125 8.59375 -15.703125 Z M 8.59375 -15.703125"/></g><g id="V"><path d="M 15.5 0 L 11.296875 0 L 4.953125 -11.6875 C 5.023438 -10.289062 5.0625 -8.71875 5.0625 -6.96875 L 5.0625 0 L 1.984375 0 L 1.984375 -15.390625 L 6.0625 -15.390625 L 12.546875 -3.484375 C 12.460938 -4.867188 12.421875 -6.484375 12.421875 -8.328125 L 12.421875 -15.390625 L 15.484375 -15.390625 Z M 15.5 0"/></g><g id="W"><path d="M 13.09375 -2.4375 L 13.09375 0 L 1.984375 0 L 1.984375 -15.390625 L 12.875 -15.390625 L 12.875 -12.984375 L 5.0625 -12.984375 L 5.0625 -8.921875 L 12.3125 -8.921875 L 12.3125 -6.5 L 5.0625 -6.5 L 5.0625 -2.4375 Z M 13.09375 -2.4375"/></g><g id="X"><path d="M 18.59375 -15.390625 L 18.59375 0 L 15.5 0 L 15.5 -7.125 C 15.5 -9.5625 15.515625 -11.316406 15.546875 -12.390625 C 15.128906 -10.597656 14.65625 -8.847656 14.125 -7.140625 L 11.953125 0 L 8.609375 0 L 6.40625 -7.15625 C 5.84375 -9.050781 5.378906 -10.785156 5.015625 -12.359375 C 5.046875 -11.285156 5.0625 -9.539062 5.0625 -7.125 L 5.0625 0 L 1.984375 0 L 1.984375 -15.390625 L 6.84375 -15.390625 L 10.328125 -2.828125 L 13.8125 -15.390625 Z M 18.59375 -15.390625"/></g><g id="ab"><path d="M 5.4375 -12.3125 C 6.976562 -12.3125 8.132812 -11.832031 8.90625 -10.875 C 9.6875 -9.914062 10.078125 -8.429688 10.078125 -6.421875 C 10.078125 -4.253906 9.617188 -2.597656 8.703125 -1.453125 C 7.796875 -0.316406 6.59375 0.25 5.09375 0.25 C 3.882812 0.25 2.925781 -0.0507812 2.21875 -0.65625 C 1.507812 -1.257812 1.101562 -2.085938 1 -3.140625 L 0.984375 -3.328125 L 3.421875 -3.328125 L 3.46875 -3.140625 C 3.6875 -2.085938 4.28125 -1.5625 5.25 -1.5625 C 6.71875 -1.5625 7.5 -2.957031 7.59375 -5.75 L 6.96875 -4.65625 C 6.40625 -4.1875 5.691406 -3.953125 4.828125 -3.953125 C 3.554688 -3.953125 2.578125 -4.316406 1.890625 -5.046875 C 1.203125 -5.785156 0.859375 -6.738281 0.859375 -7.90625 C 0.859375 -9.257812 1.296875 -10.332031 2.171875 -11.125 C 3.054688 -11.914062 4.144531 -12.3125 5.4375 -12.3125 Z M 5.46875 -5.75 C 6.039062 -5.75 6.519531 -5.960938 6.90625 -6.390625 C 7.289062 -6.816406 7.484375 -7.394531 7.484375 -8.125 C 7.484375 -8.820312 7.296875 -9.394531 6.921875 -9.84375 C 6.554688 -10.289062 6.066406 -10.515625 5.453125 -10.515625 C 4.835938 -10.515625 4.34375 -10.296875 3.96875 -9.859375 C 3.601562 -9.421875 3.421875 -8.867188 3.421875 -8.203125 C 3.421875 -7.460938 3.59375 -6.867188 3.9375 -6.421875 C 4.289062 -5.972656 4.800781 -5.75 5.46875 -5.75 Z M 5.46875 -5.75"/></g><g id="ac"><path d="M 6.109375 -8.109375 C 7.378906 -8.109375 8.359375 -7.738281 9.046875 -7 C 9.734375 -6.269531 10.078125 -5.320312 10.078125 -4.15625 C 10.078125 -2.8125 9.632812 -1.738281 8.75 -0.9375 C 7.875 -0.144531 6.785156 0.25 5.484375 0.25 C 3.953125 0.25 2.796875 -0.226562 2.015625 -1.1875 C 1.242188 -2.144531 0.859375 -3.628906 0.859375 -5.640625 C 0.859375 -7.796875 1.316406 -9.445312 2.234375 -10.59375 C 3.148438 -11.738281 4.351562 -12.3125 5.84375 -12.3125 C 7.019531 -12.3125 7.960938 -12.007812 8.671875 -11.40625 C 9.378906 -10.8125 9.800781 -9.984375 9.9375 -8.921875 L 9.953125 -8.75 L 7.5 -8.75 L 7.46875 -8.921875 C 7.207031 -9.984375 6.613281 -10.515625 5.6875 -10.515625 C 4.21875 -10.515625 3.4375 -9.113281 3.34375 -6.3125 L 3.953125 -7.40625 C 4.523438 -7.875 5.242188 -8.109375 6.109375 -8.109375 Z M 3.984375 -2.21875 C 4.359375 -1.78125 4.851562 -1.5625 5.46875 -1.5625 C 6.09375 -1.5625 6.585938 -1.78125 6.953125 -2.21875 C 7.328125 -2.65625 7.515625 -3.203125 7.515625 -3.859375 C 7.515625 -4.597656 7.335938 -5.191406 6.984375 -5.640625 C 6.628906 -6.085938 6.117188 -6.3125 5.453125 -6.3125 C 4.878906 -6.3125 4.398438 -6.097656 4.015625 -5.671875 C 3.628906 -5.242188 3.4375 -4.664062 3.4375 -3.9375 C 3.4375 -3.238281 3.617188 -2.664062 3.984375 -2.21875 Z M 3.984375 -2.21875"/></g><g id="ad"><path d="M 1.34375 -11.515625 C 1.820312 -12.023438 2.476562 -12.28125 3.3125 -12.28125 C 4.15625 -12.28125 4.816406 -12.023438 5.296875 -11.515625 C 5.785156 -11.003906 6.03125 -10.300781 6.03125 -9.40625 C 6.03125 -8.507812 5.785156 -7.800781 5.296875 -7.28125 C 4.816406 -6.769531 4.160156 -6.515625 3.328125 -6.515625 C 2.492188 -6.515625 1.832031 -6.769531 1.34375 -7.28125 C 0.863281 -7.800781 0.625 -8.507812 0.625 -9.40625 C 0.625 -10.300781 0.863281 -11.003906 1.34375 -11.515625 Z M 3.734375 0 L 1.875 0 L 9.703125 -12.0625 L 11.578125 -12.0625 Z M 3.328125 -11 C 2.660156 -11 2.328125 -10.46875 2.328125 -9.40625 C 2.328125 -8.332031 2.660156 -7.796875 3.328125 -7.796875 C 4.003906 -7.796875 4.34375 -8.332031 4.34375 -9.40625 C 4.34375 -10.46875 4.003906 -11 3.328125 -11 Z M 8.03125 -4.734375 C 8.519531 -5.242188 9.179688 -5.5 10.015625 -5.5 C 10.859375 -5.5 11.519531 -5.242188 12 -4.734375 C 12.488281 -4.234375 12.734375 -3.535156 12.734375 -2.640625 C 12.734375 -1.742188 12.488281 -1.035156 12 -0.515625 C 11.519531 -0.00390625 10.859375 0.25 10.015625 0.25 C 9.179688 0.25 8.519531 -0.00390625 8.03125 -0.515625 C 7.550781 -1.035156 7.3125 -1.742188 7.3125 -2.640625 C 7.3125 -3.535156 7.550781 -4.234375 8.03125 -4.734375 Z M 11.015625 -2.640625 C 11.015625 -3.703125 10.679688 -4.234375 10.015625 -4.234375 C 9.347656 -4.234375 9.015625 -3.703125 9.015625 -2.640625 C 9.015625 -1.566406 9.347656 -1.03125 10.015625 -1.03125 C 10.679688 -1.03125 11.015625 -1.566406 11.015625 -2.640625 Z M 11.015625 -2.640625"/></g><g id="ae"><path d="M 6.0625 -8.09375 C 7.320312 -8.09375 8.304688 -7.722656 9.015625 -6.984375 C 9.722656 -6.253906 10.078125 -5.257812 10.078125 -4 C 10.078125 -2.6875 9.625 -1.648438 8.71875 -0.890625 C 7.820312 -0.128906 6.742188 0.25 5.484375 0.25 C 2.734375 0.25 1.242188 -0.929688 1.015625 -3.296875 L 1 -3.484375 L 3.40625 -3.484375 L 3.421875 -3.296875 C 3.609375 -2.140625 4.257812 -1.5625 5.375 -1.5625 C 6.03125 -1.5625 6.546875 -1.769531 6.921875 -2.1875 C 7.304688 -2.613281 7.5 -3.1875 7.5 -3.90625 C 7.5 -4.632812 7.316406 -5.210938 6.953125 -5.640625 C 6.585938 -6.078125 6.078125 -6.296875 5.421875 -6.296875 C 4.492188 -6.296875 3.832031 -5.84375 3.4375 -4.9375 L 1.203125 -4.9375 L 2.0625 -12.0625 L 9.578125 -12.0625 L 9.578125 -10.171875 L 4.03125 -10.171875 L 3.578125 -6.796875 L 4.171875 -7.625 C 4.703125 -7.9375 5.332031 -8.09375 6.0625 -8.09375 Z M 6.0625 -8.09375"/></g><g id="at"><path d="M 7.515625 -6.375 C 9.191406 -6 10.03125 -5.035156 10.03125 -3.484375 C 10.03125 -2.359375 9.597656 -1.453125 8.734375 -0.765625 C 7.867188 -0.0859375 6.742188 0.25 5.359375 0.25 C 3.984375 0.25 2.890625 -0.0664062 2.078125 -0.703125 C 1.273438 -1.347656 0.8125 -2.289062 0.6875 -3.53125 L 0.671875 -3.703125 L 3.078125 -3.703125 L 3.109375 -3.53125 C 3.203125 -2.914062 3.445312 -2.429688 3.84375 -2.078125 C 4.238281 -1.734375 4.738281 -1.5625 5.34375 -1.5625 C 5.988281 -1.5625 6.503906 -1.726562 6.890625 -2.0625 C 7.285156 -2.394531 7.484375 -2.835938 7.484375 -3.390625 C 7.484375 -4.617188 6.6875 -5.25 5.09375 -5.28125 L 4.6875 -5.28125 L 4.6875 -6.953125 L 5.09375 -6.96875 C 5.726562 -7 6.238281 -7.1875 6.625 -7.53125 C 7.007812 -7.875 7.203125 -8.320312 7.203125 -8.875 C 7.203125 -9.363281 7.046875 -9.757812 6.734375 -10.0625 C 6.429688 -10.363281 6.015625 -10.515625 5.484375 -10.515625 C 4.953125 -10.515625 4.519531 -10.335938 4.1875 -9.984375 C 3.863281 -9.640625 3.675781 -9.179688 3.625 -8.609375 L 3.609375 -8.421875 L 1.203125 -8.421875 L 1.21875 -8.609375 C 1.320312 -9.703125 1.765625 -10.59375 2.546875 -11.28125 C 3.328125 -11.96875 4.394531 -12.3125 5.75 -12.3125 C 7.019531 -12.3125 8.003906 -12.015625 8.703125 -11.421875 C 9.398438 -10.835938 9.75 -10.082031 9.75 -9.15625 C 9.75 -8.457031 9.554688 -7.863281 9.171875 -7.375 C 8.796875 -6.894531 8.242188 -6.5625 7.515625 -6.375 Z M 7.515625 -6.375"/></g><g id="ai"><path d="M 6.53125 -14.78125 C 8.375 -14.78125 9.757812 -14.207031 10.6875 -13.0625 C 11.625 -11.914062 12.09375 -10.128906 12.09375 -7.703125 C 12.09375 -5.097656 11.546875 -3.113281 10.453125 -1.75 C 9.359375 -0.382812 7.910156 0.296875 6.109375 0.296875 C 4.671875 0.296875 3.523438 -0.0625 2.671875 -0.78125 C 1.816406 -1.507812 1.328125 -2.507812 1.203125 -3.78125 L 1.171875 -3.984375 L 4.109375 -3.984375 L 4.15625 -3.78125 C 4.425781 -2.507812 5.140625 -1.875 6.296875 -1.875 C 8.066406 -1.875 9.003906 -3.550781 9.109375 -6.90625 L 8.375 -5.59375 C 7.6875 -5.03125 6.828125 -4.75 5.796875 -4.75 C 4.265625 -4.75 3.085938 -5.1875 2.265625 -6.0625 C 1.441406 -6.945312 1.03125 -8.085938 1.03125 -9.484375 C 1.03125 -11.109375 1.554688 -12.394531 2.609375 -13.34375 C 3.671875 -14.300781 4.976562 -14.78125 6.53125 -14.78125 Z M 6.578125 -6.90625 C 7.265625 -6.90625 7.835938 -7.160156 8.296875 -7.671875 C 8.753906 -8.179688 8.984375 -8.878906 8.984375 -9.765625 C 8.984375 -10.609375 8.765625 -11.296875 8.328125 -11.828125 C 7.890625 -12.359375 7.296875 -12.625 6.546875 -12.625 C 5.804688 -12.625 5.210938 -12.359375 4.765625 -11.828125 C 4.328125 -11.304688 4.109375 -10.644531 4.109375 -9.84375 C 4.109375 -8.96875 4.316406 -8.257812 4.734375 -7.71875 C 5.160156 -7.175781 5.773438 -6.90625 6.578125 -6.90625 Z M 6.578125 -6.90625"/></g><g id="aj"><path d="M 9.03125 -7.671875 C 11.039062 -7.203125 12.046875 -6.035156 12.046875 -4.171875 C 12.046875 -2.828125 11.523438 -1.742188 10.484375 -0.921875 C 9.441406 -0.109375 8.09375 0.296875 6.4375 0.296875 C 4.789062 0.296875 3.476562 -0.0859375 2.5 -0.859375 C 1.53125 -1.628906 0.96875 -2.753906 0.8125 -4.234375 L 0.796875 -4.453125 L 3.703125 -4.453125 L 3.734375 -4.234375 C 3.847656 -3.492188 4.140625 -2.914062 4.609375 -2.5 C 5.085938 -2.082031 5.691406 -1.875 6.421875 -1.875 C 7.191406 -1.875 7.8125 -2.078125 8.28125 -2.484375 C 8.75 -2.890625 8.984375 -3.421875 8.984375 -4.078125 C 8.984375 -5.546875 8.023438 -6.300781 6.109375 -6.34375 L 5.625 -6.34375 L 5.625 -8.359375 L 6.109375 -8.375 C 6.878906 -8.40625 7.492188 -8.625 7.953125 -9.03125 C 8.421875 -9.445312 8.65625 -9.992188 8.65625 -10.671875 C 8.65625 -11.253906 8.46875 -11.722656 8.09375 -12.078125 C 7.71875 -12.441406 7.21875 -12.625 6.59375 -12.625 C 5.945312 -12.625 5.425781 -12.414062 5.03125 -12 C 4.644531 -11.582031 4.414062 -11.023438 4.34375 -10.328125 L 4.328125 -10.125 L 1.453125 -10.125 L 1.46875 -10.328125 C 1.59375 -11.648438 2.125 -12.722656 3.0625 -13.546875 C 4 -14.367188 5.28125 -14.78125 6.90625 -14.78125 C 8.4375 -14.78125 9.617188 -14.425781 10.453125 -13.71875 C 11.296875 -13.007812 11.71875 -12.101562 11.71875 -11 C 11.71875 -10.164062 11.484375 -9.457031 11.015625 -8.875 C 10.554688 -8.289062 9.894531 -7.890625 9.03125 -7.671875 Z M 9.03125 -7.671875"/></g><g id="ak"><path d="M 1.609375 -13.828125 C 2.191406 -14.429688 2.984375 -14.734375 3.984375 -14.734375 C 4.992188 -14.734375 5.789062 -14.429688 6.375 -13.828125 C 6.957031 -13.222656 7.25 -12.378906 7.25 -11.296875 C 7.25 -10.222656 6.957031 -9.375 6.375 -8.75 C 5.789062 -8.132812 4.992188 -7.828125 3.984375 -7.828125 C 2.992188 -7.828125 2.207031 -8.132812 1.625 -8.75 C 1.039062 -9.375 0.75 -10.222656 0.75 -11.296875 C 0.75 -12.378906 1.035156 -13.222656 1.609375 -13.828125 Z M 4.5 0 L 2.25 0 L 11.65625 -14.484375 L 13.90625 -14.484375 Z M 3.984375 -13.203125 C 3.191406 -13.203125 2.796875 -12.566406 2.796875 -11.296875 C 2.796875 -10.003906 3.191406 -9.359375 3.984375 -9.359375 C 4.796875 -9.359375 5.203125 -10.003906 5.203125 -11.296875 C 5.203125 -12.566406 4.796875 -13.203125 3.984375 -13.203125 Z M 9.640625 -5.6875 C 10.222656 -6.300781 11.019531 -6.609375 12.03125 -6.609375 C 13.039062 -6.609375 13.832031 -6.300781 14.40625 -5.6875 C 14.988281 -5.082031 15.28125 -4.238281 15.28125 -3.15625 C 15.28125 -2.082031 14.988281 -1.238281 14.40625 -0.625 C 13.832031 -0.0078125 13.039062 0.296875 12.03125 0.296875 C 11.019531 0.296875 10.222656 -0.0078125 9.640625 -0.625 C 9.066406 -1.238281 8.78125 -2.082031 8.78125 -3.15625 C 8.78125 -4.238281 9.066406 -5.082031 9.640625 -5.6875 Z M 13.234375 -3.171875 C 13.234375 -4.441406 12.832031 -5.078125 12.03125 -5.078125 C 11.238281 -5.078125 10.84375 -4.441406 10.84375 -3.171875 C 10.84375 -1.878906 11.238281 -1.234375 12.03125 -1.234375 C 12.832031 -1.234375 13.234375 -1.878906 13.234375 -3.171875 Z M 13.234375 -3.171875"/></g><g id="al"><path d="M 9.703125 -14.484375 L 9.703125 0 L 6.796875 0 L 6.796875 -11.4375 L 2.578125 -9.109375 L 2.578125 -11.84375 L 5.9375 -13.84375 C 6.707031 -14.269531 7.488281 -14.484375 8.28125 -14.484375 Z M 9.703125 -14.484375"/></g><g id="au"><path d="M 10.878906 0 L 10.84375 -11.726562 L 9.417969 -11.726562 L 9.417969 -5.863281 C 9.417969 -4.488281 9.433594 -2.804688 9.46875 -1.425781 L 3.941406 -11.726562 L 1.699219 -11.726562 L 1.699219 0 L 3.160156 0 L 3.160156 -5.863281 C 3.160156 -7.242188 3.144531 -8.921875 3.109375 -10.300781 L 8.632812 0 Z M 10.878906 0"/></g><g id="av"><path d="M 4.980469 -9.246094 C 1.921875 -9.246094 0.511719 -7.054688 0.511719 -4.503906 C 0.511719 -1.972656 1.921875 0.238281 4.980469 0.238281 C 8.039062 0.238281 9.449219 -1.972656 9.449219 -4.503906 C 9.449219 -7.054688 8.039062 -9.246094 4.980469 -9.246094 Z M 4.980469 -0.882812 C 3.160156 -0.882812 2.109375 -2.398438 2.109375 -4.503906 C 2.109375 -6.628906 3.160156 -8.125 4.980469 -8.125 C 6.796875 -8.125 7.851562 -6.628906 7.851562 -4.503906 C 7.851562 -2.398438 6.796875 -0.882812 4.980469 -0.882812 Z M 4.980469 -0.882812"/></g><g id="aw"><path d="M 3.007812 -7.820312 L 4.691406 -7.820312 L 4.691406 -8.941406 L 3.007812 -8.941406 L 3.007812 -11.03125 L 1.546875 -11.03125 L 1.546875 -8.941406 L 0.339844 -8.941406 L 0.339844 -7.820312 L 1.546875 -7.820312 L 1.546875 -2.566406 C 1.546875 -2.054688 1.546875 -1.683594 1.5625 -1.445312 C 1.648438 -0.324219 2.226562 0.136719 3.347656 0.136719 C 3.757812 0.136719 4.164062 0.117188 4.589844 0.0507812 L 4.589844 -1.019531 C 3.449219 -0.882812 3.09375 -1.070312 3.027344 -1.9375 C 3.007812 -2.175781 3.007812 -2.328125 3.007812 -2.632812 Z M 3.007812 -7.820312"/></g><g id="ay"><path d="M 3.875 -9.246094 C 2.023438 -9.246094 0.765625 -8.261719 0.765625 -6.613281 C 0.765625 -5.03125 2.054688 -4.367188 3.671875 -3.925781 C 5.183594 -3.519531 5.796875 -3.058594 5.796875 -2.191406 C 5.796875 -1.324219 5.015625 -0.882812 4.046875 -0.882812 C 3.007812 -0.882812 2.175781 -1.34375 1.9375 -2.652344 L 0.40625 -2.652344 C 0.679688 -0.613281 2.089844 0.238281 3.941406 0.238281 C 5.847656 0.238281 7.292969 -0.613281 7.292969 -2.3125 C 7.292969 -3.839844 6.304688 -4.65625 4.230469 -5.199219 C 3.007812 -5.523438 2.261719 -5.878906 2.261719 -6.78125 C 2.261719 -7.5625 2.738281 -8.125 3.757812 -8.125 C 4.808594 -8.125 5.457031 -7.496094 5.660156 -6.441406 L 7.191406 -6.441406 C 7.003906 -8.089844 5.898438 -9.246094 3.875 -9.246094 Z M 3.875 -9.246094"/></g><g id="az"><path d="M 6.425781 0 L 7.886719 0 C 7.75 -1.003906 7.714844 -1.613281 7.714844 -2.292969 L 7.714844 -5.675781 C 7.714844 -6.066406 7.699219 -6.507812 7.664062 -6.867188 C 7.511719 -8.34375 6.613281 -9.246094 4.46875 -9.246094 C 2.480469 -9.246094 1.140625 -8.140625 1.003906 -6.222656 L 2.53125 -6.222656 C 2.632812 -7.460938 3.246094 -8.125 4.46875 -8.125 C 5.675781 -8.125 6.152344 -7.582031 6.222656 -6.746094 C 6.253906 -6.40625 6.253906 -6.050781 6.253906 -5.660156 L 6.253906 -5.421875 L 5.675781 -5.421875 C 2.140625 -5.421875 0.613281 -4.367188 0.613281 -2.328125 C 0.613281 -0.664062 1.886719 0.238281 3.519531 0.238281 C 4.386719 0.238281 5.167969 0.101562 5.777344 -0.324219 L 6.273438 -1.292969 Z M 4.011719 -0.882812 C 2.90625 -0.882812 2.210938 -1.359375 2.210938 -2.449219 C 2.210938 -3.996094 3.773438 -4.519531 6.253906 -4.335938 L 6.253906 -3.417969 C 6.253906 -1.785156 5.371094 -0.882812 4.011719 -0.882812 Z M 4.011719 -0.882812"/></g><g id="aA"><path d="M 1.988281 -11.964844 C 1.460938 -11.964844 1.054688 -11.558594 1.054688 -11.03125 C 1.054688 -10.503906 1.460938 -10.097656 1.988281 -10.097656 C 2.515625 -10.097656 2.921875 -10.503906 2.921875 -11.03125 C 2.921875 -11.558594 2.515625 -11.964844 1.988281 -11.964844 Z M 2.71875 0 L 2.71875 -9.007812 L 1.257812 -9.007812 L 1.257812 0 Z M 2.71875 0"/></g><g id="aB"><path d="M 4.742188 -9.246094 C 2.480469 -9.246094 0.511719 -7.53125 0.511719 -4.488281 C 0.511719 -1.191406 2.242188 0.238281 4.519531 0.238281 C 6.527344 0.238281 8.023438 -0.78125 8.464844 -2.871094 L 6.933594 -2.871094 C 6.628906 -1.5625 5.796875 -0.882812 4.605469 -0.882812 C 3.261719 -0.882812 2.109375 -1.972656 2.109375 -4.589844 C 2.109375 -7.019531 3.296875 -8.125 4.707031 -8.125 C 5.914062 -8.125 6.695312 -7.425781 7.019531 -5.984375 L 8.550781 -5.984375 C 8.277344 -7.953125 6.902344 -9.246094 4.742188 -9.246094 Z M 4.742188 -9.246094"/></g><g id="aC"><path d="M 2.652344 -12.492188 L 1.191406 -12.492188 L 1.191406 -2.53125 C 1.191406 -2.039062 1.191406 -1.648438 1.207031 -1.34375 C 1.257812 -0.203125 1.886719 0.0664062 2.738281 0.0664062 C 3.078125 0.0664062 3.449219 0.0507812 3.773438 0 L 3.773438 -1.054688 C 2.972656 -0.96875 2.703125 -1.15625 2.667969 -1.734375 C 2.652344 -2.023438 2.652344 -2.3125 2.652344 -2.582031 Z M 2.652344 -12.492188"/></g><g id="aD"><path d="M 8.617188 -9.007812 L 7.019531 -9.007812 L 4.351562 -1.085938 L 1.664062 -9.007812 L 0.015625 -9.007812 L 3.601562 0.457031 L 3.484375 0.78125 C 3.027344 1.972656 2.429688 2.363281 1.53125 2.363281 C 1.375 2.363281 1.222656 2.363281 1.003906 2.34375 L 1.003906 3.535156 C 1.222656 3.570312 1.425781 3.570312 1.75 3.570312 C 3.210938 3.570312 4.179688 2.667969 4.910156 0.765625 Z M 8.617188 -9.007812"/></g><g id="aE"><path d="M 9.128906 -9.007812 L 7.664062 -9.007812 L 7.664062 -7.765625 L 7.070312 -8.652344 C 6.613281 -9.023438 5.660156 -9.246094 4.910156 -9.246094 C 2.582031 -9.246094 0.511719 -7.699219 0.511719 -4.367188 C 0.511719 -1.734375 1.972656 0.238281 4.605469 0.238281 C 5.523438 0.238281 6.476562 -0.0507812 6.984375 -0.476562 L 7.664062 -1.445312 L 7.664062 -1.292969 C 7.664062 -1.019531 7.664062 -0.730469 7.648438 -0.304688 C 7.582031 1.425781 6.613281 2.449219 4.828125 2.449219 C 3.28125 2.449219 2.398438 1.683594 2.277344 0.578125 L 2.261719 0.425781 L 0.78125 0.425781 L 0.800781 0.59375 C 0.984375 2.5 2.261719 3.570312 4.828125 3.570312 C 7.425781 3.570312 9.023438 2.175781 9.109375 -0.457031 C 9.128906 -0.953125 9.128906 -1.648438 9.128906 -2.210938 Z M 4.828125 -0.882812 C 3.027344 -0.882812 2.109375 -2.5 2.109375 -4.539062 C 2.109375 -6.902344 3.332031 -8.125 4.910156 -8.125 C 6.203125 -8.125 7.664062 -7.242188 7.664062 -4.910156 L 7.664062 -4.417969 C 7.664062 -1.835938 6.324219 -0.882812 4.828125 -0.882812 Z M 4.828125 -0.882812"/></g><g id="aF"><path d="M 8.839844 -6.613281 C 8.703125 -8.191406 7.597656 -9.246094 5.625 -9.246094 C 4.707031 -9.246094 4.046875 -9.09375 3.28125 -8.5 L 2.71875 -7.460938 L 2.71875 -9.007812 L 1.257812 -9.007812 L 1.257812 0 L 2.71875 0 L 2.71875 -3.960938 C 2.71875 -7.035156 3.910156 -8.089844 5.320312 -8.089844 C 6.714844 -8.089844 7.292969 -7.308594 7.375 -6.253906 C 7.410156 -5.796875 7.410156 -5.421875 7.410156 -4.964844 L 7.410156 0 L 8.871094 0 L 8.871094 -5.066406 C 8.871094 -5.796875 8.871094 -6.152344 8.839844 -6.613281 Z M 8.839844 -6.613281"/></g><g id="aG"><path d="M 2.839844 -10.742188 C 2.957031 -11.472656 3.6875 -11.726562 4.792969 -11.523438 L 4.792969 -12.730469 C 4.488281 -12.78125 4.128906 -12.816406 3.757812 -12.816406 C 2.414062 -12.816406 1.53125 -12.085938 1.375 -10.777344 C 1.34375 -10.46875 1.324219 -10.027344 1.324219 -9.6875 L 1.324219 -8.941406 L 0.355469 -8.941406 L 0.355469 -7.820312 L 1.324219 -7.820312 L 1.324219 0 L 2.789062 0 L 2.789062 -7.820312 L 4.640625 -7.820312 L 4.640625 -8.941406 L 2.789062 -8.941406 L 2.789062 -9.824219 C 2.789062 -10.078125 2.804688 -10.503906 2.839844 -10.742188 Z M 2.839844 -10.742188"/></g><g id="aH"><path d="M 6.804688 -25.199219 C 3.5625 -25.199219 1.476562 -23.003906 1.476562 -19.476562 C 1.476562 -15.984375 3.5625 -13.753906 6.804688 -13.753906 C 10.042969 -13.753906 12.132812 -15.984375 12.132812 -19.476562 C 12.132812 -23.003906 10.042969 -25.199219 6.804688 -25.199219 Z M 6.839844 0 L 22.96875 -24.839844 L 19.835938 -24.839844 L 3.707031 0 Z M 6.804688 -23.039062 C 8.171875 -23.039062 9.109375 -21.816406 9.109375 -19.476562 C 9.109375 -17.171875 8.171875 -15.910156 6.804688 -15.910156 C 5.4375 -15.910156 4.5 -17.171875 4.5 -19.476562 C 4.5 -21.816406 5.4375 -23.039062 6.804688 -23.039062 Z M 19.835938 -10.945312 C 16.597656 -10.945312 14.507812 -8.746094 14.507812 -5.21875 C 14.507812 -1.726562 16.597656 0.503906 19.835938 0.503906 C 23.074219 0.503906 25.164062 -1.726562 25.164062 -5.21875 C 25.164062 -8.746094 23.074219 -10.945312 19.835938 -10.945312 Z M 19.835938 -8.785156 C 21.203125 -8.785156 22.140625 -7.558594 22.140625 -5.21875 C 22.140625 -2.914062 21.203125 -1.65625 19.835938 -1.65625 C 18.46875 -1.65625 17.53125 -2.914062 17.53125 -5.21875 C 17.53125 -7.558594 18.46875 -8.785156 19.835938 -8.785156 Z M 19.835938 -8.785156"/></g><g id="aJ"><path d="M 10.546875 -19.585938 C 4.066406 -19.585938 1.078125 -14.941406 1.078125 -9.539062 C 1.078125 -4.175781 4.066406 0.503906 10.546875 0.503906 C 17.027344 0.503906 20.015625 -4.175781 20.015625 -9.539062 C 20.015625 -14.941406 17.027344 -19.585938 10.546875 -19.585938 Z M 10.546875 -1.871094 C 6.695312 -1.871094 4.464844 -5.074219 4.464844 -9.539062 C 4.464844 -14.039062 6.695312 -17.207031 10.546875 -17.207031 C 14.398438 -17.207031 16.632812 -14.039062 16.632812 -9.539062 C 16.632812 -5.074219 14.398438 -1.871094 10.546875 -1.871094 Z M 10.546875 -1.871094"/></g><g id="aK"><path d="M 6.011719 -22.753906 C 6.265625 -24.300781 7.8125 -24.839844 10.152344 -24.40625 L 10.152344 -26.964844 C 9.503906 -27.070312 8.746094 -27.144531 7.957031 -27.144531 C 5.113281 -27.144531 3.238281 -25.597656 2.914062 -22.824219 C 2.84375 -22.175781 2.808594 -21.238281 2.808594 -20.519531 L 2.808594 -18.9375 L 0.757812 -18.9375 L 0.757812 -16.558594 L 2.808594 -16.558594 L 2.808594 0 L 5.902344 0 L 5.902344 -16.558594 L 9.828125 -16.558594 L 9.828125 -18.9375 L 5.902344 -18.9375 L 5.902344 -20.808594 C 5.902344 -21.347656 5.941406 -22.246094 6.011719 -22.753906 Z M 6.011719 -22.753906"/></g><g id="aL"><path d="M 10.042969 -19.585938 C 5.257812 -19.585938 1.078125 -15.949219 1.078125 -9.503906 C 1.078125 -2.519531 4.753906 0.503906 9.574219 0.503906 C 13.824219 0.503906 16.992188 -1.65625 17.929688 -6.085938 L 14.6875 -6.085938 C 14.039062 -3.3125 12.277344 -1.871094 9.757812 -1.871094 C 6.910156 -1.871094 4.464844 -4.175781 4.464844 -9.71875 C 4.464844 -14.867188 6.984375 -17.207031 9.972656 -17.207031 C 12.527344 -17.207031 14.183594 -15.730469 14.867188 -12.671875 L 18.109375 -12.671875 C 17.53125 -16.847656 14.617188 -19.585938 10.042969 -19.585938 Z M 10.042969 -19.585938"/></g><g id="aM"><path d="M 18.324219 -10.078125 C 18.324219 -15.660156 15.40625 -19.585938 10.152344 -19.585938 C 4.933594 -19.585938 1.078125 -15.660156 1.078125 -9.46875 C 1.078125 -2.734375 4.789062 0.503906 9.757812 0.503906 C 13.679688 0.503906 17.316406 -1.546875 18.070312 -6.15625 L 14.832031 -6.15625 C 14.398438 -3.421875 12.382812 -1.871094 9.898438 -1.871094 C 7.09375 -1.871094 4.714844 -3.5625 4.429688 -8.605469 L 18.253906 -8.605469 C 18.324219 -9.289062 18.324219 -9.792969 18.324219 -10.078125 Z M 10.078125 -17.207031 C 13.210938 -17.207031 14.902344 -14.941406 15.191406 -10.980469 L 4.464844 -10.980469 C 4.824219 -15.046875 7.054688 -17.207031 10.078125 -17.207031 Z M 10.078125 -17.207031"/></g><g id="aN"><path d="M 10.152344 -19.511719 C 9.253906 -19.511719 8.28125 -19.1875 7.488281 -18.648438 L 5.761719 -16.09375 L 5.761719 -19.078125 L 2.664062 -19.078125 L 2.664062 0 L 5.761719 0 L 5.761719 -10.871094 C 5.761719 -15.226562 8.207031 -17.136719 11.449219 -16.921875 L 11.449219 -19.261719 C 11.089844 -19.441406 10.65625 -19.511719 10.152344 -19.511719 Z M 10.152344 -19.511719"/></g><g id="aO"><path d="M 6.371094 -16.558594 L 9.9375 -16.558594 L 9.9375 -18.9375 L 6.371094 -18.9375 L 6.371094 -23.363281 L 3.277344 -23.363281 L 3.277344 -18.9375 L 0.71875 -18.9375 L 0.71875 -16.558594 L 3.277344 -16.558594 L 3.277344 -5.4375 C 3.277344 -4.355469 3.277344 -3.5625 3.3125 -3.058594 C 3.492188 -0.683594 4.714844 0.289062 7.09375 0.289062 C 7.957031 0.289062 8.820312 0.253906 9.71875 0.109375 L 9.71875 -2.160156 C 7.308594 -1.871094 6.550781 -2.269531 6.40625 -4.105469 C 6.371094 -4.609375 6.371094 -4.933594 6.371094 -5.578125 Z M 6.371094 -16.558594"/></g><g id="aP"><path d="M 13.609375 0 L 16.703125 0 C 16.414062 -2.125 16.34375 -3.421875 16.34375 -4.859375 L 16.34375 -12.023438 C 16.34375 -12.851562 16.308594 -13.789062 16.234375 -14.542969 C 15.910156 -17.675781 14.003906 -19.585938 9.46875 -19.585938 C 5.257812 -19.585938 2.410156 -17.242188 2.125 -13.175781 L 5.363281 -13.175781 C 5.578125 -15.804688 6.875 -17.207031 9.46875 -17.207031 C 12.023438 -17.207031 13.03125 -16.054688 13.175781 -14.292969 C 13.246094 -13.570312 13.246094 -12.816406 13.246094 -11.988281 L 13.246094 -11.484375 L 12.023438 -11.484375 C 4.535156 -11.484375 1.296875 -9.253906 1.296875 -4.933594 C 1.296875 -1.402344 3.996094 0.503906 7.453125 0.503906 C 9.289062 0.503906 10.945312 0.214844 12.238281 -0.683594 L 13.285156 -2.734375 Z M 8.496094 -1.871094 C 6.15625 -1.871094 4.679688 -2.878906 4.679688 -5.183594 C 4.679688 -8.460938 7.992188 -9.574219 13.246094 -9.179688 L 13.246094 -7.234375 C 13.246094 -3.78125 11.375 -1.871094 8.496094 -1.871094 Z M 8.496094 -1.871094"/></g><g id="aQ"><path d="M 4.210938 -25.34375 C 3.097656 -25.34375 2.230469 -24.480469 2.230469 -23.363281 C 2.230469 -22.246094 3.097656 -21.382812 4.210938 -21.382812 C 5.328125 -21.382812 6.191406 -22.246094 6.191406 -23.363281 C 6.191406 -24.480469 5.328125 -25.34375 4.210938 -25.34375 Z M 5.761719 0 L 5.761719 -19.078125 L 2.664062 -19.078125 L 2.664062 0 Z M 5.761719 0"/></g><g id="aR"><path d="M 18.71875 -14.003906 C 18.433594 -17.351562 16.09375 -19.585938 11.914062 -19.585938 C 9.972656 -19.585938 8.566406 -19.261719 6.949219 -18 L 5.761719 -15.804688 L 5.761719 -19.078125 L 2.664062 -19.078125 L 2.664062 0 L 5.761719 0 L 5.761719 -8.386719 C 5.761719 -14.902344 8.28125 -17.136719 11.269531 -17.136719 C 14.21875 -17.136719 15.445312 -15.480469 15.625 -13.246094 C 15.695312 -12.277344 15.695312 -11.484375 15.695312 -10.511719 L 15.695312 0 L 18.792969 0 L 18.792969 -10.726562 C 18.792969 -12.277344 18.792969 -13.03125 18.71875 -14.003906 Z M 18.71875 -14.003906"/></g><g id="aS"><path d="M 18.253906 -19.078125 L 14.867188 -19.078125 L 9.214844 -2.304688 L 3.527344 -19.078125 L 0.0351562 -19.078125 L 7.632812 0.972656 L 7.378906 1.65625 C 6.40625 4.175781 5.148438 5.003906 3.238281 5.003906 C 2.914062 5.003906 2.59375 5.003906 2.125 4.96875 L 2.125 7.488281 C 2.59375 7.558594 3.023438 7.558594 3.707031 7.558594 C 6.804688 7.558594 8.855469 5.652344 10.402344 1.621094 Z M 18.253906 -19.078125"/></g><g id="aT"><path d="M 8.207031 -19.585938 C 4.285156 -19.585938 1.621094 -17.496094 1.621094 -14.003906 C 1.621094 -10.65625 4.355469 -9.253906 7.777344 -8.316406 C 10.980469 -7.453125 12.277344 -6.480469 12.277344 -4.644531 C 12.277344 -2.808594 10.621094 -1.871094 8.566406 -1.871094 C 6.371094 -1.871094 4.609375 -2.84375 4.105469 -5.617188 L 0.863281 -5.617188 C 1.441406 -1.296875 4.429688 0.503906 8.351562 0.503906 C 12.382812 0.503906 15.445312 -1.296875 15.445312 -4.894531 C 15.445312 -8.136719 13.355469 -9.863281 8.964844 -11.015625 C 6.371094 -11.699219 4.789062 -12.457031 4.789062 -14.363281 C 4.789062 -16.019531 5.796875 -17.207031 7.957031 -17.207031 C 10.1875 -17.207031 11.554688 -15.875 11.988281 -13.644531 L 15.226562 -13.644531 C 14.832031 -17.136719 12.492188 -19.585938 8.207031 -19.585938 Z M 8.207031 -19.585938"/></g><g id="aU"><path d="M 12.238281 -19.585938 C 10.296875 -19.585938 8.28125 -18.972656 7.199219 -18.070312 L 5.761719 -16.019531 L 5.761719 -19.078125 L 2.664062 -19.078125 L 2.664062 7.054688 L 5.761719 7.054688 L 5.761719 -2.628906 L 7.019531 -0.757812 C 7.992188 0.0351562 10.007812 0.503906 11.59375 0.503906 C 16.523438 0.503906 20.914062 -2.773438 20.914062 -9.828125 C 20.914062 -15.40625 17.820312 -19.585938 12.238281 -19.585938 Z M 11.59375 -1.871094 C 8.855469 -1.871094 5.761719 -3.742188 5.761719 -8.675781 L 5.761719 -9.71875 C 5.761719 -15.191406 8.605469 -17.207031 11.773438 -17.207031 C 15.589844 -17.207031 17.53125 -13.789062 17.53125 -9.46875 C 17.53125 -4.464844 14.941406 -1.871094 11.59375 -1.871094 Z M 11.59375 -1.871094"/></g><g id="aV"><path d="M 14.507812 0 L 18.71875 0 L 9.71875 -10.078125 L 18.613281 -19.078125 L 14.652344 -19.078125 L 5.761719 -9.46875 L 5.761719 -26.460938 L 2.664062 -26.460938 L 2.664062 0 L 5.761719 0 L 5.761719 -6.085938 L 7.558594 -8.0625 Z M 14.507812 0"/></g><g id="aW"><path d="M 19.332031 -26.460938 L 16.234375 -26.460938 L 16.234375 -16.453125 L 14.976562 -18.324219 C 14.003906 -19.117188 11.988281 -19.585938 10.402344 -19.585938 C 5.472656 -19.585938 1.078125 -16.308594 1.078125 -9.253906 C 1.078125 -3.671875 4.175781 0.503906 9.757812 0.503906 C 11.699219 0.503906 13.714844 -0.109375 14.796875 -1.007812 L 16.234375 -3.058594 L 16.234375 0 L 19.332031 0 Z M 10.222656 -1.871094 C 6.40625 -1.871094 4.464844 -5.292969 4.464844 -9.613281 C 4.464844 -14.617188 7.054688 -17.207031 10.402344 -17.207031 C 13.140625 -17.207031 16.234375 -15.335938 16.234375 -10.402344 L 16.234375 -9.359375 C 16.234375 -3.886719 13.390625 -1.871094 10.222656 -1.871094 Z M 10.222656 -1.871094"/></g><g id="aX"><path d="M 19.332031 -19.078125 L 16.234375 -19.078125 L 16.234375 -16.453125 L 14.976562 -18.324219 C 14.003906 -19.117188 11.988281 -19.585938 10.402344 -19.585938 C 5.472656 -19.585938 1.078125 -16.308594 1.078125 -9.253906 C 1.078125 -3.671875 4.175781 0.503906 9.757812 0.503906 C 11.699219 0.503906 13.714844 -0.109375 14.796875 -1.007812 L 16.234375 -3.058594 L 16.234375 -2.734375 C 16.234375 -2.160156 16.234375 -1.546875 16.199219 -0.648438 C 16.054688 3.023438 14.003906 5.183594 10.222656 5.183594 C 6.949219 5.183594 5.074219 3.5625 4.824219 1.222656 L 4.789062 0.898438 L 1.65625 0.898438 L 1.691406 1.261719 C 2.089844 5.292969 4.789062 7.558594 10.222656 7.558594 C 15.730469 7.558594 19.117188 4.609375 19.296875 -0.972656 C 19.332031 -2.015625 19.332031 -3.492188 19.332031 -4.679688 Z M 10.222656 -1.871094 C 6.40625 -1.871094 4.464844 -5.292969 4.464844 -9.613281 C 4.464844 -14.617188 7.054688 -17.207031 10.402344 -17.207031 C 13.140625 -17.207031 16.234375 -15.335938 16.234375 -10.402344 L 16.234375 -9.359375 C 16.234375 -3.886719 13.390625 -1.871094 10.222656 -1.871094 Z M 10.222656 -1.871094"/></g><g id="aY"><path d="M 18.71875 -14.003906 C 18.433594 -17.351562 16.09375 -19.585938 11.914062 -19.585938 C 9.972656 -19.585938 8.566406 -19.261719 6.949219 -18 L 5.761719 -15.804688 L 5.761719 -26.640625 L 2.664062 -26.640625 L 2.664062 0 L 5.761719 0 L 5.761719 -8.386719 C 5.761719 -14.902344 8.28125 -17.0625 11.269531 -17.136719 C 14.21875 -17.207031 15.445312 -15.480469 15.625 -13.246094 C 15.695312 -12.277344 15.695312 -11.484375 15.695312 -10.511719 L 15.695312 0 L 18.792969 0 L 18.792969 -10.726562 C 18.792969 -12.277344 18.792969 -13.03125 18.71875 -14.003906 Z M 18.71875 -14.003906"/></g><g id="aZ"><path d="M 5.617188 -26.460938 L 2.519531 -26.460938 L 2.519531 -5.363281 C 2.519531 -4.320312 2.519531 -3.492188 2.554688 -2.84375 C 2.664062 -0.433594 3.996094 0.144531 5.796875 0.144531 C 6.515625 0.144531 7.308594 0.109375 7.992188 0 L 7.992188 -2.230469 C 6.300781 -2.050781 5.722656 -2.449219 5.652344 -3.671875 C 5.617188 -4.285156 5.617188 -4.894531 5.617188 -5.472656 Z M 5.617188 -26.460938"/></g><clipPath id="d"><path d="M 0.71875 1 L 441 1 L 441 441 L 0.71875 441 Z M 0.71875 1"/></clipPath><clipPath id="c"><path d="M0 0H442V442H0z"/></clipPath><clipPath id="g"><path d="M 1 2 L 730.558594 2 L 730.558594 731 L 1 731 Z M 1 2"/></clipPath><clipPath id="f"><path d="M0 0H731V731H0z"/></clipPath><clipPath id="h"><path d="M 877 374.929688 L 894 374.929688 L 894 391 L 877 391 Z M 877 374.929688"/></clipPath><clipPath id="i"><path d="M 866.519531 392 L 904.019531 392 L 904.019531 472 L 866.519531 472 Z M 866.519531 392"/></clipPath><clipPath id="j"><path d="M 980 374.929688 L 996 374.929688 L 996 391 L 980 391 Z M 980 374.929688"/></clipPath><clipPath id="m"><path d="M 0 0.0390625 L 167 0.0390625 L 167 167 L 0 167 Z M 0 0.0390625"/></clipPath><clipPath id="l"><path d="M0 0H168V168H0z"/></clipPath><clipPath id="F"><path d="M 0.28125 0.238281 L 167.320312 0.238281 L 167.320312 167.519531 L 0.28125 167.519531 Z M 0.28125 0.238281"/></clipPath><clipPath id="E"><path d="M0 0H168V168H0z"/></clipPath><clipPath id="I"><path d="M 1 1 L 167.761719 1 L 167.761719 167.640625 L 1 167.640625 Z M 1 1"/></clipPath><clipPath id="H"><path d="M0 0H168V168H0z"/></clipPath><clipPath id="L"><path d="M 0.28125 1 L 167.320312 1 L 167.320312 167.640625 L 0.28125 167.640625 Z M 0.28125 1"/></clipPath><clipPath id="K"><path d="M0 0H168V168H0z"/></clipPath><clipPath id="Y"><path d="M 664 351.789062 L 673 351.789062 L 673 360 L 664 360 Z M 664 351.789062"/></clipPath><clipPath id="Z"><path d="M 658.839844 360 L 677.589844 360 L 677.589844 400 L 658.839844 400 Z M 658.839844 360"/></clipPath><clipPath id="aa"><path d="M 715 351.789062 L 724 351.789062 L 724 360 L 715 360 Z M 715 351.789062"/></clipPath><clipPath id="af"><path d="M 687 674.140625 L 699 674.140625 L 699 686 L 687 686 Z M 687 674.140625"/></clipPath><clipPath id="ag"><path d="M 680.050781 686 L 706.300781 686 L 706.300781 741 L 680.050781 741 Z M 680.050781 686"/></clipPath><clipPath id="ah"><path d="M 758 674.140625 L 770 674.140625 L 770 686 L 758 686 Z M 758 674.140625"/></clipPath><clipPath id="ao"><path d="M 0.601562 0.839844 L 31.078125 0.839844 L 31.078125 34.199219 L 0.601562 34.199219 Z M 0.601562 0.839844"/></clipPath><clipPath id="an"><path d="M0 0H32V35H0z"/></clipPath><clipPath id="ap"><path d="M 498 525.324219 L 507 525.324219 L 507 534 L 498 534 Z M 498 525.324219"/></clipPath><clipPath id="aq"><path d="M 493.394531 534 L 512.144531 534 L 512.144531 574 L 493.394531 574 Z M 493.394531 534"/></clipPath><clipPath id="ar"><path d="M 550 525.324219 L 558 525.324219 L 558 534 L 550 534 Z M 550 525.324219"/></clipPath><clipPath id="as"><path d="M 543 534 L 565.660156 534 L 565.660156 574 L 543 574 Z M 543 534"/></clipPath><mask id="b"><g filter="url(#a)"><path fill-opacity=".427" d="M-144 -81H1584V891H-144z"/></g></mask><mask id="e"><g filter="url(#a)"><path fill-opacity=".4" d="M-144 -81H1584V891H-144z"/></g></mask><mask id="k"><g filter="url(#a)"><path fill-opacity=".388" d="M-144 -81H1584V891H-144z"/></g></mask><mask id="D"><g filter="url(#a)"><path fill-opacity=".388" d="M-144 -81H1584V891H-144z"/></g></mask><mask id="G"><g filter="url(#a)"><path fill-opacity=".388" d="M-144 -81H1584V891H-144z"/></g></mask><mask id="J"><g filter="url(#a)"><path fill-opacity=".388" d="M-144 -81H1584V891H-144z"/></g></mask><mask id="am"><g filter="url(#a)"><path fill-opacity=".427" d="M-144 -81H1584V891H-144z"/></g></mask><filter x="0%" y="0%" width="100%" xmlns:xlink="http://www.w3.org/1999/xlink" xlink:type="simple" xlink:actuate="onLoad" height="100%" id="a" xlink:show="other"><feColorMatrix values="0 0 0 0 1 0 0 0 0 1 0 0 0 0 1 0 0 0 1 0" color-interpolation-filters="sRGB"/></filter></defs><g mask="url(#b)"><g><g clip-path="url(#c)" transform="translate(390 233)"><g clip-path="url(#d)"><path fill="#F03612" d="M 220.792969 440.789062 C 162.09375 440.789062 106.820312 417.941406 65.34375 376.378906 C 23.777344 334.902344 0.929688 279.628906 0.929688 220.925781 C 0.929688 162.226562 23.777344 106.953125 65.34375 65.476562 C 106.820312 23.914062 162.09375 1.066406 220.792969 1.066406 C 279.492188 1.066406 334.765625 23.914062 376.242188 65.476562 C 417.808594 107.042969 440.65625 162.226562 440.65625 220.925781 C 440.65625 279.628906 417.808594 334.902344 376.242188 376.378906 C 334.765625 417.941406 279.492188 440.789062 220.792969 440.789062 Z M 220.792969 14.246094 C 165.609375 14.246094 113.675781 35.777344 74.660156 74.792969 C 35.640625 113.808594 14.113281 165.742188 14.113281 220.925781 C 14.113281 276.113281 35.640625 328.046875 74.660156 367.0625 C 113.675781 406.078125 165.609375 427.609375 220.792969 427.609375 C 275.976562 427.609375 327.914062 406.078125 366.929688 367.0625 C 405.945312 328.046875 427.472656 276.113281 427.472656 220.925781 C 427.472656 165.742188 405.945312 113.808594 366.929688 74.792969 C 327.914062 35.777344 275.976562 14.246094 220.792969 14.246094 Z M 220.792969 14.246094"/></g></g></g></g><g mask="url(#e)"><g><g clip-path="url(#f)" transform="translate(354 79)"><g clip-path="url(#g)"><path fill="#F00" d="M 366 2 C 164.691406 2 1.5 165.191406 1.5 366.5 C 1.5 567.808594 164.691406 731 366 731 C 567.308594 731 730.5 567.808594 730.5 366.5 C 730.5 165.191406 567.308594 2 366 2 Z M 366 2"/></g></g></g></g><g clip-path="url(#h)"><path fill="#FFFDFD" d="M 885.3125 390.964844 C 889.730469 390.964844 893.316406 387.382812 893.316406 382.960938 C 893.316406 378.539062 889.730469 374.953125 885.3125 374.953125 C 880.890625 374.953125 877.304688 378.539062 877.304688 382.960938 C 877.304688 387.382812 880.890625 390.964844 885.3125 390.964844"/></g><g clip-path="url(#i)"><path fill="#FFFDFD" d="M 876.742188 392.734375 C 871.074219 392.734375 866.515625 397.359375 866.515625 403.128906 L 866.515625 427.710938 C 866.515625 432.492188 873.507812 432.492188 873.507812 427.710938 L 873.507812 405.230469 L 875.164062 405.230469 L 875.164062 466.78125 C 875.164062 473.167969 884.476562 472.980469 884.476562 466.78125 L 884.476562 431.050781 L 886.082031 431.050781 L 886.082031 466.78125 C 886.082031 472.980469 895.445312 473.167969 895.445312 466.78125 L 895.445312 405.230469 L 897.0625 405.230469 L 897.0625 427.710938 C 897.0625 432.527344 904.019531 432.527344 904.007812 427.710938 L 904.007812 403.273438 C 904.007812 397.957031 899.878906 392.746094 893.652344 392.746094 L 876.742188 392.734375"/></g><g clip-path="url(#j)"><path fill="#FFFDFD" d="M 988.140625 390.78125 C 992.484375 390.769531 995.984375 387.234375 995.976562 382.878906 C 995.984375 378.519531 992.484375 374.984375 988.140625 374.972656 C 983.84375 374.984375 980.34375 378.519531 980.355469 382.878906 C 980.34375 387.234375 983.84375 390.769531 988.140625 390.78125"/></g><path fill="#FFFDFD" d="M 987.015625 440.847656 L 987.015625 468.15625 C 987.011719 473.125 979.636719 473.125 979.652344 468.15625 L 979.652344 441.039062 L 969.707031 441.039062 L 980.308594 403.9375 L 978.667969 403.9375 L 972.523438 424.855469 C 971.046875 429.421875 964.84375 427.550781 966.285156 422.675781 L 973.085938 399.960938 C 973.832031 397.363281 977.082031 392.773438 982.699219 392.769531 L 993.441406 392.769531 C 999.03125 392.773438 1002.292969 397.402344 1003.152344 399.960938 L 1009.953125 422.628906 C 1011.34375 427.527344 1005.1875 429.546875 1003.714844 424.804688 L 997.570312 403.9375 L 995.789062 403.9375 L 1006.4375 441.039062 L 996.539062 441.039062 L 996.539062 468.203125 C 996.539062 473.125 989.195312 473.101562 989.175781 468.203125 L 989.175781 440.847656 L 987.015625 440.847656"/><g mask="url(#k)"><g><g clip-path="url(#l)" transform="translate(444 287)"><g clip-path="url(#m)"><path fill="#FFFDFD" d="M 83.605469 0.492188 C 37.628906 0.492188 0.355469 37.761719 0.355469 83.742188 C 0.355469 129.71875 37.628906 166.992188 83.605469 166.992188 C 129.585938 166.992188 166.855469 129.71875 166.855469 83.742188 C 166.855469 37.761719 129.585938 0.492188 83.605469 0.492188 Z M 83.605469 0.492188"/></g></g></g></g><g fill="#FFF"><use x="856.805" y="510.69" xmlns:xlink="http://www.w3.org/1999/xlink" xlink:href="#n" xlink:type="simple" xlink:actuate="onLoad" xlink:show="embed"/></g><g fill="#FFF"><use x="875.029" y="510.69" xmlns:xlink="http://www.w3.org/1999/xlink" xlink:href="#o" xlink:type="simple" xlink:actuate="onLoad" xlink:show="embed"/></g><g fill="#FFF"><use x="893.254" y="510.69" xmlns:xlink="http://www.w3.org/1999/xlink" xlink:href="#p" xlink:type="simple" xlink:actuate="onLoad" xlink:show="embed"/></g><g fill="#FFF"><use x="959.821" y="510.69" xmlns:xlink="http://www.w3.org/1999/xlink" xlink:href="#n" xlink:type="simple" xlink:actuate="onLoad" xlink:show="embed"/></g><g fill="#FFF"><use x="978.045" y="510.69" xmlns:xlink="http://www.w3.org/1999/xlink" xlink:href="#q" xlink:type="simple" xlink:actuate="onLoad" xlink:show="embed"/></g><g fill="#FFF"><use x="996.27" y="510.69" xmlns:xlink="http://www.w3.org/1999/xlink" xlink:href="#p" xlink:type="simple" xlink:actuate="onLoad" xlink:show="embed"/></g><g fill="#FFF"><use x="501.984" y="214.218" xmlns:xlink="http://www.w3.org/1999/xlink" xlink:href="#r" xlink:type="simple" xlink:actuate="onLoad" xlink:show="embed"/></g><g fill="#FFF"><use x="530.815" y="214.218" xmlns:xlink="http://www.w3.org/1999/xlink" xlink:href="#s" xlink:type="simple" xlink:actuate="onLoad" xlink:show="embed"/></g><g fill="#FFF"><use x="555.185" y="214.218" xmlns:xlink="http://www.w3.org/1999/xlink" xlink:href="#t" xlink:type="simple" xlink:actuate="onLoad" xlink:show="embed"/></g><g fill="#FFF"><use x="584.863" y="214.218" xmlns:xlink="http://www.w3.org/1999/xlink" xlink:href="#s" xlink:type="simple" xlink:actuate="onLoad" xlink:show="embed"/></g><g fill="#FFF"><use x="609.233" y="214.218" xmlns:xlink="http://www.w3.org/1999/xlink" xlink:href="#u" xlink:type="simple" xlink:actuate="onLoad" xlink:show="embed"/></g><g fill="#FFF"><use x="635.004" y="214.218" xmlns:xlink="http://www.w3.org/1999/xlink" xlink:href="#v" xlink:type="simple" xlink:actuate="onLoad" xlink:show="embed"/></g><g fill="#FFF"><use x="661.586" y="214.218" xmlns:xlink="http://www.w3.org/1999/xlink" xlink:href="#w" xlink:type="simple" xlink:actuate="onLoad" xlink:show="embed"/></g><g fill="#FFF"><use x="685.513" y="214.218" xmlns:xlink="http://www.w3.org/1999/xlink" xlink:href="#x" xlink:type="simple" xlink:actuate="onLoad" xlink:show="embed"/></g><g fill="#FFF"><use x="694.325" y="214.218" xmlns:xlink="http://www.w3.org/1999/xlink" xlink:href="#y" xlink:type="simple" xlink:actuate="onLoad" xlink:show="embed"/></g><g fill="#FFF"><use x="718.953" y="214.218" xmlns:xlink="http://www.w3.org/1999/xlink" xlink:href="#z" xlink:type="simple" xlink:actuate="onLoad" xlink:show="embed"/></g><g fill="#FFF"><use x="748.816" y="214.218" xmlns:xlink="http://www.w3.org/1999/xlink" xlink:href="#y" xlink:type="simple" xlink:actuate="onLoad" xlink:show="embed"/></g><g fill="#FFF"><use x="773.443" y="214.218" xmlns:xlink="http://www.w3.org/1999/xlink" xlink:href="#A" xlink:type="simple" xlink:actuate="onLoad" xlink:show="embed"/></g><g fill="#FFF"><use x="800.984" y="214.218" xmlns:xlink="http://www.w3.org/1999/xlink" xlink:href="#w" xlink:type="simple" xlink:actuate="onLoad" xlink:show="embed"/></g><g fill="#FFF"><use x="824.911" y="214.218" xmlns:xlink="http://www.w3.org/1999/xlink" xlink:href="#v" xlink:type="simple" xlink:actuate="onLoad" xlink:show="embed"/></g><g fill="#FFF"><use x="851.493" y="214.218" xmlns:xlink="http://www.w3.org/1999/xlink" xlink:href="#B" xlink:type="simple" xlink:actuate="onLoad" xlink:show="embed"/></g><g fill="#FFF"><use x="876.121" y="214.218" xmlns:xlink="http://www.w3.org/1999/xlink" xlink:href="#C" xlink:type="simple" xlink:actuate="onLoad" xlink:show="embed"/></g><g fill="#FFF"><use x="888.546" y="214.218" xmlns:xlink="http://www.w3.org/1999/xlink" xlink:href="#z" xlink:type="simple" xlink:actuate="onLoad" xlink:show="embed"/></g><g fill="#FFF"><use x="918.409" y="214.218" xmlns:xlink="http://www.w3.org/1999/xlink" xlink:href="#t" xlink:type="simple" xlink:actuate="onLoad" xlink:show="embed"/></g><g mask="url(#D)"><g><g clip-path="url(#E)" transform="translate(611 282)"><g clip-path="url(#F)"><path fill="#FFFDFD" d="M 83.945312 0.78125 C 37.964844 0.78125 0.695312 38.054688 0.695312 84.03125 C 0.695312 130.007812 37.964844 167.28125 83.945312 167.28125 C 129.921875 167.28125 167.195312 130.007812 167.195312 84.03125 C 167.195312 38.054688 129.921875 0.78125 83.945312 0.78125 Z M 83.945312 0.78125"/></g></g></g></g><g mask="url(#G)"><g><g clip-path="url(#H)" transform="translate(444 453)"><g clip-path="url(#I)"><path fill="#FFFDFD" d="M 84.332031 1.101562 C 38.351562 1.101562 1.082031 38.375 1.082031 84.351562 C 1.082031 130.332031 38.351562 167.601562 84.332031 167.601562 C 130.308594 167.601562 167.582031 130.332031 167.582031 84.351562 C 167.582031 38.375 130.308594 1.101562 84.332031 1.101562 Z M 84.332031 1.101562"/></g></g></g></g><g mask="url(#J)"><g><g clip-path="url(#K)" transform="translate(611 453)"><g clip-path="url(#L)"><path fill="#FFFDFD" d="M 83.945312 1.101562 C 37.964844 1.101562 0.695312 38.375 0.695312 84.351562 C 0.695312 130.332031 37.964844 167.601562 83.945312 167.601562 C 129.921875 167.601562 167.195312 130.332031 167.195312 84.351562 C 167.195312 38.375 129.921875 1.101562 83.945312 1.101562 Z M 83.945312 1.101562"/></g></g></g></g><g fill="#FFF"><use x="486.682" y="338.513" xmlns:xlink="http://www.w3.org/1999/xlink" xlink:href="#M" xlink:type="simple" xlink:actuate="onLoad" xlink:show="embed"/></g><g fill="#FFF"><use x="502.761" y="338.513" xmlns:xlink="http://www.w3.org/1999/xlink" xlink:href="#N" xlink:type="simple" xlink:actuate="onLoad" xlink:show="embed"/></g><g fill="#FFF"><use x="518.35" y="338.513" xmlns:xlink="http://www.w3.org/1999/xlink" xlink:href="#O" xlink:type="simple" xlink:actuate="onLoad" xlink:show="embed"/></g><g fill="#FFF"><use x="533.248" y="338.513" xmlns:xlink="http://www.w3.org/1999/xlink" xlink:href="#P" xlink:type="simple" xlink:actuate="onLoad" xlink:show="embed"/></g><g fill="#FFF"><use x="540.764" y="338.513" xmlns:xlink="http://www.w3.org/1999/xlink" xlink:href="#Q" xlink:type="simple" xlink:actuate="onLoad" xlink:show="embed"/></g><g fill="#FFF"><use x="555.327" y="338.513" xmlns:xlink="http://www.w3.org/1999/xlink" xlink:href="#O" xlink:type="simple" xlink:actuate="onLoad" xlink:show="embed"/></g><g fill="#FFF"><use x="460.666" y="510.651" xmlns:xlink="http://www.w3.org/1999/xlink" xlink:href="#R" xlink:type="simple" xlink:actuate="onLoad" xlink:show="embed"/></g><g fill="#FFF"><use x="475.564" y="510.651" xmlns:xlink="http://www.w3.org/1999/xlink" xlink:href="#S" xlink:type="simple" xlink:actuate="onLoad" xlink:show="embed"/></g><g fill="#FFF"><use x="493.628" y="510.651" xmlns:xlink="http://www.w3.org/1999/xlink" xlink:href="#T" xlink:type="simple" xlink:actuate="onLoad" xlink:show="embed"/></g><g fill="#FFF"><use x="508.102" y="510.651" xmlns:xlink="http://www.w3.org/1999/xlink" xlink:href="#P" xlink:type="simple" xlink:actuate="onLoad" xlink:show="embed"/></g><g fill="#FFF"><use x="515.618" y="510.651" xmlns:xlink="http://www.w3.org/1999/xlink" xlink:href="#O" xlink:type="simple" xlink:actuate="onLoad" xlink:show="embed"/></g><g fill="#FFF"><use x="530.515" y="510.651" xmlns:xlink="http://www.w3.org/1999/xlink" xlink:href="#P" xlink:type="simple" xlink:actuate="onLoad" xlink:show="embed"/></g><g fill="#FFF"><use x="538.031" y="510.651" xmlns:xlink="http://www.w3.org/1999/xlink" xlink:href="#U" xlink:type="simple" xlink:actuate="onLoad" xlink:show="embed"/></g><g fill="#FFF"><use x="555.047" y="510.651" xmlns:xlink="http://www.w3.org/1999/xlink" xlink:href="#P" xlink:type="simple" xlink:actuate="onLoad" xlink:show="embed"/></g><g fill="#FFF"><use x="562.563" y="510.651" xmlns:xlink="http://www.w3.org/1999/xlink" xlink:href="#M" xlink:type="simple" xlink:actuate="onLoad" xlink:show="embed"/></g><g fill="#FFF"><use x="578.643" y="510.651" xmlns:xlink="http://www.w3.org/1999/xlink" xlink:href="#V" xlink:type="simple" xlink:actuate="onLoad" xlink:show="embed"/></g><g fill="#FFF"><use x="634.094" y="338.513" xmlns:xlink="http://www.w3.org/1999/xlink" xlink:href="#Q" xlink:type="simple" xlink:actuate="onLoad" xlink:show="embed"/></g><g fill="#FFF"><use x="648.657" y="338.513" xmlns:xlink="http://www.w3.org/1999/xlink" xlink:href="#U" xlink:type="simple" xlink:actuate="onLoad" xlink:show="embed"/></g><g fill="#FFF"><use x="665.673" y="338.513" xmlns:xlink="http://www.w3.org/1999/xlink" xlink:href="#P" xlink:type="simple" xlink:actuate="onLoad" xlink:show="embed"/></g><g fill="#FFF"><use x="673.189" y="338.513" xmlns:xlink="http://www.w3.org/1999/xlink" xlink:href="#W" xlink:type="simple" xlink:actuate="onLoad" xlink:show="embed"/></g><g fill="#FFF"><use x="687.931" y="338.513" xmlns:xlink="http://www.w3.org/1999/xlink" xlink:href="#V" xlink:type="simple" xlink:actuate="onLoad" xlink:show="embed"/></g><g fill="#FFF"><use x="705.883" y="338.513" xmlns:xlink="http://www.w3.org/1999/xlink" xlink:href="#O" xlink:type="simple" xlink:actuate="onLoad" xlink:show="embed"/></g><g fill="#FFF"><use x="720.781" y="338.513" xmlns:xlink="http://www.w3.org/1999/xlink" xlink:href="#P" xlink:type="simple" xlink:actuate="onLoad" xlink:show="embed"/></g><g fill="#FFF"><use x="728.297" y="338.513" xmlns:xlink="http://www.w3.org/1999/xlink" xlink:href="#Q" xlink:type="simple" xlink:actuate="onLoad" xlink:show="embed"/></g><g fill="#FFF"><use x="742.86" y="338.513" xmlns:xlink="http://www.w3.org/1999/xlink" xlink:href="#O" xlink:type="simple" xlink:actuate="onLoad" xlink:show="embed"/></g><g fill="#FFF"><use x="624.09" y="511.421" xmlns:xlink="http://www.w3.org/1999/xlink" xlink:href="#W" xlink:type="simple" xlink:actuate="onLoad" xlink:show="embed"/></g><g fill="#FFF"><use x="638.831" y="511.421" xmlns:xlink="http://www.w3.org/1999/xlink" xlink:href="#U" xlink:type="simple" xlink:actuate="onLoad" xlink:show="embed"/></g><g fill="#FFF"><use x="655.848" y="511.421" xmlns:xlink="http://www.w3.org/1999/xlink" xlink:href="#S" xlink:type="simple" xlink:actuate="onLoad" xlink:show="embed"/></g><g fill="#FFF"><use x="673.912" y="511.421" xmlns:xlink="http://www.w3.org/1999/xlink" xlink:href="#V" xlink:type="simple" xlink:actuate="onLoad" xlink:show="embed"/></g><g fill="#FFF"><use x="691.865" y="511.421" xmlns:xlink="http://www.w3.org/1999/xlink" xlink:href="#S" xlink:type="simple" xlink:actuate="onLoad" xlink:show="embed"/></g><g fill="#FFF"><use x="709.929" y="511.421" xmlns:xlink="http://www.w3.org/1999/xlink" xlink:href="#X" xlink:type="simple" xlink:actuate="onLoad" xlink:show="embed"/></g><g fill="#FFF"><use x="730.937" y="511.421" xmlns:xlink="http://www.w3.org/1999/xlink" xlink:href="#P" xlink:type="simple" xlink:actuate="onLoad" xlink:show="embed"/></g><g fill="#FFF"><use x="738.453" y="511.421" xmlns:xlink="http://www.w3.org/1999/xlink" xlink:href="#Q" xlink:type="simple" xlink:actuate="onLoad" xlink:show="embed"/></g><g fill="#FFF"><use x="753.016" y="511.421" xmlns:xlink="http://www.w3.org/1999/xlink" xlink:href="#O" xlink:type="simple" xlink:actuate="onLoad" xlink:show="embed"/></g><g clip-path="url(#Y)"><path fill="#FFFDFD" d="M 668.238281 359.742188 C 670.449219 359.742188 672.238281 357.960938 672.238281 355.765625 C 672.238281 353.574219 670.449219 351.792969 668.238281 351.792969 C 666.027344 351.792969 664.234375 353.574219 664.234375 355.765625 C 664.234375 357.960938 666.027344 359.742188 668.238281 359.742188"/></g><g clip-path="url(#Z)"><path fill="#FFFDFD" d="M 663.953125 360.621094 C 661.117188 360.621094 658.839844 362.914062 658.839844 365.777344 L 658.839844 377.976562 C 658.839844 380.351562 662.335938 380.351562 662.335938 377.976562 L 662.335938 366.820312 L 663.164062 366.820312 L 663.164062 397.367188 C 663.164062 400.539062 667.820312 400.449219 667.820312 397.367188 L 667.820312 379.636719 L 668.621094 379.636719 L 668.621094 397.367188 C 668.621094 400.449219 673.304688 400.539062 673.304688 397.367188 L 673.304688 366.820312 L 674.113281 366.820312 L 674.113281 377.976562 C 674.113281 380.367188 677.589844 380.367188 677.585938 377.976562 L 677.585938 365.851562 C 677.585938 363.210938 675.519531 360.625 672.40625 360.625 L 663.953125 360.621094"/></g><g clip-path="url(#aa)"><path fill="#FFFDFD" d="M 719.503906 359.65625 C 721.671875 359.648438 723.421875 357.898438 723.417969 355.734375 C 723.421875 353.574219 721.671875 351.820312 719.503906 351.8125 C 717.355469 351.820312 715.601562 353.574219 715.609375 355.734375 C 715.601562 357.898438 717.355469 359.648438 719.503906 359.65625"/></g><path fill="#FFFDFD" d="M 718.9375 384.496094 L 718.9375 398.042969 C 718.9375 400.507812 715.25 400.507812 715.257812 398.042969 L 715.257812 384.589844 L 710.285156 384.589844 L 715.585938 366.183594 L 714.765625 366.183594 L 711.691406 376.558594 C 710.957031 378.828125 707.851562 377.898438 708.574219 375.480469 L 711.972656 364.210938 C 712.347656 362.921875 713.972656 360.644531 716.78125 360.640625 L 722.152344 360.640625 C 724.945312 360.644531 726.578125 362.941406 727.007812 364.210938 L 730.40625 375.457031 C 731.101562 377.886719 728.023438 378.886719 727.289062 376.535156 L 724.214844 366.183594 L 723.324219 366.183594 L 728.648438 384.589844 L 723.699219 384.589844 L 723.699219 398.066406 C 723.699219 400.507812 720.027344 400.496094 720.019531 398.066406 L 720.019531 384.496094 L 718.9375 384.496094"/><g fill="#FFF"><use x="653.134" y="423.423" xmlns:xlink="http://www.w3.org/1999/xlink" xlink:href="#ab" xlink:type="simple" xlink:actuate="onLoad" xlink:show="embed"/></g><g fill="#FFF"><use x="664.587" y="423.423" xmlns:xlink="http://www.w3.org/1999/xlink" xlink:href="#ac" xlink:type="simple" xlink:actuate="onLoad" xlink:show="embed"/></g><g fill="#FFF"><use x="676.039" y="423.423" xmlns:xlink="http://www.w3.org/1999/xlink" xlink:href="#ad" xlink:type="simple" xlink:actuate="onLoad" xlink:show="embed"/></g><g fill="#FFF"><use x="704.485" y="423.423" xmlns:xlink="http://www.w3.org/1999/xlink" xlink:href="#ab" xlink:type="simple" xlink:actuate="onLoad" xlink:show="embed"/></g><g fill="#FFF"><use x="715.937" y="423.423" xmlns:xlink="http://www.w3.org/1999/xlink" xlink:href="#ae" xlink:type="simple" xlink:actuate="onLoad" xlink:show="embed"/></g><g fill="#FFF"><use x="727.39" y="423.423" xmlns:xlink="http://www.w3.org/1999/xlink" xlink:href="#ad" xlink:type="simple" xlink:actuate="onLoad" xlink:show="embed"/></g><g clip-path="url(#af)"><path fill="#FFFDFD" d="M 693.207031 685.160156 C 696.300781 685.160156 698.808594 682.699219 698.808594 679.660156 C 698.808594 676.621094 696.300781 674.160156 693.207031 674.160156 C 690.109375 674.160156 687.601562 676.621094 687.601562 679.660156 C 687.601562 682.699219 690.109375 685.160156 693.207031 685.160156"/></g><g clip-path="url(#ag)"><path fill="#FFFDFD" d="M 687.207031 686.375 C 683.238281 686.375 680.046875 689.554688 680.046875 693.515625 L 680.046875 710.402344 C 680.046875 713.6875 684.945312 713.6875 684.945312 710.402344 L 684.945312 694.960938 L 686.101562 694.960938 L 686.101562 737.242188 C 686.101562 741.632812 692.621094 741.503906 692.621094 737.242188 L 692.621094 712.699219 L 693.746094 712.699219 L 693.746094 737.242188 C 693.746094 741.503906 700.300781 741.632812 700.300781 737.242188 L 700.300781 694.960938 L 701.429688 694.960938 L 701.429688 710.402344 C 701.429688 713.710938 706.300781 713.710938 706.292969 710.402344 L 706.292969 693.617188 C 706.292969 689.960938 703.402344 686.382812 699.046875 686.382812 L 687.207031 686.375"/></g><g clip-path="url(#ah)"><path fill="#FFFDFD" d="M 764.324219 685.035156 C 767.335938 685.023438 769.761719 682.597656 769.757812 679.605469 C 769.761719 676.609375 767.335938 674.183594 764.324219 674.175781 C 761.34375 674.183594 758.914062 676.609375 758.921875 679.605469 C 758.914062 682.597656 761.34375 685.023438 764.324219 685.035156"/></g><path fill="#FFFDFD" d="M 763.542969 719.429688 L 763.542969 738.1875 C 763.539062 741.601562 758.425781 741.601562 758.4375 738.1875 L 758.4375 719.558594 L 751.539062 719.558594 L 758.890625 694.070312 L 757.753906 694.070312 L 753.492188 708.441406 C 752.46875 711.578125 748.164062 710.292969 749.164062 706.945312 L 753.882812 691.339844 C 754.398438 689.554688 756.652344 686.402344 760.550781 686.398438 L 768 686.398438 C 771.875 686.402344 774.136719 689.582031 774.734375 691.339844 L 779.453125 706.914062 C 780.414062 710.277344 776.144531 711.664062 775.125 708.410156 L 770.863281 694.070312 L 769.625 694.070312 L 777.011719 719.558594 L 770.148438 719.558594 L 770.148438 738.21875 C 770.148438 741.601562 765.054688 741.582031 765.039062 738.21875 L 765.039062 719.429688 L 763.542969 719.429688"/><g fill="#FFF"><use x="670.912" y="770.731" xmlns:xlink="http://www.w3.org/1999/xlink" xlink:href="#ai" xlink:type="simple" xlink:actuate="onLoad" xlink:show="embed"/></g><g fill="#FFF"><use x="684.982" y="770.731" xmlns:xlink="http://www.w3.org/1999/xlink" xlink:href="#aj" xlink:type="simple" xlink:actuate="onLoad" xlink:show="embed"/></g><g fill="#FFF"><use x="699.052" y="770.731" xmlns:xlink="http://www.w3.org/1999/xlink" xlink:href="#ak" xlink:type="simple" xlink:actuate="onLoad" xlink:show="embed"/></g><g fill="#FFF"><use x="742.276" y="770.731" xmlns:xlink="http://www.w3.org/1999/xlink" xlink:href="#ai" xlink:type="simple" xlink:actuate="onLoad" xlink:show="embed"/></g><g fill="#FFF"><use x="756.346" y="770.731" xmlns:xlink="http://www.w3.org/1999/xlink" xlink:href="#al" xlink:type="simple" xlink:actuate="onLoad" xlink:show="embed"/></g><g fill="#FFF"><use x="770.416" y="770.731" xmlns:xlink="http://www.w3.org/1999/xlink" xlink:href="#ak" xlink:type="simple" xlink:actuate="onLoad" xlink:show="embed"/></g><g mask="url(#am)"><g><g clip-path="url(#an)" transform="translate(705 645)"><g clip-path="url(#ao)"><path stroke-linecap="round" transform="matrix(-2.52212 -4.6715 4.44126 -2.39781 22.192 29.232)" fill="none" d="M 2.99986 -0.000237018 L 3.881184 -0.000204145" stroke="#F03612"/></g><path stroke-linecap="round" transform="matrix(-2.52212 -4.6715 4.44126 -2.39781 22.192 29.232)" fill="#F03612" stroke-linejoin="round" d="M 2.500107 -1.499557 L 0.500411 -0.0000620984 L 2.500082 1.499646 Z M 2.500107 -1.499557" stroke="#F03612"/></g></g></g><g clip-path="url(#ap)"><path fill="#FFFDFD" d="M 502.792969 533.277344 C 505.003906 533.277344 506.792969 531.5 506.792969 529.304688 C 506.792969 527.109375 505.003906 525.332031 502.792969 525.332031 C 500.582031 525.332031 498.789062 527.109375 498.789062 529.304688 C 498.789062 531.5 500.582031 533.277344 502.792969 533.277344"/></g><g clip-path="url(#aq)"><path fill="#FFFDFD" d="M 498.507812 534.15625 C 495.671875 534.15625 493.394531 536.453125 493.394531 539.316406 L 493.394531 551.515625 C 493.394531 553.886719 496.890625 553.886719 496.890625 551.515625 L 496.890625 540.359375 L 497.71875 540.359375 L 497.71875 570.90625 C 497.71875 574.078125 502.375 573.984375 502.375 570.90625 L 502.375 553.175781 L 503.175781 553.175781 L 503.175781 570.90625 C 503.175781 573.984375 507.859375 574.078125 507.859375 570.90625 L 507.859375 540.359375 L 508.667969 540.359375 L 508.667969 551.515625 C 508.667969 553.90625 512.144531 553.90625 512.140625 551.515625 L 512.140625 539.386719 C 512.140625 536.75 510.074219 534.164062 506.960938 534.164062 L 498.507812 534.15625"/></g><g clip-path="url(#ar)"><path fill="#FFFDFD" d="M 554.058594 533.195312 C 556.226562 533.1875 557.976562 531.433594 557.972656 529.273438 C 557.976562 527.109375 556.226562 525.359375 554.058594 525.351562 C 551.910156 525.359375 550.15625 527.109375 550.164062 529.273438 C 550.15625 531.433594 551.910156 533.1875 554.058594 533.195312"/></g><g clip-path="url(#as)"><path fill="#FFFDFD" d="M 553.496094 558.035156 L 553.496094 571.582031 C 553.492188 574.046875 549.804688 574.046875 549.8125 571.582031 L 549.8125 558.128906 L 544.839844 558.128906 L 550.140625 539.722656 L 549.320312 539.722656 L 546.246094 550.097656 C 545.511719 552.363281 542.40625 551.4375 543.128906 549.019531 L 546.527344 537.75 C 546.902344 536.460938 548.527344 534.183594 551.335938 534.179688 L 556.707031 534.179688 C 559.5 534.183594 561.132812 536.480469 561.5625 537.75 L 564.960938 548.996094 C 565.65625 551.421875 562.578125 552.425781 561.84375 550.074219 L 558.769531 539.722656 L 557.878906 539.722656 L 563.203125 558.128906 L 558.253906 558.128906 L 558.253906 571.605469 C 558.253906 574.046875 554.582031 574.035156 554.574219 571.605469 L 554.574219 558.035156 L 553.496094 558.035156"/></g><g fill="#FFF"><use x="484.855" y="594.796" xmlns:xlink="http://www.w3.org/1999/xlink" xlink:href="#ab" xlink:type="simple" xlink:actuate="onLoad" xlink:show="embed"/></g><g fill="#FFF"><use x="496.308" y="594.796" xmlns:xlink="http://www.w3.org/1999/xlink" xlink:href="#at" xlink:type="simple" xlink:actuate="onLoad" xlink:show="embed"/></g><g fill="#FFF"><use x="507.761" y="594.796" xmlns:xlink="http://www.w3.org/1999/xlink" xlink:href="#ad" xlink:type="simple" xlink:actuate="onLoad" xlink:show="embed"/></g><g fill="#FFF"><use x="536.206" y="594.796" xmlns:xlink="http://www.w3.org/1999/xlink" xlink:href="#ab" xlink:type="simple" xlink:actuate="onLoad" xlink:show="embed"/></g><g fill="#FFF"><use x="547.659" y="594.796" xmlns:xlink="http://www.w3.org/1999/xlink" xlink:href="#ae" xlink:type="simple" xlink:actuate="onLoad" xlink:show="embed"/></g><g fill="#FFF"><use x="559.111" y="594.796" xmlns:xlink="http://www.w3.org/1999/xlink" xlink:href="#ad" xlink:type="simple" xlink:actuate="onLoad" xlink:show="embed"/></g><g fill="#FFF"><use x="633.806" y="554.427" xmlns:xlink="http://www.w3.org/1999/xlink" xlink:href="#au" xlink:type="simple" xlink:actuate="onLoad" xlink:show="embed"/></g><g fill="#FFF"><use x="646.774" y="554.427" xmlns:xlink="http://www.w3.org/1999/xlink" xlink:href="#av" xlink:type="simple" xlink:actuate="onLoad" xlink:show="embed"/></g><g fill="#FFF"><use x="657.498" y="554.427" xmlns:xlink="http://www.w3.org/1999/xlink" xlink:href="#aw" xlink:type="simple" xlink:actuate="onLoad" xlink:show="embed"/></g><g fill="#FFF"><use x="663.582" y="554.427" xmlns:xlink="http://www.w3.org/1999/xlink" xlink:href="#ax" xlink:type="simple" xlink:actuate="onLoad" xlink:show="embed"/></g><g fill="#FFF"><use x="668.018" y="554.427" xmlns:xlink="http://www.w3.org/1999/xlink" xlink:href="#ay" xlink:type="simple" xlink:actuate="onLoad" xlink:show="embed"/></g><g fill="#FFF"><use x="676.584" y="554.427" xmlns:xlink="http://www.w3.org/1999/xlink" xlink:href="#aw" xlink:type="simple" xlink:actuate="onLoad" xlink:show="embed"/></g><g fill="#FFF"><use x="682.668" y="554.427" xmlns:xlink="http://www.w3.org/1999/xlink" xlink:href="#az" xlink:type="simple" xlink:actuate="onLoad" xlink:show="embed"/></g><g fill="#FFF"><use x="692.458" y="554.427" xmlns:xlink="http://www.w3.org/1999/xlink" xlink:href="#aw" xlink:type="simple" xlink:actuate="onLoad" xlink:show="embed"/></g><g fill="#FFF"><use x="698.542" y="554.427" xmlns:xlink="http://www.w3.org/1999/xlink" xlink:href="#aA" xlink:type="simple" xlink:actuate="onLoad" xlink:show="embed"/></g><g fill="#FFF"><use x="703.352" y="554.427" xmlns:xlink="http://www.w3.org/1999/xlink" xlink:href="#ay" xlink:type="simple" xlink:actuate="onLoad" xlink:show="embed"/></g><g fill="#FFF"><use x="711.918" y="554.427" xmlns:xlink="http://www.w3.org/1999/xlink" xlink:href="#aw" xlink:type="simple" xlink:actuate="onLoad" xlink:show="embed"/></g><g fill="#FFF"><use x="718.002" y="554.427" xmlns:xlink="http://www.w3.org/1999/xlink" xlink:href="#aB" xlink:type="simple" xlink:actuate="onLoad" xlink:show="embed"/></g><g fill="#FFF"><use x="727.758" y="554.427" xmlns:xlink="http://www.w3.org/1999/xlink" xlink:href="#az" xlink:type="simple" xlink:actuate="onLoad" xlink:show="embed"/></g><g fill="#FFF"><use x="737.547" y="554.427" xmlns:xlink="http://www.w3.org/1999/xlink" xlink:href="#aC" xlink:type="simple" xlink:actuate="onLoad" xlink:show="embed"/></g><g fill="#FFF"><use x="742.51" y="554.427" xmlns:xlink="http://www.w3.org/1999/xlink" xlink:href="#aC" xlink:type="simple" xlink:actuate="onLoad" xlink:show="embed"/></g><g fill="#FFF"><use x="747.473" y="554.427" xmlns:xlink="http://www.w3.org/1999/xlink" xlink:href="#aD" xlink:type="simple" xlink:actuate="onLoad" xlink:show="embed"/></g><g fill="#FFF"><use x="651.773" y="577.934" xmlns:xlink="http://www.w3.org/1999/xlink" xlink:href="#ay" xlink:type="simple" xlink:actuate="onLoad" xlink:show="embed"/></g><g fill="#FFF"><use x="660.338" y="577.934" xmlns:xlink="http://www.w3.org/1999/xlink" xlink:href="#aA" xlink:type="simple" xlink:actuate="onLoad" xlink:show="embed"/></g><g fill="#FFF"><use x="665.148" y="577.934" xmlns:xlink="http://www.w3.org/1999/xlink" xlink:href="#aE" xlink:type="simple" xlink:actuate="onLoad" xlink:show="embed"/></g><g fill="#FFF"><use x="676.365" y="577.934" xmlns:xlink="http://www.w3.org/1999/xlink" xlink:href="#aF" xlink:type="simple" xlink:actuate="onLoad" xlink:show="embed"/></g><g fill="#FFF"><use x="687.208" y="577.934" xmlns:xlink="http://www.w3.org/1999/xlink" xlink:href="#aA" xlink:type="simple" xlink:actuate="onLoad" xlink:show="embed"/></g><g fill="#FFF"><use x="692.018" y="577.934" xmlns:xlink="http://www.w3.org/1999/xlink" xlink:href="#aG" xlink:type="simple" xlink:actuate="onLoad" xlink:show="embed"/></g><g fill="#FFF"><use x="697.712" y="577.934" xmlns:xlink="http://www.w3.org/1999/xlink" xlink:href="#aA" xlink:type="simple" xlink:actuate="onLoad" xlink:show="embed"/></g><g fill="#FFF"><use x="702.522" y="577.934" xmlns:xlink="http://www.w3.org/1999/xlink" xlink:href="#aB" xlink:type="simple" xlink:actuate="onLoad" xlink:show="embed"/></g><g fill="#FFF"><use x="712.277" y="577.934" xmlns:xlink="http://www.w3.org/1999/xlink" xlink:href="#az" xlink:type="simple" xlink:actuate="onLoad" xlink:show="embed"/></g><g fill="#FFF"><use x="722.066" y="577.934" xmlns:xlink="http://www.w3.org/1999/xlink" xlink:href="#aF" xlink:type="simple" xlink:actuate="onLoad" xlink:show="embed"/></g><g fill="#FFF"><use x="732.909" y="577.934" xmlns:xlink="http://www.w3.org/1999/xlink" xlink:href="#aw" xlink:type="simple" xlink:actuate="onLoad" xlink:show="embed"/></g><g fill="#FFF"><use x="466.469" y="387.026" xmlns:xlink="http://www.w3.org/1999/xlink" xlink:href="#au" xlink:type="simple" xlink:actuate="onLoad" xlink:show="embed"/></g><g fill="#FFF"><use x="479.437" y="387.026" xmlns:xlink="http://www.w3.org/1999/xlink" xlink:href="#av" xlink:type="simple" xlink:actuate="onLoad" xlink:show="embed"/></g><g fill="#FFF"><use x="490.161" y="387.026" xmlns:xlink="http://www.w3.org/1999/xlink" xlink:href="#aw" xlink:type="simple" xlink:actuate="onLoad" xlink:show="embed"/></g><g fill="#FFF"><use x="496.245" y="387.026" xmlns:xlink="http://www.w3.org/1999/xlink" xlink:href="#ax" xlink:type="simple" xlink:actuate="onLoad" xlink:show="embed"/></g><g fill="#FFF"><use x="500.681" y="387.026" xmlns:xlink="http://www.w3.org/1999/xlink" xlink:href="#ay" xlink:type="simple" xlink:actuate="onLoad" xlink:show="embed"/></g><g fill="#FFF"><use x="509.247" y="387.026" xmlns:xlink="http://www.w3.org/1999/xlink" xlink:href="#aw" xlink:type="simple" xlink:actuate="onLoad" xlink:show="embed"/></g><g fill="#FFF"><use x="515.331" y="387.026" xmlns:xlink="http://www.w3.org/1999/xlink" xlink:href="#az" xlink:type="simple" xlink:actuate="onLoad" xlink:show="embed"/></g><g fill="#FFF"><use x="525.121" y="387.026" xmlns:xlink="http://www.w3.org/1999/xlink" xlink:href="#aw" xlink:type="simple" xlink:actuate="onLoad" xlink:show="embed"/></g><g fill="#FFF"><use x="531.205" y="387.026" xmlns:xlink="http://www.w3.org/1999/xlink" xlink:href="#aA" xlink:type="simple" xlink:actuate="onLoad" xlink:show="embed"/></g><g fill="#FFF"><use x="536.015" y="387.026" xmlns:xlink="http://www.w3.org/1999/xlink" xlink:href="#ay" xlink:type="simple" xlink:actuate="onLoad" xlink:show="embed"/></g><g fill="#FFF"><use x="544.581" y="387.026" xmlns:xlink="http://www.w3.org/1999/xlink" xlink:href="#aw" xlink:type="simple" xlink:actuate="onLoad" xlink:show="embed"/></g><g fill="#FFF"><use x="550.665" y="387.026" xmlns:xlink="http://www.w3.org/1999/xlink" xlink:href="#aB" xlink:type="simple" xlink:actuate="onLoad" xlink:show="embed"/></g><g fill="#FFF"><use x="560.421" y="387.026" xmlns:xlink="http://www.w3.org/1999/xlink" xlink:href="#az" xlink:type="simple" xlink:actuate="onLoad" xlink:show="embed"/></g><g fill="#FFF"><use x="570.21" y="387.026" xmlns:xlink="http://www.w3.org/1999/xlink" xlink:href="#aC" xlink:type="simple" xlink:actuate="onLoad" xlink:show="embed"/></g><g fill="#FFF"><use x="575.173" y="387.026" xmlns:xlink="http://www.w3.org/1999/xlink" xlink:href="#aC" xlink:type="simple" xlink:actuate="onLoad" xlink:show="embed"/></g><g fill="#FFF"><use x="580.135" y="387.026" xmlns:xlink="http://www.w3.org/1999/xlink" xlink:href="#aD" xlink:type="simple" xlink:actuate="onLoad" xlink:show="embed"/></g><g fill="#FFF"><use x="484.435" y="410.533" xmlns:xlink="http://www.w3.org/1999/xlink" xlink:href="#ay" xlink:type="simple" xlink:actuate="onLoad" xlink:show="embed"/></g><g fill="#FFF"><use x="493.001" y="410.533" xmlns:xlink="http://www.w3.org/1999/xlink" xlink:href="#aA" xlink:type="simple" xlink:actuate="onLoad" xlink:show="embed"/></g><g fill="#FFF"><use x="497.811" y="410.533" xmlns:xlink="http://www.w3.org/1999/xlink" xlink:href="#aE" xlink:type="simple" xlink:actuate="onLoad" xlink:show="embed"/></g><g fill="#FFF"><use x="509.028" y="410.533" xmlns:xlink="http://www.w3.org/1999/xlink" xlink:href="#aF" xlink:type="simple" xlink:actuate="onLoad" xlink:show="embed"/></g><g fill="#FFF"><use x="519.871" y="410.533" xmlns:xlink="http://www.w3.org/1999/xlink" xlink:href="#aA" xlink:type="simple" xlink:actuate="onLoad" xlink:show="embed"/></g><g fill="#FFF"><use x="524.681" y="410.533" xmlns:xlink="http://www.w3.org/1999/xlink" xlink:href="#aG" xlink:type="simple" xlink:actuate="onLoad" xlink:show="embed"/></g><g fill="#FFF"><use x="530.374" y="410.533" xmlns:xlink="http://www.w3.org/1999/xlink" xlink:href="#aA" xlink:type="simple" xlink:actuate="onLoad" xlink:show="embed"/></g><g fill="#FFF"><use x="535.184" y="410.533" xmlns:xlink="http://www.w3.org/1999/xlink" xlink:href="#aB" xlink:type="simple" xlink:actuate="onLoad" xlink:show="embed"/></g><g fill="#FFF"><use x="544.94" y="410.533" xmlns:xlink="http://www.w3.org/1999/xlink" xlink:href="#az" xlink:type="simple" xlink:actuate="onLoad" xlink:show="embed"/></g><g fill="#FFF"><use x="554.729" y="410.533" xmlns:xlink="http://www.w3.org/1999/xlink" xlink:href="#aF" xlink:type="simple" xlink:actuate="onLoad" xlink:show="embed"/></g><g fill="#FFF"><use x="565.572" y="410.533" xmlns:xlink="http://www.w3.org/1999/xlink" xlink:href="#aw" xlink:type="simple" xlink:actuate="onLoad" xlink:show="embed"/></g><g fill="#002960"><use x="178.83" y="57.183" xmlns:xlink="http://www.w3.org/1999/xlink" xlink:href="#aH" xlink:type="simple" xlink:actuate="onLoad" xlink:show="embed"/></g><g fill="#002960"><use x="207.09" y="57.183" xmlns:xlink="http://www.w3.org/1999/xlink" xlink:href="#aI" xlink:type="simple" xlink:actuate="onLoad" xlink:show="embed"/></g><g fill="#002960"><use x="216.486" y="57.183" xmlns:xlink="http://www.w3.org/1999/xlink" xlink:href="#aJ" xlink:type="simple" xlink:actuate="onLoad" xlink:show="embed"/></g><g fill="#002960"><use x="239.202" y="57.183" xmlns:xlink="http://www.w3.org/1999/xlink" xlink:href="#aK" xlink:type="simple" xlink:actuate="onLoad" xlink:show="embed"/></g><g fill="#002960"><use x="251.262" y="57.183" xmlns:xlink="http://www.w3.org/1999/xlink" xlink:href="#aI" xlink:type="simple" xlink:actuate="onLoad" xlink:show="embed"/></g><g fill="#002960"><use x="260.658" y="57.183" xmlns:xlink="http://www.w3.org/1999/xlink" xlink:href="#aL" xlink:type="simple" xlink:actuate="onLoad" xlink:show="embed"/></g><g fill="#002960"><use x="281.322" y="57.183" xmlns:xlink="http://www.w3.org/1999/xlink" xlink:href="#aM" xlink:type="simple" xlink:actuate="onLoad" xlink:show="embed"/></g><g fill="#002960"><use x="302.706" y="57.183" xmlns:xlink="http://www.w3.org/1999/xlink" xlink:href="#aN" xlink:type="simple" xlink:actuate="onLoad" xlink:show="embed"/></g><g fill="#002960"><use x="316.206" y="57.183" xmlns:xlink="http://www.w3.org/1999/xlink" xlink:href="#aO" xlink:type="simple" xlink:actuate="onLoad" xlink:show="embed"/></g><g fill="#002960"><use x="329.094" y="57.183" xmlns:xlink="http://www.w3.org/1999/xlink" xlink:href="#aP" xlink:type="simple" xlink:actuate="onLoad" xlink:show="embed"/></g><g fill="#002960"><use x="349.83" y="57.183" xmlns:xlink="http://www.w3.org/1999/xlink" xlink:href="#aQ" xlink:type="simple" xlink:actuate="onLoad" xlink:show="embed"/></g><g fill="#002960"><use x="360.018" y="57.183" xmlns:xlink="http://www.w3.org/1999/xlink" xlink:href="#aR" xlink:type="simple" xlink:actuate="onLoad" xlink:show="embed"/></g><g fill="#002960"><use x="382.986" y="57.183" xmlns:xlink="http://www.w3.org/1999/xlink" xlink:href="#aO" xlink:type="simple" xlink:actuate="onLoad" xlink:show="embed"/></g><g fill="#002960"><use x="395.874" y="57.183" xmlns:xlink="http://www.w3.org/1999/xlink" xlink:href="#aS" xlink:type="simple" xlink:actuate="onLoad" xlink:show="embed"/></g><g fill="#002960"><use x="415.962" y="57.183" xmlns:xlink="http://www.w3.org/1999/xlink" xlink:href="#aI" xlink:type="simple" xlink:actuate="onLoad" xlink:show="embed"/></g><g fill="#002960"><use x="425.358" y="57.183" xmlns:xlink="http://www.w3.org/1999/xlink" xlink:href="#aT" xlink:type="simple" xlink:actuate="onLoad" xlink:show="embed"/></g><g fill="#002960"><use x="443.502" y="57.183" xmlns:xlink="http://www.w3.org/1999/xlink" xlink:href="#aU" xlink:type="simple" xlink:actuate="onLoad" xlink:show="embed"/></g><g fill="#002960"><use x="467.118" y="57.183" xmlns:xlink="http://www.w3.org/1999/xlink" xlink:href="#aM" xlink:type="simple" xlink:actuate="onLoad" xlink:show="embed"/></g><g fill="#002960"><use x="488.502" y="57.183" xmlns:xlink="http://www.w3.org/1999/xlink" xlink:href="#aP" xlink:type="simple" xlink:actuate="onLoad" xlink:show="embed"/></g><g fill="#002960"><use x="509.238" y="57.183" xmlns:xlink="http://www.w3.org/1999/xlink" xlink:href="#aV" xlink:type="simple" xlink:actuate="onLoad" xlink:show="embed"/></g><g fill="#002960"><use x="529.65" y="57.183" xmlns:xlink="http://www.w3.org/1999/xlink" xlink:href="#aM" xlink:type="simple" xlink:actuate="onLoad" xlink:show="embed"/></g><g fill="#002960"><use x="551.034" y="57.183" xmlns:xlink="http://www.w3.org/1999/xlink" xlink:href="#aN" xlink:type="simple" xlink:actuate="onLoad" xlink:show="embed"/></g><g fill="#002960"><use x="564.534" y="57.183" xmlns:xlink="http://www.w3.org/1999/xlink" xlink:href="#aT" xlink:type="simple" xlink:actuate="onLoad" xlink:show="embed"/></g><g fill="#002960"><use x="582.678" y="57.183" xmlns:xlink="http://www.w3.org/1999/xlink" xlink:href="#aI" xlink:type="simple" xlink:actuate="onLoad" xlink:show="embed"/></g><g fill="#002960"><use x="592.074" y="57.183" xmlns:xlink="http://www.w3.org/1999/xlink" xlink:href="#aW" xlink:type="simple" xlink:actuate="onLoad" xlink:show="embed"/></g><g fill="#002960"><use x="615.834" y="57.183" xmlns:xlink="http://www.w3.org/1999/xlink" xlink:href="#aM" xlink:type="simple" xlink:actuate="onLoad" xlink:show="embed"/></g><g fill="#002960"><use x="637.218" y="57.183" xmlns:xlink="http://www.w3.org/1999/xlink" xlink:href="#aU" xlink:type="simple" xlink:actuate="onLoad" xlink:show="embed"/></g><g fill="#002960"><use x="660.834" y="57.183" xmlns:xlink="http://www.w3.org/1999/xlink" xlink:href="#aM" xlink:type="simple" xlink:actuate="onLoad" xlink:show="embed"/></g><g fill="#002960"><use x="682.218" y="57.183" xmlns:xlink="http://www.w3.org/1999/xlink" xlink:href="#aR" xlink:type="simple" xlink:actuate="onLoad" xlink:show="embed"/></g><g fill="#002960"><use x="705.186" y="57.183" xmlns:xlink="http://www.w3.org/1999/xlink" xlink:href="#aW" xlink:type="simple" xlink:actuate="onLoad" xlink:show="embed"/></g><g fill="#002960"><use x="728.946" y="57.183" xmlns:xlink="http://www.w3.org/1999/xlink" xlink:href="#aQ" xlink:type="simple" xlink:actuate="onLoad" xlink:show="embed"/></g><g fill="#002960"><use x="739.134" y="57.183" xmlns:xlink="http://www.w3.org/1999/xlink" xlink:href="#aR" xlink:type="simple" xlink:actuate="onLoad" xlink:show="embed"/></g><g fill="#002960"><use x="762.102" y="57.183" xmlns:xlink="http://www.w3.org/1999/xlink" xlink:href="#aX" xlink:type="simple" xlink:actuate="onLoad" xlink:show="embed"/></g><g fill="#002960"><use x="785.862" y="57.183" xmlns:xlink="http://www.w3.org/1999/xlink" xlink:href="#aI" xlink:type="simple" xlink:actuate="onLoad" xlink:show="embed"/></g><g fill="#002960"><use x="795.258" y="57.183" xmlns:xlink="http://www.w3.org/1999/xlink" xlink:href="#aJ" xlink:type="simple" xlink:actuate="onLoad" xlink:show="embed"/></g><g fill="#002960"><use x="817.974" y="57.183" xmlns:xlink="http://www.w3.org/1999/xlink" xlink:href="#aR" xlink:type="simple" xlink:actuate="onLoad" xlink:show="embed"/></g><g fill="#002960"><use x="840.942" y="57.183" xmlns:xlink="http://www.w3.org/1999/xlink" xlink:href="#aI" xlink:type="simple" xlink:actuate="onLoad" xlink:show="embed"/></g><g fill="#002960"><use x="850.338" y="57.183" xmlns:xlink="http://www.w3.org/1999/xlink" xlink:href="#aO" xlink:type="simple" xlink:actuate="onLoad" xlink:show="embed"/></g><g fill="#002960"><use x="863.227" y="57.183" xmlns:xlink="http://www.w3.org/1999/xlink" xlink:href="#aY" xlink:type="simple" xlink:actuate="onLoad" xlink:show="embed"/></g><g fill="#002960"><use x="886.195" y="57.183" xmlns:xlink="http://www.w3.org/1999/xlink" xlink:href="#aM" xlink:type="simple" xlink:actuate="onLoad" xlink:show="embed"/></g><g fill="#002960"><use x="907.579" y="57.183" xmlns:xlink="http://www.w3.org/1999/xlink" xlink:href="#aQ" xlink:type="simple" xlink:actuate="onLoad" xlink:show="embed"/></g><g fill="#002960"><use x="917.767" y="57.183" xmlns:xlink="http://www.w3.org/1999/xlink" xlink:href="#aN" xlink:type="simple" xlink:actuate="onLoad" xlink:show="embed"/></g><g fill="#002960"><use x="931.267" y="57.183" xmlns:xlink="http://www.w3.org/1999/xlink" xlink:href="#aI" xlink:type="simple" xlink:actuate="onLoad" xlink:show="embed"/></g><g fill="#002960"><use x="940.663" y="57.183" xmlns:xlink="http://www.w3.org/1999/xlink" xlink:href="#aU" xlink:type="simple" xlink:actuate="onLoad" xlink:show="embed"/></g><g fill="#002960"><use x="964.279" y="57.183" xmlns:xlink="http://www.w3.org/1999/xlink" xlink:href="#aN" xlink:type="simple" xlink:actuate="onLoad" xlink:show="embed"/></g><g fill="#002960"><use x="977.779" y="57.183" xmlns:xlink="http://www.w3.org/1999/xlink" xlink:href="#aJ" xlink:type="simple" xlink:actuate="onLoad" xlink:show="embed"/></g><g fill="#002960"><use x="1000.495" y="57.183" xmlns:xlink="http://www.w3.org/1999/xlink" xlink:href="#aK" xlink:type="simple" xlink:actuate="onLoad" xlink:show="embed"/></g><g fill="#002960"><use x="1012.555" y="57.183" xmlns:xlink="http://www.w3.org/1999/xlink" xlink:href="#aM" xlink:type="simple" xlink:actuate="onLoad" xlink:show="embed"/></g><g fill="#002960"><use x="1033.939" y="57.183" xmlns:xlink="http://www.w3.org/1999/xlink" xlink:href="#aT" xlink:type="simple" xlink:actuate="onLoad" xlink:show="embed"/></g><g fill="#002960"><use x="1052.083" y="57.183" xmlns:xlink="http://www.w3.org/1999/xlink" xlink:href="#aT" xlink:type="simple" xlink:actuate="onLoad" xlink:show="embed"/></g><g fill="#002960"><use x="1070.227" y="57.183" xmlns:xlink="http://www.w3.org/1999/xlink" xlink:href="#aQ" xlink:type="simple" xlink:actuate="onLoad" xlink:show="embed"/></g><g fill="#002960"><use x="1080.415" y="57.183" xmlns:xlink="http://www.w3.org/1999/xlink" xlink:href="#aJ" xlink:type="simple" xlink:actuate="onLoad" xlink:show="embed"/></g><g fill="#002960"><use x="1103.131" y="57.183" xmlns:xlink="http://www.w3.org/1999/xlink" xlink:href="#aR" xlink:type="simple" xlink:actuate="onLoad" xlink:show="embed"/></g><g fill="#002960"><use x="1126.099" y="57.183" xmlns:xlink="http://www.w3.org/1999/xlink" xlink:href="#aP" xlink:type="simple" xlink:actuate="onLoad" xlink:show="embed"/></g><g fill="#002960"><use x="1146.835" y="57.183" xmlns:xlink="http://www.w3.org/1999/xlink" xlink:href="#aZ" xlink:type="simple" xlink:actuate="onLoad" xlink:show="embed"/></g><g fill="#002960"><use x="1157.347" y="57.183" xmlns:xlink="http://www.w3.org/1999/xlink" xlink:href="#aI" xlink:type="simple" xlink:actuate="onLoad" xlink:show="embed"/></g><g fill="#002960"><use x="1166.743" y="57.183" xmlns:xlink="http://www.w3.org/1999/xlink" xlink:href="#aK" xlink:type="simple" xlink:actuate="onLoad" xlink:show="embed"/></g><g fill="#002960"><use x="1178.803" y="57.183" xmlns:xlink="http://www.w3.org/1999/xlink" xlink:href="#aQ" xlink:type="simple" xlink:actuate="onLoad" xlink:show="embed"/></g><g fill="#002960"><use x="1188.991" y="57.183" xmlns:xlink="http://www.w3.org/1999/xlink" xlink:href="#aM" xlink:type="simple" xlink:actuate="onLoad" xlink:show="embed"/></g><g fill="#002960"><use x="1210.375" y="57.183" xmlns:xlink="http://www.w3.org/1999/xlink" xlink:href="#aZ" xlink:type="simple" xlink:actuate="onLoad" xlink:show="embed"/></g><g fill="#002960"><use x="1220.887" y="57.183" xmlns:xlink="http://www.w3.org/1999/xlink" xlink:href="#aW" xlink:type="simple" xlink:actuate="onLoad" xlink:show="embed"/></g><g fill="#002960"><use x="1244.647" y="57.183" xmlns:xlink="http://www.w3.org/1999/xlink" xlink:href="#aT" xlink:type="simple" xlink:actuate="onLoad" xlink:show="embed"/></g></svg>