<svg xmlns="http://www.w3.org/2000/svg" xmlns:xlink="http://www.w3.org/1999/xlink" width="1440" viewBox="0 0 1440 900" height="900" version="1.0"><defs><g id="m"><path d="M 18.03125 -21.375 L 18.03125 -19.109375 L 7.765625 0 L 3.125 0 L 12.9375 -18.03125 L 1.671875 -18.03125 L 1.671875 -21.375 Z M 18.03125 -21.375"/></g><g id="n"><path d="M 9.6875 -21.796875 C 15.226562 -21.796875 18 -18.085938 18 -10.671875 C 18 -3.265625 15.226562 0.4375 9.6875 0.4375 C 4.132812 0.4375 1.359375 -3.265625 1.359375 -10.671875 C 1.359375 -18.085938 4.132812 -21.796875 9.6875 -21.796875 Z M 6.8125 -4.6875 C 7.425781 -3.394531 8.382812 -2.75 9.6875 -2.75 C 10.988281 -2.75 11.941406 -3.394531 12.546875 -4.6875 C 13.160156 -5.976562 13.46875 -7.976562 13.46875 -10.6875 C 13.46875 -13.40625 13.160156 -15.40625 12.546875 -16.6875 C 11.941406 -17.96875 10.988281 -18.609375 9.6875 -18.609375 C 8.375 -18.609375 7.410156 -17.96875 6.796875 -16.6875 C 6.191406 -15.40625 5.890625 -13.40625 5.890625 -10.6875 C 5.890625 -7.976562 6.195312 -5.976562 6.8125 -4.6875 Z M 6.8125 -4.6875"/></g><g id="o"><path d="M 2.375 -20.390625 C 3.226562 -21.285156 4.394531 -21.734375 5.875 -21.734375 C 7.363281 -21.734375 8.535156 -21.285156 9.390625 -20.390625 C 10.253906 -19.492188 10.6875 -18.25 10.6875 -16.65625 C 10.6875 -15.070312 10.253906 -13.820312 9.390625 -12.90625 C 8.535156 -12 7.367188 -11.546875 5.890625 -11.546875 C 4.421875 -11.546875 3.253906 -12 2.390625 -12.90625 C 1.535156 -13.820312 1.109375 -15.070312 1.109375 -16.65625 C 1.109375 -18.25 1.53125 -19.492188 2.375 -20.390625 Z M 6.625 0 L 3.3125 0 L 17.1875 -21.375 L 20.5 -21.375 Z M 5.890625 -19.484375 C 4.710938 -19.484375 4.125 -18.539062 4.125 -16.65625 C 4.125 -14.757812 4.710938 -13.8125 5.890625 -13.8125 C 7.085938 -13.8125 7.6875 -14.757812 7.6875 -16.65625 C 7.6875 -18.539062 7.085938 -19.484375 5.890625 -19.484375 Z M 14.21875 -8.40625 C 15.082031 -9.300781 16.253906 -9.75 17.734375 -9.75 C 19.222656 -9.75 20.394531 -9.300781 21.25 -8.40625 C 22.113281 -7.507812 22.546875 -6.265625 22.546875 -4.671875 C 22.546875 -3.085938 22.113281 -1.835938 21.25 -0.921875 C 20.394531 -0.015625 19.222656 0.4375 17.734375 0.4375 C 16.253906 0.4375 15.082031 -0.015625 14.21875 -0.921875 C 13.363281 -1.835938 12.9375 -3.085938 12.9375 -4.671875 C 12.9375 -6.265625 13.363281 -7.507812 14.21875 -8.40625 Z M 19.515625 -4.671875 C 19.515625 -6.554688 18.925781 -7.5 17.75 -7.5 C 16.570312 -7.5 15.984375 -6.554688 15.984375 -4.671875 C 15.984375 -2.773438 16.570312 -1.828125 17.75 -1.828125 C 18.925781 -1.828125 19.515625 -2.773438 19.515625 -4.671875 Z M 19.515625 -4.671875"/></g><g id="p"><path d="M 8.359375 -3.375 L 17.40625 -3.375 L 17.40625 0 L 1.828125 0 L 1.828125 -2.015625 L 9.015625 -9.046875 C 10.515625 -10.523438 11.554688 -11.707031 12.140625 -12.59375 C 12.734375 -13.488281 13.03125 -14.429688 13.03125 -15.421875 C 13.03125 -16.390625 12.757812 -17.164062 12.21875 -17.75 C 11.6875 -18.34375 10.9375 -18.640625 9.96875 -18.640625 C 8.914062 -18.640625 8.113281 -18.3125 7.5625 -17.65625 C 7.019531 -17.007812 6.675781 -16.035156 6.53125 -14.734375 L 6.5 -14.4375 L 2.265625 -14.4375 L 2.296875 -14.734375 C 2.515625 -17.023438 3.316406 -18.78125 4.703125 -20 C 6.085938 -21.21875 7.976562 -21.828125 10.375 -21.828125 C 12.664062 -21.828125 14.4375 -21.269531 15.6875 -20.15625 C 16.9375 -19.039062 17.5625 -17.546875 17.5625 -15.671875 C 17.5625 -14.347656 17.1875 -13.101562 16.4375 -11.9375 C 15.695312 -10.769531 14.328125 -9.207031 12.328125 -7.25 Z M 8.359375 -3.375"/></g><g id="q"><path d="M 17.921875 -15.578125 L 30.234375 -15.578125 L 30.234375 0 L 25.3125 0 L 24.921875 -4.953125 L 23.546875 -1.859375 C 21.867188 -0.203125 19.390625 0.625 16.109375 0.625 C 11.859375 0.625 8.484375 -0.78125 5.984375 -3.59375 C 3.492188 -6.414062 2.25 -10.25 2.25 -15.09375 C 2.25 -19.988281 3.664062 -23.890625 6.5 -26.796875 C 9.332031 -29.703125 12.9375 -31.15625 17.3125 -31.15625 C 21.289062 -31.15625 24.398438 -30.1875 26.640625 -28.25 C 28.890625 -26.320312 30.175781 -23.78125 30.5 -20.625 L 30.546875 -20.1875 L 24.4375 -20.1875 L 24.34375 -20.625 C 23.550781 -24.613281 21.175781 -26.609375 17.21875 -26.609375 C 14.707031 -26.609375 12.660156 -25.601562 11.078125 -23.59375 C 9.503906 -21.582031 8.71875 -18.867188 8.71875 -15.453125 C 8.71875 -11.765625 9.484375 -8.921875 11.015625 -6.921875 C 12.554688 -4.929688 14.566406 -3.9375 17.046875 -3.9375 C 19.023438 -3.9375 20.671875 -4.539062 21.984375 -5.75 C 23.296875 -6.957031 24.097656 -8.640625 24.390625 -10.796875 L 17.921875 -10.796875 Z M 17.921875 -15.578125"/></g><g id="r"><path d="M 25.984375 -4.828125 L 25.984375 0 L 3.9375 0 L 3.9375 -30.546875 L 25.546875 -30.546875 L 25.546875 -25.765625 L 10.046875 -25.765625 L 10.046875 -17.703125 L 24.4375 -17.703125 L 24.4375 -12.875 L 10.046875 -12.875 L 10.046875 -4.828125 Z M 25.984375 -4.828125"/></g><g id="s"><path d="M 30.765625 0 L 22.390625 0 L 9.828125 -23.1875 C 9.972656 -20.414062 10.046875 -17.289062 10.046875 -13.8125 L 10.046875 0 L 3.9375 0 L 3.9375 -30.546875 L 12.046875 -30.546875 L 24.875 -6.90625 C 24.726562 -9.644531 24.65625 -12.847656 24.65625 -16.515625 L 24.65625 -30.546875 L 30.71875 -30.546875 Z M 30.765625 0"/></g><g id="t"><path d="M 26.078125 -7.703125 C 26.453125 -4.066406 27.1875 -1.5 28.28125 0 L 21.609375 0 C 20.867188 -2.03125 20.363281 -4.300781 20.09375 -6.8125 C 19.6875 -10.269531 18.316406 -12.085938 15.984375 -12.265625 C 15.421875 -12.296875 14.625 -12.3125 13.59375 -12.3125 L 10.046875 -12.3125 L 10.046875 0 L 3.9375 0 L 3.9375 -30.546875 L 15.09375 -30.546875 C 16.78125 -30.546875 18.253906 -30.472656 19.515625 -30.328125 C 21.941406 -30.023438 23.882812 -29.21875 25.34375 -27.90625 C 26.800781 -26.59375 27.53125 -24.695312 27.53125 -22.21875 C 27.53125 -20.300781 27 -18.710938 25.9375 -17.453125 C 24.875 -16.203125 23.414062 -15.3125 21.5625 -14.78125 C 24.1875 -13.78125 25.691406 -11.421875 26.078125 -7.703125 Z M 10.046875 -16.859375 L 14.25 -16.859375 C 15.457031 -16.859375 16.285156 -16.875 16.734375 -16.90625 C 19.648438 -17.175781 21.109375 -18.640625 21.109375 -21.296875 C 21.109375 -22.679688 20.757812 -23.703125 20.0625 -24.359375 C 19.375 -25.023438 18.382812 -25.445312 17.09375 -25.625 C 16.382812 -25.71875 15.523438 -25.765625 14.515625 -25.765625 L 10.046875 -25.765625 Z M 10.046875 -16.859375"/></g><g id="u"><path d="M 20.5 -9.203125 L 10.21875 -9.203125 L 7.171875 0 L 0.65625 0 L 11.6875 -30.546875 L 19.34375 -30.546875 L 30.140625 0 L 23.5 0 Z M 15.40625 -25.3125 L 11.78125 -14.03125 L 18.953125 -14.03125 Z M 15.40625 -25.3125"/></g><g id="v"><path d="M 25.984375 -5.09375 L 25.984375 0 L 3.9375 0 L 3.9375 -30.546875 L 10.046875 -30.546875 L 10.046875 -5.09375 Z M 25.984375 -5.09375"/></g><g id="x"><path d="M 18.953125 -30.328125 C 21.398438 -30.054688 23.378906 -29.113281 24.890625 -27.5 C 26.410156 -25.894531 27.171875 -23.738281 27.171875 -21.03125 C 27.171875 -18.34375 26.390625 -16.191406 24.828125 -14.578125 C 23.265625 -12.972656 21.304688 -12.023438 18.953125 -11.734375 C 17.679688 -11.585938 16.203125 -11.515625 14.515625 -11.515625 L 10.046875 -11.515625 L 10.046875 0 L 3.9375 0 L 3.9375 -30.546875 L 14.515625 -30.546875 C 16.234375 -30.546875 17.710938 -30.472656 18.953125 -30.328125 Z M 17.125 -16.46875 C 19.550781 -16.820312 20.765625 -18.335938 20.765625 -21.015625 C 20.765625 -23.703125 19.550781 -25.222656 17.125 -25.578125 C 16.445312 -25.671875 15.550781 -25.71875 14.4375 -25.71875 L 10.046875 -25.71875 L 10.046875 -16.328125 L 14.4375 -16.328125 C 15.550781 -16.328125 16.445312 -16.375 17.125 -16.46875 Z M 17.125 -16.46875"/></g><g id="y"><path d="M 17.359375 -31.15625 C 22.015625 -31.15625 25.691406 -29.71875 28.390625 -26.84375 C 31.097656 -23.96875 32.453125 -20.109375 32.453125 -15.265625 C 32.453125 -10.460938 31.097656 -6.613281 28.390625 -3.71875 C 25.691406 -0.820312 22.007812 0.625 17.34375 0.625 C 12.6875 0.625 9.003906 -0.820312 6.296875 -3.71875 C 3.597656 -6.613281 2.25 -10.460938 2.25 -15.265625 C 2.25 -20.109375 3.59375 -23.96875 6.28125 -26.84375 C 8.96875 -29.71875 12.660156 -31.15625 17.359375 -31.15625 Z M 10.953125 -6.921875 C 12.503906 -4.929688 14.632812 -3.9375 17.34375 -3.9375 C 20.0625 -3.9375 22.1875 -4.9375 23.71875 -6.9375 C 25.257812 -8.945312 26.03125 -11.722656 26.03125 -15.265625 C 26.03125 -18.835938 25.257812 -21.617188 23.71875 -23.609375 C 22.1875 -25.609375 20.066406 -26.609375 17.359375 -26.609375 C 14.609375 -26.609375 12.460938 -25.609375 10.921875 -23.609375 C 9.390625 -21.617188 8.625 -18.835938 8.625 -15.265625 C 8.625 -11.703125 9.398438 -8.921875 10.953125 -6.921875 Z M 10.953125 -6.921875"/></g><g id="z"><path d="M 28.734375 -30.546875 L 28.734375 -12.4375 C 28.734375 -10.988281 28.703125 -9.796875 28.640625 -8.859375 C 28.429688 -6.078125 27.300781 -3.800781 25.25 -2.03125 C 23.195312 -0.257812 20.164062 0.625 16.15625 0.625 C 12.113281 0.625 9.066406 -0.257812 7.015625 -2.03125 C 4.960938 -3.800781 3.832031 -6.078125 3.625 -8.859375 C 3.570312 -9.796875 3.546875 -10.988281 3.546875 -12.4375 L 3.546875 -30.546875 L 9.609375 -30.546875 L 9.609375 -11.8125 C 9.609375 -10.78125 9.632812 -10.046875 9.6875 -9.609375 C 9.84375 -7.804688 10.457031 -6.410156 11.53125 -5.421875 C 12.601562 -4.429688 14.144531 -3.9375 16.15625 -3.9375 C 18.132812 -3.9375 19.660156 -4.429688 20.734375 -5.421875 C 21.816406 -6.410156 22.429688 -7.804688 22.578125 -9.609375 C 22.628906 -10.046875 22.65625 -10.78125 22.65625 -11.8125 L 22.65625 -30.546875 Z M 28.734375 -30.546875"/></g><g id="A"><path d="M 27.84375 -25.765625 L 17.484375 -25.765625 L 17.484375 0 L 11.375 0 L 11.375 -25.765625 L 1.015625 -25.765625 L 1.015625 -30.546875 L 27.84375 -30.546875 Z M 27.84375 -25.765625"/></g><g id="B"><path d="M 10.046875 0 L 3.9375 0 L 3.9375 -30.546875 L 10.046875 -30.546875 Z M 10.046875 0"/></g><g id="L"><path d="M 10.75 -4.828125 L 5.359375 -4.828125 L 3.765625 0 L 0.34375 0 L 6.140625 -16.03125 L 10.15625 -16.03125 L 15.828125 0 L 12.34375 0 Z M 8.078125 -13.296875 L 6.1875 -7.359375 L 9.9375 -7.359375 Z M 8.078125 -13.296875"/></g><g id="M"><path d="M 13.6875 -4.046875 C 13.882812 -2.140625 14.269531 -0.789062 14.84375 0 L 11.34375 0 C 10.945312 -1.070312 10.679688 -2.265625 10.546875 -3.578125 C 10.328125 -5.390625 9.609375 -6.34375 8.390625 -6.4375 C 8.097656 -6.445312 7.679688 -6.453125 7.140625 -6.453125 L 5.28125 -6.453125 L 5.28125 0 L 2.0625 0 L 2.0625 -16.03125 L 7.921875 -16.03125 C 8.804688 -16.03125 9.582031 -15.992188 10.25 -15.921875 C 11.519531 -15.765625 12.535156 -15.335938 13.296875 -14.640625 C 14.066406 -13.953125 14.453125 -12.957031 14.453125 -11.65625 C 14.453125 -10.65625 14.171875 -9.820312 13.609375 -9.15625 C 13.054688 -8.5 12.289062 -8.035156 11.3125 -7.765625 C 12.695312 -7.234375 13.488281 -5.992188 13.6875 -4.046875 Z M 5.28125 -8.859375 L 7.484375 -8.859375 C 8.117188 -8.859375 8.550781 -8.863281 8.78125 -8.875 C 10.3125 -9.007812 11.078125 -9.773438 11.078125 -11.171875 C 11.078125 -11.898438 10.894531 -12.4375 10.53125 -12.78125 C 10.164062 -13.132812 9.644531 -13.359375 8.96875 -13.453125 C 8.59375 -13.492188 8.144531 -13.515625 7.625 -13.515625 L 5.28125 -13.515625 Z M 5.28125 -8.859375"/></g><g id="N"><path d="M 14.609375 -13.515625 L 9.171875 -13.515625 L 9.171875 0 L 5.96875 0 L 5.96875 -13.515625 L 0.53125 -13.515625 L 0.53125 -16.03125 L 14.609375 -16.03125 Z M 14.609375 -13.515625"/></g><g id="O"><path d="M 5.28125 0 L 2.0625 0 L 2.0625 -16.03125 L 5.28125 -16.03125 Z M 5.28125 0"/></g><g id="P"><path d="M 7.390625 -16.359375 C 9.210938 -16.359375 10.609375 -15.898438 11.578125 -14.984375 C 12.546875 -14.066406 13.125 -12.84375 13.3125 -11.3125 L 10.03125 -11.3125 C 9.9375 -12.144531 9.65625 -12.796875 9.1875 -13.265625 C 8.726562 -13.734375 8.085938 -13.96875 7.265625 -13.96875 C 6.597656 -13.96875 6.054688 -13.800781 5.640625 -13.46875 C 5.222656 -13.144531 5.015625 -12.675781 5.015625 -12.0625 C 5.015625 -11.375 5.265625 -10.835938 5.765625 -10.453125 C 6.273438 -10.066406 7.164062 -9.726562 8.4375 -9.4375 C 10.1875 -9.03125 11.472656 -8.414062 12.296875 -7.59375 C 13.128906 -6.769531 13.546875 -5.710938 13.546875 -4.421875 C 13.546875 -2.960938 12.972656 -1.804688 11.828125 -0.953125 C 10.679688 -0.0976562 9.28125 0.328125 7.625 0.328125 C 5.664062 0.328125 4.101562 -0.0976562 2.9375 -0.953125 C 1.78125 -1.816406 1.125 -3.078125 0.96875 -4.734375 L 4.25 -4.734375 C 4.414062 -3.890625 4.800781 -3.234375 5.40625 -2.765625 C 6.007812 -2.296875 6.734375 -2.0625 7.578125 -2.0625 C 8.316406 -2.0625 8.9375 -2.25 9.4375 -2.625 C 9.945312 -3 10.203125 -3.488281 10.203125 -4.09375 C 10.203125 -4.769531 9.957031 -5.316406 9.46875 -5.734375 C 8.976562 -6.148438 8.15625 -6.5 7 -6.78125 C 5.195312 -7.21875 3.851562 -7.796875 2.96875 -8.515625 C 2.09375 -9.234375 1.65625 -10.28125 1.65625 -11.65625 C 1.65625 -13.082031 2.210938 -14.222656 3.328125 -15.078125 C 4.441406 -15.929688 5.796875 -16.359375 7.390625 -16.359375 Z M 7.390625 -16.359375"/></g><g id="Q"><path d="M 9.9375 -15.921875 C 11.226562 -15.773438 12.269531 -15.28125 13.0625 -14.4375 C 13.863281 -13.59375 14.265625 -12.457031 14.265625 -11.03125 C 14.265625 -9.625 13.851562 -8.5 13.03125 -7.65625 C 12.207031 -6.8125 11.175781 -6.3125 9.9375 -6.15625 C 9.269531 -6.082031 8.5 -6.046875 7.625 -6.046875 L 5.28125 -6.046875 L 5.28125 0 L 2.0625 0 L 2.0625 -16.03125 L 7.625 -16.03125 C 8.519531 -16.03125 9.289062 -15.992188 9.9375 -15.921875 Z M 8.984375 -8.640625 C 10.253906 -8.828125 10.890625 -9.625 10.890625 -11.03125 C 10.890625 -12.445312 10.253906 -13.242188 8.984375 -13.421875 C 8.628906 -13.472656 8.160156 -13.5 7.578125 -13.5 L 5.28125 -13.5 L 5.28125 -8.578125 L 7.578125 -8.578125 C 8.160156 -8.578125 8.628906 -8.597656 8.984375 -8.640625 Z M 8.984375 -8.640625"/></g><g id="R"><path d="M 9.109375 -16.359375 C 11.554688 -16.359375 13.488281 -15.601562 14.90625 -14.09375 C 16.320312 -12.582031 17.03125 -10.554688 17.03125 -8.015625 C 17.03125 -5.492188 16.320312 -3.472656 14.90625 -1.953125 C 13.488281 -0.429688 11.554688 0.328125 9.109375 0.328125 C 6.660156 0.328125 4.726562 -0.429688 3.3125 -1.953125 C 1.894531 -3.472656 1.1875 -5.492188 1.1875 -8.015625 C 1.1875 -10.554688 1.890625 -12.582031 3.296875 -14.09375 C 4.703125 -15.601562 6.640625 -16.359375 9.109375 -16.359375 Z M 5.75 -3.625 C 6.5625 -2.582031 7.679688 -2.0625 9.109375 -2.0625 C 10.535156 -2.0625 11.648438 -2.585938 12.453125 -3.640625 C 13.253906 -4.703125 13.65625 -6.160156 13.65625 -8.015625 C 13.65625 -9.890625 13.253906 -11.347656 12.453125 -12.390625 C 11.648438 -13.441406 10.535156 -13.96875 9.109375 -13.96875 C 7.671875 -13.96875 6.546875 -13.441406 5.734375 -12.390625 C 4.929688 -11.347656 4.53125 -9.890625 4.53125 -8.015625 C 4.53125 -6.140625 4.9375 -4.675781 5.75 -3.625 Z M 5.75 -3.625"/></g><g id="S"><path d="M 13.640625 -2.671875 L 13.640625 0 L 2.0625 0 L 2.0625 -16.03125 L 5.28125 -16.03125 L 5.28125 -2.671875 Z M 13.640625 -2.671875"/></g><g id="T"><path d="M 8.9375 -16.359375 C 11.03125 -16.359375 12.664062 -15.847656 13.84375 -14.828125 C 15.019531 -13.816406 15.695312 -12.484375 15.875 -10.828125 L 15.890625 -10.59375 L 12.6875 -10.59375 L 12.640625 -10.828125 C 12.222656 -12.921875 10.976562 -13.96875 8.90625 -13.96875 C 7.601562 -13.96875 6.554688 -13.441406 5.765625 -12.390625 C 4.972656 -11.347656 4.578125 -9.921875 4.578125 -8.109375 C 4.578125 -6.171875 4.972656 -4.675781 5.765625 -3.625 C 6.554688 -2.582031 7.585938 -2.0625 8.859375 -2.0625 C 9.878906 -2.0625 10.695312 -2.347656 11.3125 -2.921875 C 11.9375 -3.492188 12.351562 -4.296875 12.5625 -5.328125 L 12.609375 -5.546875 L 15.796875 -5.546875 L 15.78125 -5.328125 C 15.601562 -3.585938 14.882812 -2.207031 13.625 -1.1875 C 12.375 -0.175781 10.738281 0.328125 8.71875 0.328125 C 6.457031 0.328125 4.632812 -0.414062 3.25 -1.90625 C 1.875 -3.394531 1.1875 -5.398438 1.1875 -7.921875 C 1.1875 -10.492188 1.910156 -12.539062 3.359375 -14.0625 C 4.816406 -15.59375 6.675781 -16.359375 8.9375 -16.359375 Z M 8.9375 -16.359375"/></g><g id="U"><path d="M 16.140625 0 L 11.75 0 L 5.15625 -12.171875 C 5.238281 -10.710938 5.28125 -9.070312 5.28125 -7.25 L 5.28125 0 L 2.0625 0 L 2.0625 -16.03125 L 6.3125 -16.03125 L 13.0625 -3.625 C 12.976562 -5.0625 12.9375 -6.742188 12.9375 -8.671875 L 12.9375 -16.03125 L 16.125 -16.03125 Z M 16.140625 0"/></g><g id="V"><path d="M 13.640625 -2.53125 L 13.640625 0 L 2.0625 0 L 2.0625 -16.03125 L 13.40625 -16.03125 L 13.40625 -13.515625 L 5.28125 -13.515625 L 5.28125 -9.296875 L 12.828125 -9.296875 L 12.828125 -6.765625 L 5.28125 -6.765625 L 5.28125 -2.53125 Z M 13.640625 -2.53125"/></g><g id="W"><path d="M 19.359375 -16.03125 L 19.359375 0 L 16.140625 0 L 16.140625 -7.40625 C 16.140625 -9.945312 16.15625 -11.773438 16.1875 -12.890625 C 15.757812 -11.035156 15.265625 -9.21875 14.703125 -7.4375 L 12.453125 0 L 8.96875 0 L 6.671875 -7.453125 C 6.078125 -9.421875 5.597656 -11.226562 5.234375 -12.875 C 5.265625 -11.757812 5.28125 -9.9375 5.28125 -7.40625 L 5.28125 0 L 2.0625 0 L 2.0625 -16.03125 L 7.140625 -16.03125 L 10.75 -2.953125 L 14.375 -16.03125 Z M 19.359375 -16.03125"/></g><g id="ab"><path d="M 5.65625 -12.8125 C 7.257812 -12.8125 8.460938 -12.3125 9.265625 -11.3125 C 10.078125 -10.320312 10.484375 -8.78125 10.484375 -6.6875 C 10.484375 -4.425781 10.007812 -2.703125 9.0625 -1.515625 C 8.113281 -0.335938 6.859375 0.25 5.296875 0.25 C 4.046875 0.25 3.050781 -0.0625 2.3125 -0.6875 C 1.570312 -1.3125 1.144531 -2.175781 1.03125 -3.28125 L 1.015625 -3.453125 L 3.5625 -3.453125 L 3.609375 -3.28125 C 3.835938 -2.175781 4.453125 -1.625 5.453125 -1.625 C 6.984375 -1.625 7.800781 -3.078125 7.90625 -5.984375 L 7.265625 -4.84375 C 6.671875 -4.351562 5.925781 -4.109375 5.03125 -4.109375 C 3.707031 -4.109375 2.6875 -4.488281 1.96875 -5.25 C 1.25 -6.019531 0.890625 -7.015625 0.890625 -8.234375 C 0.890625 -9.640625 1.347656 -10.753906 2.265625 -11.578125 C 3.179688 -12.398438 4.3125 -12.8125 5.65625 -12.8125 Z M 5.703125 -5.984375 C 6.296875 -5.984375 6.789062 -6.203125 7.1875 -6.640625 C 7.59375 -7.085938 7.796875 -7.695312 7.796875 -8.46875 C 7.796875 -9.195312 7.601562 -9.789062 7.21875 -10.25 C 6.832031 -10.707031 6.316406 -10.9375 5.671875 -10.9375 C 5.035156 -10.9375 4.523438 -10.707031 4.140625 -10.25 C 3.753906 -9.800781 3.5625 -9.226562 3.5625 -8.53125 C 3.5625 -7.769531 3.742188 -7.15625 4.109375 -6.6875 C 4.472656 -6.21875 5.003906 -5.984375 5.703125 -5.984375 Z M 5.703125 -5.984375"/></g><g id="ac"><path d="M 6.359375 -8.453125 C 7.679688 -8.453125 8.695312 -8.066406 9.40625 -7.296875 C 10.125 -6.535156 10.484375 -5.546875 10.484375 -4.328125 C 10.484375 -2.921875 10.023438 -1.804688 9.109375 -0.984375 C 8.191406 -0.160156 7.0625 0.25 5.71875 0.25 C 4.113281 0.25 2.90625 -0.242188 2.09375 -1.234375 C 1.289062 -2.234375 0.890625 -3.78125 0.890625 -5.875 C 0.890625 -8.125 1.363281 -9.84375 2.3125 -11.03125 C 3.269531 -12.21875 4.523438 -12.8125 6.078125 -12.8125 C 7.304688 -12.8125 8.289062 -12.5 9.03125 -11.875 C 9.769531 -11.25 10.207031 -10.382812 10.34375 -9.28125 L 10.359375 -9.09375 L 7.8125 -9.09375 L 7.765625 -9.28125 C 7.503906 -10.382812 6.890625 -10.9375 5.921875 -10.9375 C 4.390625 -10.9375 3.578125 -9.484375 3.484375 -6.578125 L 4.109375 -7.71875 C 4.703125 -8.207031 5.453125 -8.453125 6.359375 -8.453125 Z M 4.15625 -2.3125 C 4.539062 -1.851562 5.050781 -1.625 5.6875 -1.625 C 6.332031 -1.625 6.847656 -1.847656 7.234375 -2.296875 C 7.628906 -2.753906 7.828125 -3.328125 7.828125 -4.015625 C 7.828125 -4.785156 7.640625 -5.40625 7.265625 -5.875 C 6.898438 -6.34375 6.367188 -6.578125 5.671875 -6.578125 C 5.078125 -6.578125 4.582031 -6.351562 4.1875 -5.90625 C 3.789062 -5.46875 3.59375 -4.863281 3.59375 -4.09375 C 3.59375 -3.363281 3.78125 -2.769531 4.15625 -2.3125 Z M 4.15625 -2.3125"/></g><g id="ad"><path d="M 1.390625 -11.984375 C 1.890625 -12.515625 2.578125 -12.78125 3.453125 -12.78125 C 4.328125 -12.78125 5.015625 -12.515625 5.515625 -11.984375 C 6.023438 -11.453125 6.28125 -10.71875 6.28125 -9.78125 C 6.28125 -8.851562 6.023438 -8.125 5.515625 -7.59375 C 5.015625 -7.0625 4.328125 -6.796875 3.453125 -6.796875 C 2.597656 -6.796875 1.914062 -7.0625 1.40625 -7.59375 C 0.90625 -8.125 0.65625 -8.851562 0.65625 -9.78125 C 0.65625 -10.71875 0.898438 -11.453125 1.390625 -11.984375 Z M 3.890625 0 L 1.953125 0 L 10.109375 -12.5625 L 12.046875 -12.5625 Z M 3.453125 -11.453125 C 2.765625 -11.453125 2.421875 -10.898438 2.421875 -9.796875 C 2.421875 -8.679688 2.765625 -8.125 3.453125 -8.125 C 4.160156 -8.125 4.515625 -8.679688 4.515625 -9.796875 C 4.515625 -10.898438 4.160156 -11.453125 3.453125 -11.453125 Z M 8.359375 -4.9375 C 8.867188 -5.46875 9.554688 -5.734375 10.421875 -5.734375 C 11.296875 -5.734375 11.984375 -5.46875 12.484375 -4.9375 C 12.992188 -4.414062 13.25 -3.6875 13.25 -2.75 C 13.25 -1.8125 12.992188 -1.078125 12.484375 -0.546875 C 11.984375 -0.015625 11.296875 0.25 10.421875 0.25 C 9.554688 0.25 8.867188 -0.015625 8.359375 -0.546875 C 7.859375 -1.078125 7.609375 -1.8125 7.609375 -2.75 C 7.609375 -3.6875 7.859375 -4.414062 8.359375 -4.9375 Z M 11.46875 -2.75 C 11.46875 -3.851562 11.117188 -4.40625 10.421875 -4.40625 C 9.734375 -4.40625 9.390625 -3.851562 9.390625 -2.75 C 9.390625 -1.632812 9.734375 -1.078125 10.421875 -1.078125 C 11.117188 -1.078125 11.46875 -1.632812 11.46875 -2.75 Z M 11.46875 -2.75"/></g><g id="ae"><path d="M 6.3125 -8.421875 C 7.625 -8.421875 8.644531 -8.039062 9.375 -7.28125 C 10.113281 -6.519531 10.484375 -5.484375 10.484375 -4.171875 C 10.484375 -2.796875 10.015625 -1.710938 9.078125 -0.921875 C 8.148438 -0.140625 7.03125 0.25 5.71875 0.25 C 2.851562 0.25 1.300781 -0.976562 1.0625 -3.4375 L 1.03125 -3.625 L 3.546875 -3.625 L 3.5625 -3.4375 C 3.757812 -2.226562 4.4375 -1.625 5.59375 -1.625 C 6.28125 -1.625 6.820312 -1.84375 7.21875 -2.28125 C 7.613281 -2.726562 7.8125 -3.328125 7.8125 -4.078125 C 7.8125 -4.828125 7.617188 -5.425781 7.234375 -5.875 C 6.847656 -6.320312 6.316406 -6.546875 5.640625 -6.546875 C 4.679688 -6.546875 4 -6.078125 3.59375 -5.140625 L 1.25 -5.140625 L 2.140625 -12.5625 L 9.96875 -12.5625 L 9.96875 -10.59375 L 4.203125 -10.59375 L 3.734375 -7.078125 L 4.34375 -7.9375 C 4.894531 -8.257812 5.550781 -8.421875 6.3125 -8.421875 Z M 6.3125 -8.421875"/></g><g id="au"><path d="M 7.828125 -6.640625 C 9.578125 -6.242188 10.453125 -5.238281 10.453125 -3.625 C 10.453125 -2.457031 10 -1.519531 9.09375 -0.8125 C 8.1875 -0.101562 7.015625 0.25 5.578125 0.25 C 4.148438 0.25 3.015625 -0.0820312 2.171875 -0.75 C 1.328125 -1.414062 0.835938 -2.390625 0.703125 -3.671875 L 0.6875 -3.859375 L 3.203125 -3.859375 L 3.234375 -3.671875 C 3.335938 -3.035156 3.59375 -2.535156 4 -2.171875 C 4.414062 -1.804688 4.9375 -1.625 5.5625 -1.625 C 6.238281 -1.625 6.78125 -1.796875 7.1875 -2.140625 C 7.59375 -2.492188 7.796875 -2.957031 7.796875 -3.53125 C 7.796875 -4.800781 6.960938 -5.457031 5.296875 -5.5 L 4.875 -5.5 L 4.875 -7.25 L 5.296875 -7.265625 C 5.960938 -7.285156 6.492188 -7.472656 6.890625 -7.828125 C 7.296875 -8.191406 7.5 -8.664062 7.5 -9.25 C 7.5 -9.757812 7.335938 -10.164062 7.015625 -10.46875 C 6.691406 -10.78125 6.257812 -10.9375 5.71875 -10.9375 C 5.15625 -10.9375 4.703125 -10.753906 4.359375 -10.390625 C 4.023438 -10.035156 3.828125 -9.554688 3.765625 -8.953125 L 3.75 -8.78125 L 1.25 -8.78125 L 1.28125 -8.953125 C 1.382812 -10.097656 1.84375 -11.023438 2.65625 -11.734375 C 3.46875 -12.453125 4.578125 -12.8125 5.984375 -12.8125 C 7.304688 -12.8125 8.332031 -12.503906 9.0625 -11.890625 C 9.789062 -11.273438 10.15625 -10.488281 10.15625 -9.53125 C 10.15625 -8.8125 9.953125 -8.195312 9.546875 -7.6875 C 9.148438 -7.1875 8.578125 -6.835938 7.828125 -6.640625 Z M 7.828125 -6.640625"/></g><g id="aj"><path d="M 7.4375 -16.828125 C 9.539062 -16.828125 11.117188 -16.171875 12.171875 -14.859375 C 13.234375 -13.554688 13.765625 -11.53125 13.765625 -8.78125 C 13.765625 -5.8125 13.144531 -3.550781 11.90625 -2 C 10.664062 -0.445312 9.015625 0.328125 6.953125 0.328125 C 5.316406 0.328125 4.007812 -0.078125 3.03125 -0.890625 C 2.0625 -1.710938 1.503906 -2.847656 1.359375 -4.296875 L 1.34375 -4.546875 L 4.6875 -4.546875 L 4.734375 -4.296875 C 5.035156 -2.847656 5.847656 -2.125 7.171875 -2.125 C 9.179688 -2.125 10.25 -4.035156 10.375 -7.859375 L 9.53125 -6.359375 C 8.75 -5.722656 7.769531 -5.40625 6.59375 -5.40625 C 4.863281 -5.40625 3.523438 -5.90625 2.578125 -6.90625 C 1.640625 -7.914062 1.171875 -9.21875 1.171875 -10.8125 C 1.171875 -12.65625 1.769531 -14.117188 2.96875 -15.203125 C 4.175781 -16.285156 5.664062 -16.828125 7.4375 -16.828125 Z M 7.484375 -7.859375 C 8.265625 -7.859375 8.914062 -8.148438 9.4375 -8.734375 C 9.96875 -9.316406 10.234375 -10.109375 10.234375 -11.109375 C 10.234375 -12.066406 9.976562 -12.847656 9.46875 -13.453125 C 8.96875 -14.066406 8.296875 -14.375 7.453125 -14.375 C 6.609375 -14.375 5.9375 -14.070312 5.4375 -13.46875 C 4.9375 -12.875 4.6875 -12.125 4.6875 -11.21875 C 4.6875 -10.207031 4.925781 -9.394531 5.40625 -8.78125 C 5.882812 -8.164062 6.578125 -7.859375 7.484375 -7.859375 Z M 7.484375 -7.859375"/></g><g id="ak"><path d="M 10.28125 -8.71875 C 12.570312 -8.195312 13.71875 -6.875 13.71875 -4.75 C 13.71875 -3.226562 13.125 -2 11.9375 -1.0625 C 10.75 -0.132812 9.210938 0.328125 7.328125 0.328125 C 5.453125 0.328125 3.957031 -0.109375 2.84375 -0.984375 C 1.738281 -1.859375 1.101562 -3.140625 0.9375 -4.828125 L 0.90625 -5.0625 L 4.203125 -5.0625 L 4.25 -4.828125 C 4.382812 -3.984375 4.722656 -3.320312 5.265625 -2.84375 C 5.804688 -2.363281 6.488281 -2.125 7.3125 -2.125 C 8.1875 -2.125 8.890625 -2.351562 9.421875 -2.8125 C 9.960938 -3.28125 10.234375 -3.890625 10.234375 -4.640625 C 10.234375 -6.304688 9.140625 -7.164062 6.953125 -7.21875 L 6.40625 -7.21875 L 6.40625 -9.515625 L 6.953125 -9.53125 C 7.828125 -9.570312 8.523438 -9.828125 9.046875 -10.296875 C 9.578125 -10.765625 9.84375 -11.378906 9.84375 -12.140625 C 9.84375 -12.804688 9.628906 -13.34375 9.203125 -13.75 C 8.785156 -14.164062 8.21875 -14.375 7.5 -14.375 C 6.769531 -14.375 6.179688 -14.132812 5.734375 -13.65625 C 5.285156 -13.1875 5.023438 -12.554688 4.953125 -11.765625 L 4.921875 -11.515625 L 1.65625 -11.515625 L 1.671875 -11.765625 C 1.816406 -13.265625 2.421875 -14.484375 3.484375 -15.421875 C 4.554688 -16.359375 6.015625 -16.828125 7.859375 -16.828125 C 9.597656 -16.828125 10.945312 -16.425781 11.90625 -15.625 C 12.863281 -14.820312 13.34375 -13.789062 13.34375 -12.53125 C 13.34375 -11.570312 13.078125 -10.757812 12.546875 -10.09375 C 12.023438 -9.4375 11.269531 -8.976562 10.28125 -8.71875 Z M 10.28125 -8.71875"/></g><g id="al"><path d="M 1.84375 -15.734375 C 2.5 -16.429688 3.398438 -16.78125 4.546875 -16.78125 C 5.691406 -16.78125 6.59375 -16.429688 7.25 -15.734375 C 7.914062 -15.046875 8.25 -14.085938 8.25 -12.859375 C 8.25 -11.628906 7.914062 -10.664062 7.25 -9.96875 C 6.59375 -9.269531 5.691406 -8.921875 4.546875 -8.921875 C 3.410156 -8.921875 2.507812 -9.269531 1.84375 -9.96875 C 1.1875 -10.664062 0.859375 -11.628906 0.859375 -12.859375 C 0.859375 -14.085938 1.1875 -15.046875 1.84375 -15.734375 Z M 5.109375 0 L 2.5625 0 L 13.265625 -16.5 L 15.828125 -16.5 Z M 4.546875 -15.03125 C 3.628906 -15.03125 3.171875 -14.304688 3.171875 -12.859375 C 3.171875 -11.390625 3.628906 -10.65625 4.546875 -10.65625 C 5.460938 -10.65625 5.921875 -11.390625 5.921875 -12.859375 C 5.921875 -14.304688 5.460938 -15.03125 4.546875 -15.03125 Z M 10.984375 -6.484375 C 11.648438 -7.179688 12.554688 -7.53125 13.703125 -7.53125 C 14.847656 -7.53125 15.75 -7.179688 16.40625 -6.484375 C 17.070312 -5.796875 17.40625 -4.835938 17.40625 -3.609375 C 17.40625 -2.378906 17.070312 -1.414062 16.40625 -0.71875 C 15.75 -0.0195312 14.847656 0.328125 13.703125 0.328125 C 12.554688 0.328125 11.648438 -0.0195312 10.984375 -0.71875 C 10.328125 -1.414062 10 -2.378906 10 -3.609375 C 10 -4.835938 10.328125 -5.796875 10.984375 -6.484375 Z M 15.0625 -3.609375 C 15.0625 -5.054688 14.601562 -5.78125 13.6875 -5.78125 C 12.78125 -5.78125 12.328125 -5.054688 12.328125 -3.609375 C 12.328125 -2.140625 12.78125 -1.40625 13.6875 -1.40625 C 14.601562 -1.40625 15.0625 -2.140625 15.0625 -3.609375 Z M 15.0625 -3.609375"/></g><g id="am"><path d="M 11.046875 -16.5 L 11.046875 0 L 7.75 0 L 7.75 -13.03125 L 2.9375 -10.375 L 2.9375 -13.484375 L 6.765625 -15.75 C 7.640625 -16.25 8.523438 -16.5 9.421875 -16.5 Z M 11.046875 -16.5"/></g><g id="av"><path d="M 11.328125 0 L 11.292969 -12.214844 L 9.804688 -12.214844 L 9.804688 -6.105469 C 9.804688 -4.671875 9.824219 -2.921875 9.859375 -1.488281 L 4.105469 -12.214844 L 1.769531 -12.214844 L 1.769531 0 L 3.292969 0 L 3.292969 -6.105469 C 3.292969 -7.539062 3.273438 -9.292969 3.238281 -10.726562 L 8.992188 0 Z M 11.328125 0"/></g><g id="aw"><path d="M 5.1875 -9.628906 C 2 -9.628906 0.53125 -7.347656 0.53125 -4.691406 C 0.53125 -2.054688 2 0.246094 5.1875 0.246094 C 8.371094 0.246094 9.839844 -2.054688 9.839844 -4.691406 C 9.839844 -7.347656 8.371094 -9.628906 5.1875 -9.628906 Z M 5.1875 -0.921875 C 3.292969 -0.921875 2.195312 -2.496094 2.195312 -4.691406 C 2.195312 -6.902344 3.292969 -8.460938 5.1875 -8.460938 C 7.082031 -8.460938 8.179688 -6.902344 8.179688 -4.691406 C 8.179688 -2.496094 7.082031 -0.921875 5.1875 -0.921875 Z M 5.1875 -0.921875"/></g><g id="ax"><path d="M 3.132812 -8.140625 L 4.886719 -8.140625 L 4.886719 -9.3125 L 3.132812 -9.3125 L 3.132812 -11.488281 L 1.609375 -11.488281 L 1.609375 -9.3125 L 0.355469 -9.3125 L 0.355469 -8.140625 L 1.609375 -8.140625 L 1.609375 -2.671875 C 1.609375 -2.140625 1.609375 -1.753906 1.628906 -1.503906 C 1.71875 -0.335938 2.320312 0.140625 3.488281 0.140625 C 3.910156 0.140625 4.335938 0.125 4.777344 0.0546875 L 4.777344 -1.0625 C 3.59375 -0.921875 3.222656 -1.113281 3.152344 -2.019531 C 3.132812 -2.265625 3.132812 -2.425781 3.132812 -2.742188 Z M 3.132812 -8.140625"/></g><g id="az"><path d="M 4.035156 -9.628906 C 2.105469 -9.628906 0.796875 -8.601562 0.796875 -6.886719 C 0.796875 -5.238281 2.140625 -4.550781 3.824219 -4.089844 C 5.398438 -3.664062 6.035156 -3.1875 6.035156 -2.285156 C 6.035156 -1.378906 5.222656 -0.921875 4.210938 -0.921875 C 3.132812 -0.921875 2.265625 -1.398438 2.019531 -2.761719 L 0.425781 -2.761719 C 0.707031 -0.636719 2.175781 0.246094 4.105469 0.246094 C 6.089844 0.246094 7.59375 -0.636719 7.59375 -2.40625 C 7.59375 -4 6.566406 -4.851562 4.40625 -5.417969 C 3.132812 -5.753906 2.355469 -6.125 2.355469 -7.0625 C 2.355469 -7.875 2.851562 -8.460938 3.910156 -8.460938 C 5.007812 -8.460938 5.683594 -7.804688 5.894531 -6.707031 L 7.488281 -6.707031 C 7.292969 -8.425781 6.140625 -9.628906 4.035156 -9.628906 Z M 4.035156 -9.628906"/></g><g id="aA"><path d="M 6.691406 0 L 8.214844 0 C 8.070312 -1.042969 8.035156 -1.679688 8.035156 -2.390625 L 8.035156 -5.910156 C 8.035156 -6.320312 8.019531 -6.78125 7.984375 -7.152344 C 7.824219 -8.691406 6.886719 -9.628906 4.65625 -9.628906 C 2.585938 -9.628906 1.1875 -8.480469 1.042969 -6.476562 L 2.636719 -6.476562 C 2.742188 -7.769531 3.378906 -8.460938 4.65625 -8.460938 C 5.910156 -8.460938 6.40625 -7.894531 6.476562 -7.027344 C 6.515625 -6.671875 6.515625 -6.300781 6.515625 -5.894531 L 6.515625 -5.648438 L 5.910156 -5.648438 C 2.230469 -5.648438 0.636719 -4.550781 0.636719 -2.425781 C 0.636719 -0.691406 1.964844 0.246094 3.664062 0.246094 C 4.566406 0.246094 5.382812 0.105469 6.019531 -0.335938 L 6.53125 -1.34375 Z M 4.175781 -0.921875 C 3.027344 -0.921875 2.300781 -1.417969 2.300781 -2.550781 C 2.300781 -4.160156 3.929688 -4.707031 6.515625 -4.515625 L 6.515625 -3.558594 C 6.515625 -1.859375 5.59375 -0.921875 4.175781 -0.921875 Z M 4.175781 -0.921875"/></g><g id="aB"><path d="M 2.070312 -12.460938 C 1.523438 -12.460938 1.097656 -12.035156 1.097656 -11.488281 C 1.097656 -10.9375 1.523438 -10.515625 2.070312 -10.515625 C 2.621094 -10.515625 3.042969 -10.9375 3.042969 -11.488281 C 3.042969 -12.035156 2.621094 -12.460938 2.070312 -12.460938 Z M 2.832031 0 L 2.832031 -9.382812 L 1.308594 -9.382812 L 1.308594 0 Z M 2.832031 0"/></g><g id="aC"><path d="M 4.9375 -9.628906 C 2.585938 -9.628906 0.53125 -7.839844 0.53125 -4.671875 C 0.53125 -1.238281 2.335938 0.246094 4.707031 0.246094 C 6.796875 0.246094 8.355469 -0.8125 8.816406 -2.992188 L 7.222656 -2.992188 C 6.902344 -1.628906 6.035156 -0.921875 4.796875 -0.921875 C 3.398438 -0.921875 2.195312 -2.054688 2.195312 -4.777344 C 2.195312 -7.308594 3.433594 -8.460938 4.902344 -8.460938 C 6.160156 -8.460938 6.972656 -7.734375 7.308594 -6.230469 L 8.902344 -6.230469 C 8.621094 -8.285156 7.1875 -9.628906 4.9375 -9.628906 Z M 4.9375 -9.628906"/></g><g id="aD"><path d="M 2.761719 -13.011719 L 1.238281 -13.011719 L 1.238281 -2.636719 C 1.238281 -2.125 1.238281 -1.71875 1.257812 -1.398438 C 1.308594 -0.210938 1.964844 0.0703125 2.851562 0.0703125 C 3.203125 0.0703125 3.59375 0.0546875 3.929688 0 L 3.929688 -1.097656 C 3.097656 -1.007812 2.8125 -1.203125 2.777344 -1.804688 C 2.761719 -2.105469 2.761719 -2.40625 2.761719 -2.691406 Z M 2.761719 -13.011719"/></g><g id="aE"><path d="M 8.972656 -9.382812 L 7.308594 -9.382812 L 4.53125 -1.132812 L 1.734375 -9.382812 L 0.0195312 -9.382812 L 3.753906 0.476562 L 3.628906 0.8125 C 3.152344 2.054688 2.53125 2.460938 1.59375 2.460938 C 1.433594 2.460938 1.273438 2.460938 1.042969 2.441406 L 1.042969 3.683594 C 1.273438 3.71875 1.488281 3.71875 1.824219 3.71875 C 3.34375 3.71875 4.355469 2.777344 5.117188 0.796875 Z M 8.972656 -9.382812"/></g><g id="aF"><path d="M 9.503906 -9.382812 L 7.984375 -9.382812 L 7.984375 -8.089844 L 7.363281 -9.007812 C 6.886719 -9.398438 5.894531 -9.628906 5.117188 -9.628906 C 2.691406 -9.628906 0.53125 -8.019531 0.53125 -4.550781 C 0.53125 -1.804688 2.054688 0.246094 4.796875 0.246094 C 5.753906 0.246094 6.742188 -0.0546875 7.273438 -0.496094 L 7.984375 -1.503906 L 7.984375 -1.34375 C 7.984375 -1.0625 7.984375 -0.761719 7.964844 -0.320312 C 7.894531 1.488281 6.886719 2.550781 5.027344 2.550781 C 3.417969 2.550781 2.496094 1.753906 2.371094 0.601562 L 2.355469 0.441406 L 0.8125 0.441406 L 0.832031 0.621094 C 1.027344 2.601562 2.355469 3.71875 5.027344 3.71875 C 7.734375 3.71875 9.398438 2.265625 9.488281 -0.476562 C 9.503906 -0.992188 9.503906 -1.71875 9.503906 -2.300781 Z M 5.027344 -0.921875 C 3.152344 -0.921875 2.195312 -2.601562 2.195312 -4.726562 C 2.195312 -7.1875 3.46875 -8.460938 5.117188 -8.460938 C 6.460938 -8.460938 7.984375 -7.539062 7.984375 -5.117188 L 7.984375 -4.601562 C 7.984375 -1.910156 6.585938 -0.921875 5.027344 -0.921875 Z M 5.027344 -0.921875"/></g><g id="aG"><path d="M 9.203125 -6.886719 C 9.0625 -8.53125 7.914062 -9.628906 5.859375 -9.628906 C 4.902344 -9.628906 4.210938 -9.46875 3.417969 -8.851562 L 2.832031 -7.769531 L 2.832031 -9.382812 L 1.308594 -9.382812 L 1.308594 0 L 2.832031 0 L 2.832031 -4.125 C 2.832031 -7.328125 4.070312 -8.425781 5.539062 -8.425781 C 6.992188 -8.425781 7.59375 -7.613281 7.683594 -6.515625 C 7.71875 -6.035156 7.71875 -5.648438 7.71875 -5.167969 L 7.71875 0 L 9.238281 0 L 9.238281 -5.273438 C 9.238281 -6.035156 9.238281 -6.40625 9.203125 -6.886719 Z M 9.203125 -6.886719"/></g><g id="aH"><path d="M 2.957031 -11.1875 C 3.078125 -11.949219 3.839844 -12.214844 4.992188 -12 L 4.992188 -13.257812 C 4.671875 -13.3125 4.300781 -13.347656 3.910156 -13.347656 C 2.511719 -13.347656 1.59375 -12.585938 1.433594 -11.222656 C 1.398438 -10.902344 1.378906 -10.445312 1.378906 -10.089844 L 1.378906 -9.3125 L 0.371094 -9.3125 L 0.371094 -8.140625 L 1.378906 -8.140625 L 1.378906 0 L 2.902344 0 L 2.902344 -8.140625 L 4.832031 -8.140625 L 4.832031 -9.3125 L 2.902344 -9.3125 L 2.902344 -10.230469 C 2.902344 -10.496094 2.921875 -10.9375 2.957031 -11.1875 Z M 2.957031 -11.1875"/></g><g id="aI"><path d="M 7.746094 -28.6875 C 4.058594 -28.6875 1.679688 -26.1875 1.679688 -22.171875 C 1.679688 -18.195312 4.058594 -15.65625 7.746094 -15.65625 C 11.433594 -15.65625 13.808594 -18.195312 13.808594 -22.171875 C 13.808594 -26.1875 11.433594 -28.6875 7.746094 -28.6875 Z M 7.785156 0 L 26.144531 -28.277344 L 22.578125 -28.277344 L 4.222656 0 Z M 7.746094 -26.226562 C 9.300781 -26.226562 10.367188 -24.832031 10.367188 -22.171875 C 10.367188 -19.546875 9.300781 -18.113281 7.746094 -18.113281 C 6.1875 -18.113281 5.121094 -19.546875 5.121094 -22.171875 C 5.121094 -24.832031 6.1875 -26.226562 7.746094 -26.226562 Z M 22.578125 -12.457031 C 18.890625 -12.457031 16.515625 -9.957031 16.515625 -5.941406 C 16.515625 -1.96875 18.890625 0.574219 22.578125 0.574219 C 26.269531 0.574219 28.644531 -1.96875 28.644531 -5.941406 C 28.644531 -9.957031 26.269531 -12.457031 22.578125 -12.457031 Z M 22.578125 -10 C 24.136719 -10 25.203125 -8.605469 25.203125 -5.941406 C 25.203125 -3.320312 24.136719 -1.886719 22.578125 -1.886719 C 21.023438 -1.886719 19.957031 -3.320312 19.957031 -5.941406 C 19.957031 -8.605469 21.023438 -10 22.578125 -10 Z M 22.578125 -10"/></g><g id="aK"><path d="M 12.007812 -22.292969 C 4.628906 -22.292969 1.230469 -17.007812 1.230469 -10.859375 C 1.230469 -4.753906 4.628906 0.574219 12.007812 0.574219 C 19.382812 0.574219 22.785156 -4.753906 22.785156 -10.859375 C 22.785156 -17.007812 19.382812 -22.292969 12.007812 -22.292969 Z M 12.007812 -2.132812 C 7.621094 -2.132812 5.082031 -5.777344 5.082031 -10.859375 C 5.082031 -15.980469 7.621094 -19.589844 12.007812 -19.589844 C 16.390625 -19.589844 18.933594 -15.980469 18.933594 -10.859375 C 18.933594 -5.777344 16.390625 -2.132812 12.007812 -2.132812 Z M 12.007812 -2.132812"/></g><g id="aL"><path d="M 6.84375 -25.898438 C 7.128906 -27.660156 8.894531 -28.277344 11.554688 -27.785156 L 11.554688 -30.695312 C 10.820312 -30.816406 9.957031 -30.898438 9.054688 -30.898438 C 5.820312 -30.898438 3.6875 -29.136719 3.320312 -25.980469 C 3.238281 -25.242188 3.195312 -24.179688 3.195312 -23.359375 L 3.195312 -21.554688 L 0.859375 -21.554688 L 0.859375 -18.851562 L 3.195312 -18.851562 L 3.195312 0 L 6.722656 0 L 6.722656 -18.851562 L 11.1875 -18.851562 L 11.1875 -21.554688 L 6.722656 -21.554688 L 6.722656 -23.6875 C 6.722656 -24.300781 6.761719 -25.324219 6.84375 -25.898438 Z M 6.84375 -25.898438"/></g><g id="aM"><path d="M 11.433594 -22.292969 C 5.984375 -22.292969 1.230469 -18.152344 1.230469 -10.820312 C 1.230469 -2.867188 5.410156 0.574219 10.902344 0.574219 C 15.734375 0.574219 19.34375 -1.886719 20.40625 -6.925781 L 16.71875 -6.925781 C 15.980469 -3.769531 13.972656 -2.132812 11.105469 -2.132812 C 7.867188 -2.132812 5.082031 -4.753906 5.082031 -11.066406 C 5.082031 -16.925781 7.949219 -19.589844 11.351562 -19.589844 C 14.261719 -19.589844 16.144531 -17.910156 16.925781 -14.425781 L 20.613281 -14.425781 C 19.957031 -19.179688 16.636719 -22.292969 11.433594 -22.292969 Z M 11.433594 -22.292969"/></g><g id="aN"><path d="M 20.859375 -11.472656 C 20.859375 -17.828125 17.539062 -22.292969 11.554688 -22.292969 C 5.613281 -22.292969 1.230469 -17.828125 1.230469 -10.777344 C 1.230469 -3.113281 5.449219 0.574219 11.105469 0.574219 C 15.574219 0.574219 19.710938 -1.761719 20.570312 -7.007812 L 16.882812 -7.007812 C 16.390625 -3.894531 14.097656 -2.132812 11.269531 -2.132812 C 8.074219 -2.132812 5.367188 -4.058594 5.039062 -9.792969 L 20.777344 -9.792969 C 20.859375 -10.574219 20.859375 -11.148438 20.859375 -11.472656 Z M 11.472656 -19.589844 C 15.039062 -19.589844 16.964844 -17.007812 17.292969 -12.5 L 5.082031 -12.5 C 5.492188 -17.128906 8.03125 -19.589844 11.472656 -19.589844 Z M 11.472656 -19.589844"/></g><g id="aO"><path d="M 11.554688 -22.210938 C 10.53125 -22.210938 9.425781 -21.84375 8.523438 -21.226562 L 6.558594 -18.316406 L 6.558594 -21.71875 L 3.03125 -21.71875 L 3.03125 0 L 6.558594 0 L 6.558594 -12.375 C 6.558594 -17.335938 9.34375 -19.507812 13.03125 -19.261719 L 13.03125 -21.925781 C 12.621094 -22.128906 12.128906 -22.210938 11.554688 -22.210938 Z M 11.554688 -22.210938"/></g><g id="aP"><path d="M 7.253906 -18.851562 L 11.308594 -18.851562 L 11.308594 -21.554688 L 7.253906 -21.554688 L 7.253906 -26.597656 L 3.730469 -26.597656 L 3.730469 -21.554688 L 0.820312 -21.554688 L 0.820312 -18.851562 L 3.730469 -18.851562 L 3.730469 -6.1875 C 3.730469 -4.957031 3.730469 -4.058594 3.769531 -3.484375 C 3.976562 -0.777344 5.367188 0.328125 8.074219 0.328125 C 9.054688 0.328125 10.039062 0.285156 11.066406 0.121094 L 11.066406 -2.457031 C 8.320312 -2.132812 7.457031 -2.582031 7.292969 -4.671875 C 7.253906 -5.246094 7.253906 -5.613281 7.253906 -6.351562 Z M 7.253906 -18.851562"/></g><g id="aQ"><path d="M 15.492188 0 L 19.015625 0 C 18.6875 -2.417969 18.605469 -3.894531 18.605469 -5.53125 L 18.605469 -13.6875 C 18.605469 -14.628906 18.5625 -15.695312 18.480469 -16.554688 C 18.113281 -20.121094 15.941406 -22.292969 10.777344 -22.292969 C 5.984375 -22.292969 2.746094 -19.628906 2.417969 -15 L 6.105469 -15 C 6.351562 -17.988281 7.828125 -19.589844 10.777344 -19.589844 C 13.6875 -19.589844 14.835938 -18.277344 15 -16.269531 C 15.082031 -15.449219 15.082031 -14.589844 15.082031 -13.644531 L 15.082031 -13.074219 L 13.6875 -13.074219 C 5.164062 -13.074219 1.476562 -10.53125 1.476562 -5.613281 C 1.476562 -1.597656 4.546875 0.574219 8.484375 0.574219 C 10.574219 0.574219 12.457031 0.246094 13.933594 -0.777344 L 15.121094 -3.113281 Z M 9.671875 -2.132812 C 7.007812 -2.132812 5.328125 -3.277344 5.328125 -5.902344 C 5.328125 -9.628906 9.097656 -10.902344 15.082031 -10.449219 L 15.082031 -8.238281 C 15.082031 -4.304688 12.949219 -2.132812 9.671875 -2.132812 Z M 9.671875 -2.132812"/></g><g id="aR"><path d="M 4.792969 -28.851562 C 3.523438 -28.851562 2.539062 -27.867188 2.539062 -26.597656 C 2.539062 -25.324219 3.523438 -24.34375 4.792969 -24.34375 C 6.066406 -24.34375 7.046875 -25.324219 7.046875 -26.597656 C 7.046875 -27.867188 6.066406 -28.851562 4.792969 -28.851562 Z M 6.558594 0 L 6.558594 -21.71875 L 3.03125 -21.71875 L 3.03125 0 Z M 6.558594 0"/></g><g id="aS"><path d="M 21.308594 -15.941406 C 20.980469 -19.753906 18.316406 -22.292969 13.5625 -22.292969 C 11.351562 -22.292969 9.753906 -21.925781 7.910156 -20.488281 L 6.558594 -17.988281 L 6.558594 -21.71875 L 3.03125 -21.71875 L 3.03125 0 L 6.558594 0 L 6.558594 -9.546875 C 6.558594 -16.964844 9.425781 -19.507812 12.828125 -19.507812 C 16.1875 -19.507812 17.582031 -17.621094 17.785156 -15.082031 C 17.867188 -13.972656 17.867188 -13.074219 17.867188 -11.964844 L 17.867188 0 L 21.390625 0 L 21.390625 -12.210938 C 21.390625 -13.972656 21.390625 -14.835938 21.308594 -15.941406 Z M 21.308594 -15.941406"/></g><g id="aT"><path d="M 20.777344 -21.71875 L 16.925781 -21.71875 L 10.492188 -2.621094 L 4.015625 -21.71875 L 0.0390625 -21.71875 L 8.6875 1.105469 L 8.402344 1.886719 C 7.292969 4.753906 5.859375 5.695312 3.6875 5.695312 C 3.320312 5.695312 2.949219 5.695312 2.417969 5.65625 L 2.417969 8.523438 C 2.949219 8.605469 3.441406 8.605469 4.222656 8.605469 C 7.746094 8.605469 10.082031 6.433594 11.84375 1.84375 Z M 20.777344 -21.71875"/></g><g id="aU"><path d="M 9.34375 -22.292969 C 4.875 -22.292969 1.84375 -19.917969 1.84375 -15.941406 C 1.84375 -12.128906 4.957031 -10.53125 8.851562 -9.464844 C 12.5 -8.484375 13.972656 -7.375 13.972656 -5.285156 C 13.972656 -3.195312 12.089844 -2.132812 9.753906 -2.132812 C 7.253906 -2.132812 5.246094 -3.238281 4.671875 -6.394531 L 0.984375 -6.394531 C 1.640625 -1.476562 5.039062 0.574219 9.507812 0.574219 C 14.097656 0.574219 17.582031 -1.476562 17.582031 -5.574219 C 17.582031 -9.261719 15.203125 -11.230469 10.203125 -12.539062 C 7.253906 -13.320312 5.449219 -14.179688 5.449219 -16.351562 C 5.449219 -18.234375 6.597656 -19.589844 9.054688 -19.589844 C 11.597656 -19.589844 13.15625 -18.070312 13.644531 -15.53125 L 17.335938 -15.53125 C 16.882812 -19.507812 14.21875 -22.292969 9.34375 -22.292969 Z M 9.34375 -22.292969"/></g><g id="aV"><path d="M 13.933594 -22.292969 C 11.71875 -22.292969 9.425781 -21.597656 8.195312 -20.570312 L 6.558594 -18.234375 L 6.558594 -21.71875 L 3.03125 -21.71875 L 3.03125 8.03125 L 6.558594 8.03125 L 6.558594 -2.992188 L 7.992188 -0.859375 C 9.097656 0.0390625 11.390625 0.574219 13.195312 0.574219 C 18.808594 0.574219 23.808594 -3.15625 23.808594 -11.1875 C 23.808594 -17.539062 20.285156 -22.292969 13.933594 -22.292969 Z M 13.195312 -2.132812 C 10.082031 -2.132812 6.558594 -4.261719 6.558594 -9.875 L 6.558594 -11.066406 C 6.558594 -17.292969 9.792969 -19.589844 13.402344 -19.589844 C 17.746094 -19.589844 19.957031 -15.695312 19.957031 -10.777344 C 19.957031 -5.082031 17.007812 -2.132812 13.195312 -2.132812 Z M 13.195312 -2.132812"/></g><g id="aW"><path d="M 16.515625 0 L 21.308594 0 L 11.066406 -11.472656 L 21.1875 -21.71875 L 16.679688 -21.71875 L 6.558594 -10.777344 L 6.558594 -30.121094 L 3.03125 -30.121094 L 3.03125 0 L 6.558594 0 L 6.558594 -6.925781 L 8.605469 -9.179688 Z M 16.515625 0"/></g><g id="aX"><path d="M 22.007812 -30.121094 L 18.480469 -30.121094 L 18.480469 -18.726562 L 17.046875 -20.859375 C 15.941406 -21.761719 13.644531 -22.292969 11.84375 -22.292969 C 6.230469 -22.292969 1.230469 -18.5625 1.230469 -10.53125 C 1.230469 -4.179688 4.753906 0.574219 11.105469 0.574219 C 13.320312 0.574219 15.613281 -0.121094 16.84375 -1.148438 L 18.480469 -3.484375 L 18.480469 0 L 22.007812 0 Z M 11.636719 -2.132812 C 7.292969 -2.132812 5.082031 -6.023438 5.082031 -10.941406 C 5.082031 -16.636719 8.03125 -19.589844 11.84375 -19.589844 C 14.957031 -19.589844 18.480469 -17.457031 18.480469 -11.84375 L 18.480469 -10.65625 C 18.480469 -4.425781 15.246094 -2.132812 11.636719 -2.132812 Z M 11.636719 -2.132812"/></g><g id="aY"><path d="M 22.007812 -21.71875 L 18.480469 -21.71875 L 18.480469 -18.726562 L 17.046875 -20.859375 C 15.941406 -21.761719 13.644531 -22.292969 11.84375 -22.292969 C 6.230469 -22.292969 1.230469 -18.5625 1.230469 -10.53125 C 1.230469 -4.179688 4.753906 0.574219 11.105469 0.574219 C 13.320312 0.574219 15.613281 -0.121094 16.84375 -1.148438 L 18.480469 -3.484375 L 18.480469 -3.113281 C 18.480469 -2.457031 18.480469 -1.761719 18.441406 -0.738281 C 18.277344 3.441406 15.941406 5.902344 11.636719 5.902344 C 7.910156 5.902344 5.777344 4.058594 5.492188 1.394531 L 5.449219 1.023438 L 1.886719 1.023438 L 1.925781 1.433594 C 2.375 6.023438 5.449219 8.605469 11.636719 8.605469 C 17.910156 8.605469 21.761719 5.246094 21.964844 -1.105469 C 22.007812 -2.292969 22.007812 -3.976562 22.007812 -5.328125 Z M 11.636719 -2.132812 C 7.292969 -2.132812 5.082031 -6.023438 5.082031 -10.941406 C 5.082031 -16.636719 8.03125 -19.589844 11.84375 -19.589844 C 14.957031 -19.589844 18.480469 -17.457031 18.480469 -11.84375 L 18.480469 -10.65625 C 18.480469 -4.425781 15.246094 -2.132812 11.636719 -2.132812 Z M 11.636719 -2.132812"/></g><g id="aZ"><path d="M 21.308594 -15.941406 C 20.980469 -19.753906 18.316406 -22.292969 13.5625 -22.292969 C 11.351562 -22.292969 9.753906 -21.925781 7.910156 -20.488281 L 6.558594 -17.988281 L 6.558594 -30.324219 L 3.03125 -30.324219 L 3.03125 0 L 6.558594 0 L 6.558594 -9.546875 C 6.558594 -16.964844 9.425781 -19.425781 12.828125 -19.507812 C 16.1875 -19.589844 17.582031 -17.621094 17.785156 -15.082031 C 17.867188 -13.972656 17.867188 -13.074219 17.867188 -11.964844 L 17.867188 0 L 21.390625 0 L 21.390625 -12.210938 C 21.390625 -13.972656 21.390625 -14.835938 21.308594 -15.941406 Z M 21.308594 -15.941406"/></g><g id="ba"><path d="M 6.394531 -30.121094 L 2.867188 -30.121094 L 2.867188 -6.105469 C 2.867188 -4.917969 2.867188 -3.976562 2.910156 -3.238281 C 3.03125 -0.492188 4.546875 0.164062 6.597656 0.164062 C 7.417969 0.164062 8.320312 0.121094 9.097656 0 L 9.097656 -2.539062 C 7.171875 -2.335938 6.515625 -2.785156 6.433594 -4.179688 C 6.394531 -4.875 6.394531 -5.574219 6.394531 -6.230469 Z M 6.394531 -30.121094"/></g><clipPath id="c"><path d="M0 0H460V460H0z"/></clipPath><clipPath id="f"><path d="M 2 2 L 831.761719 2 L 831.761719 831.761719 L 2 831.761719 Z M 2 2"/></clipPath><clipPath id="e"><path d="M0 0H832V832H0z"/></clipPath><clipPath id="g"><path d="M 886 404.738281 L 905 404.738281 L 905 423 L 886 423 Z M 886 404.738281"/></clipPath><clipPath id="h"><path d="M 873.75 424 L 916.5 424 L 916.5 515 L 873.75 515 Z M 873.75 424"/></clipPath><clipPath id="i"><path d="M 1003 404.738281 L 1022 404.738281 L 1022 423 L 1003 423 Z M 1003 404.738281"/></clipPath><clipPath id="l"><path d="M 0.078125 0.238281 L 174 0.238281 L 174 174 L 0.078125 174 Z M 0.078125 0.238281"/></clipPath><clipPath id="k"><path d="M0 0H175V174H0z"/></clipPath><clipPath id="E"><path d="M 0.558594 0.199219 L 174.320312 0.199219 L 174.320312 174.199219 L 0.558594 174.199219 Z M 0.558594 0.199219"/></clipPath><clipPath id="D"><path d="M0 0H175V175H0z"/></clipPath><clipPath id="H"><path d="M 0.0390625 1 L 173.800781 1 L 173.800781 174.519531 L 0.0390625 174.519531 Z M 0.0390625 1"/></clipPath><clipPath id="G"><path d="M0 0H174V175H0z"/></clipPath><clipPath id="K"><path d="M 0.558594 1 L 174.320312 1 L 174.320312 174.519531 L 0.558594 174.519531 Z M 0.558594 1"/></clipPath><clipPath id="J"><path d="M0 0H175V175H0z"/></clipPath><clipPath id="X"><path d="M 659 409.636719 L 668 409.636719 L 668 418 L 659 418 Z M 659 409.636719"/></clipPath><clipPath id="Y"><path d="M 654.027344 418 L 673.527344 418 L 673.527344 460 L 654.027344 460 Z M 654.027344 418"/></clipPath><clipPath id="Z"><path d="M 713 409.636719 L 722 409.636719 L 722 418 L 713 418 Z M 713 409.636719"/></clipPath><clipPath id="aa"><path d="M 705.074219 418 L 729 418 L 729 460 L 705.074219 460 Z M 705.074219 418"/></clipPath><clipPath id="af"><path d="M 669 745.34375 L 683 745.34375 L 683 758 L 669 758 Z M 669 745.34375"/></clipPath><clipPath id="ag"><path d="M 661.484375 759 L 690.734375 759 L 690.734375 822 L 661.484375 822 Z M 661.484375 759"/></clipPath><clipPath id="ah"><path d="M 751 745.34375 L 764 745.34375 L 764 758 L 751 758 Z M 751 745.34375"/></clipPath><clipPath id="ai"><path d="M 739.027344 759 L 775 759 L 775 822 L 739.027344 822 Z M 739.027344 759"/></clipPath><clipPath id="ap"><path d="M 0.480469 0.28125 L 35.519531 0.28125 L 35.519531 37.960938 L 0.480469 37.960938 Z M 0.480469 0.28125"/></clipPath><clipPath id="ao"><path d="M0 0H36V38H0z"/></clipPath><clipPath id="aq"><path d="M 487 590.367188 L 496 590.367188 L 496 599 L 487 599 Z M 487 590.367188"/></clipPath><clipPath id="ar"><path d="M 481.726562 599 L 501.226562 599 L 501.226562 641 L 481.726562 641 Z M 481.726562 599"/></clipPath><clipPath id="as"><path d="M 540 590.367188 L 549 590.367188 L 549 599 L 540 599 Z M 540 590.367188"/></clipPath><clipPath id="at"><path d="M 533 599 L 556.773438 599 L 556.773438 641 L 533 641 Z M 533 599"/></clipPath><mask id="b"><g filter="url(#a)"><path fill-opacity=".427" d="M-144 -90H1584V990H-144z"/></g></mask><mask id="d"><g filter="url(#a)"><path fill-opacity=".357" d="M-144 -90H1584V990H-144z"/></g></mask><mask id="j"><g filter="url(#a)"><path fill-opacity=".388" d="M-144 -90H1584V990H-144z"/></g></mask><mask id="C"><g filter="url(#a)"><path fill-opacity=".388" d="M-144 -90H1584V990H-144z"/></g></mask><mask id="F"><g filter="url(#a)"><path fill-opacity=".388" d="M-144 -90H1584V990H-144z"/></g></mask><mask id="I"><g filter="url(#a)"><path fill-opacity=".388" d="M-144 -90H1584V990H-144z"/></g></mask><mask id="an"><g filter="url(#a)"><path fill-opacity=".427" d="M-144 -90H1584V990H-144z"/></g></mask><filter x="0%" y="0%" width="100%" xmlns:xlink="http://www.w3.org/1999/xlink" xlink:type="simple" xlink:actuate="onLoad" height="100%" id="a" xlink:show="other"><feColorMatrix values="0 0 0 0 1 0 0 0 0 1 0 0 0 0 1 0 0 0 1 0" color-interpolation-filters="sRGB"/></filter></defs><g mask="url(#b)"><g><g clip-path="url(#c)" transform="translate(374 286)"><path fill="#F03612" d="M 229.988281 458.980469 C 168.859375 458.980469 111.296875 435.183594 68.101562 391.898438 C 24.8125 348.703125 1.019531 291.140625 1.019531 230.007812 C 1.019531 168.878906 24.8125 111.3125 68.101562 68.121094 C 111.296875 24.832031 168.859375 1.039062 229.988281 1.039062 C 291.121094 1.039062 348.683594 24.832031 391.878906 68.121094 C 435.164062 111.40625 458.960938 168.878906 458.960938 230.007812 C 458.960938 291.140625 435.164062 348.703125 391.878906 391.898438 C 348.683594 435.183594 291.121094 458.980469 229.988281 458.980469 Z M 229.988281 14.765625 C 172.519531 14.765625 118.433594 37.1875 77.800781 77.820312 C 37.167969 118.453125 14.746094 172.539062 14.746094 230.007812 C 14.746094 287.480469 37.167969 341.566406 77.800781 382.199219 C 118.433594 422.832031 172.519531 445.25 229.988281 445.25 C 287.460938 445.25 341.546875 422.832031 382.179688 382.199219 C 422.8125 341.566406 445.234375 287.480469 445.234375 230.007812 C 445.234375 172.539062 422.8125 118.453125 382.179688 77.820312 C 341.546875 37.1875 287.460938 14.765625 229.988281 14.765625 Z M 229.988281 14.765625"/></g></g></g><g mask="url(#d)"><g><g clip-path="url(#e)" transform="translate(290 68)"><g clip-path="url(#f)"><path fill="#F00" d="M 416.785156 2.144531 C 187.722656 2.144531 2.035156 187.835938 2.035156 416.894531 C 2.035156 645.953125 187.722656 831.644531 416.785156 831.644531 C 645.84375 831.644531 831.535156 645.953125 831.535156 416.894531 C 831.535156 187.835938 645.84375 2.144531 416.785156 2.144531 Z M 416.785156 2.144531"/></g></g></g></g><g clip-path="url(#g)"><path fill="#FFFDFD" d="M 895.175781 422.972656 C 900.214844 422.972656 904.300781 418.894531 904.300781 413.863281 C 904.300781 408.832031 900.214844 404.753906 895.175781 404.753906 C 890.132812 404.753906 886.046875 408.832031 886.046875 413.863281 C 886.046875 418.894531 890.132812 422.972656 895.175781 422.972656"/></g><g clip-path="url(#h)"><path fill="#FFFDFD" d="M 885.40625 424.984375 C 878.945312 424.984375 873.746094 430.246094 873.746094 436.808594 L 873.746094 464.773438 C 873.746094 470.210938 881.71875 470.210938 881.71875 464.773438 L 881.71875 439.203125 L 883.609375 439.203125 L 883.609375 509.21875 C 883.609375 516.488281 894.222656 516.273438 894.222656 509.21875 L 894.222656 468.574219 L 896.054688 468.574219 L 896.054688 509.21875 C 896.054688 516.273438 906.726562 516.488281 906.726562 509.21875 L 906.726562 439.203125 L 908.570312 439.203125 L 908.570312 464.773438 C 908.570312 470.253906 916.503906 470.253906 916.488281 464.773438 L 916.488281 436.976562 C 916.488281 430.921875 911.78125 424.996094 904.683594 424.996094 L 885.40625 424.984375"/></g><g clip-path="url(#i)"><path fill="#FFFDFD" d="M 1012.359375 422.769531 C 1017.332031 422.753906 1021.339844 418.734375 1021.328125 413.777344 C 1021.339844 408.820312 1017.332031 404.804688 1012.359375 404.789062 C 1007.4375 404.804688 1003.429688 408.820312 1003.441406 413.777344 C 1003.429688 418.734375 1007.4375 422.753906 1012.359375 422.769531"/></g><path fill="#FFFDFD" d="M 1011.070312 479.714844 L 1011.070312 510.773438 C 1011.0625 516.425781 1002.617188 516.425781 1002.636719 510.773438 L 1002.636719 479.933594 L 991.25 479.933594 L 1003.390625 437.730469 L 1001.507812 437.730469 L 994.472656 461.523438 C 992.785156 466.71875 985.679688 464.589844 987.328125 459.046875 L 995.117188 433.210938 C 995.972656 430.253906 999.691406 425.03125 1006.128906 425.027344 L 1018.429688 425.027344 C 1024.828125 425.03125 1028.5625 430.300781 1029.546875 433.210938 L 1037.335938 458.992188 C 1038.929688 464.5625 1031.878906 466.859375 1030.191406 461.46875 L 1023.15625 437.730469 L 1021.113281 437.730469 L 1033.308594 479.933594 L 1021.972656 479.933594 L 1021.972656 510.828125 C 1021.972656 516.425781 1013.5625 516.398438 1013.542969 510.828125 L 1013.542969 479.714844 L 1011.070312 479.714844"/><g mask="url(#j)"><g><g clip-path="url(#k)" transform="translate(430 342)"><g clip-path="url(#l)"><path fill="#FFFDFD" d="M 87.28125 0.675781 C 39.441406 0.675781 0.65625 39.460938 0.65625 87.300781 C 0.65625 135.144531 39.441406 173.925781 87.28125 173.925781 C 135.125 173.925781 173.90625 135.144531 173.90625 87.300781 C 173.90625 39.460938 135.125 0.675781 87.28125 0.675781 Z M 87.28125 0.675781"/></g></g></g></g><g fill="#FFF"><use x="862.694" y="559.281" xmlns:xlink="http://www.w3.org/1999/xlink" xlink:href="#m" xlink:type="simple" xlink:actuate="onLoad" xlink:show="embed"/></g><g fill="#FFF"><use x="883.439" y="559.281" xmlns:xlink="http://www.w3.org/1999/xlink" xlink:href="#n" xlink:type="simple" xlink:actuate="onLoad" xlink:show="embed"/></g><g fill="#FFF"><use x="904.185" y="559.281" xmlns:xlink="http://www.w3.org/1999/xlink" xlink:href="#o" xlink:type="simple" xlink:actuate="onLoad" xlink:show="embed"/></g><g fill="#FFF"><use x="979.962" y="559.281" xmlns:xlink="http://www.w3.org/1999/xlink" xlink:href="#m" xlink:type="simple" xlink:actuate="onLoad" xlink:show="embed"/></g><g fill="#FFF"><use x="1000.707" y="559.281" xmlns:xlink="http://www.w3.org/1999/xlink" xlink:href="#p" xlink:type="simple" xlink:actuate="onLoad" xlink:show="embed"/></g><g fill="#FFF"><use x="1021.453" y="559.281" xmlns:xlink="http://www.w3.org/1999/xlink" xlink:href="#o" xlink:type="simple" xlink:actuate="onLoad" xlink:show="embed"/></g><g fill="#FFF"><use x="444.282" y="224.127" xmlns:xlink="http://www.w3.org/1999/xlink" xlink:href="#q" xlink:type="simple" xlink:actuate="onLoad" xlink:show="embed"/></g><g fill="#FFF"><use x="478.885" y="224.127" xmlns:xlink="http://www.w3.org/1999/xlink" xlink:href="#r" xlink:type="simple" xlink:actuate="onLoad" xlink:show="embed"/></g><g fill="#FFF"><use x="508.134" y="224.127" xmlns:xlink="http://www.w3.org/1999/xlink" xlink:href="#s" xlink:type="simple" xlink:actuate="onLoad" xlink:show="embed"/></g><g fill="#FFF"><use x="543.754" y="224.127" xmlns:xlink="http://www.w3.org/1999/xlink" xlink:href="#r" xlink:type="simple" xlink:actuate="onLoad" xlink:show="embed"/></g><g fill="#FFF"><use x="573.003" y="224.127" xmlns:xlink="http://www.w3.org/1999/xlink" xlink:href="#t" xlink:type="simple" xlink:actuate="onLoad" xlink:show="embed"/></g><g fill="#FFF"><use x="603.934" y="224.127" xmlns:xlink="http://www.w3.org/1999/xlink" xlink:href="#u" xlink:type="simple" xlink:actuate="onLoad" xlink:show="embed"/></g><g fill="#FFF"><use x="635.837" y="224.127" xmlns:xlink="http://www.w3.org/1999/xlink" xlink:href="#v" xlink:type="simple" xlink:actuate="onLoad" xlink:show="embed"/></g><g fill="#FFF"><use x="664.555" y="224.127" xmlns:xlink="http://www.w3.org/1999/xlink" xlink:href="#w" xlink:type="simple" xlink:actuate="onLoad" xlink:show="embed"/></g><g fill="#FFF"><use x="675.131" y="224.127" xmlns:xlink="http://www.w3.org/1999/xlink" xlink:href="#x" xlink:type="simple" xlink:actuate="onLoad" xlink:show="embed"/></g><g fill="#FFF"><use x="704.69" y="224.127" xmlns:xlink="http://www.w3.org/1999/xlink" xlink:href="#y" xlink:type="simple" xlink:actuate="onLoad" xlink:show="embed"/></g><g fill="#FFF"><use x="740.532" y="224.127" xmlns:xlink="http://www.w3.org/1999/xlink" xlink:href="#x" xlink:type="simple" xlink:actuate="onLoad" xlink:show="embed"/></g><g fill="#FFF"><use x="770.091" y="224.127" xmlns:xlink="http://www.w3.org/1999/xlink" xlink:href="#z" xlink:type="simple" xlink:actuate="onLoad" xlink:show="embed"/></g><g fill="#FFF"><use x="803.145" y="224.127" xmlns:xlink="http://www.w3.org/1999/xlink" xlink:href="#v" xlink:type="simple" xlink:actuate="onLoad" xlink:show="embed"/></g><g fill="#FFF"><use x="831.863" y="224.127" xmlns:xlink="http://www.w3.org/1999/xlink" xlink:href="#u" xlink:type="simple" xlink:actuate="onLoad" xlink:show="embed"/></g><g fill="#FFF"><use x="863.767" y="224.127" xmlns:xlink="http://www.w3.org/1999/xlink" xlink:href="#A" xlink:type="simple" xlink:actuate="onLoad" xlink:show="embed"/></g><g fill="#FFF"><use x="893.325" y="224.127" xmlns:xlink="http://www.w3.org/1999/xlink" xlink:href="#B" xlink:type="simple" xlink:actuate="onLoad" xlink:show="embed"/></g><g fill="#FFF"><use x="908.238" y="224.127" xmlns:xlink="http://www.w3.org/1999/xlink" xlink:href="#y" xlink:type="simple" xlink:actuate="onLoad" xlink:show="embed"/></g><g fill="#FFF"><use x="944.08" y="224.127" xmlns:xlink="http://www.w3.org/1999/xlink" xlink:href="#s" xlink:type="simple" xlink:actuate="onLoad" xlink:show="embed"/></g><g mask="url(#C)"><g><g clip-path="url(#D)" transform="translate(604 337)"><g clip-path="url(#E)"><path fill="#FFFDFD" d="M 87.550781 0.773438 C 39.710938 0.773438 0.925781 39.554688 0.925781 87.398438 C 0.925781 135.238281 39.710938 174.023438 87.550781 174.023438 C 135.394531 174.023438 174.175781 135.238281 174.175781 87.398438 C 174.175781 39.554688 135.394531 0.773438 87.550781 0.773438 Z M 87.550781 0.773438"/></g></g></g></g><g mask="url(#F)"><g><g clip-path="url(#G)" transform="translate(431 515)"><g clip-path="url(#H)"><path fill="#FFFDFD" d="M 87.039062 1.191406 C 39.195312 1.191406 0.414062 39.976562 0.414062 87.816406 C 0.414062 135.660156 39.195312 174.441406 87.039062 174.441406 C 134.878906 174.441406 173.664062 135.660156 173.664062 87.816406 C 173.664062 39.976562 134.878906 1.191406 87.039062 1.191406 Z M 87.039062 1.191406"/></g></g></g></g><g mask="url(#I)"><g><g clip-path="url(#J)" transform="translate(604 515)"><g clip-path="url(#K)"><path fill="#FFFDFD" d="M 87.550781 1.191406 C 39.710938 1.191406 0.925781 39.976562 0.925781 87.816406 C 0.925781 135.660156 39.710938 174.441406 87.550781 174.441406 C 135.394531 174.441406 174.175781 135.660156 174.175781 87.816406 C 174.175781 39.976562 135.394531 1.191406 87.550781 1.191406 Z M 87.550781 1.191406"/></g></g></g></g><g fill="#FFF"><use x="474.737" y="395.813" xmlns:xlink="http://www.w3.org/1999/xlink" xlink:href="#L" xlink:type="simple" xlink:actuate="onLoad" xlink:show="embed"/></g><g fill="#FFF"><use x="491.482" y="395.813" xmlns:xlink="http://www.w3.org/1999/xlink" xlink:href="#M" xlink:type="simple" xlink:actuate="onLoad" xlink:show="embed"/></g><g fill="#FFF"><use x="507.717" y="395.813" xmlns:xlink="http://www.w3.org/1999/xlink" xlink:href="#N" xlink:type="simple" xlink:actuate="onLoad" xlink:show="embed"/></g><g fill="#FFF"><use x="523.232" y="395.813" xmlns:xlink="http://www.w3.org/1999/xlink" xlink:href="#O" xlink:type="simple" xlink:actuate="onLoad" xlink:show="embed"/></g><g fill="#FFF"><use x="531.059" y="395.813" xmlns:xlink="http://www.w3.org/1999/xlink" xlink:href="#P" xlink:type="simple" xlink:actuate="onLoad" xlink:show="embed"/></g><g fill="#FFF"><use x="546.225" y="395.813" xmlns:xlink="http://www.w3.org/1999/xlink" xlink:href="#N" xlink:type="simple" xlink:actuate="onLoad" xlink:show="embed"/></g><g fill="#FFF"><use x="447.643" y="575.082" xmlns:xlink="http://www.w3.org/1999/xlink" xlink:href="#Q" xlink:type="simple" xlink:actuate="onLoad" xlink:show="embed"/></g><g fill="#FFF"><use x="463.158" y="575.082" xmlns:xlink="http://www.w3.org/1999/xlink" xlink:href="#R" xlink:type="simple" xlink:actuate="onLoad" xlink:show="embed"/></g><g fill="#FFF"><use x="481.971" y="575.082" xmlns:xlink="http://www.w3.org/1999/xlink" xlink:href="#S" xlink:type="simple" xlink:actuate="onLoad" xlink:show="embed"/></g><g fill="#FFF"><use x="497.044" y="575.082" xmlns:xlink="http://www.w3.org/1999/xlink" xlink:href="#O" xlink:type="simple" xlink:actuate="onLoad" xlink:show="embed"/></g><g fill="#FFF"><use x="504.871" y="575.082" xmlns:xlink="http://www.w3.org/1999/xlink" xlink:href="#N" xlink:type="simple" xlink:actuate="onLoad" xlink:show="embed"/></g><g fill="#FFF"><use x="520.386" y="575.082" xmlns:xlink="http://www.w3.org/1999/xlink" xlink:href="#O" xlink:type="simple" xlink:actuate="onLoad" xlink:show="embed"/></g><g fill="#FFF"><use x="528.213" y="575.082" xmlns:xlink="http://www.w3.org/1999/xlink" xlink:href="#T" xlink:type="simple" xlink:actuate="onLoad" xlink:show="embed"/></g><g fill="#FFF"><use x="545.934" y="575.082" xmlns:xlink="http://www.w3.org/1999/xlink" xlink:href="#O" xlink:type="simple" xlink:actuate="onLoad" xlink:show="embed"/></g><g fill="#FFF"><use x="553.762" y="575.082" xmlns:xlink="http://www.w3.org/1999/xlink" xlink:href="#L" xlink:type="simple" xlink:actuate="onLoad" xlink:show="embed"/></g><g fill="#FFF"><use x="570.507" y="575.082" xmlns:xlink="http://www.w3.org/1999/xlink" xlink:href="#U" xlink:type="simple" xlink:actuate="onLoad" xlink:show="embed"/></g><g fill="#FFF"><use x="628.256" y="395.813" xmlns:xlink="http://www.w3.org/1999/xlink" xlink:href="#P" xlink:type="simple" xlink:actuate="onLoad" xlink:show="embed"/></g><g fill="#FFF"><use x="643.422" y="395.813" xmlns:xlink="http://www.w3.org/1999/xlink" xlink:href="#T" xlink:type="simple" xlink:actuate="onLoad" xlink:show="embed"/></g><g fill="#FFF"><use x="661.143" y="395.813" xmlns:xlink="http://www.w3.org/1999/xlink" xlink:href="#O" xlink:type="simple" xlink:actuate="onLoad" xlink:show="embed"/></g><g fill="#FFF"><use x="668.971" y="395.813" xmlns:xlink="http://www.w3.org/1999/xlink" xlink:href="#V" xlink:type="simple" xlink:actuate="onLoad" xlink:show="embed"/></g><g fill="#FFF"><use x="684.323" y="395.813" xmlns:xlink="http://www.w3.org/1999/xlink" xlink:href="#U" xlink:type="simple" xlink:actuate="onLoad" xlink:show="embed"/></g><g fill="#FFF"><use x="703.019" y="395.813" xmlns:xlink="http://www.w3.org/1999/xlink" xlink:href="#N" xlink:type="simple" xlink:actuate="onLoad" xlink:show="embed"/></g><g fill="#FFF"><use x="718.534" y="395.813" xmlns:xlink="http://www.w3.org/1999/xlink" xlink:href="#O" xlink:type="simple" xlink:actuate="onLoad" xlink:show="embed"/></g><g fill="#FFF"><use x="726.361" y="395.813" xmlns:xlink="http://www.w3.org/1999/xlink" xlink:href="#P" xlink:type="simple" xlink:actuate="onLoad" xlink:show="embed"/></g><g fill="#FFF"><use x="741.528" y="395.813" xmlns:xlink="http://www.w3.org/1999/xlink" xlink:href="#N" xlink:type="simple" xlink:actuate="onLoad" xlink:show="embed"/></g><g fill="#FFF"><use x="617.837" y="575.884" xmlns:xlink="http://www.w3.org/1999/xlink" xlink:href="#V" xlink:type="simple" xlink:actuate="onLoad" xlink:show="embed"/></g><g fill="#FFF"><use x="633.189" y="575.884" xmlns:xlink="http://www.w3.org/1999/xlink" xlink:href="#T" xlink:type="simple" xlink:actuate="onLoad" xlink:show="embed"/></g><g fill="#FFF"><use x="650.911" y="575.884" xmlns:xlink="http://www.w3.org/1999/xlink" xlink:href="#R" xlink:type="simple" xlink:actuate="onLoad" xlink:show="embed"/></g><g fill="#FFF"><use x="669.723" y="575.884" xmlns:xlink="http://www.w3.org/1999/xlink" xlink:href="#U" xlink:type="simple" xlink:actuate="onLoad" xlink:show="embed"/></g><g fill="#FFF"><use x="688.42" y="575.884" xmlns:xlink="http://www.w3.org/1999/xlink" xlink:href="#R" xlink:type="simple" xlink:actuate="onLoad" xlink:show="embed"/></g><g fill="#FFF"><use x="707.232" y="575.884" xmlns:xlink="http://www.w3.org/1999/xlink" xlink:href="#W" xlink:type="simple" xlink:actuate="onLoad" xlink:show="embed"/></g><g fill="#FFF"><use x="729.111" y="575.884" xmlns:xlink="http://www.w3.org/1999/xlink" xlink:href="#O" xlink:type="simple" xlink:actuate="onLoad" xlink:show="embed"/></g><g fill="#FFF"><use x="736.938" y="575.884" xmlns:xlink="http://www.w3.org/1999/xlink" xlink:href="#P" xlink:type="simple" xlink:actuate="onLoad" xlink:show="embed"/></g><g fill="#FFF"><use x="752.104" y="575.884" xmlns:xlink="http://www.w3.org/1999/xlink" xlink:href="#N" xlink:type="simple" xlink:actuate="onLoad" xlink:show="embed"/></g><g clip-path="url(#X)"><path fill="#FFFDFD" d="M 663.800781 417.96875 C 666.097656 417.96875 667.960938 416.109375 667.960938 413.8125 C 667.960938 411.519531 666.097656 409.660156 663.800781 409.660156 C 661.5 409.660156 659.636719 411.519531 659.636719 413.8125 C 659.636719 416.109375 661.5 417.96875 663.800781 417.96875"/></g><g clip-path="url(#Y)"><path fill="#FFFDFD" d="M 659.34375 418.886719 C 656.398438 418.886719 654.027344 421.285156 654.027344 424.28125 L 654.027344 437.035156 C 654.027344 439.515625 657.664062 439.515625 657.664062 437.035156 L 657.664062 425.371094 L 658.523438 425.371094 L 658.523438 457.308594 C 658.523438 460.625 663.367188 460.527344 663.367188 457.308594 L 663.367188 438.769531 L 664.199219 438.769531 L 664.199219 457.308594 C 664.199219 460.527344 669.070312 460.625 669.070312 457.308594 L 669.070312 425.371094 L 669.910156 425.371094 L 669.910156 437.035156 C 669.910156 439.535156 673.527344 439.535156 673.523438 437.035156 L 673.523438 424.355469 C 673.523438 421.597656 671.375 418.894531 668.136719 418.894531 L 659.34375 418.886719"/></g><g clip-path="url(#Z)"><path fill="#FFFDFD" d="M 717.09375 417.875 C 719.335938 417.867188 721.144531 416.035156 721.136719 413.773438 C 721.144531 411.511719 719.335938 409.679688 717.09375 409.671875 C 714.878906 409.679688 713.070312 411.511719 713.078125 413.773438 C 713.070312 416.035156 714.878906 417.867188 717.09375 417.875"/></g><g clip-path="url(#aa)"><path fill="#FFFDFD" d="M 716.515625 443.851562 L 716.515625 458.019531 C 716.511719 460.597656 712.703125 460.597656 712.714844 458.019531 L 712.714844 443.949219 L 707.582031 443.949219 L 713.050781 424.699219 L 712.203125 424.699219 L 709.035156 435.554688 C 708.273438 437.925781 705.070312 436.953125 705.8125 434.421875 L 709.324219 422.636719 C 709.710938 421.289062 711.386719 418.90625 714.285156 418.90625 L 719.832031 418.90625 C 722.714844 418.90625 724.398438 421.308594 724.84375 422.636719 L 728.351562 434.398438 C 729.070312 436.941406 725.894531 437.988281 725.132812 435.527344 L 721.960938 424.699219 L 721.042969 424.699219 L 726.539062 443.949219 L 721.429688 443.949219 L 721.429688 458.046875 C 721.429688 460.597656 717.636719 460.585938 717.628906 458.046875 L 717.628906 443.851562 L 716.515625 443.851562"/></g><g fill="#FFF"><use x="648.084" y="484.241" xmlns:xlink="http://www.w3.org/1999/xlink" xlink:href="#ab" xlink:type="simple" xlink:actuate="onLoad" xlink:show="embed"/></g><g fill="#FFF"><use x="660.012" y="484.241" xmlns:xlink="http://www.w3.org/1999/xlink" xlink:href="#ac" xlink:type="simple" xlink:actuate="onLoad" xlink:show="embed"/></g><g fill="#FFF"><use x="671.939" y="484.241" xmlns:xlink="http://www.w3.org/1999/xlink" xlink:href="#ad" xlink:type="simple" xlink:actuate="onLoad" xlink:show="embed"/></g><g fill="#FFF"><use x="701.562" y="484.241" xmlns:xlink="http://www.w3.org/1999/xlink" xlink:href="#ab" xlink:type="simple" xlink:actuate="onLoad" xlink:show="embed"/></g><g fill="#FFF"><use x="713.489" y="484.241" xmlns:xlink="http://www.w3.org/1999/xlink" xlink:href="#ae" xlink:type="simple" xlink:actuate="onLoad" xlink:show="embed"/></g><g fill="#FFF"><use x="725.417" y="484.241" xmlns:xlink="http://www.w3.org/1999/xlink" xlink:href="#ad" xlink:type="simple" xlink:actuate="onLoad" xlink:show="embed"/></g><g clip-path="url(#af)"><path fill="#FFFDFD" d="M 676.144531 757.953125 C 679.59375 757.953125 682.386719 755.136719 682.386719 751.660156 C 682.386719 748.179688 679.59375 745.363281 676.144531 745.363281 C 672.695312 745.363281 669.898438 748.179688 669.898438 751.660156 C 669.898438 755.136719 672.695312 757.953125 676.144531 757.953125"/></g><g clip-path="url(#ag)"><path fill="#FFFDFD" d="M 669.460938 759.34375 C 665.039062 759.34375 661.484375 762.980469 661.484375 767.515625 L 661.484375 786.847656 C 661.484375 790.605469 666.9375 790.605469 666.9375 786.847656 L 666.9375 769.171875 L 668.230469 769.171875 L 668.230469 817.566406 C 668.230469 822.589844 675.492188 822.441406 675.492188 817.566406 L 675.492188 789.472656 L 676.746094 789.472656 L 676.746094 817.566406 C 676.746094 822.441406 684.050781 822.589844 684.050781 817.566406 L 684.050781 769.171875 L 685.308594 769.171875 L 685.308594 786.847656 C 685.308594 790.632812 690.738281 790.632812 690.726562 786.847656 L 690.726562 767.632812 C 690.726562 763.449219 687.507812 759.355469 682.652344 759.355469 L 669.460938 759.34375"/></g><g clip-path="url(#ah)"><path fill="#FFFDFD" d="M 757.4375 757.808594 C 760.867188 757.796875 763.636719 755.019531 763.628906 751.59375 C 763.636719 748.164062 760.867188 745.386719 757.4375 745.378906 C 754.039062 745.386719 751.273438 748.164062 751.28125 751.59375 C 751.273438 755.019531 754.039062 757.796875 757.4375 757.808594"/></g><g clip-path="url(#ai)"><path fill="#FFFDFD" d="M 756.546875 797.175781 L 756.546875 818.648438 C 756.542969 822.554688 750.714844 822.554688 750.726562 818.648438 L 750.726562 797.328125 L 742.867188 797.328125 L 751.246094 768.152344 L 749.949219 768.152344 L 745.09375 784.601562 C 743.925781 788.191406 739.023438 786.71875 740.160156 782.886719 L 745.535156 765.027344 C 746.128906 762.984375 748.695312 759.371094 753.136719 759.371094 L 761.625 759.371094 C 766.042969 759.371094 768.621094 763.015625 769.300781 765.027344 L 774.675781 782.851562 C 775.773438 786.699219 770.90625 788.289062 769.746094 784.5625 L 764.886719 768.152344 L 763.480469 768.152344 L 771.894531 797.328125 L 764.074219 797.328125 L 764.074219 818.6875 C 764.074219 822.554688 758.269531 822.535156 758.253906 818.6875 L 758.253906 797.175781 L 756.546875 797.175781"/></g><g fill="#FFF"><use x="651.083" y="855.299" xmlns:xlink="http://www.w3.org/1999/xlink" xlink:href="#aj" xlink:type="simple" xlink:actuate="onLoad" xlink:show="embed"/></g><g fill="#FFF"><use x="667.099" y="855.299" xmlns:xlink="http://www.w3.org/1999/xlink" xlink:href="#ak" xlink:type="simple" xlink:actuate="onLoad" xlink:show="embed"/></g><g fill="#FFF"><use x="683.116" y="855.299" xmlns:xlink="http://www.w3.org/1999/xlink" xlink:href="#al" xlink:type="simple" xlink:actuate="onLoad" xlink:show="embed"/></g><g fill="#FFF"><use x="732.32" y="855.299" xmlns:xlink="http://www.w3.org/1999/xlink" xlink:href="#aj" xlink:type="simple" xlink:actuate="onLoad" xlink:show="embed"/></g><g fill="#FFF"><use x="748.337" y="855.299" xmlns:xlink="http://www.w3.org/1999/xlink" xlink:href="#am" xlink:type="simple" xlink:actuate="onLoad" xlink:show="embed"/></g><g fill="#FFF"><use x="764.353" y="855.299" xmlns:xlink="http://www.w3.org/1999/xlink" xlink:href="#al" xlink:type="simple" xlink:actuate="onLoad" xlink:show="embed"/></g><g mask="url(#an)"><g><g clip-path="url(#ao)" transform="translate(690 713)"><g clip-path="url(#ap)"><path stroke-linecap="round" transform="matrix(-2.85812 -5.29385 5.09075 -2.74847 25.169 32.447)" fill="none" d="M 2.999901 -0.000147544 L 3.863897 -0.0000192784" stroke="#F03612"/></g><path stroke-linecap="round" transform="matrix(-2.85812 -5.29385 5.09075 -2.74847 25.169 32.447)" fill="#F03612" stroke-linejoin="round" d="M 2.499911 -1.500134 L 0.499996 -0.000243142 L 2.499919 1.500103 Z M 2.499911 -1.500134" stroke="#F03612"/></g></g></g><g clip-path="url(#aq)"><path fill="#FFFDFD" d="M 491.5 598.695312 C 493.800781 598.695312 495.664062 596.835938 495.664062 594.542969 C 495.664062 592.246094 493.800781 590.386719 491.5 590.386719 C 489.203125 590.386719 487.335938 592.246094 487.335938 594.542969 C 487.335938 596.835938 489.203125 598.695312 491.5 598.695312"/></g><g clip-path="url(#ar)"><path fill="#FFFDFD" d="M 487.046875 599.613281 C 484.097656 599.613281 481.726562 602.015625 481.726562 605.007812 L 481.726562 617.761719 C 481.726562 620.242188 485.363281 620.242188 485.363281 617.761719 L 485.363281 606.097656 L 486.222656 606.097656 L 486.222656 638.035156 C 486.222656 641.351562 491.066406 641.253906 491.066406 638.035156 L 491.066406 619.496094 L 491.902344 619.496094 L 491.902344 638.035156 C 491.902344 641.253906 496.769531 641.351562 496.769531 638.035156 L 496.769531 606.097656 L 497.613281 606.097656 L 497.613281 617.761719 C 497.613281 620.261719 501.230469 620.261719 501.222656 617.761719 L 501.222656 605.082031 C 501.222656 602.324219 499.074219 599.621094 495.839844 599.621094 L 487.046875 599.613281"/></g><g clip-path="url(#as)"><path fill="#FFFDFD" d="M 544.796875 598.601562 C 547.035156 598.59375 548.84375 596.761719 548.839844 594.5 C 548.84375 592.238281 547.035156 590.40625 544.796875 590.398438 C 542.578125 590.40625 540.769531 592.238281 540.777344 594.5 C 540.769531 596.761719 542.578125 598.59375 544.796875 598.601562"/></g><g clip-path="url(#at)"><path fill="#FFFDFD" d="M 544.214844 624.578125 L 544.214844 638.746094 C 544.210938 641.328125 540.40625 641.328125 540.414062 638.746094 L 540.414062 624.679688 L 535.28125 624.679688 L 540.753906 605.425781 L 539.90625 605.425781 L 536.734375 616.28125 C 535.972656 618.652344 532.769531 617.679688 533.515625 615.152344 L 537.023438 603.363281 C 537.410156 602.015625 539.085938 599.632812 541.988281 599.632812 L 547.53125 599.632812 C 550.414062 599.632812 552.097656 602.039062 552.542969 603.363281 L 556.054688 615.125 C 556.769531 617.667969 553.59375 618.714844 552.832031 616.257812 L 549.664062 605.425781 L 548.742188 605.425781 L 554.238281 624.679688 L 549.128906 624.679688 L 549.128906 638.773438 C 549.128906 641.328125 545.339844 641.3125 545.328125 638.773438 L 545.328125 624.578125 L 544.214844 624.578125"/></g><g fill="#FFF"><use x="472.835" y="662.714" xmlns:xlink="http://www.w3.org/1999/xlink" xlink:href="#ab" xlink:type="simple" xlink:actuate="onLoad" xlink:show="embed"/></g><g fill="#FFF"><use x="484.762" y="662.714" xmlns:xlink="http://www.w3.org/1999/xlink" xlink:href="#au" xlink:type="simple" xlink:actuate="onLoad" xlink:show="embed"/></g><g fill="#FFF"><use x="496.689" y="662.714" xmlns:xlink="http://www.w3.org/1999/xlink" xlink:href="#ad" xlink:type="simple" xlink:actuate="onLoad" xlink:show="embed"/></g><g fill="#FFF"><use x="526.313" y="662.714" xmlns:xlink="http://www.w3.org/1999/xlink" xlink:href="#ab" xlink:type="simple" xlink:actuate="onLoad" xlink:show="embed"/></g><g fill="#FFF"><use x="538.24" y="662.714" xmlns:xlink="http://www.w3.org/1999/xlink" xlink:href="#ae" xlink:type="simple" xlink:actuate="onLoad" xlink:show="embed"/></g><g fill="#FFF"><use x="550.167" y="662.714" xmlns:xlink="http://www.w3.org/1999/xlink" xlink:href="#ad" xlink:type="simple" xlink:actuate="onLoad" xlink:show="embed"/></g><g fill="#FFF"><use x="627.956" y="620.672" xmlns:xlink="http://www.w3.org/1999/xlink" xlink:href="#av" xlink:type="simple" xlink:actuate="onLoad" xlink:show="embed"/></g><g fill="#FFF"><use x="641.461" y="620.672" xmlns:xlink="http://www.w3.org/1999/xlink" xlink:href="#aw" xlink:type="simple" xlink:actuate="onLoad" xlink:show="embed"/></g><g fill="#FFF"><use x="652.629" y="620.672" xmlns:xlink="http://www.w3.org/1999/xlink" xlink:href="#ax" xlink:type="simple" xlink:actuate="onLoad" xlink:show="embed"/></g><g fill="#FFF"><use x="658.966" y="620.672" xmlns:xlink="http://www.w3.org/1999/xlink" xlink:href="#ay" xlink:type="simple" xlink:actuate="onLoad" xlink:show="embed"/></g><g fill="#FFF"><use x="663.585" y="620.672" xmlns:xlink="http://www.w3.org/1999/xlink" xlink:href="#az" xlink:type="simple" xlink:actuate="onLoad" xlink:show="embed"/></g><g fill="#FFF"><use x="672.506" y="620.672" xmlns:xlink="http://www.w3.org/1999/xlink" xlink:href="#ax" xlink:type="simple" xlink:actuate="onLoad" xlink:show="embed"/></g><g fill="#FFF"><use x="678.843" y="620.672" xmlns:xlink="http://www.w3.org/1999/xlink" xlink:href="#aA" xlink:type="simple" xlink:actuate="onLoad" xlink:show="embed"/></g><g fill="#FFF"><use x="689.037" y="620.672" xmlns:xlink="http://www.w3.org/1999/xlink" xlink:href="#ax" xlink:type="simple" xlink:actuate="onLoad" xlink:show="embed"/></g><g fill="#FFF"><use x="695.374" y="620.672" xmlns:xlink="http://www.w3.org/1999/xlink" xlink:href="#aB" xlink:type="simple" xlink:actuate="onLoad" xlink:show="embed"/></g><g fill="#FFF"><use x="700.383" y="620.672" xmlns:xlink="http://www.w3.org/1999/xlink" xlink:href="#az" xlink:type="simple" xlink:actuate="onLoad" xlink:show="embed"/></g><g fill="#FFF"><use x="709.304" y="620.672" xmlns:xlink="http://www.w3.org/1999/xlink" xlink:href="#ax" xlink:type="simple" xlink:actuate="onLoad" xlink:show="embed"/></g><g fill="#FFF"><use x="715.64" y="620.672" xmlns:xlink="http://www.w3.org/1999/xlink" xlink:href="#aC" xlink:type="simple" xlink:actuate="onLoad" xlink:show="embed"/></g><g fill="#FFF"><use x="725.8" y="620.672" xmlns:xlink="http://www.w3.org/1999/xlink" xlink:href="#aA" xlink:type="simple" xlink:actuate="onLoad" xlink:show="embed"/></g><g fill="#FFF"><use x="735.995" y="620.672" xmlns:xlink="http://www.w3.org/1999/xlink" xlink:href="#aD" xlink:type="simple" xlink:actuate="onLoad" xlink:show="embed"/></g><g fill="#FFF"><use x="741.163" y="620.672" xmlns:xlink="http://www.w3.org/1999/xlink" xlink:href="#aD" xlink:type="simple" xlink:actuate="onLoad" xlink:show="embed"/></g><g fill="#FFF"><use x="746.331" y="620.672" xmlns:xlink="http://www.w3.org/1999/xlink" xlink:href="#aE" xlink:type="simple" xlink:actuate="onLoad" xlink:show="embed"/></g><g fill="#FFF"><use x="646.667" y="645.153" xmlns:xlink="http://www.w3.org/1999/xlink" xlink:href="#az" xlink:type="simple" xlink:actuate="onLoad" xlink:show="embed"/></g><g fill="#FFF"><use x="655.587" y="645.153" xmlns:xlink="http://www.w3.org/1999/xlink" xlink:href="#aB" xlink:type="simple" xlink:actuate="onLoad" xlink:show="embed"/></g><g fill="#FFF"><use x="660.596" y="645.153" xmlns:xlink="http://www.w3.org/1999/xlink" xlink:href="#aF" xlink:type="simple" xlink:actuate="onLoad" xlink:show="embed"/></g><g fill="#FFF"><use x="672.278" y="645.153" xmlns:xlink="http://www.w3.org/1999/xlink" xlink:href="#aG" xlink:type="simple" xlink:actuate="onLoad" xlink:show="embed"/></g><g fill="#FFF"><use x="683.57" y="645.153" xmlns:xlink="http://www.w3.org/1999/xlink" xlink:href="#aB" xlink:type="simple" xlink:actuate="onLoad" xlink:show="embed"/></g><g fill="#FFF"><use x="688.579" y="645.153" xmlns:xlink="http://www.w3.org/1999/xlink" xlink:href="#aH" xlink:type="simple" xlink:actuate="onLoad" xlink:show="embed"/></g><g fill="#FFF"><use x="694.509" y="645.153" xmlns:xlink="http://www.w3.org/1999/xlink" xlink:href="#aB" xlink:type="simple" xlink:actuate="onLoad" xlink:show="embed"/></g><g fill="#FFF"><use x="699.518" y="645.153" xmlns:xlink="http://www.w3.org/1999/xlink" xlink:href="#aC" xlink:type="simple" xlink:actuate="onLoad" xlink:show="embed"/></g><g fill="#FFF"><use x="709.678" y="645.153" xmlns:xlink="http://www.w3.org/1999/xlink" xlink:href="#aA" xlink:type="simple" xlink:actuate="onLoad" xlink:show="embed"/></g><g fill="#FFF"><use x="719.872" y="645.153" xmlns:xlink="http://www.w3.org/1999/xlink" xlink:href="#aG" xlink:type="simple" xlink:actuate="onLoad" xlink:show="embed"/></g><g fill="#FFF"><use x="731.165" y="645.153" xmlns:xlink="http://www.w3.org/1999/xlink" xlink:href="#ax" xlink:type="simple" xlink:actuate="onLoad" xlink:show="embed"/></g><g fill="#FFF"><use x="453.687" y="446.336" xmlns:xlink="http://www.w3.org/1999/xlink" xlink:href="#av" xlink:type="simple" xlink:actuate="onLoad" xlink:show="embed"/></g><g fill="#FFF"><use x="467.191" y="446.336" xmlns:xlink="http://www.w3.org/1999/xlink" xlink:href="#aw" xlink:type="simple" xlink:actuate="onLoad" xlink:show="embed"/></g><g fill="#FFF"><use x="478.36" y="446.336" xmlns:xlink="http://www.w3.org/1999/xlink" xlink:href="#ax" xlink:type="simple" xlink:actuate="onLoad" xlink:show="embed"/></g><g fill="#FFF"><use x="484.696" y="446.336" xmlns:xlink="http://www.w3.org/1999/xlink" xlink:href="#ay" xlink:type="simple" xlink:actuate="onLoad" xlink:show="embed"/></g><g fill="#FFF"><use x="489.316" y="446.336" xmlns:xlink="http://www.w3.org/1999/xlink" xlink:href="#az" xlink:type="simple" xlink:actuate="onLoad" xlink:show="embed"/></g><g fill="#FFF"><use x="498.236" y="446.336" xmlns:xlink="http://www.w3.org/1999/xlink" xlink:href="#ax" xlink:type="simple" xlink:actuate="onLoad" xlink:show="embed"/></g><g fill="#FFF"><use x="504.573" y="446.336" xmlns:xlink="http://www.w3.org/1999/xlink" xlink:href="#aA" xlink:type="simple" xlink:actuate="onLoad" xlink:show="embed"/></g><g fill="#FFF"><use x="514.768" y="446.336" xmlns:xlink="http://www.w3.org/1999/xlink" xlink:href="#ax" xlink:type="simple" xlink:actuate="onLoad" xlink:show="embed"/></g><g fill="#FFF"><use x="521.104" y="446.336" xmlns:xlink="http://www.w3.org/1999/xlink" xlink:href="#aB" xlink:type="simple" xlink:actuate="onLoad" xlink:show="embed"/></g><g fill="#FFF"><use x="526.114" y="446.336" xmlns:xlink="http://www.w3.org/1999/xlink" xlink:href="#az" xlink:type="simple" xlink:actuate="onLoad" xlink:show="embed"/></g><g fill="#FFF"><use x="535.034" y="446.336" xmlns:xlink="http://www.w3.org/1999/xlink" xlink:href="#ax" xlink:type="simple" xlink:actuate="onLoad" xlink:show="embed"/></g><g fill="#FFF"><use x="541.371" y="446.336" xmlns:xlink="http://www.w3.org/1999/xlink" xlink:href="#aC" xlink:type="simple" xlink:actuate="onLoad" xlink:show="embed"/></g><g fill="#FFF"><use x="551.53" y="446.336" xmlns:xlink="http://www.w3.org/1999/xlink" xlink:href="#aA" xlink:type="simple" xlink:actuate="onLoad" xlink:show="embed"/></g><g fill="#FFF"><use x="561.725" y="446.336" xmlns:xlink="http://www.w3.org/1999/xlink" xlink:href="#aD" xlink:type="simple" xlink:actuate="onLoad" xlink:show="embed"/></g><g fill="#FFF"><use x="566.894" y="446.336" xmlns:xlink="http://www.w3.org/1999/xlink" xlink:href="#aD" xlink:type="simple" xlink:actuate="onLoad" xlink:show="embed"/></g><g fill="#FFF"><use x="572.062" y="446.336" xmlns:xlink="http://www.w3.org/1999/xlink" xlink:href="#aE" xlink:type="simple" xlink:actuate="onLoad" xlink:show="embed"/></g><g fill="#FFF"><use x="472.397" y="470.817" xmlns:xlink="http://www.w3.org/1999/xlink" xlink:href="#az" xlink:type="simple" xlink:actuate="onLoad" xlink:show="embed"/></g><g fill="#FFF"><use x="481.318" y="470.817" xmlns:xlink="http://www.w3.org/1999/xlink" xlink:href="#aB" xlink:type="simple" xlink:actuate="onLoad" xlink:show="embed"/></g><g fill="#FFF"><use x="486.327" y="470.817" xmlns:xlink="http://www.w3.org/1999/xlink" xlink:href="#aF" xlink:type="simple" xlink:actuate="onLoad" xlink:show="embed"/></g><g fill="#FFF"><use x="498.009" y="470.817" xmlns:xlink="http://www.w3.org/1999/xlink" xlink:href="#aG" xlink:type="simple" xlink:actuate="onLoad" xlink:show="embed"/></g><g fill="#FFF"><use x="509.301" y="470.817" xmlns:xlink="http://www.w3.org/1999/xlink" xlink:href="#aB" xlink:type="simple" xlink:actuate="onLoad" xlink:show="embed"/></g><g fill="#FFF"><use x="514.31" y="470.817" xmlns:xlink="http://www.w3.org/1999/xlink" xlink:href="#aH" xlink:type="simple" xlink:actuate="onLoad" xlink:show="embed"/></g><g fill="#FFF"><use x="520.239" y="470.817" xmlns:xlink="http://www.w3.org/1999/xlink" xlink:href="#aB" xlink:type="simple" xlink:actuate="onLoad" xlink:show="embed"/></g><g fill="#FFF"><use x="525.248" y="470.817" xmlns:xlink="http://www.w3.org/1999/xlink" xlink:href="#aC" xlink:type="simple" xlink:actuate="onLoad" xlink:show="embed"/></g><g fill="#FFF"><use x="535.408" y="470.817" xmlns:xlink="http://www.w3.org/1999/xlink" xlink:href="#aA" xlink:type="simple" xlink:actuate="onLoad" xlink:show="embed"/></g><g fill="#FFF"><use x="545.603" y="470.817" xmlns:xlink="http://www.w3.org/1999/xlink" xlink:href="#aG" xlink:type="simple" xlink:actuate="onLoad" xlink:show="embed"/></g><g fill="#FFF"><use x="556.895" y="470.817" xmlns:xlink="http://www.w3.org/1999/xlink" xlink:href="#ax" xlink:type="simple" xlink:actuate="onLoad" xlink:show="embed"/></g><g fill="#212529"><use x="91.079" y="42.992" xmlns:xlink="http://www.w3.org/1999/xlink" xlink:href="#aI" xlink:type="simple" xlink:actuate="onLoad" xlink:show="embed"/></g><g fill="#212529"><use x="123.24" y="42.992" xmlns:xlink="http://www.w3.org/1999/xlink" xlink:href="#aJ" xlink:type="simple" xlink:actuate="onLoad" xlink:show="embed"/></g><g fill="#212529"><use x="133.934" y="42.992" xmlns:xlink="http://www.w3.org/1999/xlink" xlink:href="#aK" xlink:type="simple" xlink:actuate="onLoad" xlink:show="embed"/></g><g fill="#212529"><use x="159.785" y="42.992" xmlns:xlink="http://www.w3.org/1999/xlink" xlink:href="#aL" xlink:type="simple" xlink:actuate="onLoad" xlink:show="embed"/></g><g fill="#212529"><use x="173.511" y="42.992" xmlns:xlink="http://www.w3.org/1999/xlink" xlink:href="#aJ" xlink:type="simple" xlink:actuate="onLoad" xlink:show="embed"/></g><g fill="#212529"><use x="184.204" y="42.992" xmlns:xlink="http://www.w3.org/1999/xlink" xlink:href="#aM" xlink:type="simple" xlink:actuate="onLoad" xlink:show="embed"/></g><g fill="#212529"><use x="207.721" y="42.992" xmlns:xlink="http://www.w3.org/1999/xlink" xlink:href="#aN" xlink:type="simple" xlink:actuate="onLoad" xlink:show="embed"/></g><g fill="#212529"><use x="232.056" y="42.992" xmlns:xlink="http://www.w3.org/1999/xlink" xlink:href="#aO" xlink:type="simple" xlink:actuate="onLoad" xlink:show="embed"/></g><g fill="#212529"><use x="247.42" y="42.992" xmlns:xlink="http://www.w3.org/1999/xlink" xlink:href="#aP" xlink:type="simple" xlink:actuate="onLoad" xlink:show="embed"/></g><g fill="#212529"><use x="262.088" y="42.992" xmlns:xlink="http://www.w3.org/1999/xlink" xlink:href="#aQ" xlink:type="simple" xlink:actuate="onLoad" xlink:show="embed"/></g><g fill="#212529"><use x="285.686" y="42.992" xmlns:xlink="http://www.w3.org/1999/xlink" xlink:href="#aR" xlink:type="simple" xlink:actuate="onLoad" xlink:show="embed"/></g><g fill="#212529"><use x="297.281" y="42.992" xmlns:xlink="http://www.w3.org/1999/xlink" xlink:href="#aS" xlink:type="simple" xlink:actuate="onLoad" xlink:show="embed"/></g><g fill="#212529"><use x="323.42" y="42.992" xmlns:xlink="http://www.w3.org/1999/xlink" xlink:href="#aP" xlink:type="simple" xlink:actuate="onLoad" xlink:show="embed"/></g><g fill="#212529"><use x="338.087" y="42.992" xmlns:xlink="http://www.w3.org/1999/xlink" xlink:href="#aT" xlink:type="simple" xlink:actuate="onLoad" xlink:show="embed"/></g><g fill="#212529"><use x="360.948" y="42.992" xmlns:xlink="http://www.w3.org/1999/xlink" xlink:href="#aJ" xlink:type="simple" xlink:actuate="onLoad" xlink:show="embed"/></g><g fill="#212529"><use x="371.641" y="42.992" xmlns:xlink="http://www.w3.org/1999/xlink" xlink:href="#aU" xlink:type="simple" xlink:actuate="onLoad" xlink:show="embed"/></g><g fill="#212529"><use x="392.29" y="42.992" xmlns:xlink="http://www.w3.org/1999/xlink" xlink:href="#aV" xlink:type="simple" xlink:actuate="onLoad" xlink:show="embed"/></g><g fill="#212529"><use x="419.166" y="42.992" xmlns:xlink="http://www.w3.org/1999/xlink" xlink:href="#aN" xlink:type="simple" xlink:actuate="onLoad" xlink:show="embed"/></g><g fill="#212529"><use x="443.502" y="42.992" xmlns:xlink="http://www.w3.org/1999/xlink" xlink:href="#aQ" xlink:type="simple" xlink:actuate="onLoad" xlink:show="embed"/></g><g fill="#212529"><use x="467.101" y="42.992" xmlns:xlink="http://www.w3.org/1999/xlink" xlink:href="#aW" xlink:type="simple" xlink:actuate="onLoad" xlink:show="embed"/></g><g fill="#212529"><use x="490.331" y="42.992" xmlns:xlink="http://www.w3.org/1999/xlink" xlink:href="#aN" xlink:type="simple" xlink:actuate="onLoad" xlink:show="embed"/></g><g fill="#212529"><use x="514.667" y="42.992" xmlns:xlink="http://www.w3.org/1999/xlink" xlink:href="#aO" xlink:type="simple" xlink:actuate="onLoad" xlink:show="embed"/></g><g fill="#212529"><use x="530.03" y="42.992" xmlns:xlink="http://www.w3.org/1999/xlink" xlink:href="#aU" xlink:type="simple" xlink:actuate="onLoad" xlink:show="embed"/></g><g fill="#212529"><use x="550.679" y="42.992" xmlns:xlink="http://www.w3.org/1999/xlink" xlink:href="#aJ" xlink:type="simple" xlink:actuate="onLoad" xlink:show="embed"/></g><g fill="#212529"><use x="561.373" y="42.992" xmlns:xlink="http://www.w3.org/1999/xlink" xlink:href="#aX" xlink:type="simple" xlink:actuate="onLoad" xlink:show="embed"/></g><g fill="#212529"><use x="588.412" y="42.992" xmlns:xlink="http://www.w3.org/1999/xlink" xlink:href="#aN" xlink:type="simple" xlink:actuate="onLoad" xlink:show="embed"/></g><g fill="#212529"><use x="612.748" y="42.992" xmlns:xlink="http://www.w3.org/1999/xlink" xlink:href="#aV" xlink:type="simple" xlink:actuate="onLoad" xlink:show="embed"/></g><g fill="#212529"><use x="639.624" y="42.992" xmlns:xlink="http://www.w3.org/1999/xlink" xlink:href="#aN" xlink:type="simple" xlink:actuate="onLoad" xlink:show="embed"/></g><g fill="#212529"><use x="663.96" y="42.992" xmlns:xlink="http://www.w3.org/1999/xlink" xlink:href="#aS" xlink:type="simple" xlink:actuate="onLoad" xlink:show="embed"/></g><g fill="#212529"><use x="690.099" y="42.992" xmlns:xlink="http://www.w3.org/1999/xlink" xlink:href="#aX" xlink:type="simple" xlink:actuate="onLoad" xlink:show="embed"/></g><g fill="#212529"><use x="717.139" y="42.992" xmlns:xlink="http://www.w3.org/1999/xlink" xlink:href="#aR" xlink:type="simple" xlink:actuate="onLoad" xlink:show="embed"/></g><g fill="#212529"><use x="728.734" y="42.992" xmlns:xlink="http://www.w3.org/1999/xlink" xlink:href="#aS" xlink:type="simple" xlink:actuate="onLoad" xlink:show="embed"/></g><g fill="#212529"><use x="754.872" y="42.992" xmlns:xlink="http://www.w3.org/1999/xlink" xlink:href="#aY" xlink:type="simple" xlink:actuate="onLoad" xlink:show="embed"/></g><g fill="#212529"><use x="781.912" y="42.992" xmlns:xlink="http://www.w3.org/1999/xlink" xlink:href="#aJ" xlink:type="simple" xlink:actuate="onLoad" xlink:show="embed"/></g><g fill="#212529"><use x="792.606" y="42.992" xmlns:xlink="http://www.w3.org/1999/xlink" xlink:href="#aK" xlink:type="simple" xlink:actuate="onLoad" xlink:show="embed"/></g><g fill="#212529"><use x="818.457" y="42.992" xmlns:xlink="http://www.w3.org/1999/xlink" xlink:href="#aS" xlink:type="simple" xlink:actuate="onLoad" xlink:show="embed"/></g><g fill="#212529"><use x="844.596" y="42.992" xmlns:xlink="http://www.w3.org/1999/xlink" xlink:href="#aJ" xlink:type="simple" xlink:actuate="onLoad" xlink:show="embed"/></g><g fill="#212529"><use x="855.289" y="42.992" xmlns:xlink="http://www.w3.org/1999/xlink" xlink:href="#aP" xlink:type="simple" xlink:actuate="onLoad" xlink:show="embed"/></g><g fill="#212529"><use x="869.957" y="42.992" xmlns:xlink="http://www.w3.org/1999/xlink" xlink:href="#aZ" xlink:type="simple" xlink:actuate="onLoad" xlink:show="embed"/></g><g fill="#212529"><use x="896.095" y="42.992" xmlns:xlink="http://www.w3.org/1999/xlink" xlink:href="#aN" xlink:type="simple" xlink:actuate="onLoad" xlink:show="embed"/></g><g fill="#212529"><use x="920.431" y="42.992" xmlns:xlink="http://www.w3.org/1999/xlink" xlink:href="#aR" xlink:type="simple" xlink:actuate="onLoad" xlink:show="embed"/></g><g fill="#212529"><use x="932.026" y="42.992" xmlns:xlink="http://www.w3.org/1999/xlink" xlink:href="#aO" xlink:type="simple" xlink:actuate="onLoad" xlink:show="embed"/></g><g fill="#212529"><use x="947.39" y="42.992" xmlns:xlink="http://www.w3.org/1999/xlink" xlink:href="#aJ" xlink:type="simple" xlink:actuate="onLoad" xlink:show="embed"/></g><g fill="#212529"><use x="958.083" y="42.992" xmlns:xlink="http://www.w3.org/1999/xlink" xlink:href="#aV" xlink:type="simple" xlink:actuate="onLoad" xlink:show="embed"/></g><g fill="#212529"><use x="984.959" y="42.992" xmlns:xlink="http://www.w3.org/1999/xlink" xlink:href="#aO" xlink:type="simple" xlink:actuate="onLoad" xlink:show="embed"/></g><g fill="#212529"><use x="1000.323" y="42.992" xmlns:xlink="http://www.w3.org/1999/xlink" xlink:href="#aK" xlink:type="simple" xlink:actuate="onLoad" xlink:show="embed"/></g><g fill="#212529"><use x="1026.175" y="42.992" xmlns:xlink="http://www.w3.org/1999/xlink" xlink:href="#aL" xlink:type="simple" xlink:actuate="onLoad" xlink:show="embed"/></g><g fill="#212529"><use x="1039.9" y="42.992" xmlns:xlink="http://www.w3.org/1999/xlink" xlink:href="#aN" xlink:type="simple" xlink:actuate="onLoad" xlink:show="embed"/></g><g fill="#212529"><use x="1064.236" y="42.992" xmlns:xlink="http://www.w3.org/1999/xlink" xlink:href="#aU" xlink:type="simple" xlink:actuate="onLoad" xlink:show="embed"/></g><g fill="#212529"><use x="1084.885" y="42.992" xmlns:xlink="http://www.w3.org/1999/xlink" xlink:href="#aU" xlink:type="simple" xlink:actuate="onLoad" xlink:show="embed"/></g><g fill="#212529"><use x="1105.533" y="42.992" xmlns:xlink="http://www.w3.org/1999/xlink" xlink:href="#aR" xlink:type="simple" xlink:actuate="onLoad" xlink:show="embed"/></g><g fill="#212529"><use x="1117.128" y="42.992" xmlns:xlink="http://www.w3.org/1999/xlink" xlink:href="#aK" xlink:type="simple" xlink:actuate="onLoad" xlink:show="embed"/></g><g fill="#212529"><use x="1142.98" y="42.992" xmlns:xlink="http://www.w3.org/1999/xlink" xlink:href="#aS" xlink:type="simple" xlink:actuate="onLoad" xlink:show="embed"/></g><g fill="#212529"><use x="1169.119" y="42.992" xmlns:xlink="http://www.w3.org/1999/xlink" xlink:href="#aQ" xlink:type="simple" xlink:actuate="onLoad" xlink:show="embed"/></g><g fill="#212529"><use x="1192.717" y="42.992" xmlns:xlink="http://www.w3.org/1999/xlink" xlink:href="#ba" xlink:type="simple" xlink:actuate="onLoad" xlink:show="embed"/></g><g fill="#212529"><use x="1204.68" y="42.992" xmlns:xlink="http://www.w3.org/1999/xlink" xlink:href="#aJ" xlink:type="simple" xlink:actuate="onLoad" xlink:show="embed"/></g><g fill="#212529"><use x="1215.374" y="42.992" xmlns:xlink="http://www.w3.org/1999/xlink" xlink:href="#aL" xlink:type="simple" xlink:actuate="onLoad" xlink:show="embed"/></g><g fill="#212529"><use x="1229.099" y="42.992" xmlns:xlink="http://www.w3.org/1999/xlink" xlink:href="#aR" xlink:type="simple" xlink:actuate="onLoad" xlink:show="embed"/></g><g fill="#212529"><use x="1240.694" y="42.992" xmlns:xlink="http://www.w3.org/1999/xlink" xlink:href="#aN" xlink:type="simple" xlink:actuate="onLoad" xlink:show="embed"/></g><g fill="#212529"><use x="1265.03" y="42.992" xmlns:xlink="http://www.w3.org/1999/xlink" xlink:href="#ba" xlink:type="simple" xlink:actuate="onLoad" xlink:show="embed"/></g><g fill="#212529"><use x="1276.993" y="42.992" xmlns:xlink="http://www.w3.org/1999/xlink" xlink:href="#aX" xlink:type="simple" xlink:actuate="onLoad" xlink:show="embed"/></g><g fill="#212529"><use x="1304.033" y="42.992" xmlns:xlink="http://www.w3.org/1999/xlink" xlink:href="#aU" xlink:type="simple" xlink:actuate="onLoad" xlink:show="embed"/></g></svg>