<svg xmlns="http://www.w3.org/2000/svg" xmlns:xlink="http://www.w3.org/1999/xlink" width="1440" viewBox="0 0 1440 975" height="975" version="1.0"><defs><g id="n"><path d="M 19.582031 -25.113281 L 1.820312 -25.113281 L 1.820312 -22.566406 L 15.761719 -22.566406 L 3.710938 0 L 7.0625 0 L 19.582031 -23.65625 Z M 19.582031 -25.113281"/></g><g id="o"><path d="M 6.734375 -2.546875 L 13.03125 -8.773438 C 17.289062 -12.957031 19.144531 -15.285156 19.144531 -18.707031 C 19.144531 -22.457031 16.632812 -25.625 11.5 -25.625 C 6.480469 -25.625 3.347656 -22.855469 2.839844 -17.617188 L 2.800781 -17.253906 L 5.933594 -17.253906 L 5.96875 -17.617188 C 6.332031 -21.148438 7.898438 -23.148438 11.136719 -23.148438 C 14.160156 -23.148438 15.652344 -20.929688 15.652344 -18.34375 C 15.652344 -15.90625 14.230469 -14.085938 11.28125 -11.066406 L 2.183594 -1.785156 L 2.183594 0 L 19.035156 0 L 19.035156 -2.546875 Z M 6.734375 -2.546875"/></g><g id="q"><path d="M 10.554688 -25.625 C 3.640625 -25.625 1.492188 -19.871094 1.492188 -12.558594 C 1.492188 -5.277344 3.640625 0.507812 10.554688 0.507812 C 17.46875 0.507812 19.617188 -5.277344 19.617188 -12.558594 C 19.617188 -19.871094 17.46875 -25.625 10.554688 -25.625 Z M 10.554688 -1.964844 C 6.550781 -1.964844 4.988281 -6.003906 4.988281 -12.558594 C 4.988281 -19.144531 6.550781 -23.148438 10.554688 -23.148438 C 14.558594 -23.148438 16.125 -19.144531 16.125 -12.558594 C 16.125 -6.003906 14.558594 -1.964844 10.554688 -1.964844 Z M 10.554688 -1.964844"/></g><g id="p"><path d="M 6.878906 -25.476562 C 3.601562 -25.476562 1.492188 -23.257812 1.492188 -19.691406 C 1.492188 -16.160156 3.601562 -13.902344 6.878906 -13.902344 C 10.15625 -13.902344 12.265625 -16.160156 12.265625 -19.691406 C 12.265625 -23.257812 10.15625 -25.476562 6.878906 -25.476562 Z M 6.914062 0 L 23.222656 -25.113281 L 20.054688 -25.113281 L 3.75 0 Z M 6.878906 -23.292969 C 8.261719 -23.292969 9.207031 -22.054688 9.207031 -19.691406 C 9.207031 -17.359375 8.261719 -16.085938 6.878906 -16.085938 C 5.496094 -16.085938 4.550781 -17.359375 4.550781 -19.691406 C 4.550781 -22.054688 5.496094 -23.292969 6.878906 -23.292969 Z M 20.054688 -11.066406 C 16.777344 -11.066406 14.667969 -8.84375 14.667969 -5.277344 C 14.667969 -1.746094 16.777344 0.507812 20.054688 0.507812 C 23.332031 0.507812 25.441406 -1.746094 25.441406 -5.277344 C 25.441406 -8.84375 23.332031 -11.066406 20.054688 -11.066406 Z M 20.054688 -8.878906 C 21.4375 -8.878906 22.382812 -7.644531 22.382812 -5.277344 C 22.382812 -2.949219 21.4375 -1.675781 20.054688 -1.675781 C 18.671875 -1.675781 17.726562 -2.949219 17.726562 -5.277344 C 17.726562 -7.644531 18.671875 -8.878906 20.054688 -8.878906 Z M 20.054688 -8.878906"/></g><g id="r"><path d="M 20.746094 -17.316406 L 20.746094 -13.675781 L 29.117188 -13.675781 C 29.117188 -7.28125 24.800781 -2.808594 18.980469 -2.808594 C 11.90625 -2.808594 7.433594 -9.152344 7.433594 -17.992188 C 7.433594 -26.675781 11.960938 -33.070312 19.289062 -33.070312 C 25.269531 -33.070312 28.441406 -29.585938 29.480469 -24.4375 L 29.585938 -23.917969 L 34.058594 -23.917969 L 34.007812 -24.4375 C 33.277344 -31.457031 28.496094 -36.605469 19.394531 -36.605469 C 9.203125 -36.605469 2.445312 -28.703125 2.445312 -17.78125 C 2.445312 -7.28125 8.265625 0.726562 18.71875 0.726562 C 22.828125 0.726562 26 -0.625 28.027344 -2.910156 L 29.636719 -6.238281 L 29.636719 0 L 33.589844 0 L 33.589844 -17.316406 Z M 20.746094 -17.316406"/></g><g id="s"><path d="M 29.066406 -3.640625 L 9.671875 -3.640625 L 9.671875 -16.117188 L 26.984375 -16.117188 L 26.984375 -19.757812 L 9.671875 -19.757812 L 9.671875 -32.238281 L 28.546875 -32.238281 L 28.546875 -35.878906 L 5.199219 -35.878906 L 5.199219 0 L 29.066406 0 Z M 29.066406 -3.640625"/></g><g id="t"><path d="M 33.277344 0 L 33.175781 -35.878906 L 28.804688 -35.878906 L 28.804688 -17.9375 C 28.804688 -13.726562 28.859375 -8.578125 28.960938 -4.367188 L 12.0625 -35.878906 L 5.199219 -35.878906 L 5.199219 0 L 9.671875 0 L 9.671875 -17.9375 C 9.671875 -22.152344 9.621094 -27.296875 9.515625 -31.511719 L 26.414062 0 Z M 33.277344 0"/></g><g id="u"><path d="M 28.804688 -9.410156 C 28.496094 -13 27.089844 -16.273438 24.179688 -17.625 C 27.507812 -18.667969 30.574219 -21.371094 30.574219 -26.101562 C 30.574219 -32.132812 26.832031 -34.992188 21.628906 -35.667969 C 20.019531 -35.878906 18.769531 -35.878906 16.949219 -35.878906 L 5.199219 -35.878906 L 5.199219 0 L 9.671875 0 L 9.671875 -15.441406 L 16.429688 -15.441406 C 17.261719 -15.441406 18.148438 -15.441406 18.980469 -15.390625 C 22.515625 -15.132812 23.917969 -12.6875 24.335938 -8.996094 C 24.800781 -4.574219 25.269531 -2.289062 26.257812 0 L 31.199219 0 C 29.742188 -1.925781 29.222656 -4.730469 28.804688 -9.410156 Z M 9.671875 -19.082031 L 9.671875 -32.238281 L 16.949219 -32.238281 C 18.5625 -32.238281 19.550781 -32.1875 20.539062 -32.03125 C 23.867188 -31.511719 25.789062 -29.691406 25.789062 -25.6875 C 25.789062 -21.628906 23.347656 -19.5 20.019531 -19.1875 C 19.03125 -19.082031 18.148438 -19.082031 16.535156 -19.082031 Z M 9.671875 -19.082031"/></g><g id="v"><path d="M 23.710938 -12.6875 L 27.972656 0 L 32.808594 0 L 20.433594 -35.878906 L 14.402344 -35.878906 L 1.507812 0 L 6.292969 0 L 10.503906 -12.6875 Z M 11.75 -16.328125 L 17.316406 -32.34375 L 22.515625 -16.328125 Z M 11.75 -16.328125"/></g><g id="w"><path d="M 29.066406 -3.640625 L 9.671875 -3.640625 L 9.671875 -35.878906 L 5.199219 -35.878906 L 5.199219 0 L 29.066406 0 Z M 29.066406 -3.640625"/></g><g id="y"><path d="M 21.007812 -35.667969 C 19.394531 -35.878906 18.148438 -35.878906 16.328125 -35.878906 L 5.199219 -35.878906 L 5.199219 0 L 9.671875 0 L 9.671875 -14.664062 L 16.328125 -14.664062 C 18.148438 -14.664062 19.394531 -14.664062 21.007812 -14.871094 C 26.207031 -15.546875 30.3125 -19.1875 30.3125 -25.269531 C 30.3125 -31.355469 26.726562 -34.941406 21.007812 -35.667969 Z M 20.746094 -18.667969 C 19.757812 -18.457031 18.355469 -18.40625 16.742188 -18.40625 L 9.671875 -18.40625 L 9.671875 -32.132812 L 16.742188 -32.132812 C 18.355469 -32.132812 19.757812 -32.082031 20.746094 -31.875 C 23.292969 -31.300781 25.53125 -29.429688 25.53125 -25.269531 C 25.53125 -21.109375 23.292969 -19.238281 20.746094 -18.667969 Z M 20.746094 -18.667969"/></g><g id="z"><path d="M 19.394531 -36.605469 C 8.476562 -36.605469 2.445312 -28.910156 2.445312 -17.9375 C 2.445312 -7.019531 8.476562 0.726562 19.394531 0.726562 C 30.3125 0.726562 36.347656 -7.019531 36.347656 -17.9375 C 36.347656 -28.910156 30.3125 -36.605469 19.394531 -36.605469 Z M 19.394531 -2.808594 C 11.855469 -2.808594 7.433594 -8.632812 7.433594 -17.9375 C 7.433594 -27.296875 11.855469 -33.070312 19.394531 -33.070312 C 26.933594 -33.070312 31.355469 -27.296875 31.355469 -17.9375 C 31.355469 -8.632812 26.933594 -2.808594 19.394531 -2.808594 Z M 19.394531 -2.808594"/></g><g id="A"><path d="M 31.820312 -35.878906 L 27.351562 -35.878906 L 27.351562 -13.675781 C 27.351562 -12.53125 27.351562 -11.4375 27.246094 -10.503906 C 26.832031 -5.980469 23.867188 -2.808594 18.355469 -2.808594 C 12.84375 -2.808594 9.878906 -5.980469 9.464844 -10.503906 C 9.359375 -11.4375 9.359375 -12.53125 9.359375 -13.675781 L 9.359375 -35.878906 L 4.886719 -35.878906 L 4.886719 -13.257812 C 4.886719 -12.117188 4.886719 -11.074219 4.992188 -10.035156 C 5.511719 -4.054688 9.566406 0.726562 18.355469 0.726562 C 27.140625 0.726562 31.199219 -4.054688 31.71875 -10.035156 C 31.820312 -11.074219 31.820312 -12.117188 31.820312 -13.257812 Z M 31.820312 -35.878906"/></g><g id="B"><path d="M 31.820312 -32.238281 L 31.820312 -35.878906 L 1.769531 -35.878906 L 1.769531 -32.238281 L 14.558594 -32.238281 L 14.558594 0 L 19.03125 0 L 19.03125 -32.238281 Z M 31.820312 -32.238281"/></g><g id="C"><path d="M 9.671875 0 L 9.671875 -35.878906 L 5.199219 -35.878906 L 5.199219 0 Z M 9.671875 0"/></g><g id="M"><path d="M 12.449219 -6.660156 L 14.6875 0 L 17.226562 0 L 10.730469 -18.835938 L 7.5625 -18.835938 L 0.792969 0 L 3.304688 0 L 5.515625 -6.660156 Z M 6.167969 -8.570312 L 9.089844 -16.980469 L 11.820312 -8.570312 Z M 6.167969 -8.570312"/></g><g id="N"><path d="M 15.125 -4.941406 C 14.960938 -6.824219 14.222656 -8.542969 12.695312 -9.253906 C 14.441406 -9.800781 16.050781 -11.21875 16.050781 -13.703125 C 16.050781 -16.871094 14.085938 -18.371094 11.355469 -18.726562 C 10.511719 -18.835938 9.855469 -18.835938 8.898438 -18.835938 L 2.730469 -18.835938 L 2.730469 0 L 5.078125 0 L 5.078125 -8.109375 L 8.625 -8.109375 C 9.0625 -8.109375 9.527344 -8.109375 9.964844 -8.082031 C 11.820312 -7.945312 12.558594 -6.660156 12.777344 -4.722656 C 13.023438 -2.402344 13.269531 -1.203125 13.785156 0 L 16.378906 0 C 15.617188 -1.011719 15.34375 -2.484375 15.125 -4.941406 Z M 5.078125 -10.019531 L 5.078125 -16.925781 L 8.898438 -16.925781 C 9.746094 -16.925781 10.265625 -16.898438 10.785156 -16.816406 C 12.53125 -16.542969 13.539062 -15.589844 13.539062 -13.484375 C 13.539062 -11.355469 12.257812 -10.238281 10.511719 -10.074219 C 9.992188 -10.019531 9.527344 -10.019531 8.679688 -10.019531 Z M 5.078125 -10.019531"/></g><g id="O"><path d="M 16.707031 -16.925781 L 16.707031 -18.835938 L 0.929688 -18.835938 L 0.929688 -16.925781 L 7.644531 -16.925781 L 7.644531 0 L 9.992188 0 L 9.992188 -16.925781 Z M 16.707031 -16.925781"/></g><g id="P"><path d="M 5.078125 0 L 5.078125 -18.835938 L 2.730469 -18.835938 L 2.730469 0 Z M 5.078125 0"/></g><g id="Q"><path d="M 8.570312 -19.21875 C 5.105469 -19.21875 2.292969 -17.171875 2.292969 -13.921875 C 2.292969 -10.8125 4.613281 -9.472656 7.945312 -8.707031 C 11.246094 -7.945312 12.558594 -6.90625 12.558594 -4.613281 C 12.558594 -2.648438 10.8125 -1.472656 8.652344 -1.472656 C 6.195312 -1.472656 4.476562 -2.867188 3.929688 -5.351562 L 1.417969 -5.351562 C 1.828125 -1.71875 4.449219 0.382812 8.597656 0.382812 C 12.230469 0.382812 15.070312 -1.746094 15.070312 -5.050781 C 15.070312 -8.246094 12.996094 -9.9375 8.84375 -10.894531 C 5.980469 -11.546875 4.804688 -12.421875 4.804688 -14.46875 C 4.804688 -16.433594 6.386719 -17.363281 8.382812 -17.363281 C 10.757812 -17.363281 12.148438 -15.996094 12.367188 -13.621094 L 14.878906 -13.621094 C 14.523438 -16.84375 12.476562 -19.21875 8.570312 -19.21875 Z M 8.570312 -19.21875"/></g><g id="R"><path d="M 11.027344 -18.726562 C 10.183594 -18.835938 9.527344 -18.835938 8.570312 -18.835938 L 2.730469 -18.835938 L 2.730469 0 L 5.078125 0 L 5.078125 -7.699219 L 8.570312 -7.699219 C 9.527344 -7.699219 10.183594 -7.699219 11.027344 -7.808594 C 13.757812 -8.164062 15.914062 -10.074219 15.914062 -13.269531 C 15.914062 -16.460938 14.03125 -18.34375 11.027344 -18.726562 Z M 10.894531 -9.800781 C 10.375 -9.691406 9.636719 -9.664062 8.789062 -9.664062 L 5.078125 -9.664062 L 5.078125 -16.871094 L 8.789062 -16.871094 C 9.636719 -16.871094 10.375 -16.84375 10.894531 -16.734375 C 12.230469 -16.433594 13.40625 -15.453125 13.40625 -13.269531 C 13.40625 -11.082031 12.230469 -10.101562 10.894531 -9.800781 Z M 10.894531 -9.800781"/></g><g id="S"><path d="M 10.183594 -19.21875 C 4.449219 -19.21875 1.28125 -15.179688 1.28125 -9.417969 C 1.28125 -3.683594 4.449219 0.382812 10.183594 0.382812 C 15.914062 0.382812 19.082031 -3.683594 19.082031 -9.417969 C 19.082031 -15.179688 15.914062 -19.21875 10.183594 -19.21875 Z M 10.183594 -1.472656 C 6.222656 -1.472656 3.902344 -4.53125 3.902344 -9.417969 C 3.902344 -14.332031 6.222656 -17.363281 10.183594 -17.363281 C 14.140625 -17.363281 16.460938 -14.332031 16.460938 -9.417969 C 16.460938 -4.53125 14.140625 -1.472656 10.183594 -1.472656 Z M 10.183594 -1.472656"/></g><g id="T"><path d="M 15.261719 -1.910156 L 5.078125 -1.910156 L 5.078125 -18.835938 L 2.730469 -18.835938 L 2.730469 0 L 15.261719 0 Z M 15.261719 -1.910156"/></g><g id="U"><path d="M 10.183594 -19.21875 C 4.832031 -19.21875 1.28125 -15.070312 1.28125 -9.335938 C 1.28125 -3.820312 4.339844 0.382812 9.828125 0.382812 C 14.796875 0.382812 17.335938 -2.59375 17.691406 -6.007812 L 17.71875 -6.277344 L 15.371094 -6.277344 L 15.316406 -6.007812 C 14.769531 -3.304688 13.105469 -1.472656 9.964844 -1.472656 C 6.25 -1.472656 3.902344 -4.804688 3.902344 -9.445312 C 3.902344 -14.003906 6.277344 -17.363281 10.128906 -17.363281 C 13.269531 -17.363281 14.933594 -15.535156 15.480469 -12.832031 L 15.535156 -12.558594 L 17.882812 -12.558594 L 17.855469 -12.832031 C 17.472656 -16.515625 14.960938 -19.21875 10.183594 -19.21875 Z M 10.183594 -19.21875"/></g><g id="V"><path d="M 17.472656 0 L 17.417969 -18.835938 L 15.125 -18.835938 L 15.125 -9.417969 C 15.125 -7.207031 15.152344 -4.503906 15.207031 -2.292969 L 6.332031 -18.835938 L 2.730469 -18.835938 L 2.730469 0 L 5.078125 0 L 5.078125 -9.417969 C 5.078125 -11.628906 5.050781 -14.332031 4.996094 -16.542969 L 13.867188 0 Z M 17.472656 0"/></g><g id="W"><path d="M 15.261719 -1.910156 L 5.078125 -1.910156 L 5.078125 -8.464844 L 14.167969 -8.464844 L 14.167969 -10.375 L 5.078125 -10.375 L 5.078125 -16.925781 L 14.988281 -16.925781 L 14.988281 -18.835938 L 2.730469 -18.835938 L 2.730469 0 L 15.261719 0 Z M 15.261719 -1.910156"/></g><g id="X"><path d="M 21.511719 -18.835938 L 17.71875 -18.835938 L 12.175781 -1.992188 L 6.605469 -18.835938 L 2.730469 -18.835938 L 2.730469 0 L 5.078125 0 L 5.078125 -9.691406 C 5.078125 -12.011719 5.078125 -14.605469 5.023438 -16.652344 C 5.625 -14.632812 6.496094 -12.011719 7.261719 -9.773438 L 10.648438 0 L 13.59375 0 L 16.925781 -9.71875 C 17.71875 -12.011719 18.589844 -14.660156 19.21875 -16.707031 C 19.164062 -14.660156 19.164062 -12.039062 19.164062 -9.691406 L 19.164062 0 L 21.511719 0 Z M 21.511719 -18.835938"/></g><g id="ac"><path d="M 4.863281 -11.683594 C 2.539062 -11.683594 0.8125 -10.042969 0.8125 -7.601562 C 0.8125 -5.328125 2.222656 -3.71875 4.613281 -3.71875 C 5.445312 -3.71875 6.089844 -3.933594 6.707031 -4.449219 L 7.351562 -5.476562 C 7.238281 -2.140625 6.140625 -0.894531 4.597656 -0.894531 C 3.4375 -0.894531 2.753906 -1.558594 2.488281 -2.855469 L 2.457031 -3.019531 L 0.929688 -3.019531 L 0.945312 -2.855469 C 1.128906 -0.980469 2.523438 0.230469 4.480469 0.230469 C 6.839844 0.230469 8.914062 -1.660156 8.914062 -6.273438 C 8.914062 -10.074219 7.417969 -11.683594 4.863281 -11.683594 Z M 4.863281 -4.847656 C 3.121094 -4.847656 2.40625 -6.175781 2.40625 -7.769531 C 2.40625 -9.425781 3.4375 -10.554688 4.863281 -10.554688 C 6.308594 -10.554688 7.253906 -9.328125 7.253906 -7.734375 C 7.253906 -5.824219 6.15625 -4.847656 4.863281 -4.847656 Z M 4.863281 -4.847656"/></g><g id="ad"><path d="M 5.011719 -7.734375 C 4.183594 -7.734375 3.535156 -7.519531 2.921875 -7.003906 L 2.273438 -5.976562 C 2.390625 -9.3125 3.484375 -10.554688 5.027344 -10.554688 C 6.191406 -10.554688 6.871094 -9.890625 7.136719 -8.597656 L 7.171875 -8.433594 L 8.699219 -8.433594 L 8.679688 -8.597656 C 8.5 -10.472656 7.105469 -11.683594 5.144531 -11.683594 C 2.789062 -11.683594 0.714844 -9.792969 0.714844 -5.179688 C 0.714844 -1.378906 2.207031 0.230469 4.761719 0.230469 C 7.085938 0.230469 8.8125 -1.410156 8.8125 -3.851562 C 8.8125 -6.125 7.402344 -7.734375 5.011719 -7.734375 Z M 4.761719 -0.894531 C 3.320312 -0.894531 2.375 -2.125 2.375 -3.71875 C 2.375 -5.625 3.46875 -6.605469 4.761719 -6.605469 C 6.507812 -6.605469 7.21875 -5.277344 7.21875 -3.683594 C 7.21875 -2.023438 6.191406 -0.894531 4.761719 -0.894531 Z M 4.761719 -0.894531"/></g><g id="af"><path d="M 5.09375 -7.550781 C 4.398438 -7.550781 3.835938 -7.402344 3.285156 -7.070312 L 2.574219 -6.308594 L 3.085938 -10.289062 L 8.433594 -10.289062 L 8.433594 -11.453125 L 1.925781 -11.453125 L 1.128906 -4.796875 L 2.488281 -4.796875 C 3.054688 -5.976562 3.816406 -6.421875 4.878906 -6.421875 C 6.40625 -6.421875 7.320312 -5.34375 7.320312 -3.617188 C 7.320312 -1.890625 6.324219 -0.894531 4.8125 -0.894531 C 3.386719 -0.894531 2.671875 -1.726562 2.40625 -3.039062 L 2.375 -3.203125 L 0.945312 -3.203125 L 0.960938 -3.039062 C 1.179688 -0.878906 2.523438 0.230469 4.828125 0.230469 C 6.953125 0.230469 8.914062 -1.195312 8.914062 -3.71875 C 8.914062 -5.890625 7.652344 -7.550781 5.09375 -7.550781 Z M 5.09375 -7.550781"/></g><g id="au"><path d="M 6.574219 -6.089844 C 7.769531 -6.441406 8.597656 -7.46875 8.597656 -8.78125 C 8.597656 -10.507812 7.269531 -11.683594 5.160156 -11.683594 C 2.839844 -11.683594 1.425781 -10.390625 1.210938 -8.316406 L 1.195312 -8.148438 L 2.621094 -8.148438 L 2.640625 -8.316406 C 2.789062 -9.824219 3.769531 -10.554688 4.980469 -10.554688 C 6.191406 -10.554688 7.003906 -9.757812 7.003906 -8.613281 C 7.003906 -7.171875 5.910156 -6.375 4.546875 -6.375 L 4.265625 -6.375 L 4.265625 -5.210938 L 4.546875 -5.210938 C 6.40625 -5.210938 7.269531 -4.449219 7.269531 -3.105469 C 7.269531 -1.710938 6.257812 -0.894531 4.847656 -0.894531 C 3.453125 -0.894531 2.355469 -1.609375 2.191406 -3.21875 L 2.175781 -3.386719 L 0.746094 -3.386719 L 0.761719 -3.21875 C 1.011719 -0.746094 2.539062 0.230469 4.714844 0.230469 C 6.921875 0.230469 8.863281 -1.046875 8.863281 -3.1875 C 8.863281 -4.679688 7.984375 -5.691406 6.574219 -6.089844 Z M 6.574219 -6.089844"/></g><g id="ae"><path d="M 3.136719 -11.617188 C 1.644531 -11.617188 0.679688 -10.605469 0.679688 -8.980469 C 0.679688 -7.371094 1.644531 -6.339844 3.136719 -6.339844 C 4.628906 -6.339844 5.59375 -7.371094 5.59375 -8.980469 C 5.59375 -10.605469 4.628906 -11.617188 3.136719 -11.617188 Z M 3.152344 0 L 10.589844 -11.453125 L 9.144531 -11.453125 L 1.710938 0 Z M 3.136719 -10.621094 C 3.769531 -10.621094 4.199219 -10.058594 4.199219 -8.980469 C 4.199219 -7.917969 3.769531 -7.335938 3.136719 -7.335938 C 2.507812 -7.335938 2.074219 -7.917969 2.074219 -8.980469 C 2.074219 -10.058594 2.507812 -10.621094 3.136719 -10.621094 Z M 9.144531 -5.046875 C 7.652344 -5.046875 6.6875 -4.035156 6.6875 -2.40625 C 6.6875 -0.796875 7.652344 0.230469 9.144531 0.230469 C 10.640625 0.230469 11.601562 -0.796875 11.601562 -2.40625 C 11.601562 -4.035156 10.640625 -5.046875 9.144531 -5.046875 Z M 9.144531 -4.050781 C 9.777344 -4.050781 10.207031 -3.484375 10.207031 -2.40625 C 10.207031 -1.34375 9.777344 -0.761719 9.144531 -0.761719 C 8.515625 -0.761719 8.082031 -1.34375 8.082031 -2.40625 C 8.082031 -3.484375 8.515625 -4.050781 9.144531 -4.050781 Z M 9.144531 -4.050781"/></g><g id="aj"><path d="M 7.386719 -17.75 C 3.859375 -17.75 1.234375 -15.253906 1.234375 -11.546875 C 1.234375 -8.09375 3.378906 -5.648438 7.007812 -5.648438 C 8.269531 -5.648438 9.253906 -5.976562 10.1875 -6.757812 L 11.167969 -8.320312 C 10.992188 -3.253906 9.328125 -1.363281 6.984375 -1.363281 C 5.21875 -1.363281 4.183594 -2.371094 3.78125 -4.335938 L 3.730469 -4.589844 L 1.410156 -4.589844 L 1.4375 -4.335938 C 1.714844 -1.488281 3.832031 0.351562 6.808594 0.351562 C 10.386719 0.351562 13.539062 -2.519531 13.539062 -9.53125 C 13.539062 -15.304688 11.269531 -17.75 7.386719 -17.75 Z M 7.386719 -7.363281 C 4.738281 -7.363281 3.65625 -9.378906 3.65625 -11.800781 C 3.65625 -14.320312 5.21875 -16.035156 7.386719 -16.035156 C 9.582031 -16.035156 11.019531 -14.171875 11.019531 -11.75 C 11.019531 -8.851562 9.355469 -7.363281 7.386719 -7.363281 Z M 7.386719 -7.363281"/></g><g id="ak"><path d="M 9.984375 -9.253906 C 11.800781 -9.78125 13.0625 -11.347656 13.0625 -13.339844 C 13.0625 -15.960938 11.042969 -17.75 7.839844 -17.75 C 4.3125 -17.75 2.167969 -15.785156 1.839844 -12.632812 L 1.816406 -12.378906 L 3.984375 -12.378906 L 4.007812 -12.632812 C 4.234375 -14.925781 5.722656 -16.035156 7.5625 -16.035156 C 9.40625 -16.035156 10.640625 -14.824219 10.640625 -13.085938 C 10.640625 -10.890625 8.976562 -9.683594 6.910156 -9.683594 L 6.480469 -9.683594 L 6.480469 -7.917969 L 6.910156 -7.917969 C 9.734375 -7.917969 11.042969 -6.757812 11.042969 -4.714844 C 11.042969 -2.597656 9.503906 -1.363281 7.363281 -1.363281 C 5.246094 -1.363281 3.582031 -2.445312 3.328125 -4.890625 L 3.304688 -5.144531 L 1.132812 -5.144531 L 1.160156 -4.890625 C 1.539062 -1.132812 3.859375 0.351562 7.160156 0.351562 C 10.515625 0.351562 13.464844 -1.589844 13.464844 -4.839844 C 13.464844 -7.109375 12.128906 -8.648438 9.984375 -9.253906 Z M 9.984375 -9.253906"/></g><g id="am"><path d="M 10.238281 -17.398438 L 8.851562 -17.398438 C 8.246094 -17.398438 7.640625 -17.269531 6.960938 -16.84375 L 3.277344 -14.546875 L 3.277344 -12.253906 L 8.070312 -15.101562 L 8.070312 0 L 10.238281 0 Z M 10.238281 -17.398438"/></g><g id="al"><path d="M 4.765625 -17.648438 C 2.496094 -17.648438 1.035156 -16.113281 1.035156 -13.640625 C 1.035156 -11.195312 2.496094 -9.632812 4.765625 -9.632812 C 7.035156 -9.632812 8.496094 -11.195312 8.496094 -13.640625 C 8.496094 -16.113281 7.035156 -17.648438 4.765625 -17.648438 Z M 4.789062 0 L 16.085938 -17.398438 L 13.894531 -17.398438 L 2.597656 0 Z M 4.765625 -16.136719 C 5.722656 -16.136719 6.378906 -15.28125 6.378906 -13.640625 C 6.378906 -12.027344 5.722656 -11.144531 4.765625 -11.144531 C 3.808594 -11.144531 3.152344 -12.027344 3.152344 -13.640625 C 3.152344 -15.28125 3.808594 -16.136719 4.765625 -16.136719 Z M 13.894531 -7.664062 C 11.625 -7.664062 10.160156 -6.125 10.160156 -3.65625 C 10.160156 -1.210938 11.625 0.351562 13.894531 0.351562 C 16.160156 0.351562 17.625 -1.210938 17.625 -3.65625 C 17.625 -6.125 16.160156 -7.664062 13.894531 -7.664062 Z M 13.894531 -6.152344 C 14.851562 -6.152344 15.507812 -5.292969 15.507812 -3.65625 C 15.507812 -2.042969 14.851562 -1.160156 13.894531 -1.160156 C 12.933594 -1.160156 12.277344 -2.042969 12.277344 -3.65625 C 12.277344 -5.292969 12.933594 -6.152344 13.894531 -6.152344 Z M 13.894531 -6.152344"/></g><g id="av"><path d="M 4.863281 -11.6875 C 2.539062 -11.6875 0.8125 -10.042969 0.8125 -7.601562 C 0.8125 -5.328125 2.222656 -3.71875 4.613281 -3.71875 C 5.445312 -3.71875 6.09375 -3.933594 6.707031 -4.449219 L 7.355469 -5.476562 C 7.238281 -2.140625 6.140625 -0.894531 4.597656 -0.894531 C 3.4375 -0.894531 2.753906 -1.558594 2.488281 -2.855469 L 2.457031 -3.019531 L 0.929688 -3.019531 L 0.945312 -2.855469 C 1.128906 -0.980469 2.523438 0.230469 4.480469 0.230469 C 6.839844 0.230469 8.914062 -1.660156 8.914062 -6.273438 C 8.914062 -10.074219 7.417969 -11.6875 4.863281 -11.6875 Z M 4.863281 -4.847656 C 3.121094 -4.847656 2.40625 -6.175781 2.40625 -7.769531 C 2.40625 -9.429688 3.4375 -10.558594 4.863281 -10.558594 C 6.308594 -10.558594 7.253906 -9.328125 7.253906 -7.734375 C 7.253906 -5.828125 6.160156 -4.847656 4.863281 -4.847656 Z M 4.863281 -4.847656"/></g><g id="aw"><path d="M 5.097656 -7.550781 C 4.398438 -7.550781 3.835938 -7.402344 3.285156 -7.070312 L 2.574219 -6.308594 L 3.085938 -10.292969 L 8.433594 -10.292969 L 8.433594 -11.453125 L 1.925781 -11.453125 L 1.128906 -4.796875 L 2.488281 -4.796875 C 3.054688 -5.976562 3.816406 -6.425781 4.878906 -6.425781 C 6.40625 -6.425781 7.320312 -5.34375 7.320312 -3.617188 C 7.320312 -1.890625 6.324219 -0.894531 4.8125 -0.894531 C 3.386719 -0.894531 2.671875 -1.726562 2.40625 -3.039062 L 2.375 -3.203125 L 0.945312 -3.203125 L 0.960938 -3.039062 C 1.179688 -0.878906 2.523438 0.230469 4.832031 0.230469 C 6.957031 0.230469 8.914062 -1.195312 8.914062 -3.71875 C 8.914062 -5.894531 7.652344 -7.550781 5.097656 -7.550781 Z M 5.097656 -7.550781"/></g><g id="ax"><path d="M 3.136719 -11.621094 C 1.644531 -11.621094 0.679688 -10.605469 0.679688 -8.980469 C 0.679688 -7.371094 1.644531 -6.339844 3.136719 -6.339844 C 4.632812 -6.339844 5.59375 -7.371094 5.59375 -8.980469 C 5.59375 -10.605469 4.632812 -11.621094 3.136719 -11.621094 Z M 3.152344 0 L 10.589844 -11.453125 L 9.144531 -11.453125 L 1.710938 0 Z M 3.136719 -10.625 C 3.769531 -10.625 4.199219 -10.058594 4.199219 -8.980469 C 4.199219 -7.917969 3.769531 -7.335938 3.136719 -7.335938 C 2.507812 -7.335938 2.074219 -7.917969 2.074219 -8.980469 C 2.074219 -10.058594 2.507812 -10.625 3.136719 -10.625 Z M 9.144531 -5.046875 C 7.652344 -5.046875 6.691406 -4.035156 6.691406 -2.40625 C 6.691406 -0.796875 7.652344 0.230469 9.144531 0.230469 C 10.640625 0.230469 11.601562 -0.796875 11.601562 -2.40625 C 11.601562 -4.035156 10.640625 -5.046875 9.144531 -5.046875 Z M 9.144531 -4.050781 C 9.777344 -4.050781 10.207031 -3.484375 10.207031 -2.40625 C 10.207031 -1.34375 9.777344 -0.761719 9.144531 -0.761719 C 8.515625 -0.761719 8.082031 -1.34375 8.082031 -2.40625 C 8.082031 -3.484375 8.515625 -4.050781 9.144531 -4.050781 Z M 9.144531 -4.050781"/></g><g id="ay"><path d="M 13.308594 0 L 13.269531 -14.351562 L 11.519531 -14.351562 L 11.519531 -7.175781 C 11.519531 -5.492188 11.542969 -3.429688 11.582031 -1.746094 L 4.824219 -14.351562 L 2.078125 -14.351562 L 2.078125 0 L 3.867188 0 L 3.867188 -7.175781 C 3.867188 -8.859375 3.847656 -10.917969 3.804688 -12.601562 L 10.566406 0 Z M 13.308594 0"/></g><g id="az"><path d="M 6.09375 -11.3125 C 2.351562 -11.3125 0.625 -8.628906 0.625 -5.511719 C 0.625 -2.414062 2.351562 0.292969 6.09375 0.292969 C 9.835938 0.292969 11.5625 -2.414062 11.5625 -5.511719 C 11.5625 -8.628906 9.835938 -11.3125 6.09375 -11.3125 Z M 6.09375 -1.082031 C 3.867188 -1.082031 2.578125 -2.933594 2.578125 -5.511719 C 2.578125 -8.109375 3.867188 -9.941406 6.09375 -9.941406 C 8.320312 -9.941406 9.609375 -8.109375 9.609375 -5.511719 C 9.609375 -2.933594 8.320312 -1.082031 6.09375 -1.082031 Z M 6.09375 -1.082031"/></g><g id="aA"><path d="M 3.679688 -9.566406 L 5.738281 -9.566406 L 5.738281 -10.9375 L 3.679688 -10.9375 L 3.679688 -13.496094 L 1.890625 -13.496094 L 1.890625 -10.9375 L 0.414062 -10.9375 L 0.414062 -9.566406 L 1.890625 -9.566406 L 1.890625 -3.140625 C 1.890625 -2.515625 1.890625 -2.058594 1.914062 -1.769531 C 2.015625 -0.394531 2.722656 0.167969 4.097656 0.167969 C 4.597656 0.167969 5.09375 0.144531 5.613281 0.0625 L 5.613281 -1.246094 C 4.222656 -1.082031 3.785156 -1.308594 3.703125 -2.371094 C 3.679688 -2.660156 3.679688 -2.847656 3.679688 -3.222656 Z M 3.679688 -9.566406"/></g><g id="aC"><path d="M 4.742188 -11.3125 C 2.476562 -11.3125 0.9375 -10.105469 0.9375 -8.089844 C 0.9375 -6.15625 2.515625 -5.34375 4.492188 -4.804688 C 6.34375 -4.304688 7.089844 -3.742188 7.089844 -2.683594 C 7.089844 -1.621094 6.136719 -1.082031 4.949219 -1.082031 C 3.679688 -1.082031 2.660156 -1.644531 2.371094 -3.246094 L 0.5 -3.246094 C 0.832031 -0.75 2.558594 0.292969 4.824219 0.292969 C 7.152344 0.292969 8.921875 -0.75 8.921875 -2.828125 C 8.921875 -4.699219 7.714844 -5.699219 5.179688 -6.363281 C 3.679688 -6.757812 2.765625 -7.195312 2.765625 -8.296875 C 2.765625 -9.253906 3.347656 -9.941406 4.597656 -9.941406 C 5.886719 -9.941406 6.675781 -9.171875 6.925781 -7.882812 L 8.796875 -7.882812 C 8.566406 -9.898438 7.214844 -11.3125 4.742188 -11.3125 Z M 4.742188 -11.3125"/></g><g id="aD"><path d="M 7.859375 0 L 9.648438 0 C 9.484375 -1.226562 9.441406 -1.976562 9.441406 -2.808594 L 9.441406 -6.945312 C 9.441406 -7.425781 9.421875 -7.964844 9.378906 -8.402344 C 9.191406 -10.210938 8.089844 -11.3125 5.46875 -11.3125 C 3.035156 -11.3125 1.394531 -9.960938 1.226562 -7.613281 L 3.097656 -7.613281 C 3.222656 -9.128906 3.972656 -9.941406 5.46875 -9.941406 C 6.945312 -9.941406 7.527344 -9.273438 7.613281 -8.257812 C 7.652344 -7.839844 7.652344 -7.402344 7.652344 -6.925781 L 7.652344 -6.632812 L 6.945312 -6.632812 C 2.621094 -6.632812 0.75 -5.34375 0.75 -2.847656 C 0.75 -0.8125 2.308594 0.292969 4.304688 0.292969 C 5.367188 0.292969 6.320312 0.125 7.070312 -0.394531 L 7.675781 -1.582031 Z M 4.90625 -1.082031 C 3.554688 -1.082031 2.703125 -1.664062 2.703125 -2.996094 C 2.703125 -4.886719 4.617188 -5.53125 7.652344 -5.304688 L 7.652344 -4.179688 C 7.652344 -2.183594 6.570312 -1.082031 4.90625 -1.082031 Z M 4.90625 -1.082031"/></g><g id="aE"><path d="M 2.433594 -14.640625 C 1.789062 -14.640625 1.289062 -14.140625 1.289062 -13.496094 C 1.289062 -12.851562 1.789062 -12.351562 2.433594 -12.351562 C 3.078125 -12.351562 3.578125 -12.851562 3.578125 -13.496094 C 3.578125 -14.140625 3.078125 -14.640625 2.433594 -14.640625 Z M 3.328125 0 L 3.328125 -11.023438 L 1.539062 -11.023438 L 1.539062 0 Z M 3.328125 0"/></g><g id="aF"><path d="M 5.800781 -11.3125 C 3.035156 -11.3125 0.625 -9.214844 0.625 -5.492188 C 0.625 -1.457031 2.746094 0.292969 5.53125 0.292969 C 7.984375 0.292969 9.816406 -0.957031 10.355469 -3.515625 L 8.484375 -3.515625 C 8.109375 -1.914062 7.089844 -1.082031 5.636719 -1.082031 C 3.992188 -1.082031 2.578125 -2.414062 2.578125 -5.613281 C 2.578125 -8.589844 4.035156 -9.941406 5.761719 -9.941406 C 7.238281 -9.941406 8.195312 -9.089844 8.589844 -7.320312 L 10.460938 -7.320312 C 10.128906 -9.734375 8.445312 -11.3125 5.800781 -11.3125 Z M 5.800781 -11.3125"/></g><g id="aG"><path d="M 3.246094 -15.285156 L 1.457031 -15.285156 L 1.457031 -3.097656 C 1.457031 -2.496094 1.457031 -2.015625 1.476562 -1.644531 C 1.539062 -0.25 2.308594 0.0820312 3.347656 0.0820312 C 3.765625 0.0820312 4.222656 0.0625 4.617188 0 L 4.617188 -1.289062 C 3.640625 -1.183594 3.308594 -1.414062 3.265625 -2.121094 C 3.246094 -2.476562 3.246094 -2.828125 3.246094 -3.160156 Z M 3.246094 -15.285156"/></g><g id="aH"><path d="M 10.542969 -11.023438 L 8.589844 -11.023438 L 5.324219 -1.332031 L 2.039062 -11.023438 L 0.0195312 -11.023438 L 4.410156 0.5625 L 4.261719 0.957031 C 3.703125 2.414062 2.972656 2.890625 1.871094 2.890625 C 1.683594 2.890625 1.496094 2.890625 1.226562 2.871094 L 1.226562 4.324219 C 1.496094 4.367188 1.746094 4.367188 2.140625 4.367188 C 3.929688 4.367188 5.117188 3.265625 6.011719 0.9375 Z M 10.542969 -11.023438"/></g><g id="aI"><path d="M 11.167969 -11.023438 L 9.378906 -11.023438 L 9.378906 -9.503906 L 8.652344 -10.585938 C 8.089844 -11.042969 6.925781 -11.3125 6.011719 -11.3125 C 3.160156 -11.3125 0.625 -9.421875 0.625 -5.34375 C 0.625 -2.121094 2.414062 0.292969 5.636719 0.292969 C 6.757812 0.292969 7.921875 -0.0625 8.546875 -0.582031 L 9.378906 -1.769531 L 9.378906 -1.582031 C 9.378906 -1.246094 9.378906 -0.894531 9.359375 -0.375 C 9.273438 1.746094 8.089844 2.996094 5.90625 2.996094 C 4.015625 2.996094 2.933594 2.058594 2.785156 0.707031 L 2.765625 0.519531 L 0.957031 0.519531 L 0.976562 0.726562 C 1.207031 3.058594 2.765625 4.367188 5.90625 4.367188 C 9.089844 4.367188 11.042969 2.660156 11.148438 -0.5625 C 11.167969 -1.164062 11.167969 -2.015625 11.167969 -2.703125 Z M 5.90625 -1.082031 C 3.703125 -1.082031 2.578125 -3.058594 2.578125 -5.550781 C 2.578125 -8.445312 4.074219 -9.941406 6.011719 -9.941406 C 7.589844 -9.941406 9.378906 -8.859375 9.378906 -6.011719 L 9.378906 -5.40625 C 9.378906 -2.246094 7.738281 -1.082031 5.90625 -1.082031 Z M 5.90625 -1.082031"/></g><g id="aJ"><path d="M 10.8125 -8.089844 C 10.648438 -10.023438 9.296875 -11.3125 6.882812 -11.3125 C 5.761719 -11.3125 4.949219 -11.125 4.015625 -10.398438 L 3.328125 -9.128906 L 3.328125 -11.023438 L 1.539062 -11.023438 L 1.539062 0 L 3.328125 0 L 3.328125 -4.84375 C 3.328125 -8.609375 4.785156 -9.898438 6.507812 -9.898438 C 8.214844 -9.898438 8.921875 -8.941406 9.027344 -7.652344 C 9.066406 -7.089844 9.066406 -6.632812 9.066406 -6.074219 L 9.066406 0 L 10.855469 0 L 10.855469 -6.199219 C 10.855469 -7.089844 10.855469 -7.527344 10.8125 -8.089844 Z M 10.8125 -8.089844"/></g><g id="aK"><path d="M 3.472656 -13.144531 C 3.617188 -14.039062 4.511719 -14.351562 5.863281 -14.101562 L 5.863281 -15.578125 C 5.492188 -15.640625 5.054688 -15.679688 4.597656 -15.679688 C 2.953125 -15.679688 1.871094 -14.785156 1.683594 -13.183594 C 1.644531 -12.8125 1.621094 -12.269531 1.621094 -11.855469 L 1.621094 -10.9375 L 0.4375 -10.9375 L 0.4375 -9.566406 L 1.621094 -9.566406 L 1.621094 0 L 3.410156 0 L 3.410156 -9.566406 L 5.675781 -9.566406 L 5.675781 -10.9375 L 3.410156 -10.9375 L 3.410156 -12.019531 C 3.410156 -12.332031 3.429688 -12.851562 3.472656 -13.144531 Z M 3.472656 -13.144531"/></g><clipPath id="d"><path d="M 0 1 L 538.800781 1 L 538.800781 540 L 0 540 Z M 0 1"/></clipPath><clipPath id="c"><path d="M0 0H539V541H0z"/></clipPath><clipPath id="g"><path d="M 2 0 L 977.679688 0 L 977.679688 975 L 2 975 Z M 2 0"/></clipPath><clipPath id="f"><path d="M0 0H978V975H0z"/></clipPath><clipPath id="h"><path d="M 930 393.113281 L 952 393.113281 L 952 415 L 930 415 Z M 930 393.113281"/></clipPath><clipPath id="i"><path d="M 915.960938 416 L 966.210938 416 L 966.210938 523 L 915.960938 523 Z M 915.960938 416"/></clipPath><clipPath id="j"><path d="M 1068 393.113281 L 1090 393.113281 L 1090 415 L 1068 415 Z M 1068 393.113281"/></clipPath><clipPath id="m"><path d="M 1 1 L 205.519531 1 L 205.519531 205.398438 L 1 205.398438 Z M 1 1"/></clipPath><clipPath id="l"><path d="M0 0H206V206H0z"/></clipPath><clipPath id="F"><path d="M 1 1 L 205.238281 1 L 205.238281 205.640625 L 1 205.640625 Z M 1 1"/></clipPath><clipPath id="E"><path d="M0 0H206V206H0z"/></clipPath><clipPath id="I"><path d="M 1 1 L 205.480469 1 L 205.480469 205.160156 L 1 205.160156 Z M 1 1"/></clipPath><clipPath id="H"><path d="M0 0H206V206H0z"/></clipPath><clipPath id="L"><path d="M 1 1 L 205.238281 1 L 205.238281 205.160156 L 1 205.160156 Z M 1 1"/></clipPath><clipPath id="K"><path d="M0 0H206V206H0z"/></clipPath><clipPath id="Y"><path d="M 665 410.355469 L 676 410.355469 L 676 421 L 665 421 Z M 665 410.355469"/></clipPath><clipPath id="Z"><path d="M 659.234375 421 L 681.734375 421 L 681.734375 470 L 659.234375 470 Z M 659.234375 421"/></clipPath><clipPath id="aa"><path d="M 728 410.355469 L 739 410.355469 L 739 421 L 728 421 Z M 728 410.355469"/></clipPath><clipPath id="ab"><path d="M 719.210938 421 L 747 421 L 747 470 L 719.210938 470 Z M 719.210938 421"/></clipPath><clipPath id="ag"><path d="M 676 793.296875 L 692 793.296875 L 692 809 L 676 809 Z M 676 793.296875"/></clipPath><clipPath id="ah"><path d="M 666.570312 809 L 701.070312 809 L 701.070312 883 L 666.570312 883 Z M 666.570312 809"/></clipPath><clipPath id="ai"><path d="M 772 793.296875 L 787 793.296875 L 787 808 L 772 808 Z M 772 793.296875"/></clipPath><clipPath id="ap"><path d="M 0.640625 0.878906 L 45.761719 0.878906 L 45.761719 48.640625 L 0.640625 48.640625 Z M 0.640625 0.878906"/></clipPath><clipPath id="ao"><path d="M0 0H46V49H0z"/></clipPath><clipPath id="aq"><path d="M 461 614.21875 L 472 614.21875 L 472 625 L 461 625 Z M 461 614.21875"/></clipPath><clipPath id="ar"><path d="M 455.371094 625 L 477.871094 625 L 477.871094 674 L 455.371094 674 Z M 455.371094 625"/></clipPath><clipPath id="as"><path d="M 524 614.21875 L 535 614.21875 L 535 624 L 524 624 Z M 524 614.21875"/></clipPath><clipPath id="at"><path d="M 516 625 L 543.847656 625 L 543.847656 674 L 516 674 Z M 516 625"/></clipPath><mask id="b"><g filter="url(#a)"><path fill-opacity=".427" d="M-144 -97.5H1584V1072.5H-144z"/></g></mask><mask id="e"><g filter="url(#a)"><path fill-opacity=".4" d="M-144 -97.5H1584V1072.5H-144z"/></g></mask><mask id="k"><g filter="url(#a)"><path fill-opacity=".388" d="M-144 -97.5H1584V1072.5H-144z"/></g></mask><mask id="D"><g filter="url(#a)"><path fill-opacity=".388" d="M-144 -97.5H1584V1072.5H-144z"/></g></mask><mask id="G"><g filter="url(#a)"><path fill-opacity=".388" d="M-144 -97.5H1584V1072.5H-144z"/></g></mask><mask id="J"><g filter="url(#a)"><path fill-opacity=".388" d="M-144 -97.5H1584V1072.5H-144z"/></g></mask><mask id="an"><g filter="url(#a)"><path fill-opacity=".427" d="M-144 -97.5H1584V1072.5H-144z"/></g></mask><filter x="0%" y="0%" width="100%" xmlns:xlink="http://www.w3.org/1999/xlink" xlink:type="simple" xlink:actuate="onLoad" height="100%" id="a" xlink:show="other"><feColorMatrix values="0 0 0 0 1 0 0 0 0 1 0 0 0 0 1 0 0 0 1 0" color-interpolation-filters="sRGB"/></filter></defs><g mask="url(#b)"><g><g clip-path="url(#c)" transform="translate(330 253)"><g clip-path="url(#d)"><path fill="#F03612" d="M 269.019531 539.863281 C 197.195312 539.863281 129.5625 511.910156 78.8125 461.050781 C 27.957031 410.300781 0 342.671875 0 270.847656 C 0 199.023438 27.957031 131.390625 78.8125 80.640625 C 129.5625 29.785156 197.195312 1.828125 269.019531 1.828125 C 340.839844 1.828125 408.472656 29.785156 459.222656 80.640625 C 510.078125 131.5 538.035156 199.023438 538.035156 270.847656 C 538.035156 342.671875 510.078125 410.300781 459.222656 461.050781 C 408.472656 511.910156 340.839844 539.863281 269.019531 539.863281 Z M 269.019531 17.957031 C 201.496094 17.957031 137.949219 44.300781 90.210938 92.039062 C 42.472656 139.777344 16.128906 203.324219 16.128906 270.847656 C 16.128906 338.371094 42.472656 401.914062 90.210938 449.65625 C 137.949219 497.394531 201.496094 523.738281 269.019531 523.738281 C 336.539062 523.738281 400.085938 497.394531 447.824219 449.65625 C 495.566406 401.914062 521.90625 338.371094 521.90625 270.847656 C 521.90625 203.324219 495.566406 139.777344 447.824219 92.039062 C 400.085938 44.300781 336.539062 17.957031 269.019531 17.957031 Z M 269.019531 17.957031"/></g></g></g></g><g mask="url(#e)"><g><g clip-path="url(#f)" transform="translate(230)"><g clip-path="url(#g)"><path fill="#F00" d="M 490 0 C 220.761719 0 2.5 218.261719 2.5 487.5 C 2.5 756.738281 220.761719 975 490 975 C 759.238281 975 977.5 756.738281 977.5 487.5 C 977.5 218.261719 759.238281 0 490 0 Z M 490 0"/></g></g></g></g><g clip-path="url(#h)"><path fill="#FFFDFD" d="M 941.144531 414.535156 C 947.066406 414.535156 951.871094 409.746094 951.871094 403.835938 C 951.871094 397.929688 947.066406 393.140625 941.144531 393.140625 C 935.21875 393.140625 930.414062 397.929688 930.414062 403.835938 C 930.414062 409.746094 935.21875 414.535156 941.144531 414.535156"/></g><g clip-path="url(#i)"><path fill="#FFFDFD" d="M 929.664062 416.898438 C 922.066406 416.898438 915.957031 423.078125 915.957031 430.78125 L 915.957031 463.625 C 915.957031 470.011719 925.328125 470.011719 925.328125 463.625 L 925.328125 433.59375 L 927.546875 433.59375 L 927.546875 515.824219 C 927.546875 524.359375 940.027344 524.109375 940.027344 515.824219 L 940.027344 468.089844 L 942.175781 468.089844 L 942.175781 515.824219 C 942.175781 524.109375 954.722656 524.359375 954.722656 515.824219 L 954.722656 433.59375 L 956.890625 433.59375 L 956.890625 463.625 C 956.890625 470.0625 966.210938 470.058594 966.195312 463.625 L 966.195312 430.980469 C 966.195312 423.871094 960.664062 416.914062 952.320312 416.914062 L 929.664062 416.898438"/></g><g clip-path="url(#j)"><path fill="#FFFDFD" d="M 1078.65625 414.296875 C 1084.46875 414.277344 1089.15625 409.558594 1089.140625 403.738281 C 1089.15625 397.917969 1084.46875 393.199219 1078.65625 393.183594 C 1072.902344 393.199219 1068.214844 397.917969 1068.230469 403.738281 C 1068.214844 409.558594 1072.902344 414.277344 1078.65625 414.296875"/></g><path fill="#FFFDFD" d="M 1077.148438 481.175781 L 1077.148438 517.648438 C 1077.140625 524.285156 1067.269531 524.285156 1067.289062 517.648438 L 1067.289062 481.425781 L 1053.976562 481.425781 L 1068.167969 431.867188 L 1065.972656 431.867188 L 1057.746094 459.808594 C 1055.773438 465.914062 1047.464844 463.410156 1049.394531 456.902344 L 1058.5 426.558594 C 1059.5 423.089844 1063.847656 416.953125 1071.371094 416.949219 L 1085.75 416.949219 C 1093.230469 416.953125 1097.597656 423.140625 1098.75 426.558594 L 1107.855469 456.835938 C 1109.714844 463.378906 1101.472656 466.078125 1099.503906 459.746094 L 1091.277344 431.867188 L 1088.890625 431.867188 L 1103.144531 481.425781 L 1089.894531 481.425781 L 1089.894531 517.710938 C 1089.894531 524.285156 1080.0625 524.253906 1080.039062 517.710938 L 1080.039062 481.175781 L 1077.148438 481.175781"/><g mask="url(#k)"><g><g clip-path="url(#l)" transform="translate(394 319)"><g clip-path="url(#m)"><path fill="#FFFDFD" d="M 103.371094 1.199219 C 47.035156 1.199219 1.371094 46.867188 1.371094 103.199219 C 1.371094 159.53125 47.035156 205.199219 103.371094 205.199219 C 159.703125 205.199219 205.371094 159.53125 205.371094 103.199219 C 205.371094 46.867188 159.703125 1.199219 103.371094 1.199219 Z M 103.371094 1.199219"/></g></g></g></g><g fill="#FFF"><use x="904.742" y="575.083" xmlns:xlink="http://www.w3.org/1999/xlink" xlink:href="#n" xlink:type="simple" xlink:actuate="onLoad" xlink:show="embed"/></g><g fill="#FFF"><use x="927.489" y="575.083" xmlns:xlink="http://www.w3.org/1999/xlink" xlink:href="#o" xlink:type="simple" xlink:actuate="onLoad" xlink:show="embed"/></g><g fill="#FFF"><use x="950.236" y="575.083" xmlns:xlink="http://www.w3.org/1999/xlink" xlink:href="#p" xlink:type="simple" xlink:actuate="onLoad" xlink:show="embed"/></g><g fill="#FFF"><use x="1042.521" y="575.083" xmlns:xlink="http://www.w3.org/1999/xlink" xlink:href="#n" xlink:type="simple" xlink:actuate="onLoad" xlink:show="embed"/></g><g fill="#FFF"><use x="1065.268" y="575.083" xmlns:xlink="http://www.w3.org/1999/xlink" xlink:href="#q" xlink:type="simple" xlink:actuate="onLoad" xlink:show="embed"/></g><g fill="#FFF"><use x="1088.015" y="575.083" xmlns:xlink="http://www.w3.org/1999/xlink" xlink:href="#p" xlink:type="simple" xlink:actuate="onLoad" xlink:show="embed"/></g><g fill="#FFF"><use x="423.794" y="180.831" xmlns:xlink="http://www.w3.org/1999/xlink" xlink:href="#r" xlink:type="simple" xlink:actuate="onLoad" xlink:show="embed"/></g><g fill="#FFF"><use x="463.05" y="180.831" xmlns:xlink="http://www.w3.org/1999/xlink" xlink:href="#s" xlink:type="simple" xlink:actuate="onLoad" xlink:show="embed"/></g><g fill="#FFF"><use x="495.911" y="180.831" xmlns:xlink="http://www.w3.org/1999/xlink" xlink:href="#t" xlink:type="simple" xlink:actuate="onLoad" xlink:show="embed"/></g><g fill="#FFF"><use x="535.583" y="180.831" xmlns:xlink="http://www.w3.org/1999/xlink" xlink:href="#s" xlink:type="simple" xlink:actuate="onLoad" xlink:show="embed"/></g><g fill="#FFF"><use x="568.444" y="180.831" xmlns:xlink="http://www.w3.org/1999/xlink" xlink:href="#u" xlink:type="simple" xlink:actuate="onLoad" xlink:show="embed"/></g><g fill="#FFF"><use x="602.969" y="180.831" xmlns:xlink="http://www.w3.org/1999/xlink" xlink:href="#v" xlink:type="simple" xlink:actuate="onLoad" xlink:show="embed"/></g><g fill="#FFF"><use x="638.534" y="180.831" xmlns:xlink="http://www.w3.org/1999/xlink" xlink:href="#w" xlink:type="simple" xlink:actuate="onLoad" xlink:show="embed"/></g><g fill="#FFF"><use x="670.771" y="180.831" xmlns:xlink="http://www.w3.org/1999/xlink" xlink:href="#x" xlink:type="simple" xlink:actuate="onLoad" xlink:show="embed"/></g><g fill="#FFF"><use x="684.342" y="180.831" xmlns:xlink="http://www.w3.org/1999/xlink" xlink:href="#y" xlink:type="simple" xlink:actuate="onLoad" xlink:show="embed"/></g><g fill="#FFF"><use x="717.775" y="180.831" xmlns:xlink="http://www.w3.org/1999/xlink" xlink:href="#z" xlink:type="simple" xlink:actuate="onLoad" xlink:show="embed"/></g><g fill="#FFF"><use x="758.435" y="180.831" xmlns:xlink="http://www.w3.org/1999/xlink" xlink:href="#y" xlink:type="simple" xlink:actuate="onLoad" xlink:show="embed"/></g><g fill="#FFF"><use x="791.868" y="180.831" xmlns:xlink="http://www.w3.org/1999/xlink" xlink:href="#A" xlink:type="simple" xlink:actuate="onLoad" xlink:show="embed"/></g><g fill="#FFF"><use x="829.669" y="180.831" xmlns:xlink="http://www.w3.org/1999/xlink" xlink:href="#w" xlink:type="simple" xlink:actuate="onLoad" xlink:show="embed"/></g><g fill="#FFF"><use x="861.906" y="180.831" xmlns:xlink="http://www.w3.org/1999/xlink" xlink:href="#v" xlink:type="simple" xlink:actuate="onLoad" xlink:show="embed"/></g><g fill="#FFF"><use x="897.471" y="180.831" xmlns:xlink="http://www.w3.org/1999/xlink" xlink:href="#B" xlink:type="simple" xlink:actuate="onLoad" xlink:show="embed"/></g><g fill="#FFF"><use x="931.632" y="180.831" xmlns:xlink="http://www.w3.org/1999/xlink" xlink:href="#C" xlink:type="simple" xlink:actuate="onLoad" xlink:show="embed"/></g><g fill="#FFF"><use x="947.698" y="180.831" xmlns:xlink="http://www.w3.org/1999/xlink" xlink:href="#z" xlink:type="simple" xlink:actuate="onLoad" xlink:show="embed"/></g><g fill="#FFF"><use x="988.359" y="180.831" xmlns:xlink="http://www.w3.org/1999/xlink" xlink:href="#t" xlink:type="simple" xlink:actuate="onLoad" xlink:show="embed"/></g><g mask="url(#D)"><g><g clip-path="url(#E)" transform="translate(599 313)"><g clip-path="url(#F)"><path fill="#FFFDFD" d="M 103.121094 1.4375 C 46.785156 1.4375 1.121094 47.105469 1.121094 103.4375 C 1.121094 159.769531 46.785156 205.4375 103.121094 205.4375 C 159.453125 205.4375 205.121094 159.769531 205.121094 103.4375 C 205.121094 47.105469 159.453125 1.4375 103.121094 1.4375 Z M 103.121094 1.4375"/></g></g></g></g><g mask="url(#G)"><g><g clip-path="url(#H)" transform="translate(395 523)"><g clip-path="url(#I)"><path fill="#FFFDFD" d="M 103.253906 1.0625 C 46.921875 1.0625 1.253906 46.730469 1.253906 103.0625 C 1.253906 159.394531 46.921875 205.0625 103.253906 205.0625 C 159.589844 205.0625 205.253906 159.394531 205.253906 103.0625 C 205.253906 46.730469 159.589844 1.0625 103.253906 1.0625 Z M 103.253906 1.0625"/></g></g></g></g><g mask="url(#J)"><g><g clip-path="url(#K)" transform="translate(599 523)"><g clip-path="url(#L)"><path fill="#FFFDFD" d="M 103.121094 1.0625 C 46.785156 1.0625 1.121094 46.730469 1.121094 103.0625 C 1.121094 159.394531 46.785156 205.0625 103.121094 205.0625 C 159.453125 205.0625 205.121094 159.394531 205.121094 103.0625 C 205.121094 46.730469 159.453125 1.0625 103.121094 1.0625 Z M 103.121094 1.0625"/></g></g></g></g><g fill="#FFF"><use x="448.762" y="382.302" xmlns:xlink="http://www.w3.org/1999/xlink" xlink:href="#M" xlink:type="simple" xlink:actuate="onLoad" xlink:show="embed"/></g><g fill="#FFF"><use x="467.435" y="382.302" xmlns:xlink="http://www.w3.org/1999/xlink" xlink:href="#N" xlink:type="simple" xlink:actuate="onLoad" xlink:show="embed"/></g><g fill="#FFF"><use x="485.562" y="382.302" xmlns:xlink="http://www.w3.org/1999/xlink" xlink:href="#O" xlink:type="simple" xlink:actuate="onLoad" xlink:show="embed"/></g><g fill="#FFF"><use x="503.498" y="382.302" xmlns:xlink="http://www.w3.org/1999/xlink" xlink:href="#P" xlink:type="simple" xlink:actuate="onLoad" xlink:show="embed"/></g><g fill="#FFF"><use x="511.934" y="382.302" xmlns:xlink="http://www.w3.org/1999/xlink" xlink:href="#Q" xlink:type="simple" xlink:actuate="onLoad" xlink:show="embed"/></g><g fill="#FFF"><use x="529.133" y="382.302" xmlns:xlink="http://www.w3.org/1999/xlink" xlink:href="#O" xlink:type="simple" xlink:actuate="onLoad" xlink:show="embed"/></g><g fill="#FFF"><use x="418.472" y="592.926" xmlns:xlink="http://www.w3.org/1999/xlink" xlink:href="#R" xlink:type="simple" xlink:actuate="onLoad" xlink:show="embed"/></g><g fill="#FFF"><use x="436.026" y="592.926" xmlns:xlink="http://www.w3.org/1999/xlink" xlink:href="#S" xlink:type="simple" xlink:actuate="onLoad" xlink:show="embed"/></g><g fill="#FFF"><use x="457.374" y="592.926" xmlns:xlink="http://www.w3.org/1999/xlink" xlink:href="#T" xlink:type="simple" xlink:actuate="onLoad" xlink:show="embed"/></g><g fill="#FFF"><use x="474.3" y="592.926" xmlns:xlink="http://www.w3.org/1999/xlink" xlink:href="#P" xlink:type="simple" xlink:actuate="onLoad" xlink:show="embed"/></g><g fill="#FFF"><use x="482.736" y="592.926" xmlns:xlink="http://www.w3.org/1999/xlink" xlink:href="#O" xlink:type="simple" xlink:actuate="onLoad" xlink:show="embed"/></g><g fill="#FFF"><use x="500.672" y="592.926" xmlns:xlink="http://www.w3.org/1999/xlink" xlink:href="#P" xlink:type="simple" xlink:actuate="onLoad" xlink:show="embed"/></g><g fill="#FFF"><use x="509.108" y="592.926" xmlns:xlink="http://www.w3.org/1999/xlink" xlink:href="#U" xlink:type="simple" xlink:actuate="onLoad" xlink:show="embed"/></g><g fill="#FFF"><use x="529.419" y="592.926" xmlns:xlink="http://www.w3.org/1999/xlink" xlink:href="#P" xlink:type="simple" xlink:actuate="onLoad" xlink:show="embed"/></g><g fill="#FFF"><use x="537.855" y="592.926" xmlns:xlink="http://www.w3.org/1999/xlink" xlink:href="#M" xlink:type="simple" xlink:actuate="onLoad" xlink:show="embed"/></g><g fill="#FFF"><use x="556.528" y="592.926" xmlns:xlink="http://www.w3.org/1999/xlink" xlink:href="#V" xlink:type="simple" xlink:actuate="onLoad" xlink:show="embed"/></g><g fill="#FFF"><use x="629.895" y="382.302" xmlns:xlink="http://www.w3.org/1999/xlink" xlink:href="#Q" xlink:type="simple" xlink:actuate="onLoad" xlink:show="embed"/></g><g fill="#FFF"><use x="647.094" y="382.302" xmlns:xlink="http://www.w3.org/1999/xlink" xlink:href="#U" xlink:type="simple" xlink:actuate="onLoad" xlink:show="embed"/></g><g fill="#FFF"><use x="667.405" y="382.302" xmlns:xlink="http://www.w3.org/1999/xlink" xlink:href="#P" xlink:type="simple" xlink:actuate="onLoad" xlink:show="embed"/></g><g fill="#FFF"><use x="675.84" y="382.302" xmlns:xlink="http://www.w3.org/1999/xlink" xlink:href="#W" xlink:type="simple" xlink:actuate="onLoad" xlink:show="embed"/></g><g fill="#FFF"><use x="693.094" y="382.302" xmlns:xlink="http://www.w3.org/1999/xlink" xlink:href="#V" xlink:type="simple" xlink:actuate="onLoad" xlink:show="embed"/></g><g fill="#FFF"><use x="713.924" y="382.302" xmlns:xlink="http://www.w3.org/1999/xlink" xlink:href="#O" xlink:type="simple" xlink:actuate="onLoad" xlink:show="embed"/></g><g fill="#FFF"><use x="731.86" y="382.302" xmlns:xlink="http://www.w3.org/1999/xlink" xlink:href="#P" xlink:type="simple" xlink:actuate="onLoad" xlink:show="embed"/></g><g fill="#FFF"><use x="740.296" y="382.302" xmlns:xlink="http://www.w3.org/1999/xlink" xlink:href="#Q" xlink:type="simple" xlink:actuate="onLoad" xlink:show="embed"/></g><g fill="#FFF"><use x="757.495" y="382.302" xmlns:xlink="http://www.w3.org/1999/xlink" xlink:href="#O" xlink:type="simple" xlink:actuate="onLoad" xlink:show="embed"/></g><g fill="#FFF"><use x="617.897" y="593.868" xmlns:xlink="http://www.w3.org/1999/xlink" xlink:href="#W" xlink:type="simple" xlink:actuate="onLoad" xlink:show="embed"/></g><g fill="#FFF"><use x="635.151" y="593.868" xmlns:xlink="http://www.w3.org/1999/xlink" xlink:href="#U" xlink:type="simple" xlink:actuate="onLoad" xlink:show="embed"/></g><g fill="#FFF"><use x="655.462" y="593.868" xmlns:xlink="http://www.w3.org/1999/xlink" xlink:href="#S" xlink:type="simple" xlink:actuate="onLoad" xlink:show="embed"/></g><g fill="#FFF"><use x="676.811" y="593.868" xmlns:xlink="http://www.w3.org/1999/xlink" xlink:href="#V" xlink:type="simple" xlink:actuate="onLoad" xlink:show="embed"/></g><g fill="#FFF"><use x="697.641" y="593.868" xmlns:xlink="http://www.w3.org/1999/xlink" xlink:href="#S" xlink:type="simple" xlink:actuate="onLoad" xlink:show="embed"/></g><g fill="#FFF"><use x="718.989" y="593.868" xmlns:xlink="http://www.w3.org/1999/xlink" xlink:href="#X" xlink:type="simple" xlink:actuate="onLoad" xlink:show="embed"/></g><g fill="#FFF"><use x="743.86" y="593.868" xmlns:xlink="http://www.w3.org/1999/xlink" xlink:href="#P" xlink:type="simple" xlink:actuate="onLoad" xlink:show="embed"/></g><g fill="#FFF"><use x="752.295" y="593.868" xmlns:xlink="http://www.w3.org/1999/xlink" xlink:href="#Q" xlink:type="simple" xlink:actuate="onLoad" xlink:show="embed"/></g><g fill="#FFF"><use x="769.494" y="593.868" xmlns:xlink="http://www.w3.org/1999/xlink" xlink:href="#O" xlink:type="simple" xlink:actuate="onLoad" xlink:show="embed"/></g><g clip-path="url(#Y)"><path fill="#FFFDFD" d="M 670.511719 420.148438 C 673.164062 420.148438 675.316406 417.957031 675.316406 415.257812 C 675.316406 412.558594 673.164062 410.367188 670.511719 410.367188 C 667.859375 410.367188 665.707031 412.558594 665.707031 415.257812 C 665.707031 417.957031 667.859375 420.148438 670.511719 420.148438"/></g><g clip-path="url(#Z)"><path fill="#FFFDFD" d="M 665.371094 421.230469 C 661.96875 421.230469 659.234375 424.054688 659.234375 427.574219 L 659.234375 442.589844 C 659.234375 445.507812 663.429688 445.507812 663.429688 442.589844 L 663.429688 428.859375 L 664.425781 428.859375 L 664.425781 466.449219 C 664.425781 470.351562 670.011719 470.234375 670.011719 466.449219 L 670.011719 444.628906 L 670.972656 444.628906 L 670.972656 466.449219 C 670.972656 470.234375 676.59375 470.351562 676.59375 466.449219 L 676.59375 428.859375 L 677.5625 428.859375 L 677.5625 442.589844 C 677.5625 445.53125 681.738281 445.53125 681.730469 442.589844 L 681.730469 427.664062 C 681.730469 424.417969 679.25 421.234375 675.515625 421.234375 L 665.371094 421.230469"/></g><g clip-path="url(#aa)"><path fill="#FFFDFD" d="M 733.484375 420.035156 C 736.148438 420.027344 738.292969 417.867188 738.289062 415.207031 C 738.292969 412.546875 736.148438 410.386719 733.484375 410.378906 C 730.851562 410.386719 728.707031 412.546875 728.714844 415.207031 C 728.707031 417.867188 730.851562 420.027344 733.484375 420.035156"/></g><g clip-path="url(#ab)"><path fill="#FFFDFD" d="M 732.796875 450.613281 L 732.796875 467.289062 C 732.792969 470.324219 728.273438 470.324219 728.28125 467.289062 L 728.28125 450.726562 L 722.1875 450.726562 L 728.683594 428.070312 L 727.679688 428.070312 L 723.914062 440.84375 C 723.007812 443.632812 719.207031 442.492188 720.089844 439.515625 L 724.257812 425.640625 C 724.714844 424.054688 726.707031 421.25 730.152344 421.246094 L 736.734375 421.246094 C 740.160156 421.25 742.160156 424.078125 742.6875 425.640625 L 746.855469 439.484375 C 747.707031 442.476562 743.933594 443.710938 743.03125 440.816406 L 739.265625 428.070312 L 738.171875 428.070312 L 744.699219 450.726562 L 738.632812 450.726562 L 738.632812 467.316406 C 738.632812 470.324219 734.132812 470.308594 734.117188 467.316406 L 734.117188 450.613281 L 732.796875 450.613281"/></g><g fill="#FFF"><use x="654.369" y="493.338" xmlns:xlink="http://www.w3.org/1999/xlink" xlink:href="#ac" xlink:type="simple" xlink:actuate="onLoad" xlink:show="embed"/></g><g fill="#FFF"><use x="664.493" y="493.338" xmlns:xlink="http://www.w3.org/1999/xlink" xlink:href="#ad" xlink:type="simple" xlink:actuate="onLoad" xlink:show="embed"/></g><g fill="#FFF"><use x="674.618" y="493.338" xmlns:xlink="http://www.w3.org/1999/xlink" xlink:href="#ae" xlink:type="simple" xlink:actuate="onLoad" xlink:show="embed"/></g><g fill="#FFF"><use x="717.2" y="493.338" xmlns:xlink="http://www.w3.org/1999/xlink" xlink:href="#ac" xlink:type="simple" xlink:actuate="onLoad" xlink:show="embed"/></g><g fill="#FFF"><use x="727.325" y="493.338" xmlns:xlink="http://www.w3.org/1999/xlink" xlink:href="#af" xlink:type="simple" xlink:actuate="onLoad" xlink:show="embed"/></g><g fill="#FFF"><use x="737.449" y="493.338" xmlns:xlink="http://www.w3.org/1999/xlink" xlink:href="#ae" xlink:type="simple" xlink:actuate="onLoad" xlink:show="embed"/></g><g clip-path="url(#ag)"><path fill="#FFFDFD" d="M 683.859375 808.105469 C 687.925781 808.105469 691.222656 804.792969 691.222656 800.707031 C 691.222656 796.625 687.925781 793.3125 683.859375 793.3125 C 679.792969 793.3125 676.492188 796.625 676.492188 800.707031 C 676.492188 804.792969 679.792969 808.105469 683.859375 808.105469"/></g><g clip-path="url(#ah)"><path fill="#FFFDFD" d="M 675.976562 809.738281 C 670.761719 809.738281 666.566406 814.011719 666.566406 819.339844 L 666.566406 842.050781 C 666.566406 846.464844 673 846.464844 673 842.050781 L 673 821.285156 L 674.523438 821.285156 L 674.523438 878.140625 C 674.523438 884.042969 683.09375 883.871094 683.09375 878.140625 L 683.09375 845.132812 L 684.566406 845.132812 L 684.566406 878.140625 C 684.566406 883.871094 693.183594 884.042969 693.183594 878.140625 L 693.183594 821.285156 L 694.671875 821.285156 L 694.671875 842.050781 C 694.671875 846.5 701.070312 846.5 701.058594 842.050781 L 701.058594 819.476562 C 701.058594 814.5625 697.261719 809.75 691.535156 809.75 L 675.976562 809.738281"/></g><g clip-path="url(#ai)"><path fill="#FFFDFD" d="M 779.464844 807.9375 C 783.527344 807.925781 786.800781 804.660156 786.792969 800.636719 C 786.800781 796.609375 783.527344 793.347656 779.464844 793.335938 C 775.445312 793.347656 772.167969 796.609375 772.179688 800.636719 C 772.167969 804.660156 775.445312 807.925781 779.464844 807.9375"/></g><path fill="#FFFDFD" d="M 778.410156 854.183594 L 778.410156 879.40625 C 778.40625 883.996094 771.507812 883.996094 771.523438 879.40625 L 771.523438 854.359375 L 762.21875 854.359375 L 772.136719 820.089844 L 770.601562 820.089844 L 764.851562 839.410156 C 763.472656 843.632812 757.667969 841.902344 759.015625 837.398438 L 765.378906 816.417969 C 766.078125 814.015625 769.117188 809.777344 774.375 809.773438 L 784.421875 809.773438 C 789.648438 809.777344 792.703125 814.054688 793.507812 816.417969 L 799.871094 837.355469 C 801.167969 841.878906 795.410156 843.746094 794.03125 839.367188 L 788.285156 820.089844 L 786.617188 820.089844 L 796.578125 854.359375 L 787.320312 854.359375 L 787.320312 879.453125 C 787.320312 883.996094 780.449219 883.976562 780.429688 879.453125 L 780.429688 854.183594 L 778.410156 854.183594"/><g fill="#FFF"><use x="658.798" y="919.354" xmlns:xlink="http://www.w3.org/1999/xlink" xlink:href="#aj" xlink:type="simple" xlink:actuate="onLoad" xlink:show="embed"/></g><g fill="#FFF"><use x="674.556" y="919.354" xmlns:xlink="http://www.w3.org/1999/xlink" xlink:href="#ak" xlink:type="simple" xlink:actuate="onLoad" xlink:show="embed"/></g><g fill="#FFF"><use x="690.314" y="919.354" xmlns:xlink="http://www.w3.org/1999/xlink" xlink:href="#al" xlink:type="simple" xlink:actuate="onLoad" xlink:show="embed"/></g><g fill="#FFF"><use x="754.244" y="919.354" xmlns:xlink="http://www.w3.org/1999/xlink" xlink:href="#aj" xlink:type="simple" xlink:actuate="onLoad" xlink:show="embed"/></g><g fill="#FFF"><use x="770.002" y="919.354" xmlns:xlink="http://www.w3.org/1999/xlink" xlink:href="#am" xlink:type="simple" xlink:actuate="onLoad" xlink:show="embed"/></g><g fill="#FFF"><use x="785.76" y="919.354" xmlns:xlink="http://www.w3.org/1999/xlink" xlink:href="#al" xlink:type="simple" xlink:actuate="onLoad" xlink:show="embed"/></g><g mask="url(#an)"><g><g clip-path="url(#ao)" transform="translate(698 752)"><g clip-path="url(#ap)"><path stroke-linecap="round" transform="matrix(-3.56172 -6.59707 6.7688 -3.65444 32.038 41.205)" fill="none" d="M 3.000003 -0.000121305 L 3.601464 0.000116569" stroke="#F03612"/></g><path stroke-linecap="round" transform="matrix(-3.56172 -6.59707 6.7688 -3.65444 32.038 41.205)" fill="#F03612" stroke-linejoin="round" d="M 2.499799 -1.500044 L 0.499936 0.000132232 L 2.500088 1.499854 Z M 2.499799 -1.500044" stroke="#F03612"/></g></g></g><g clip-path="url(#aq)"><path fill="#FFFDFD" d="M 466.648438 624.011719 C 469.300781 624.011719 471.453125 621.824219 471.453125 619.121094 C 471.453125 616.421875 469.300781 614.230469 466.648438 614.230469 C 463.996094 614.230469 461.84375 616.421875 461.84375 619.121094 C 461.84375 621.824219 463.996094 624.011719 466.648438 624.011719"/></g><g clip-path="url(#ar)"><path fill="#FFFDFD" d="M 461.507812 625.09375 C 458.105469 625.09375 455.371094 627.917969 455.371094 631.4375 L 455.371094 646.453125 C 455.371094 649.371094 459.566406 649.371094 459.566406 646.453125 L 459.566406 632.722656 L 460.558594 632.722656 L 460.558594 670.3125 C 460.558594 674.214844 466.148438 674.097656 466.148438 670.3125 L 466.148438 648.492188 L 467.109375 648.492188 L 467.109375 670.3125 C 467.109375 674.097656 472.730469 674.214844 472.730469 670.3125 L 472.730469 632.722656 L 473.699219 632.722656 L 473.699219 646.453125 C 473.699219 649.394531 477.875 649.394531 477.867188 646.453125 L 477.867188 631.527344 C 477.867188 628.28125 475.386719 625.097656 471.652344 625.097656 L 461.507812 625.09375"/></g><g clip-path="url(#as)"><path fill="#FFFDFD" d="M 529.621094 623.898438 C 532.285156 623.890625 534.429688 621.730469 534.421875 619.070312 C 534.429688 616.410156 532.285156 614.25 529.621094 614.246094 C 526.988281 614.25 524.84375 616.410156 524.851562 619.070312 C 524.84375 621.730469 526.988281 623.890625 529.621094 623.898438"/></g><g clip-path="url(#at)"><path fill="#FFFDFD" d="M 528.933594 654.476562 L 528.933594 671.152344 C 528.929688 674.1875 524.410156 674.1875 524.417969 671.152344 L 524.417969 654.589844 L 518.324219 654.589844 L 524.820312 631.933594 L 523.816406 631.933594 L 520.050781 644.707031 C 519.144531 647.496094 515.34375 646.355469 516.226562 643.378906 L 520.394531 629.503906 C 520.851562 627.917969 522.84375 625.113281 526.289062 625.113281 L 532.871094 625.113281 C 536.296875 625.113281 538.292969 627.941406 538.820312 629.503906 L 542.992188 643.347656 C 543.84375 646.339844 540.070312 647.574219 539.167969 644.679688 L 535.402344 631.933594 L 534.308594 631.933594 L 540.835938 654.589844 L 534.769531 654.589844 L 534.769531 671.179688 C 534.769531 674.1875 530.265625 674.171875 530.253906 671.179688 L 530.253906 654.476562 L 528.933594 654.476562"/></g><g fill="#FFF"><use x="450.505" y="697.202" xmlns:xlink="http://www.w3.org/1999/xlink" xlink:href="#ac" xlink:type="simple" xlink:actuate="onLoad" xlink:show="embed"/></g><g fill="#FFF"><use x="460.63" y="697.202" xmlns:xlink="http://www.w3.org/1999/xlink" xlink:href="#au" xlink:type="simple" xlink:actuate="onLoad" xlink:show="embed"/></g><g fill="#FFF"><use x="470.754" y="697.202" xmlns:xlink="http://www.w3.org/1999/xlink" xlink:href="#ae" xlink:type="simple" xlink:actuate="onLoad" xlink:show="embed"/></g><g fill="#FFF"><use x="513.357" y="697.189" xmlns:xlink="http://www.w3.org/1999/xlink" xlink:href="#av" xlink:type="simple" xlink:actuate="onLoad" xlink:show="embed"/></g><g fill="#FFF"><use x="523.482" y="697.189" xmlns:xlink="http://www.w3.org/1999/xlink" xlink:href="#aw" xlink:type="simple" xlink:actuate="onLoad" xlink:show="embed"/></g><g fill="#FFF"><use x="533.607" y="697.189" xmlns:xlink="http://www.w3.org/1999/xlink" xlink:href="#ax" xlink:type="simple" xlink:actuate="onLoad" xlink:show="embed"/></g><g fill="#FFF"><use x="627.176" y="646.816" xmlns:xlink="http://www.w3.org/1999/xlink" xlink:href="#ay" xlink:type="simple" xlink:actuate="onLoad" xlink:show="embed"/></g><g fill="#FFF"><use x="643.043" y="646.816" xmlns:xlink="http://www.w3.org/1999/xlink" xlink:href="#az" xlink:type="simple" xlink:actuate="onLoad" xlink:show="embed"/></g><g fill="#FFF"><use x="656.164" y="646.816" xmlns:xlink="http://www.w3.org/1999/xlink" xlink:href="#aA" xlink:type="simple" xlink:actuate="onLoad" xlink:show="embed"/></g><g fill="#FFF"><use x="663.609" y="646.816" xmlns:xlink="http://www.w3.org/1999/xlink" xlink:href="#aB" xlink:type="simple" xlink:actuate="onLoad" xlink:show="embed"/></g><g fill="#FFF"><use x="669.037" y="646.816" xmlns:xlink="http://www.w3.org/1999/xlink" xlink:href="#aC" xlink:type="simple" xlink:actuate="onLoad" xlink:show="embed"/></g><g fill="#FFF"><use x="679.518" y="646.816" xmlns:xlink="http://www.w3.org/1999/xlink" xlink:href="#aA" xlink:type="simple" xlink:actuate="onLoad" xlink:show="embed"/></g><g fill="#FFF"><use x="686.963" y="646.816" xmlns:xlink="http://www.w3.org/1999/xlink" xlink:href="#aD" xlink:type="simple" xlink:actuate="onLoad" xlink:show="embed"/></g><g fill="#FFF"><use x="698.941" y="646.816" xmlns:xlink="http://www.w3.org/1999/xlink" xlink:href="#aA" xlink:type="simple" xlink:actuate="onLoad" xlink:show="embed"/></g><g fill="#FFF"><use x="706.385" y="646.816" xmlns:xlink="http://www.w3.org/1999/xlink" xlink:href="#aE" xlink:type="simple" xlink:actuate="onLoad" xlink:show="embed"/></g><g fill="#FFF"><use x="712.271" y="646.816" xmlns:xlink="http://www.w3.org/1999/xlink" xlink:href="#aC" xlink:type="simple" xlink:actuate="onLoad" xlink:show="embed"/></g><g fill="#FFF"><use x="722.751" y="646.816" xmlns:xlink="http://www.w3.org/1999/xlink" xlink:href="#aA" xlink:type="simple" xlink:actuate="onLoad" xlink:show="embed"/></g><g fill="#FFF"><use x="730.196" y="646.816" xmlns:xlink="http://www.w3.org/1999/xlink" xlink:href="#aF" xlink:type="simple" xlink:actuate="onLoad" xlink:show="embed"/></g><g fill="#FFF"><use x="742.133" y="646.816" xmlns:xlink="http://www.w3.org/1999/xlink" xlink:href="#aD" xlink:type="simple" xlink:actuate="onLoad" xlink:show="embed"/></g><g fill="#FFF"><use x="754.111" y="646.816" xmlns:xlink="http://www.w3.org/1999/xlink" xlink:href="#aG" xlink:type="simple" xlink:actuate="onLoad" xlink:show="embed"/></g><g fill="#FFF"><use x="760.183" y="646.816" xmlns:xlink="http://www.w3.org/1999/xlink" xlink:href="#aG" xlink:type="simple" xlink:actuate="onLoad" xlink:show="embed"/></g><g fill="#FFF"><use x="766.255" y="646.816" xmlns:xlink="http://www.w3.org/1999/xlink" xlink:href="#aH" xlink:type="simple" xlink:actuate="onLoad" xlink:show="embed"/></g><g fill="#FFF"><use x="649.159" y="675.579" xmlns:xlink="http://www.w3.org/1999/xlink" xlink:href="#aC" xlink:type="simple" xlink:actuate="onLoad" xlink:show="embed"/></g><g fill="#FFF"><use x="659.64" y="675.579" xmlns:xlink="http://www.w3.org/1999/xlink" xlink:href="#aE" xlink:type="simple" xlink:actuate="onLoad" xlink:show="embed"/></g><g fill="#FFF"><use x="665.525" y="675.579" xmlns:xlink="http://www.w3.org/1999/xlink" xlink:href="#aI" xlink:type="simple" xlink:actuate="onLoad" xlink:show="embed"/></g><g fill="#FFF"><use x="679.25" y="675.579" xmlns:xlink="http://www.w3.org/1999/xlink" xlink:href="#aJ" xlink:type="simple" xlink:actuate="onLoad" xlink:show="embed"/></g><g fill="#FFF"><use x="692.517" y="675.579" xmlns:xlink="http://www.w3.org/1999/xlink" xlink:href="#aE" xlink:type="simple" xlink:actuate="onLoad" xlink:show="embed"/></g><g fill="#FFF"><use x="698.402" y="675.579" xmlns:xlink="http://www.w3.org/1999/xlink" xlink:href="#aK" xlink:type="simple" xlink:actuate="onLoad" xlink:show="embed"/></g><g fill="#FFF"><use x="705.369" y="675.579" xmlns:xlink="http://www.w3.org/1999/xlink" xlink:href="#aE" xlink:type="simple" xlink:actuate="onLoad" xlink:show="embed"/></g><g fill="#FFF"><use x="711.254" y="675.579" xmlns:xlink="http://www.w3.org/1999/xlink" xlink:href="#aF" xlink:type="simple" xlink:actuate="onLoad" xlink:show="embed"/></g><g fill="#FFF"><use x="723.191" y="675.579" xmlns:xlink="http://www.w3.org/1999/xlink" xlink:href="#aD" xlink:type="simple" xlink:actuate="onLoad" xlink:show="embed"/></g><g fill="#FFF"><use x="735.169" y="675.579" xmlns:xlink="http://www.w3.org/1999/xlink" xlink:href="#aJ" xlink:type="simple" xlink:actuate="onLoad" xlink:show="embed"/></g><g fill="#FFF"><use x="748.436" y="675.579" xmlns:xlink="http://www.w3.org/1999/xlink" xlink:href="#aA" xlink:type="simple" xlink:actuate="onLoad" xlink:show="embed"/></g><g fill="#FFF"><use x="422.426" y="441.988" xmlns:xlink="http://www.w3.org/1999/xlink" xlink:href="#ay" xlink:type="simple" xlink:actuate="onLoad" xlink:show="embed"/></g><g fill="#FFF"><use x="438.293" y="441.988" xmlns:xlink="http://www.w3.org/1999/xlink" xlink:href="#az" xlink:type="simple" xlink:actuate="onLoad" xlink:show="embed"/></g><g fill="#FFF"><use x="451.414" y="441.988" xmlns:xlink="http://www.w3.org/1999/xlink" xlink:href="#aA" xlink:type="simple" xlink:actuate="onLoad" xlink:show="embed"/></g><g fill="#FFF"><use x="458.859" y="441.988" xmlns:xlink="http://www.w3.org/1999/xlink" xlink:href="#aB" xlink:type="simple" xlink:actuate="onLoad" xlink:show="embed"/></g><g fill="#FFF"><use x="464.287" y="441.988" xmlns:xlink="http://www.w3.org/1999/xlink" xlink:href="#aC" xlink:type="simple" xlink:actuate="onLoad" xlink:show="embed"/></g><g fill="#FFF"><use x="474.768" y="441.988" xmlns:xlink="http://www.w3.org/1999/xlink" xlink:href="#aA" xlink:type="simple" xlink:actuate="onLoad" xlink:show="embed"/></g><g fill="#FFF"><use x="482.213" y="441.988" xmlns:xlink="http://www.w3.org/1999/xlink" xlink:href="#aD" xlink:type="simple" xlink:actuate="onLoad" xlink:show="embed"/></g><g fill="#FFF"><use x="494.191" y="441.988" xmlns:xlink="http://www.w3.org/1999/xlink" xlink:href="#aA" xlink:type="simple" xlink:actuate="onLoad" xlink:show="embed"/></g><g fill="#FFF"><use x="501.635" y="441.988" xmlns:xlink="http://www.w3.org/1999/xlink" xlink:href="#aE" xlink:type="simple" xlink:actuate="onLoad" xlink:show="embed"/></g><g fill="#FFF"><use x="507.521" y="441.988" xmlns:xlink="http://www.w3.org/1999/xlink" xlink:href="#aC" xlink:type="simple" xlink:actuate="onLoad" xlink:show="embed"/></g><g fill="#FFF"><use x="518.001" y="441.988" xmlns:xlink="http://www.w3.org/1999/xlink" xlink:href="#aA" xlink:type="simple" xlink:actuate="onLoad" xlink:show="embed"/></g><g fill="#FFF"><use x="525.446" y="441.988" xmlns:xlink="http://www.w3.org/1999/xlink" xlink:href="#aF" xlink:type="simple" xlink:actuate="onLoad" xlink:show="embed"/></g><g fill="#FFF"><use x="537.383" y="441.988" xmlns:xlink="http://www.w3.org/1999/xlink" xlink:href="#aD" xlink:type="simple" xlink:actuate="onLoad" xlink:show="embed"/></g><g fill="#FFF"><use x="549.361" y="441.988" xmlns:xlink="http://www.w3.org/1999/xlink" xlink:href="#aG" xlink:type="simple" xlink:actuate="onLoad" xlink:show="embed"/></g><g fill="#FFF"><use x="555.433" y="441.988" xmlns:xlink="http://www.w3.org/1999/xlink" xlink:href="#aG" xlink:type="simple" xlink:actuate="onLoad" xlink:show="embed"/></g><g fill="#FFF"><use x="561.505" y="441.988" xmlns:xlink="http://www.w3.org/1999/xlink" xlink:href="#aH" xlink:type="simple" xlink:actuate="onLoad" xlink:show="embed"/></g><g fill="#FFF"><use x="444.409" y="470.751" xmlns:xlink="http://www.w3.org/1999/xlink" xlink:href="#aC" xlink:type="simple" xlink:actuate="onLoad" xlink:show="embed"/></g><g fill="#FFF"><use x="454.89" y="470.751" xmlns:xlink="http://www.w3.org/1999/xlink" xlink:href="#aE" xlink:type="simple" xlink:actuate="onLoad" xlink:show="embed"/></g><g fill="#FFF"><use x="460.775" y="470.751" xmlns:xlink="http://www.w3.org/1999/xlink" xlink:href="#aI" xlink:type="simple" xlink:actuate="onLoad" xlink:show="embed"/></g><g fill="#FFF"><use x="474.5" y="470.751" xmlns:xlink="http://www.w3.org/1999/xlink" xlink:href="#aJ" xlink:type="simple" xlink:actuate="onLoad" xlink:show="embed"/></g><g fill="#FFF"><use x="487.767" y="470.751" xmlns:xlink="http://www.w3.org/1999/xlink" xlink:href="#aE" xlink:type="simple" xlink:actuate="onLoad" xlink:show="embed"/></g><g fill="#FFF"><use x="493.652" y="470.751" xmlns:xlink="http://www.w3.org/1999/xlink" xlink:href="#aK" xlink:type="simple" xlink:actuate="onLoad" xlink:show="embed"/></g><g fill="#FFF"><use x="500.619" y="470.751" xmlns:xlink="http://www.w3.org/1999/xlink" xlink:href="#aE" xlink:type="simple" xlink:actuate="onLoad" xlink:show="embed"/></g><g fill="#FFF"><use x="506.504" y="470.751" xmlns:xlink="http://www.w3.org/1999/xlink" xlink:href="#aF" xlink:type="simple" xlink:actuate="onLoad" xlink:show="embed"/></g><g fill="#FFF"><use x="518.441" y="470.751" xmlns:xlink="http://www.w3.org/1999/xlink" xlink:href="#aD" xlink:type="simple" xlink:actuate="onLoad" xlink:show="embed"/></g><g fill="#FFF"><use x="530.419" y="470.751" xmlns:xlink="http://www.w3.org/1999/xlink" xlink:href="#aJ" xlink:type="simple" xlink:actuate="onLoad" xlink:show="embed"/></g><g fill="#FFF"><use x="543.686" y="470.751" xmlns:xlink="http://www.w3.org/1999/xlink" xlink:href="#aA" xlink:type="simple" xlink:actuate="onLoad" xlink:show="embed"/></g></svg>