<svg xmlns="http://www.w3.org/2000/svg" xmlns:xlink="http://www.w3.org/1999/xlink" width="1440" viewBox="0 0 1440 975" height="975" version="1.0"><defs><g id="n"><path d="M 21.171875 -25.109375 L 21.171875 -22.453125 L 9.140625 0 L 3.671875 0 L 15.21875 -21.171875 L 1.96875 -21.171875 L 1.96875 -25.109375 Z M 21.171875 -25.109375"/></g><g id="o"><path d="M 9.828125 -3.96875 L 20.453125 -3.96875 L 20.453125 0 L 2.140625 0 L 2.140625 -2.359375 L 10.59375 -10.625 C 12.363281 -12.375 13.59375 -13.769531 14.28125 -14.8125 C 14.976562 -15.851562 15.328125 -16.957031 15.328125 -18.125 C 15.328125 -19.257812 15.007812 -20.171875 14.375 -20.859375 C 13.738281 -21.554688 12.851562 -21.90625 11.71875 -21.90625 C 10.476562 -21.90625 9.535156 -21.519531 8.890625 -20.75 C 8.253906 -19.988281 7.847656 -18.847656 7.671875 -17.328125 L 7.640625 -16.953125 L 2.65625 -16.953125 L 2.6875 -17.328125 C 2.957031 -20.015625 3.90625 -22.070312 5.53125 -23.5 C 7.15625 -24.9375 9.375 -25.65625 12.1875 -25.65625 C 14.882812 -25.65625 16.96875 -25 18.4375 -23.6875 C 19.90625 -22.375 20.640625 -20.613281 20.640625 -18.40625 C 20.640625 -16.851562 20.203125 -15.390625 19.328125 -14.015625 C 18.453125 -12.648438 16.835938 -10.816406 14.484375 -8.515625 Z M 9.828125 -3.96875"/></g><g id="p"><path d="M 2.796875 -23.953125 C 3.796875 -25.015625 5.164062 -25.546875 6.90625 -25.546875 C 8.65625 -25.546875 10.035156 -25.015625 11.046875 -23.953125 C 12.054688 -22.898438 12.5625 -21.441406 12.5625 -19.578125 C 12.5625 -17.710938 12.054688 -16.242188 11.046875 -15.171875 C 10.035156 -14.109375 8.660156 -13.578125 6.921875 -13.578125 C 5.191406 -13.578125 3.820312 -14.109375 2.8125 -15.171875 C 1.8125 -16.242188 1.3125 -17.710938 1.3125 -19.578125 C 1.3125 -21.441406 1.804688 -22.898438 2.796875 -23.953125 Z M 7.78125 0 L 3.890625 0 L 20.203125 -25.109375 L 24.09375 -25.109375 Z M 6.921875 -22.890625 C 5.535156 -22.890625 4.84375 -21.785156 4.84375 -19.578125 C 4.84375 -17.347656 5.535156 -16.234375 6.921875 -16.234375 C 8.328125 -16.234375 9.03125 -17.347656 9.03125 -19.578125 C 9.03125 -21.785156 8.328125 -22.890625 6.921875 -22.890625 Z M 16.71875 -9.875 C 17.726562 -10.9375 19.101562 -11.46875 20.84375 -11.46875 C 22.59375 -11.46875 23.972656 -10.9375 24.984375 -9.875 C 25.992188 -8.820312 26.5 -7.359375 26.5 -5.484375 C 26.5 -3.617188 25.992188 -2.148438 24.984375 -1.078125 C 23.972656 -0.015625 22.59375 0.515625 20.84375 0.515625 C 19.101562 0.515625 17.726562 -0.015625 16.71875 -1.078125 C 15.71875 -2.148438 15.21875 -3.617188 15.21875 -5.484375 C 15.21875 -7.359375 15.71875 -8.820312 16.71875 -9.875 Z M 22.921875 -5.5 C 22.921875 -7.707031 22.226562 -8.8125 20.84375 -8.8125 C 19.46875 -8.8125 18.78125 -7.707031 18.78125 -5.5 C 18.78125 -3.257812 19.46875 -2.140625 20.84375 -2.140625 C 22.226562 -2.140625 22.921875 -3.257812 22.921875 -5.5 Z M 22.921875 -5.5"/></g><g id="q"><path d="M 11.390625 -25.625 C 17.890625 -25.625 21.140625 -21.265625 21.140625 -12.546875 C 21.140625 -3.835938 17.890625 0.515625 11.390625 0.515625 C 4.859375 0.515625 1.59375 -3.835938 1.59375 -12.546875 C 1.59375 -21.265625 4.859375 -25.625 11.390625 -25.625 Z M 8 -5.5 C 8.726562 -3.988281 9.859375 -3.234375 11.390625 -3.234375 C 12.921875 -3.234375 14.039062 -3.988281 14.75 -5.5 C 15.46875 -7.019531 15.828125 -9.375 15.828125 -12.5625 C 15.828125 -15.757812 15.46875 -18.109375 14.75 -19.609375 C 14.039062 -21.117188 12.921875 -21.875 11.390625 -21.875 C 9.835938 -21.875 8.703125 -21.117188 7.984375 -19.609375 C 7.273438 -18.109375 6.921875 -15.757812 6.921875 -12.5625 C 6.921875 -9.375 7.28125 -7.019531 8 -5.5 Z M 8 -5.5"/></g><g id="r"><path d="M 21.0625 -18.296875 L 35.515625 -18.296875 L 35.515625 0 L 29.75 0 L 29.28125 -5.828125 L 27.65625 -2.1875 C 25.6875 -0.238281 22.773438 0.734375 18.921875 0.734375 C 13.929688 0.734375 9.972656 -0.921875 7.046875 -4.234375 C 4.117188 -7.546875 2.65625 -12.046875 2.65625 -17.734375 C 2.65625 -23.484375 4.316406 -28.066406 7.640625 -31.484375 C 10.972656 -34.898438 15.203125 -36.609375 20.328125 -36.609375 C 25.015625 -36.609375 28.671875 -35.472656 31.296875 -33.203125 C 33.929688 -30.929688 35.441406 -27.941406 35.828125 -24.234375 L 35.875 -23.71875 L 28.703125 -23.71875 L 28.59375 -24.234375 C 27.664062 -28.910156 24.878906 -31.25 20.234375 -31.25 C 17.285156 -31.25 14.882812 -30.070312 13.03125 -27.71875 C 11.175781 -25.363281 10.25 -22.171875 10.25 -18.140625 C 10.25 -13.804688 11.148438 -10.46875 12.953125 -8.125 C 14.753906 -5.789062 17.109375 -4.625 20.015625 -4.625 C 22.335938 -4.625 24.269531 -5.332031 25.8125 -6.75 C 27.351562 -8.175781 28.300781 -10.15625 28.65625 -12.6875 L 21.0625 -12.6875 Z M 21.0625 -18.296875"/></g><g id="s"><path d="M 30.53125 -5.671875 L 30.53125 0 L 4.625 0 L 4.625 -35.875 L 30 -35.875 L 30 -30.265625 L 11.796875 -30.265625 L 11.796875 -20.796875 L 28.703125 -20.796875 L 28.703125 -15.125 L 11.796875 -15.125 L 11.796875 -5.671875 Z M 30.53125 -5.671875"/></g><g id="t"><path d="M 36.140625 0 L 26.3125 0 L 11.546875 -27.25 C 11.710938 -23.988281 11.796875 -20.3125 11.796875 -16.21875 L 11.796875 0 L 4.625 0 L 4.625 -35.875 L 14.140625 -35.875 L 29.21875 -8.109375 C 29.050781 -11.335938 28.96875 -15.097656 28.96875 -19.390625 L 28.96875 -35.875 L 36.09375 -35.875 Z M 36.140625 0"/></g><g id="u"><path d="M 30.625 -9.046875 C 31.070312 -4.785156 31.941406 -1.769531 33.234375 0 L 25.375 0 C 24.507812 -2.394531 23.921875 -5.066406 23.609375 -8.015625 C 23.117188 -12.066406 21.503906 -14.195312 18.765625 -14.40625 C 18.109375 -14.4375 17.175781 -14.453125 15.96875 -14.453125 L 11.796875 -14.453125 L 11.796875 0 L 4.625 0 L 4.625 -35.875 L 17.734375 -35.875 C 19.710938 -35.875 21.445312 -35.789062 22.9375 -35.625 C 25.78125 -35.269531 28.054688 -34.320312 29.765625 -32.78125 C 31.484375 -31.238281 32.34375 -29.015625 32.34375 -26.109375 C 32.34375 -23.847656 31.71875 -21.976562 30.46875 -20.5 C 29.21875 -19.03125 27.503906 -17.988281 25.328125 -17.375 C 28.410156 -16.1875 30.175781 -13.410156 30.625 -9.046875 Z M 11.796875 -19.8125 L 16.75 -19.8125 C 18.164062 -19.8125 19.132812 -19.828125 19.65625 -19.859375 C 23.082031 -20.171875 24.796875 -21.890625 24.796875 -25.015625 C 24.796875 -26.640625 24.390625 -27.84375 23.578125 -28.625 C 22.765625 -29.40625 21.597656 -29.898438 20.078125 -30.109375 C 19.242188 -30.210938 18.238281 -30.265625 17.0625 -30.265625 L 11.796875 -30.265625 Z M 11.796875 -19.8125"/></g><g id="v"><path d="M 24.078125 -10.8125 L 12.015625 -10.8125 L 8.421875 0 L 0.78125 0 L 13.734375 -35.875 L 22.71875 -35.875 L 35.40625 0 L 27.609375 0 Z M 18.09375 -29.75 L 13.828125 -16.484375 L 22.25 -16.484375 Z M 18.09375 -29.75"/></g><g id="w"><path d="M 30.53125 -5.984375 L 30.53125 0 L 4.625 0 L 4.625 -35.875 L 11.796875 -35.875 L 11.796875 -5.984375 Z M 30.53125 -5.984375"/></g><g id="y"><path d="M 22.25 -35.625 C 25.132812 -35.3125 27.46875 -34.207031 29.25 -32.3125 C 31.03125 -30.425781 31.921875 -27.890625 31.921875 -24.703125 C 31.921875 -21.546875 31.003906 -19.019531 29.171875 -17.125 C 27.335938 -15.238281 25.03125 -14.125 22.25 -13.78125 C 20.757812 -13.601562 19.03125 -13.515625 17.0625 -13.515625 L 11.796875 -13.515625 L 11.796875 0 L 4.625 0 L 4.625 -35.875 L 17.0625 -35.875 C 19.070312 -35.875 20.800781 -35.789062 22.25 -35.625 Z M 20.125 -19.34375 C 22.96875 -19.757812 24.390625 -21.546875 24.390625 -24.703125 C 24.390625 -27.859375 22.96875 -29.644531 20.125 -30.0625 C 19.320312 -30.164062 18.265625 -30.21875 16.953125 -30.21875 L 11.796875 -30.21875 L 11.796875 -19.1875 L 16.953125 -19.1875 C 18.265625 -19.1875 19.320312 -19.238281 20.125 -19.34375 Z M 20.125 -19.34375"/></g><g id="z"><path d="M 20.390625 -36.609375 C 25.859375 -36.609375 30.175781 -34.914062 33.34375 -31.53125 C 36.519531 -28.15625 38.109375 -23.625 38.109375 -17.9375 C 38.109375 -12.289062 36.519531 -7.765625 33.34375 -4.359375 C 30.175781 -0.960938 25.851562 0.734375 20.375 0.734375 C 14.90625 0.734375 10.582031 -0.960938 7.40625 -4.359375 C 4.238281 -7.765625 2.65625 -12.289062 2.65625 -17.9375 C 2.65625 -23.625 4.226562 -28.15625 7.375 -31.53125 C 10.53125 -34.914062 14.867188 -36.609375 20.390625 -36.609375 Z M 12.859375 -8.125 C 14.679688 -5.789062 17.1875 -4.625 20.375 -4.625 C 23.570312 -4.625 26.070312 -5.800781 27.875 -8.15625 C 29.675781 -10.519531 30.578125 -13.78125 30.578125 -17.9375 C 30.578125 -22.132812 29.675781 -25.398438 27.875 -27.734375 C 26.070312 -30.078125 23.578125 -31.25 20.390625 -31.25 C 17.160156 -31.25 14.644531 -30.078125 12.84375 -27.734375 C 11.039062 -25.398438 10.140625 -22.132812 10.140625 -17.9375 C 10.140625 -13.738281 11.046875 -10.46875 12.859375 -8.125 Z M 12.859375 -8.125"/></g><g id="A"><path d="M 33.75 -35.875 L 33.75 -14.609375 C 33.75 -12.910156 33.710938 -11.507812 33.640625 -10.40625 C 33.398438 -7.144531 32.070312 -4.472656 29.65625 -2.390625 C 27.25 -0.304688 23.691406 0.734375 18.984375 0.734375 C 14.234375 0.734375 10.648438 -0.304688 8.234375 -2.390625 C 5.828125 -4.472656 4.503906 -7.144531 4.265625 -10.40625 C 4.191406 -11.507812 4.15625 -12.910156 4.15625 -14.609375 L 4.15625 -35.875 L 11.28125 -35.875 L 11.28125 -13.890625 C 11.28125 -12.671875 11.316406 -11.800781 11.390625 -11.28125 C 11.554688 -9.164062 12.269531 -7.523438 13.53125 -6.359375 C 14.800781 -5.203125 16.617188 -4.625 18.984375 -4.625 C 21.304688 -4.625 23.097656 -5.203125 24.359375 -6.359375 C 25.628906 -7.523438 26.347656 -9.164062 26.515625 -11.28125 C 26.585938 -11.800781 26.625 -12.671875 26.625 -13.890625 L 26.625 -35.875 Z M 33.75 -35.875"/></g><g id="B"><path d="M 32.703125 -30.265625 L 20.546875 -30.265625 L 20.546875 0 L 13.359375 0 L 13.359375 -30.265625 L 1.203125 -30.265625 L 1.203125 -35.875 L 32.703125 -35.875 Z M 32.703125 -30.265625"/></g><g id="C"><path d="M 11.796875 0 L 4.625 0 L 4.625 -35.875 L 11.796875 -35.875 Z M 11.796875 0"/></g><g id="M"><path d="M 12.171875 -5.46875 L 6.078125 -5.46875 L 4.265625 0 L 0.390625 0 L 6.9375 -18.140625 L 11.484375 -18.140625 L 17.90625 0 L 13.96875 0 Z M 9.15625 -15.046875 L 7 -8.34375 L 11.25 -8.34375 Z M 9.15625 -15.046875"/></g><g id="N"><path d="M 15.484375 -4.578125 C 15.710938 -2.421875 16.148438 -0.894531 16.796875 0 L 12.828125 0 C 12.390625 -1.207031 12.09375 -2.554688 11.9375 -4.046875 C 11.695312 -6.097656 10.882812 -7.175781 9.5 -7.28125 C 9.164062 -7.300781 8.691406 -7.3125 8.078125 -7.3125 L 5.96875 -7.3125 L 5.96875 0 L 2.34375 0 L 2.34375 -18.140625 L 8.96875 -18.140625 C 9.96875 -18.140625 10.84375 -18.097656 11.59375 -18.015625 C 13.03125 -17.835938 14.179688 -17.359375 15.046875 -16.578125 C 15.921875 -15.796875 16.359375 -14.671875 16.359375 -13.203125 C 16.359375 -12.054688 16.039062 -11.109375 15.40625 -10.359375 C 14.78125 -9.617188 13.914062 -9.09375 12.8125 -8.78125 C 14.363281 -8.1875 15.253906 -6.785156 15.484375 -4.578125 Z M 5.96875 -10.015625 L 8.46875 -10.015625 C 9.1875 -10.015625 9.675781 -10.023438 9.9375 -10.046875 C 11.675781 -10.203125 12.546875 -11.070312 12.546875 -12.65625 C 12.546875 -13.476562 12.335938 -14.082031 11.921875 -14.46875 C 11.515625 -14.863281 10.925781 -15.113281 10.15625 -15.21875 C 9.726562 -15.28125 9.21875 -15.3125 8.625 -15.3125 L 5.96875 -15.3125 Z M 5.96875 -10.015625"/></g><g id="O"><path d="M 16.546875 -15.3125 L 10.390625 -15.3125 L 10.390625 0 L 6.765625 0 L 6.765625 -15.3125 L 0.609375 -15.3125 L 0.609375 -18.140625 L 16.546875 -18.140625 Z M 16.546875 -15.3125"/></g><g id="P"><path d="M 5.96875 0 L 2.34375 0 L 2.34375 -18.140625 L 5.96875 -18.140625 Z M 5.96875 0"/></g><g id="Q"><path d="M 8.359375 -18.515625 C 10.429688 -18.515625 12.015625 -17.992188 13.109375 -16.953125 C 14.203125 -15.921875 14.851562 -14.539062 15.0625 -12.8125 L 11.359375 -12.8125 C 11.253906 -13.757812 10.9375 -14.492188 10.40625 -15.015625 C 9.882812 -15.535156 9.160156 -15.796875 8.234375 -15.796875 C 7.472656 -15.796875 6.859375 -15.613281 6.390625 -15.25 C 5.921875 -14.882812 5.6875 -14.347656 5.6875 -13.640625 C 5.6875 -12.867188 5.96875 -12.265625 6.53125 -11.828125 C 7.101562 -11.390625 8.109375 -11.003906 9.546875 -10.671875 C 11.523438 -10.222656 12.984375 -9.53125 13.921875 -8.59375 C 14.859375 -7.664062 15.328125 -6.46875 15.328125 -5 C 15.328125 -3.351562 14.675781 -2.046875 13.375 -1.078125 C 12.082031 -0.109375 10.5 0.375 8.625 0.375 C 6.414062 0.375 4.65625 -0.109375 3.34375 -1.078125 C 2.03125 -2.054688 1.285156 -3.484375 1.109375 -5.359375 L 4.8125 -5.359375 C 5.007812 -4.398438 5.445312 -3.65625 6.125 -3.125 C 6.8125 -2.601562 7.628906 -2.34375 8.578125 -2.34375 C 9.410156 -2.34375 10.113281 -2.550781 10.6875 -2.96875 C 11.257812 -3.394531 11.546875 -3.945312 11.546875 -4.625 C 11.546875 -5.394531 11.269531 -6.015625 10.71875 -6.484375 C 10.164062 -6.960938 9.234375 -7.359375 7.921875 -7.671875 C 5.878906 -8.171875 4.359375 -8.828125 3.359375 -9.640625 C 2.359375 -10.453125 1.859375 -11.640625 1.859375 -13.203125 C 1.859375 -14.816406 2.488281 -16.101562 3.75 -17.0625 C 5.019531 -18.03125 6.554688 -18.515625 8.359375 -18.515625 Z M 8.359375 -18.515625"/></g><g id="R"><path d="M 11.25 -18.015625 C 12.707031 -17.859375 13.882812 -17.300781 14.78125 -16.34375 C 15.6875 -15.382812 16.140625 -14.097656 16.140625 -12.484375 C 16.140625 -10.890625 15.675781 -9.613281 14.75 -8.65625 C 13.820312 -7.707031 12.65625 -7.144531 11.25 -6.96875 C 10.5 -6.882812 9.625 -6.84375 8.625 -6.84375 L 5.96875 -6.84375 L 5.96875 0 L 2.34375 0 L 2.34375 -18.140625 L 8.625 -18.140625 C 9.644531 -18.140625 10.519531 -18.097656 11.25 -18.015625 Z M 10.171875 -9.78125 C 11.609375 -9.988281 12.328125 -10.890625 12.328125 -12.484375 C 12.328125 -14.085938 11.609375 -14.992188 10.171875 -15.203125 C 9.773438 -15.253906 9.242188 -15.28125 8.578125 -15.28125 L 5.96875 -15.28125 L 5.96875 -9.703125 L 8.578125 -9.703125 C 9.242188 -9.703125 9.773438 -9.726562 10.171875 -9.78125 Z M 10.171875 -9.78125"/></g><g id="S"><path d="M 10.3125 -18.515625 C 13.082031 -18.515625 15.269531 -17.660156 16.875 -15.953125 C 18.476562 -14.242188 19.28125 -11.953125 19.28125 -9.078125 C 19.28125 -6.210938 18.476562 -3.921875 16.875 -2.203125 C 15.269531 -0.484375 13.082031 0.375 10.3125 0.375 C 7.539062 0.375 5.351562 -0.484375 3.75 -2.203125 C 2.144531 -3.921875 1.34375 -6.210938 1.34375 -9.078125 C 1.34375 -11.953125 2.140625 -14.242188 3.734375 -15.953125 C 5.328125 -17.660156 7.519531 -18.515625 10.3125 -18.515625 Z M 6.5 -4.109375 C 7.425781 -2.929688 8.695312 -2.34375 10.3125 -2.34375 C 11.925781 -2.34375 13.1875 -2.9375 14.09375 -4.125 C 15.007812 -5.320312 15.46875 -6.972656 15.46875 -9.078125 C 15.46875 -11.191406 15.007812 -12.835938 14.09375 -14.015625 C 13.1875 -15.203125 11.925781 -15.796875 10.3125 -15.796875 C 8.675781 -15.796875 7.398438 -15.203125 6.484375 -14.015625 C 5.578125 -12.835938 5.125 -11.1875 5.125 -9.0625 C 5.125 -6.945312 5.582031 -5.296875 6.5 -4.109375 Z M 6.5 -4.109375"/></g><g id="T"><path d="M 15.4375 -3.03125 L 15.4375 0 L 2.34375 0 L 2.34375 -18.140625 L 5.96875 -18.140625 L 5.96875 -3.03125 Z M 15.4375 -3.03125"/></g><g id="U"><path d="M 10.125 -18.515625 C 12.488281 -18.515625 14.335938 -17.9375 15.671875 -16.78125 C 17.003906 -15.632812 17.765625 -14.125 17.953125 -12.25 L 17.984375 -11.984375 L 14.359375 -11.984375 L 14.3125 -12.25 C 13.832031 -14.613281 12.421875 -15.796875 10.078125 -15.796875 C 8.597656 -15.796875 7.410156 -15.203125 6.515625 -14.015625 C 5.628906 -12.835938 5.1875 -11.222656 5.1875 -9.171875 C 5.1875 -6.984375 5.628906 -5.296875 6.515625 -4.109375 C 7.410156 -2.929688 8.578125 -2.34375 10.015625 -2.34375 C 11.171875 -2.34375 12.097656 -2.664062 12.796875 -3.3125 C 13.503906 -3.957031 13.984375 -4.859375 14.234375 -6.015625 L 14.28125 -6.28125 L 17.875 -6.28125 L 17.859375 -6.015625 C 17.660156 -4.054688 16.851562 -2.5 15.4375 -1.34375 C 14.019531 -0.195312 12.160156 0.375 9.859375 0.375 C 7.296875 0.375 5.234375 -0.46875 3.671875 -2.15625 C 2.117188 -3.84375 1.34375 -6.113281 1.34375 -8.96875 C 1.34375 -11.875 2.164062 -14.191406 3.8125 -15.921875 C 5.457031 -17.648438 7.5625 -18.515625 10.125 -18.515625 Z M 10.125 -18.515625"/></g><g id="V"><path d="M 18.28125 0 L 13.3125 0 L 5.84375 -13.78125 C 5.925781 -12.132812 5.96875 -10.273438 5.96875 -8.203125 L 5.96875 0 L 2.34375 0 L 2.34375 -18.140625 L 7.15625 -18.140625 L 14.78125 -4.109375 C 14.6875 -5.734375 14.640625 -7.632812 14.640625 -9.8125 L 14.640625 -18.140625 L 18.25 -18.140625 Z M 18.28125 0"/></g><g id="W"><path d="M 15.4375 -2.859375 L 15.4375 0 L 2.34375 0 L 2.34375 -18.140625 L 15.171875 -18.140625 L 15.171875 -15.3125 L 5.96875 -15.3125 L 5.96875 -10.515625 L 14.515625 -10.515625 L 14.515625 -7.65625 L 5.96875 -7.65625 L 5.96875 -2.859375 Z M 15.4375 -2.859375"/></g><g id="X"><path d="M 21.90625 -18.140625 L 21.90625 0 L 18.28125 0 L 18.28125 -8.390625 C 18.28125 -11.265625 18.296875 -13.332031 18.328125 -14.59375 C 17.835938 -12.488281 17.273438 -10.429688 16.640625 -8.421875 L 14.09375 0 L 10.15625 0 L 7.546875 -8.4375 C 6.878906 -10.664062 6.335938 -12.707031 5.921875 -14.5625 C 5.953125 -13.300781 5.96875 -11.242188 5.96875 -8.390625 L 5.96875 0 L 2.34375 0 L 2.34375 -18.140625 L 8.078125 -18.140625 L 12.171875 -3.34375 L 16.28125 -18.140625 Z M 21.90625 -18.140625"/></g><g id="ac"><path d="M 5.15625 -11.6875 C 6.613281 -11.6875 7.710938 -11.226562 8.453125 -10.3125 C 9.191406 -9.40625 9.5625 -8 9.5625 -6.09375 C 9.5625 -4.03125 9.128906 -2.457031 8.265625 -1.375 C 7.398438 -0.300781 6.253906 0.234375 4.828125 0.234375 C 3.691406 0.234375 2.785156 -0.0507812 2.109375 -0.625 C 1.429688 -1.195312 1.046875 -1.984375 0.953125 -2.984375 L 0.921875 -3.15625 L 3.25 -3.15625 L 3.28125 -2.984375 C 3.488281 -1.984375 4.054688 -1.484375 4.984375 -1.484375 C 6.367188 -1.484375 7.109375 -2.804688 7.203125 -5.453125 L 6.625 -4.40625 C 6.082031 -3.96875 5.398438 -3.75 4.578125 -3.75 C 3.367188 -3.75 2.4375 -4.097656 1.78125 -4.796875 C 1.132812 -5.492188 0.8125 -6.394531 0.8125 -7.5 C 0.8125 -8.78125 1.226562 -9.796875 2.0625 -10.546875 C 2.894531 -11.304688 3.925781 -11.6875 5.15625 -11.6875 Z M 5.1875 -5.453125 C 5.726562 -5.453125 6.179688 -5.65625 6.546875 -6.0625 C 6.921875 -6.46875 7.109375 -7.019531 7.109375 -7.71875 C 7.109375 -8.382812 6.929688 -8.925781 6.578125 -9.34375 C 6.234375 -9.757812 5.765625 -9.96875 5.171875 -9.96875 C 4.585938 -9.96875 4.117188 -9.757812 3.765625 -9.34375 C 3.421875 -8.9375 3.25 -8.414062 3.25 -7.78125 C 3.25 -7.082031 3.414062 -6.519531 3.75 -6.09375 C 4.082031 -5.664062 4.5625 -5.453125 5.1875 -5.453125 Z M 5.1875 -5.453125"/></g><g id="ad"><path d="M 5.796875 -7.703125 C 6.992188 -7.703125 7.921875 -7.351562 8.578125 -6.65625 C 9.234375 -5.957031 9.5625 -5.054688 9.5625 -3.953125 C 9.5625 -2.671875 9.140625 -1.648438 8.296875 -0.890625 C 7.460938 -0.140625 6.429688 0.234375 5.203125 0.234375 C 3.742188 0.234375 2.644531 -0.21875 1.90625 -1.125 C 1.175781 -2.03125 0.8125 -3.441406 0.8125 -5.359375 C 0.8125 -7.398438 1.242188 -8.960938 2.109375 -10.046875 C 2.984375 -11.140625 4.128906 -11.6875 5.546875 -11.6875 C 6.660156 -11.6875 7.554688 -11.398438 8.234375 -10.828125 C 8.910156 -10.253906 9.304688 -9.46875 9.421875 -8.46875 L 9.4375 -8.296875 L 7.125 -8.296875 L 7.078125 -8.46875 C 6.835938 -9.46875 6.273438 -9.96875 5.390625 -9.96875 C 3.992188 -9.96875 3.253906 -8.640625 3.171875 -5.984375 L 3.75 -7.03125 C 4.289062 -7.476562 4.972656 -7.703125 5.796875 -7.703125 Z M 3.78125 -2.109375 C 4.132812 -1.691406 4.601562 -1.484375 5.1875 -1.484375 C 5.78125 -1.484375 6.253906 -1.6875 6.609375 -2.09375 C 6.960938 -2.507812 7.140625 -3.035156 7.140625 -3.671875 C 7.140625 -4.367188 6.96875 -4.925781 6.625 -5.34375 C 6.289062 -5.769531 5.804688 -5.984375 5.171875 -5.984375 C 4.628906 -5.984375 4.175781 -5.78125 3.8125 -5.375 C 3.445312 -4.976562 3.265625 -4.429688 3.265625 -3.734375 C 3.265625 -3.066406 3.4375 -2.523438 3.78125 -2.109375 Z M 3.78125 -2.109375"/></g><g id="ae"><path d="M 1.265625 -10.921875 C 1.722656 -11.410156 2.347656 -11.65625 3.140625 -11.65625 C 3.941406 -11.65625 4.570312 -11.410156 5.03125 -10.921875 C 5.488281 -10.441406 5.71875 -9.773438 5.71875 -8.921875 C 5.71875 -8.078125 5.488281 -7.410156 5.03125 -6.921875 C 4.570312 -6.429688 3.945312 -6.1875 3.15625 -6.1875 C 2.363281 -6.1875 1.738281 -6.429688 1.28125 -6.921875 C 0.820312 -7.410156 0.59375 -8.078125 0.59375 -8.921875 C 0.59375 -9.773438 0.816406 -10.441406 1.265625 -10.921875 Z M 3.546875 0 L 1.78125 0 L 9.203125 -11.453125 L 10.984375 -11.453125 Z M 3.15625 -10.4375 C 2.519531 -10.4375 2.203125 -9.929688 2.203125 -8.921875 C 2.203125 -7.910156 2.519531 -7.40625 3.15625 -7.40625 C 3.789062 -7.40625 4.109375 -7.910156 4.109375 -8.921875 C 4.109375 -9.929688 3.789062 -10.4375 3.15625 -10.4375 Z M 7.625 -4.5 C 8.082031 -4.988281 8.707031 -5.234375 9.5 -5.234375 C 10.300781 -5.234375 10.929688 -4.988281 11.390625 -4.5 C 11.847656 -4.019531 12.078125 -3.351562 12.078125 -2.5 C 12.078125 -1.65625 11.847656 -0.988281 11.390625 -0.5 C 10.929688 -0.0078125 10.300781 0.234375 9.5 0.234375 C 8.707031 0.234375 8.082031 -0.0078125 7.625 -0.5 C 7.164062 -0.988281 6.9375 -1.65625 6.9375 -2.5 C 6.9375 -3.351562 7.164062 -4.019531 7.625 -4.5 Z M 10.453125 -2.5 C 10.453125 -3.507812 10.132812 -4.015625 9.5 -4.015625 C 8.875 -4.015625 8.5625 -3.507812 8.5625 -2.5 C 8.5625 -1.488281 8.875 -0.984375 9.5 -0.984375 C 10.132812 -0.984375 10.453125 -1.488281 10.453125 -2.5 Z M 10.453125 -2.5"/></g><g id="af"><path d="M 5.765625 -7.6875 C 6.953125 -7.6875 7.878906 -7.335938 8.546875 -6.640625 C 9.222656 -5.941406 9.5625 -4.992188 9.5625 -3.796875 C 9.5625 -2.546875 9.132812 -1.5625 8.28125 -0.84375 C 7.425781 -0.125 6.398438 0.234375 5.203125 0.234375 C 2.597656 0.234375 1.1875 -0.890625 0.96875 -3.140625 L 0.953125 -3.296875 L 3.234375 -3.296875 L 3.25 -3.140625 C 3.425781 -2.035156 4.039062 -1.484375 5.09375 -1.484375 C 5.726562 -1.484375 6.222656 -1.679688 6.578125 -2.078125 C 6.941406 -2.484375 7.125 -3.03125 7.125 -3.71875 C 7.125 -4.40625 6.945312 -4.953125 6.59375 -5.359375 C 6.25 -5.765625 5.765625 -5.96875 5.140625 -5.96875 C 4.265625 -5.96875 3.640625 -5.535156 3.265625 -4.671875 L 1.140625 -4.671875 L 1.953125 -11.453125 L 9.09375 -11.453125 L 9.09375 -9.65625 L 3.828125 -9.65625 L 3.40625 -6.453125 L 3.96875 -7.234375 C 4.46875 -7.535156 5.066406 -7.6875 5.765625 -7.6875 Z M 5.765625 -7.6875"/></g><g id="au"><path d="M 7.140625 -6.0625 C 8.734375 -5.695312 9.53125 -4.773438 9.53125 -3.296875 C 9.53125 -2.234375 9.113281 -1.378906 8.28125 -0.734375 C 7.457031 -0.0859375 6.394531 0.234375 5.09375 0.234375 C 3.789062 0.234375 2.753906 -0.0664062 1.984375 -0.671875 C 1.210938 -1.285156 0.765625 -2.179688 0.640625 -3.359375 L 0.625 -3.515625 L 2.921875 -3.515625 L 2.953125 -3.359375 C 3.046875 -2.765625 3.28125 -2.300781 3.65625 -1.96875 C 4.03125 -1.644531 4.503906 -1.484375 5.078125 -1.484375 C 5.679688 -1.484375 6.171875 -1.640625 6.546875 -1.953125 C 6.921875 -2.273438 7.109375 -2.695312 7.109375 -3.21875 C 7.109375 -4.382812 6.347656 -4.984375 4.828125 -5.015625 L 4.453125 -5.015625 L 4.453125 -6.609375 L 4.828125 -6.625 C 5.429688 -6.644531 5.914062 -6.816406 6.28125 -7.140625 C 6.65625 -7.472656 6.84375 -7.898438 6.84375 -8.421875 C 6.84375 -8.890625 6.691406 -9.265625 6.390625 -9.546875 C 6.097656 -9.828125 5.703125 -9.96875 5.203125 -9.96875 C 4.703125 -9.96875 4.296875 -9.804688 3.984375 -9.484375 C 3.671875 -9.160156 3.488281 -8.722656 3.4375 -8.171875 L 3.421875 -8 L 1.140625 -8 L 1.15625 -8.171875 C 1.257812 -9.203125 1.679688 -10.046875 2.421875 -10.703125 C 3.160156 -11.359375 4.171875 -11.6875 5.453125 -11.6875 C 6.660156 -11.6875 7.597656 -11.40625 8.265625 -10.84375 C 8.929688 -10.28125 9.265625 -9.5625 9.265625 -8.6875 C 9.265625 -8.03125 9.082031 -7.472656 8.71875 -7.015625 C 8.351562 -6.554688 7.828125 -6.238281 7.140625 -6.0625 Z M 7.140625 -6.0625"/></g><g id="aj"><path d="M 7.84375 -17.75 C 10.0625 -17.75 11.726562 -17.0625 12.84375 -15.6875 C 13.96875 -14.3125 14.53125 -12.164062 14.53125 -9.25 C 14.53125 -6.125 13.875 -3.738281 12.5625 -2.09375 C 11.25 -0.457031 9.507812 0.359375 7.34375 0.359375 C 5.601562 0.359375 4.222656 -0.0703125 3.203125 -0.9375 C 2.179688 -1.8125 1.59375 -3.015625 1.4375 -4.546875 L 1.40625 -4.796875 L 4.9375 -4.796875 L 5 -4.546875 C 5.3125 -3.015625 6.164062 -2.25 7.5625 -2.25 C 9.6875 -2.25 10.8125 -4.265625 10.9375 -8.296875 L 10.0625 -6.703125 C 9.238281 -6.035156 8.203125 -5.703125 6.953125 -5.703125 C 5.128906 -5.703125 3.71875 -6.226562 2.71875 -7.28125 C 1.726562 -8.34375 1.234375 -9.71875 1.234375 -11.40625 C 1.234375 -13.351562 1.867188 -14.894531 3.140625 -16.03125 C 4.410156 -17.175781 5.976562 -17.75 7.84375 -17.75 Z M 7.890625 -8.296875 C 8.710938 -8.296875 9.398438 -8.601562 9.953125 -9.21875 C 10.515625 -9.832031 10.796875 -10.671875 10.796875 -11.734375 C 10.796875 -12.734375 10.53125 -13.550781 10 -14.1875 C 9.46875 -14.832031 8.753906 -15.15625 7.859375 -15.15625 C 6.972656 -15.15625 6.265625 -14.835938 5.734375 -14.203125 C 5.203125 -13.578125 4.9375 -12.785156 4.9375 -11.828125 C 4.9375 -10.765625 5.1875 -9.910156 5.6875 -9.265625 C 6.195312 -8.617188 6.929688 -8.296875 7.890625 -8.296875 Z M 7.890625 -8.296875"/></g><g id="ak"><path d="M 10.84375 -9.203125 C 13.257812 -8.648438 14.46875 -7.253906 14.46875 -5.015625 C 14.46875 -3.398438 13.84375 -2.097656 12.59375 -1.109375 C 11.34375 -0.128906 9.722656 0.359375 7.734375 0.359375 C 5.753906 0.359375 4.179688 -0.101562 3.015625 -1.03125 C 1.847656 -1.957031 1.171875 -3.3125 0.984375 -5.09375 L 0.953125 -5.34375 L 4.4375 -5.34375 L 4.484375 -5.09375 C 4.617188 -4.195312 4.972656 -3.5 5.546875 -3 C 6.117188 -2.5 6.84375 -2.25 7.71875 -2.25 C 8.644531 -2.25 9.390625 -2.488281 9.953125 -2.96875 C 10.515625 -3.457031 10.796875 -4.097656 10.796875 -4.890625 C 10.796875 -6.660156 9.644531 -7.566406 7.34375 -7.609375 L 6.765625 -7.609375 L 6.765625 -10.03125 L 7.34375 -10.0625 C 8.257812 -10.09375 8.992188 -10.351562 9.546875 -10.84375 C 10.109375 -11.34375 10.390625 -12 10.390625 -12.8125 C 10.390625 -13.519531 10.164062 -14.085938 9.71875 -14.515625 C 9.269531 -14.941406 8.671875 -15.15625 7.921875 -15.15625 C 7.148438 -15.15625 6.523438 -14.90625 6.046875 -14.40625 C 5.578125 -13.914062 5.300781 -13.25 5.21875 -12.40625 L 5.1875 -12.15625 L 1.734375 -12.15625 L 1.765625 -12.40625 C 1.921875 -13.988281 2.5625 -15.273438 3.6875 -16.265625 C 4.8125 -17.253906 6.347656 -17.75 8.296875 -17.75 C 10.128906 -17.75 11.550781 -17.320312 12.5625 -16.46875 C 13.570312 -15.625 14.078125 -14.539062 14.078125 -13.21875 C 14.078125 -12.207031 13.796875 -11.351562 13.234375 -10.65625 C 12.679688 -9.957031 11.882812 -9.472656 10.84375 -9.203125 Z M 10.84375 -9.203125"/></g><g id="al"><path d="M 1.9375 -16.609375 C 2.625 -17.335938 3.570312 -17.703125 4.78125 -17.703125 C 6 -17.703125 6.957031 -17.335938 7.65625 -16.609375 C 8.351562 -15.878906 8.703125 -14.863281 8.703125 -13.5625 C 8.703125 -12.269531 8.351562 -11.253906 7.65625 -10.515625 C 6.957031 -9.773438 6.003906 -9.40625 4.796875 -9.40625 C 3.597656 -9.40625 2.648438 -9.773438 1.953125 -10.515625 C 1.253906 -11.253906 0.90625 -12.269531 0.90625 -13.5625 C 0.90625 -14.863281 1.25 -15.878906 1.9375 -16.609375 Z M 5.390625 0 L 2.703125 0 L 14 -17.40625 L 16.6875 -17.40625 Z M 4.796875 -15.859375 C 3.835938 -15.859375 3.359375 -15.09375 3.359375 -13.5625 C 3.359375 -12.019531 3.835938 -11.25 4.796875 -11.25 C 5.765625 -11.25 6.25 -12.019531 6.25 -13.5625 C 6.25 -15.09375 5.765625 -15.859375 4.796875 -15.859375 Z M 11.59375 -6.84375 C 12.289062 -7.570312 13.242188 -7.9375 14.453125 -7.9375 C 15.660156 -7.9375 16.613281 -7.570312 17.3125 -6.84375 C 18.007812 -6.113281 18.359375 -5.097656 18.359375 -3.796875 C 18.359375 -2.503906 18.007812 -1.488281 17.3125 -0.75 C 16.613281 -0.0078125 15.660156 0.359375 14.453125 0.359375 C 13.242188 0.359375 12.289062 -0.0078125 11.59375 -0.75 C 10.894531 -1.488281 10.546875 -2.503906 10.546875 -3.796875 C 10.546875 -5.097656 10.894531 -6.113281 11.59375 -6.84375 Z M 15.890625 -3.8125 C 15.890625 -5.34375 15.410156 -6.109375 14.453125 -6.109375 C 13.492188 -6.109375 13.015625 -5.34375 13.015625 -3.8125 C 13.015625 -2.257812 13.492188 -1.484375 14.453125 -1.484375 C 15.410156 -1.484375 15.890625 -2.257812 15.890625 -3.8125 Z M 15.890625 -3.8125"/></g><g id="am"><path d="M 11.65625 -17.40625 L 11.65625 0 L 8.171875 0 L 8.171875 -13.75 L 3.109375 -10.9375 L 3.109375 -14.21875 L 7.140625 -16.625 C 8.066406 -17.144531 9 -17.40625 9.9375 -17.40625 Z M 11.65625 -17.40625"/></g><g id="av"><path d="M 13.308594 0 L 13.269531 -14.351562 L 11.519531 -14.351562 L 11.519531 -7.175781 C 11.519531 -5.492188 11.542969 -3.429688 11.582031 -1.746094 L 4.824219 -14.351562 L 2.078125 -14.351562 L 2.078125 0 L 3.867188 0 L 3.867188 -7.175781 C 3.867188 -8.859375 3.847656 -10.917969 3.804688 -12.601562 L 10.566406 0 Z M 13.308594 0"/></g><g id="aw"><path d="M 6.09375 -11.3125 C 2.351562 -11.3125 0.625 -8.628906 0.625 -5.511719 C 0.625 -2.414062 2.351562 0.292969 6.09375 0.292969 C 9.835938 0.292969 11.5625 -2.414062 11.5625 -5.511719 C 11.5625 -8.628906 9.835938 -11.3125 6.09375 -11.3125 Z M 6.09375 -1.082031 C 3.867188 -1.082031 2.578125 -2.933594 2.578125 -5.511719 C 2.578125 -8.109375 3.867188 -9.941406 6.09375 -9.941406 C 8.320312 -9.941406 9.609375 -8.109375 9.609375 -5.511719 C 9.609375 -2.933594 8.320312 -1.082031 6.09375 -1.082031 Z M 6.09375 -1.082031"/></g><g id="ax"><path d="M 3.679688 -9.566406 L 5.738281 -9.566406 L 5.738281 -10.9375 L 3.679688 -10.9375 L 3.679688 -13.496094 L 1.890625 -13.496094 L 1.890625 -10.9375 L 0.414062 -10.9375 L 0.414062 -9.566406 L 1.890625 -9.566406 L 1.890625 -3.140625 C 1.890625 -2.515625 1.890625 -2.058594 1.914062 -1.769531 C 2.015625 -0.394531 2.722656 0.167969 4.097656 0.167969 C 4.597656 0.167969 5.09375 0.144531 5.613281 0.0625 L 5.613281 -1.246094 C 4.222656 -1.082031 3.785156 -1.308594 3.703125 -2.371094 C 3.679688 -2.660156 3.679688 -2.847656 3.679688 -3.222656 Z M 3.679688 -9.566406"/></g><g id="az"><path d="M 4.742188 -11.3125 C 2.476562 -11.3125 0.9375 -10.105469 0.9375 -8.089844 C 0.9375 -6.15625 2.515625 -5.34375 4.492188 -4.804688 C 6.34375 -4.304688 7.089844 -3.742188 7.089844 -2.683594 C 7.089844 -1.621094 6.136719 -1.082031 4.949219 -1.082031 C 3.679688 -1.082031 2.660156 -1.644531 2.371094 -3.246094 L 0.5 -3.246094 C 0.832031 -0.75 2.558594 0.292969 4.824219 0.292969 C 7.152344 0.292969 8.921875 -0.75 8.921875 -2.828125 C 8.921875 -4.699219 7.714844 -5.699219 5.179688 -6.363281 C 3.679688 -6.757812 2.765625 -7.195312 2.765625 -8.296875 C 2.765625 -9.253906 3.347656 -9.941406 4.597656 -9.941406 C 5.886719 -9.941406 6.675781 -9.171875 6.925781 -7.882812 L 8.796875 -7.882812 C 8.566406 -9.898438 7.214844 -11.3125 4.742188 -11.3125 Z M 4.742188 -11.3125"/></g><g id="aA"><path d="M 7.859375 0 L 9.648438 0 C 9.484375 -1.226562 9.441406 -1.976562 9.441406 -2.808594 L 9.441406 -6.945312 C 9.441406 -7.425781 9.421875 -7.964844 9.378906 -8.402344 C 9.191406 -10.210938 8.089844 -11.3125 5.46875 -11.3125 C 3.035156 -11.3125 1.394531 -9.960938 1.226562 -7.613281 L 3.097656 -7.613281 C 3.222656 -9.128906 3.972656 -9.941406 5.46875 -9.941406 C 6.945312 -9.941406 7.527344 -9.273438 7.613281 -8.257812 C 7.652344 -7.839844 7.652344 -7.402344 7.652344 -6.925781 L 7.652344 -6.632812 L 6.945312 -6.632812 C 2.621094 -6.632812 0.75 -5.34375 0.75 -2.847656 C 0.75 -0.8125 2.308594 0.292969 4.304688 0.292969 C 5.367188 0.292969 6.320312 0.125 7.070312 -0.394531 L 7.675781 -1.582031 Z M 4.90625 -1.082031 C 3.554688 -1.082031 2.703125 -1.664062 2.703125 -2.996094 C 2.703125 -4.886719 4.617188 -5.53125 7.652344 -5.304688 L 7.652344 -4.179688 C 7.652344 -2.183594 6.570312 -1.082031 4.90625 -1.082031 Z M 4.90625 -1.082031"/></g><g id="aB"><path d="M 2.433594 -14.640625 C 1.789062 -14.640625 1.289062 -14.140625 1.289062 -13.496094 C 1.289062 -12.851562 1.789062 -12.351562 2.433594 -12.351562 C 3.078125 -12.351562 3.578125 -12.851562 3.578125 -13.496094 C 3.578125 -14.140625 3.078125 -14.640625 2.433594 -14.640625 Z M 3.328125 0 L 3.328125 -11.023438 L 1.539062 -11.023438 L 1.539062 0 Z M 3.328125 0"/></g><g id="aC"><path d="M 5.800781 -11.3125 C 3.035156 -11.3125 0.625 -9.214844 0.625 -5.492188 C 0.625 -1.457031 2.746094 0.292969 5.53125 0.292969 C 7.984375 0.292969 9.816406 -0.957031 10.355469 -3.515625 L 8.484375 -3.515625 C 8.109375 -1.914062 7.089844 -1.082031 5.636719 -1.082031 C 3.992188 -1.082031 2.578125 -2.414062 2.578125 -5.613281 C 2.578125 -8.589844 4.035156 -9.941406 5.761719 -9.941406 C 7.238281 -9.941406 8.195312 -9.089844 8.589844 -7.320312 L 10.460938 -7.320312 C 10.128906 -9.734375 8.445312 -11.3125 5.800781 -11.3125 Z M 5.800781 -11.3125"/></g><g id="aD"><path d="M 3.246094 -15.285156 L 1.457031 -15.285156 L 1.457031 -3.097656 C 1.457031 -2.496094 1.457031 -2.015625 1.476562 -1.644531 C 1.539062 -0.25 2.308594 0.0820312 3.347656 0.0820312 C 3.765625 0.0820312 4.222656 0.0625 4.617188 0 L 4.617188 -1.289062 C 3.640625 -1.183594 3.308594 -1.414062 3.265625 -2.121094 C 3.246094 -2.476562 3.246094 -2.828125 3.246094 -3.160156 Z M 3.246094 -15.285156"/></g><g id="aE"><path d="M 10.542969 -11.023438 L 8.589844 -11.023438 L 5.324219 -1.332031 L 2.039062 -11.023438 L 0.0195312 -11.023438 L 4.410156 0.5625 L 4.261719 0.957031 C 3.703125 2.414062 2.972656 2.890625 1.871094 2.890625 C 1.683594 2.890625 1.496094 2.890625 1.226562 2.871094 L 1.226562 4.324219 C 1.496094 4.367188 1.746094 4.367188 2.140625 4.367188 C 3.929688 4.367188 5.117188 3.265625 6.011719 0.9375 Z M 10.542969 -11.023438"/></g><g id="aF"><path d="M 11.167969 -11.023438 L 9.378906 -11.023438 L 9.378906 -9.503906 L 8.652344 -10.585938 C 8.089844 -11.042969 6.925781 -11.3125 6.011719 -11.3125 C 3.160156 -11.3125 0.625 -9.421875 0.625 -5.34375 C 0.625 -2.121094 2.414062 0.292969 5.636719 0.292969 C 6.757812 0.292969 7.921875 -0.0625 8.546875 -0.582031 L 9.378906 -1.769531 L 9.378906 -1.582031 C 9.378906 -1.246094 9.378906 -0.894531 9.359375 -0.375 C 9.273438 1.746094 8.089844 2.996094 5.90625 2.996094 C 4.015625 2.996094 2.933594 2.058594 2.785156 0.707031 L 2.765625 0.519531 L 0.957031 0.519531 L 0.976562 0.726562 C 1.207031 3.058594 2.765625 4.367188 5.90625 4.367188 C 9.089844 4.367188 11.042969 2.660156 11.148438 -0.5625 C 11.167969 -1.164062 11.167969 -2.015625 11.167969 -2.703125 Z M 5.90625 -1.082031 C 3.703125 -1.082031 2.578125 -3.058594 2.578125 -5.550781 C 2.578125 -8.445312 4.074219 -9.941406 6.011719 -9.941406 C 7.589844 -9.941406 9.378906 -8.859375 9.378906 -6.011719 L 9.378906 -5.40625 C 9.378906 -2.246094 7.738281 -1.082031 5.90625 -1.082031 Z M 5.90625 -1.082031"/></g><g id="aG"><path d="M 10.8125 -8.089844 C 10.648438 -10.023438 9.296875 -11.3125 6.882812 -11.3125 C 5.761719 -11.3125 4.949219 -11.125 4.015625 -10.398438 L 3.328125 -9.128906 L 3.328125 -11.023438 L 1.539062 -11.023438 L 1.539062 0 L 3.328125 0 L 3.328125 -4.84375 C 3.328125 -8.609375 4.785156 -9.898438 6.507812 -9.898438 C 8.214844 -9.898438 8.921875 -8.941406 9.027344 -7.652344 C 9.066406 -7.089844 9.066406 -6.632812 9.066406 -6.074219 L 9.066406 0 L 10.855469 0 L 10.855469 -6.199219 C 10.855469 -7.089844 10.855469 -7.527344 10.8125 -8.089844 Z M 10.8125 -8.089844"/></g><g id="aH"><path d="M 3.472656 -13.144531 C 3.617188 -14.039062 4.511719 -14.351562 5.863281 -14.101562 L 5.863281 -15.578125 C 5.492188 -15.640625 5.054688 -15.679688 4.597656 -15.679688 C 2.953125 -15.679688 1.871094 -14.785156 1.683594 -13.183594 C 1.644531 -12.8125 1.621094 -12.269531 1.621094 -11.855469 L 1.621094 -10.9375 L 0.4375 -10.9375 L 0.4375 -9.566406 L 1.621094 -9.566406 L 1.621094 0 L 3.410156 0 L 3.410156 -9.566406 L 5.675781 -9.566406 L 5.675781 -10.9375 L 3.410156 -10.9375 L 3.410156 -12.019531 C 3.410156 -12.332031 3.429688 -12.851562 3.472656 -13.144531 Z M 3.472656 -13.144531"/></g><clipPath id="d"><path d="M 0 1 L 538.800781 1 L 538.800781 540 L 0 540 Z M 0 1"/></clipPath><clipPath id="c"><path d="M0 0H539V541H0z"/></clipPath><clipPath id="g"><path d="M 2 0 L 977.679688 0 L 977.679688 975 L 2 975 Z M 2 0"/></clipPath><clipPath id="f"><path d="M0 0H978V975H0z"/></clipPath><clipPath id="h"><path d="M 930 393.113281 L 952 393.113281 L 952 415 L 930 415 Z M 930 393.113281"/></clipPath><clipPath id="i"><path d="M 915.960938 416 L 966.210938 416 L 966.210938 523 L 915.960938 523 Z M 915.960938 416"/></clipPath><clipPath id="j"><path d="M 1068 393.113281 L 1090 393.113281 L 1090 415 L 1068 415 Z M 1068 393.113281"/></clipPath><clipPath id="m"><path d="M 1 1 L 205.519531 1 L 205.519531 205.398438 L 1 205.398438 Z M 1 1"/></clipPath><clipPath id="l"><path d="M0 0H206V206H0z"/></clipPath><clipPath id="F"><path d="M 1 1 L 205.238281 1 L 205.238281 205.640625 L 1 205.640625 Z M 1 1"/></clipPath><clipPath id="E"><path d="M0 0H206V206H0z"/></clipPath><clipPath id="I"><path d="M 1 1 L 205.480469 1 L 205.480469 205.160156 L 1 205.160156 Z M 1 1"/></clipPath><clipPath id="H"><path d="M0 0H206V206H0z"/></clipPath><clipPath id="L"><path d="M 1 1 L 205.238281 1 L 205.238281 205.160156 L 1 205.160156 Z M 1 1"/></clipPath><clipPath id="K"><path d="M0 0H206V206H0z"/></clipPath><clipPath id="Y"><path d="M 665 410.355469 L 676 410.355469 L 676 421 L 665 421 Z M 665 410.355469"/></clipPath><clipPath id="Z"><path d="M 659.234375 421 L 681.734375 421 L 681.734375 470 L 659.234375 470 Z M 659.234375 421"/></clipPath><clipPath id="aa"><path d="M 728 410.355469 L 739 410.355469 L 739 421 L 728 421 Z M 728 410.355469"/></clipPath><clipPath id="ab"><path d="M 719.210938 421 L 747 421 L 747 470 L 719.210938 470 Z M 719.210938 421"/></clipPath><clipPath id="ag"><path d="M 676 793.296875 L 692 793.296875 L 692 809 L 676 809 Z M 676 793.296875"/></clipPath><clipPath id="ah"><path d="M 666.570312 809 L 701.070312 809 L 701.070312 883 L 666.570312 883 Z M 666.570312 809"/></clipPath><clipPath id="ai"><path d="M 772 793.296875 L 787 793.296875 L 787 808 L 772 808 Z M 772 793.296875"/></clipPath><clipPath id="ap"><path d="M 0.640625 0.878906 L 45.761719 0.878906 L 45.761719 48.640625 L 0.640625 48.640625 Z M 0.640625 0.878906"/></clipPath><clipPath id="ao"><path d="M0 0H46V49H0z"/></clipPath><clipPath id="aq"><path d="M 461 614.21875 L 472 614.21875 L 472 625 L 461 625 Z M 461 614.21875"/></clipPath><clipPath id="ar"><path d="M 455.371094 625 L 477.871094 625 L 477.871094 674 L 455.371094 674 Z M 455.371094 625"/></clipPath><clipPath id="as"><path d="M 524 614.21875 L 535 614.21875 L 535 624 L 524 624 Z M 524 614.21875"/></clipPath><clipPath id="at"><path d="M 516 625 L 543.847656 625 L 543.847656 674 L 516 674 Z M 516 625"/></clipPath><mask id="b"><g filter="url(#a)"><path fill-opacity=".427" d="M-144 -97.5H1584V1072.5H-144z"/></g></mask><mask id="e"><g filter="url(#a)"><path fill-opacity=".4" d="M-144 -97.5H1584V1072.5H-144z"/></g></mask><mask id="k"><g filter="url(#a)"><path fill-opacity=".388" d="M-144 -97.5H1584V1072.5H-144z"/></g></mask><mask id="D"><g filter="url(#a)"><path fill-opacity=".388" d="M-144 -97.5H1584V1072.5H-144z"/></g></mask><mask id="G"><g filter="url(#a)"><path fill-opacity=".388" d="M-144 -97.5H1584V1072.5H-144z"/></g></mask><mask id="J"><g filter="url(#a)"><path fill-opacity=".388" d="M-144 -97.5H1584V1072.5H-144z"/></g></mask><mask id="an"><g filter="url(#a)"><path fill-opacity=".427" d="M-144 -97.5H1584V1072.5H-144z"/></g></mask><filter x="0%" y="0%" width="100%" xmlns:xlink="http://www.w3.org/1999/xlink" xlink:type="simple" xlink:actuate="onLoad" height="100%" id="a" xlink:show="other"><feColorMatrix values="0 0 0 0 1 0 0 0 0 1 0 0 0 0 1 0 0 0 1 0" color-interpolation-filters="sRGB"/></filter></defs><g mask="url(#b)"><g><g clip-path="url(#c)" transform="translate(330 253)"><g clip-path="url(#d)"><path fill="#F03612" d="M 269.019531 539.863281 C 197.195312 539.863281 129.5625 511.910156 78.8125 461.050781 C 27.957031 410.300781 0 342.671875 0 270.847656 C 0 199.023438 27.957031 131.390625 78.8125 80.640625 C 129.5625 29.785156 197.195312 1.828125 269.019531 1.828125 C 340.839844 1.828125 408.472656 29.785156 459.222656 80.640625 C 510.078125 131.5 538.035156 199.023438 538.035156 270.847656 C 538.035156 342.671875 510.078125 410.300781 459.222656 461.050781 C 408.472656 511.910156 340.839844 539.863281 269.019531 539.863281 Z M 269.019531 17.957031 C 201.496094 17.957031 137.949219 44.300781 90.210938 92.039062 C 42.472656 139.777344 16.128906 203.324219 16.128906 270.847656 C 16.128906 338.371094 42.472656 401.914062 90.210938 449.65625 C 137.949219 497.394531 201.496094 523.738281 269.019531 523.738281 C 336.539062 523.738281 400.085938 497.394531 447.824219 449.65625 C 495.566406 401.914062 521.90625 338.371094 521.90625 270.847656 C 521.90625 203.324219 495.566406 139.777344 447.824219 92.039062 C 400.085938 44.300781 336.539062 17.957031 269.019531 17.957031 Z M 269.019531 17.957031"/></g></g></g></g><g mask="url(#e)"><g><g clip-path="url(#f)" transform="translate(230)"><g clip-path="url(#g)"><path fill="#F00" d="M 490 0 C 220.761719 0 2.5 218.261719 2.5 487.5 C 2.5 756.738281 220.761719 975 490 975 C 759.238281 975 977.5 756.738281 977.5 487.5 C 977.5 218.261719 759.238281 0 490 0 Z M 490 0"/></g></g></g></g><g clip-path="url(#h)"><path fill="#FFFDFD" d="M 941.144531 414.535156 C 947.066406 414.535156 951.871094 409.746094 951.871094 403.835938 C 951.871094 397.929688 947.066406 393.140625 941.144531 393.140625 C 935.21875 393.140625 930.414062 397.929688 930.414062 403.835938 C 930.414062 409.746094 935.21875 414.535156 941.144531 414.535156"/></g><g clip-path="url(#i)"><path fill="#FFFDFD" d="M 929.664062 416.898438 C 922.066406 416.898438 915.957031 423.078125 915.957031 430.78125 L 915.957031 463.625 C 915.957031 470.011719 925.328125 470.011719 925.328125 463.625 L 925.328125 433.59375 L 927.546875 433.59375 L 927.546875 515.824219 C 927.546875 524.359375 940.027344 524.109375 940.027344 515.824219 L 940.027344 468.089844 L 942.175781 468.089844 L 942.175781 515.824219 C 942.175781 524.109375 954.722656 524.359375 954.722656 515.824219 L 954.722656 433.59375 L 956.890625 433.59375 L 956.890625 463.625 C 956.890625 470.0625 966.210938 470.058594 966.195312 463.625 L 966.195312 430.980469 C 966.195312 423.871094 960.664062 416.914062 952.320312 416.914062 L 929.664062 416.898438"/></g><g clip-path="url(#j)"><path fill="#FFFDFD" d="M 1078.65625 414.296875 C 1084.46875 414.277344 1089.15625 409.558594 1089.140625 403.738281 C 1089.15625 397.917969 1084.46875 393.199219 1078.65625 393.183594 C 1072.902344 393.199219 1068.214844 397.917969 1068.230469 403.738281 C 1068.214844 409.558594 1072.902344 414.277344 1078.65625 414.296875"/></g><path fill="#FFFDFD" d="M 1077.148438 481.175781 L 1077.148438 517.648438 C 1077.140625 524.285156 1067.269531 524.285156 1067.289062 517.648438 L 1067.289062 481.425781 L 1053.976562 481.425781 L 1068.167969 431.867188 L 1065.972656 431.867188 L 1057.746094 459.808594 C 1055.773438 465.914062 1047.464844 463.410156 1049.394531 456.902344 L 1058.5 426.558594 C 1059.5 423.089844 1063.847656 416.953125 1071.371094 416.949219 L 1085.75 416.949219 C 1093.230469 416.953125 1097.597656 423.140625 1098.75 426.558594 L 1107.855469 456.835938 C 1109.714844 463.378906 1101.472656 466.078125 1099.503906 459.746094 L 1091.277344 431.867188 L 1088.890625 431.867188 L 1103.144531 481.425781 L 1089.894531 481.425781 L 1089.894531 517.710938 C 1089.894531 524.285156 1080.0625 524.253906 1080.039062 517.710938 L 1080.039062 481.175781 L 1077.148438 481.175781"/><g mask="url(#k)"><g><g clip-path="url(#l)" transform="translate(394 319)"><g clip-path="url(#m)"><path fill="#FFFDFD" d="M 103.371094 1.199219 C 47.035156 1.199219 1.371094 46.867188 1.371094 103.199219 C 1.371094 159.53125 47.035156 205.199219 103.371094 205.199219 C 159.703125 205.199219 205.371094 159.53125 205.371094 103.199219 C 205.371094 46.867188 159.703125 1.199219 103.371094 1.199219 Z M 103.371094 1.199219"/></g></g></g></g><g fill="#FFF"><use x="902.701" y="574.821" xmlns:xlink="http://www.w3.org/1999/xlink" xlink:href="#n" xlink:type="simple" xlink:actuate="onLoad" xlink:show="embed"/></g><g fill="#FFF"><use x="927.08" y="574.821" xmlns:xlink="http://www.w3.org/1999/xlink" xlink:href="#o" xlink:type="simple" xlink:actuate="onLoad" xlink:show="embed"/></g><g fill="#FFF"><use x="951.46" y="574.821" xmlns:xlink="http://www.w3.org/1999/xlink" xlink:href="#p" xlink:type="simple" xlink:actuate="onLoad" xlink:show="embed"/></g><g fill="#FFF"><use x="1040.479" y="574.821" xmlns:xlink="http://www.w3.org/1999/xlink" xlink:href="#n" xlink:type="simple" xlink:actuate="onLoad" xlink:show="embed"/></g><g fill="#FFF"><use x="1064.859" y="574.821" xmlns:xlink="http://www.w3.org/1999/xlink" xlink:href="#q" xlink:type="simple" xlink:actuate="onLoad" xlink:show="embed"/></g><g fill="#FFF"><use x="1089.239" y="574.821" xmlns:xlink="http://www.w3.org/1999/xlink" xlink:href="#p" xlink:type="simple" xlink:actuate="onLoad" xlink:show="embed"/></g><g fill="#FFF"><use x="412.725" y="181.244" xmlns:xlink="http://www.w3.org/1999/xlink" xlink:href="#r" xlink:type="simple" xlink:actuate="onLoad" xlink:show="embed"/></g><g fill="#FFF"><use x="453.386" y="181.244" xmlns:xlink="http://www.w3.org/1999/xlink" xlink:href="#s" xlink:type="simple" xlink:actuate="onLoad" xlink:show="embed"/></g><g fill="#FFF"><use x="487.755" y="181.244" xmlns:xlink="http://www.w3.org/1999/xlink" xlink:href="#t" xlink:type="simple" xlink:actuate="onLoad" xlink:show="embed"/></g><g fill="#FFF"><use x="529.612" y="181.244" xmlns:xlink="http://www.w3.org/1999/xlink" xlink:href="#s" xlink:type="simple" xlink:actuate="onLoad" xlink:show="embed"/></g><g fill="#FFF"><use x="563.982" y="181.244" xmlns:xlink="http://www.w3.org/1999/xlink" xlink:href="#u" xlink:type="simple" xlink:actuate="onLoad" xlink:show="embed"/></g><g fill="#FFF"><use x="600.327" y="181.244" xmlns:xlink="http://www.w3.org/1999/xlink" xlink:href="#v" xlink:type="simple" xlink:actuate="onLoad" xlink:show="embed"/></g><g fill="#FFF"><use x="637.817" y="181.244" xmlns:xlink="http://www.w3.org/1999/xlink" xlink:href="#w" xlink:type="simple" xlink:actuate="onLoad" xlink:show="embed"/></g><g fill="#FFF"><use x="671.562" y="181.244" xmlns:xlink="http://www.w3.org/1999/xlink" xlink:href="#x" xlink:type="simple" xlink:actuate="onLoad" xlink:show="embed"/></g><g fill="#FFF"><use x="683.989" y="181.244" xmlns:xlink="http://www.w3.org/1999/xlink" xlink:href="#y" xlink:type="simple" xlink:actuate="onLoad" xlink:show="embed"/></g><g fill="#FFF"><use x="718.723" y="181.244" xmlns:xlink="http://www.w3.org/1999/xlink" xlink:href="#z" xlink:type="simple" xlink:actuate="onLoad" xlink:show="embed"/></g><g fill="#FFF"><use x="760.84" y="181.244" xmlns:xlink="http://www.w3.org/1999/xlink" xlink:href="#y" xlink:type="simple" xlink:actuate="onLoad" xlink:show="embed"/></g><g fill="#FFF"><use x="795.574" y="181.244" xmlns:xlink="http://www.w3.org/1999/xlink" xlink:href="#A" xlink:type="simple" xlink:actuate="onLoad" xlink:show="embed"/></g><g fill="#FFF"><use x="834.415" y="181.244" xmlns:xlink="http://www.w3.org/1999/xlink" xlink:href="#w" xlink:type="simple" xlink:actuate="onLoad" xlink:show="embed"/></g><g fill="#FFF"><use x="868.16" y="181.244" xmlns:xlink="http://www.w3.org/1999/xlink" xlink:href="#v" xlink:type="simple" xlink:actuate="onLoad" xlink:show="embed"/></g><g fill="#FFF"><use x="905.65" y="181.244" xmlns:xlink="http://www.w3.org/1999/xlink" xlink:href="#B" xlink:type="simple" xlink:actuate="onLoad" xlink:show="embed"/></g><g fill="#FFF"><use x="940.383" y="181.244" xmlns:xlink="http://www.w3.org/1999/xlink" xlink:href="#C" xlink:type="simple" xlink:actuate="onLoad" xlink:show="embed"/></g><g fill="#FFF"><use x="957.906" y="181.244" xmlns:xlink="http://www.w3.org/1999/xlink" xlink:href="#z" xlink:type="simple" xlink:actuate="onLoad" xlink:show="embed"/></g><g fill="#FFF"><use x="1000.023" y="181.244" xmlns:xlink="http://www.w3.org/1999/xlink" xlink:href="#t" xlink:type="simple" xlink:actuate="onLoad" xlink:show="embed"/></g><g mask="url(#D)"><g><g clip-path="url(#E)" transform="translate(599 313)"><g clip-path="url(#F)"><path fill="#FFFDFD" d="M 103.121094 1.4375 C 46.785156 1.4375 1.121094 47.105469 1.121094 103.4375 C 1.121094 159.769531 46.785156 205.4375 103.121094 205.4375 C 159.453125 205.4375 205.121094 159.769531 205.121094 103.4375 C 205.121094 47.105469 159.453125 1.4375 103.121094 1.4375 Z M 103.121094 1.4375"/></g></g></g></g><g mask="url(#G)"><g><g clip-path="url(#H)" transform="translate(395 523)"><g clip-path="url(#I)"><path fill="#FFFDFD" d="M 103.253906 1.0625 C 46.921875 1.0625 1.253906 46.730469 1.253906 103.0625 C 1.253906 159.394531 46.921875 205.0625 103.253906 205.0625 C 159.589844 205.0625 205.253906 159.394531 205.253906 103.0625 C 205.253906 46.730469 159.589844 1.0625 103.253906 1.0625 Z M 103.253906 1.0625"/></g></g></g></g><g mask="url(#J)"><g><g clip-path="url(#K)" transform="translate(599 523)"><g clip-path="url(#L)"><path fill="#FFFDFD" d="M 103.121094 1.0625 C 46.785156 1.0625 1.121094 46.730469 1.121094 103.0625 C 1.121094 159.394531 46.785156 205.0625 103.121094 205.0625 C 159.453125 205.0625 205.121094 159.394531 205.121094 103.0625 C 205.121094 46.730469 159.453125 1.0625 103.121094 1.0625 Z M 103.121094 1.0625"/></g></g></g></g><g fill="#FFF"><use x="448.715" y="381.389" xmlns:xlink="http://www.w3.org/1999/xlink" xlink:href="#M" xlink:type="simple" xlink:actuate="onLoad" xlink:show="embed"/></g><g fill="#FFF"><use x="467.667" y="381.389" xmlns:xlink="http://www.w3.org/1999/xlink" xlink:href="#N" xlink:type="simple" xlink:actuate="onLoad" xlink:show="embed"/></g><g fill="#FFF"><use x="486.041" y="381.389" xmlns:xlink="http://www.w3.org/1999/xlink" xlink:href="#O" xlink:type="simple" xlink:actuate="onLoad" xlink:show="embed"/></g><g fill="#FFF"><use x="503.6" y="381.389" xmlns:xlink="http://www.w3.org/1999/xlink" xlink:href="#P" xlink:type="simple" xlink:actuate="onLoad" xlink:show="embed"/></g><g fill="#FFF"><use x="512.459" y="381.389" xmlns:xlink="http://www.w3.org/1999/xlink" xlink:href="#Q" xlink:type="simple" xlink:actuate="onLoad" xlink:show="embed"/></g><g fill="#FFF"><use x="529.624" y="381.389" xmlns:xlink="http://www.w3.org/1999/xlink" xlink:href="#O" xlink:type="simple" xlink:actuate="onLoad" xlink:show="embed"/></g><g fill="#FFF"><use x="417.883" y="592.013" xmlns:xlink="http://www.w3.org/1999/xlink" xlink:href="#R" xlink:type="simple" xlink:actuate="onLoad" xlink:show="embed"/></g><g fill="#FFF"><use x="435.442" y="592.013" xmlns:xlink="http://www.w3.org/1999/xlink" xlink:href="#S" xlink:type="simple" xlink:actuate="onLoad" xlink:show="embed"/></g><g fill="#FFF"><use x="456.734" y="592.013" xmlns:xlink="http://www.w3.org/1999/xlink" xlink:href="#T" xlink:type="simple" xlink:actuate="onLoad" xlink:show="embed"/></g><g fill="#FFF"><use x="473.794" y="592.013" xmlns:xlink="http://www.w3.org/1999/xlink" xlink:href="#P" xlink:type="simple" xlink:actuate="onLoad" xlink:show="embed"/></g><g fill="#FFF"><use x="482.652" y="592.013" xmlns:xlink="http://www.w3.org/1999/xlink" xlink:href="#O" xlink:type="simple" xlink:actuate="onLoad" xlink:show="embed"/></g><g fill="#FFF"><use x="500.211" y="592.013" xmlns:xlink="http://www.w3.org/1999/xlink" xlink:href="#P" xlink:type="simple" xlink:actuate="onLoad" xlink:show="embed"/></g><g fill="#FFF"><use x="509.07" y="592.013" xmlns:xlink="http://www.w3.org/1999/xlink" xlink:href="#U" xlink:type="simple" xlink:actuate="onLoad" xlink:show="embed"/></g><g fill="#FFF"><use x="529.126" y="592.013" xmlns:xlink="http://www.w3.org/1999/xlink" xlink:href="#P" xlink:type="simple" xlink:actuate="onLoad" xlink:show="embed"/></g><g fill="#FFF"><use x="537.985" y="592.013" xmlns:xlink="http://www.w3.org/1999/xlink" xlink:href="#M" xlink:type="simple" xlink:actuate="onLoad" xlink:show="embed"/></g><g fill="#FFF"><use x="556.937" y="592.013" xmlns:xlink="http://www.w3.org/1999/xlink" xlink:href="#V" xlink:type="simple" xlink:actuate="onLoad" xlink:show="embed"/></g><g fill="#FFF"><use x="629.852" y="381.389" xmlns:xlink="http://www.w3.org/1999/xlink" xlink:href="#Q" xlink:type="simple" xlink:actuate="onLoad" xlink:show="embed"/></g><g fill="#FFF"><use x="647.017" y="381.389" xmlns:xlink="http://www.w3.org/1999/xlink" xlink:href="#U" xlink:type="simple" xlink:actuate="onLoad" xlink:show="embed"/></g><g fill="#FFF"><use x="667.073" y="381.389" xmlns:xlink="http://www.w3.org/1999/xlink" xlink:href="#P" xlink:type="simple" xlink:actuate="onLoad" xlink:show="embed"/></g><g fill="#FFF"><use x="675.932" y="381.389" xmlns:xlink="http://www.w3.org/1999/xlink" xlink:href="#W" xlink:type="simple" xlink:actuate="onLoad" xlink:show="embed"/></g><g fill="#FFF"><use x="693.307" y="381.389" xmlns:xlink="http://www.w3.org/1999/xlink" xlink:href="#V" xlink:type="simple" xlink:actuate="onLoad" xlink:show="embed"/></g><g fill="#FFF"><use x="714.467" y="381.389" xmlns:xlink="http://www.w3.org/1999/xlink" xlink:href="#O" xlink:type="simple" xlink:actuate="onLoad" xlink:show="embed"/></g><g fill="#FFF"><use x="732.026" y="381.389" xmlns:xlink="http://www.w3.org/1999/xlink" xlink:href="#P" xlink:type="simple" xlink:actuate="onLoad" xlink:show="embed"/></g><g fill="#FFF"><use x="740.885" y="381.389" xmlns:xlink="http://www.w3.org/1999/xlink" xlink:href="#Q" xlink:type="simple" xlink:actuate="onLoad" xlink:show="embed"/></g><g fill="#FFF"><use x="758.05" y="381.389" xmlns:xlink="http://www.w3.org/1999/xlink" xlink:href="#O" xlink:type="simple" xlink:actuate="onLoad" xlink:show="embed"/></g><g fill="#FFF"><use x="617.987" y="592.956" xmlns:xlink="http://www.w3.org/1999/xlink" xlink:href="#W" xlink:type="simple" xlink:actuate="onLoad" xlink:show="embed"/></g><g fill="#FFF"><use x="635.362" y="592.956" xmlns:xlink="http://www.w3.org/1999/xlink" xlink:href="#U" xlink:type="simple" xlink:actuate="onLoad" xlink:show="embed"/></g><g fill="#FFF"><use x="655.418" y="592.956" xmlns:xlink="http://www.w3.org/1999/xlink" xlink:href="#S" xlink:type="simple" xlink:actuate="onLoad" xlink:show="embed"/></g><g fill="#FFF"><use x="676.71" y="592.956" xmlns:xlink="http://www.w3.org/1999/xlink" xlink:href="#V" xlink:type="simple" xlink:actuate="onLoad" xlink:show="embed"/></g><g fill="#FFF"><use x="697.87" y="592.956" xmlns:xlink="http://www.w3.org/1999/xlink" xlink:href="#S" xlink:type="simple" xlink:actuate="onLoad" xlink:show="embed"/></g><g fill="#FFF"><use x="719.161" y="592.956" xmlns:xlink="http://www.w3.org/1999/xlink" xlink:href="#X" xlink:type="simple" xlink:actuate="onLoad" xlink:show="embed"/></g><g fill="#FFF"><use x="743.923" y="592.956" xmlns:xlink="http://www.w3.org/1999/xlink" xlink:href="#P" xlink:type="simple" xlink:actuate="onLoad" xlink:show="embed"/></g><g fill="#FFF"><use x="752.781" y="592.956" xmlns:xlink="http://www.w3.org/1999/xlink" xlink:href="#Q" xlink:type="simple" xlink:actuate="onLoad" xlink:show="embed"/></g><g fill="#FFF"><use x="769.946" y="592.956" xmlns:xlink="http://www.w3.org/1999/xlink" xlink:href="#O" xlink:type="simple" xlink:actuate="onLoad" xlink:show="embed"/></g><g clip-path="url(#Y)"><path fill="#FFFDFD" d="M 670.511719 420.148438 C 673.164062 420.148438 675.316406 417.957031 675.316406 415.257812 C 675.316406 412.558594 673.164062 410.367188 670.511719 410.367188 C 667.859375 410.367188 665.707031 412.558594 665.707031 415.257812 C 665.707031 417.957031 667.859375 420.148438 670.511719 420.148438"/></g><g clip-path="url(#Z)"><path fill="#FFFDFD" d="M 665.371094 421.230469 C 661.96875 421.230469 659.234375 424.054688 659.234375 427.574219 L 659.234375 442.589844 C 659.234375 445.507812 663.429688 445.507812 663.429688 442.589844 L 663.429688 428.859375 L 664.425781 428.859375 L 664.425781 466.449219 C 664.425781 470.351562 670.011719 470.234375 670.011719 466.449219 L 670.011719 444.628906 L 670.972656 444.628906 L 670.972656 466.449219 C 670.972656 470.234375 676.59375 470.351562 676.59375 466.449219 L 676.59375 428.859375 L 677.5625 428.859375 L 677.5625 442.589844 C 677.5625 445.53125 681.738281 445.53125 681.730469 442.589844 L 681.730469 427.664062 C 681.730469 424.417969 679.25 421.234375 675.515625 421.234375 L 665.371094 421.230469"/></g><g clip-path="url(#aa)"><path fill="#FFFDFD" d="M 733.484375 420.035156 C 736.148438 420.027344 738.292969 417.867188 738.289062 415.207031 C 738.292969 412.546875 736.148438 410.386719 733.484375 410.378906 C 730.851562 410.386719 728.707031 412.546875 728.714844 415.207031 C 728.707031 417.867188 730.851562 420.027344 733.484375 420.035156"/></g><g clip-path="url(#ab)"><path fill="#FFFDFD" d="M 732.796875 450.613281 L 732.796875 467.289062 C 732.792969 470.324219 728.273438 470.324219 728.28125 467.289062 L 728.28125 450.726562 L 722.1875 450.726562 L 728.683594 428.070312 L 727.679688 428.070312 L 723.914062 440.84375 C 723.007812 443.632812 719.207031 442.492188 720.089844 439.515625 L 724.257812 425.640625 C 724.714844 424.054688 726.707031 421.25 730.152344 421.246094 L 736.734375 421.246094 C 740.160156 421.25 742.160156 424.078125 742.6875 425.640625 L 746.855469 439.484375 C 747.707031 442.476562 743.933594 443.710938 743.03125 440.816406 L 739.265625 428.070312 L 738.171875 428.070312 L 744.699219 450.726562 L 738.632812 450.726562 L 738.632812 467.316406 C 738.632812 470.324219 734.132812 470.308594 734.117188 467.316406 L 734.117188 450.613281 L 732.796875 450.613281"/></g><g fill="#FFF"><use x="653.529" y="493.025" xmlns:xlink="http://www.w3.org/1999/xlink" xlink:href="#ac" xlink:type="simple" xlink:actuate="onLoad" xlink:show="embed"/></g><g fill="#FFF"><use x="664.398" y="493.025" xmlns:xlink="http://www.w3.org/1999/xlink" xlink:href="#ad" xlink:type="simple" xlink:actuate="onLoad" xlink:show="embed"/></g><g fill="#FFF"><use x="675.267" y="493.025" xmlns:xlink="http://www.w3.org/1999/xlink" xlink:href="#ae" xlink:type="simple" xlink:actuate="onLoad" xlink:show="embed"/></g><g fill="#FFF"><use x="716.36" y="493.025" xmlns:xlink="http://www.w3.org/1999/xlink" xlink:href="#ac" xlink:type="simple" xlink:actuate="onLoad" xlink:show="embed"/></g><g fill="#FFF"><use x="727.229" y="493.025" xmlns:xlink="http://www.w3.org/1999/xlink" xlink:href="#af" xlink:type="simple" xlink:actuate="onLoad" xlink:show="embed"/></g><g fill="#FFF"><use x="738.098" y="493.025" xmlns:xlink="http://www.w3.org/1999/xlink" xlink:href="#ae" xlink:type="simple" xlink:actuate="onLoad" xlink:show="embed"/></g><g clip-path="url(#ag)"><path fill="#FFFDFD" d="M 683.859375 808.105469 C 687.925781 808.105469 691.222656 804.792969 691.222656 800.707031 C 691.222656 796.625 687.925781 793.3125 683.859375 793.3125 C 679.792969 793.3125 676.492188 796.625 676.492188 800.707031 C 676.492188 804.792969 679.792969 808.105469 683.859375 808.105469"/></g><g clip-path="url(#ah)"><path fill="#FFFDFD" d="M 675.976562 809.738281 C 670.761719 809.738281 666.566406 814.011719 666.566406 819.339844 L 666.566406 842.050781 C 666.566406 846.464844 673 846.464844 673 842.050781 L 673 821.285156 L 674.523438 821.285156 L 674.523438 878.140625 C 674.523438 884.042969 683.09375 883.871094 683.09375 878.140625 L 683.09375 845.132812 L 684.566406 845.132812 L 684.566406 878.140625 C 684.566406 883.871094 693.183594 884.042969 693.183594 878.140625 L 693.183594 821.285156 L 694.671875 821.285156 L 694.671875 842.050781 C 694.671875 846.5 701.070312 846.5 701.058594 842.050781 L 701.058594 819.476562 C 701.058594 814.5625 697.261719 809.75 691.535156 809.75 L 675.976562 809.738281"/></g><g clip-path="url(#ai)"><path fill="#FFFDFD" d="M 779.464844 807.9375 C 783.527344 807.925781 786.800781 804.660156 786.792969 800.636719 C 786.800781 796.609375 783.527344 793.347656 779.464844 793.335938 C 775.445312 793.347656 772.167969 796.609375 772.179688 800.636719 C 772.167969 804.660156 775.445312 807.925781 779.464844 807.9375"/></g><path fill="#FFFDFD" d="M 778.410156 854.183594 L 778.410156 879.40625 C 778.40625 883.996094 771.507812 883.996094 771.523438 879.40625 L 771.523438 854.359375 L 762.21875 854.359375 L 772.136719 820.089844 L 770.601562 820.089844 L 764.851562 839.410156 C 763.472656 843.632812 757.667969 841.902344 759.015625 837.398438 L 765.378906 816.417969 C 766.078125 814.015625 769.117188 809.777344 774.375 809.773438 L 784.421875 809.773438 C 789.648438 809.777344 792.703125 814.054688 793.507812 816.417969 L 799.871094 837.355469 C 801.167969 841.878906 795.410156 843.746094 794.03125 839.367188 L 788.285156 820.089844 L 786.617188 820.089844 L 796.578125 854.359375 L 787.320312 854.359375 L 787.320312 879.453125 C 787.320312 883.996094 780.449219 883.976562 780.429688 879.453125 L 780.429688 854.183594 L 778.410156 854.183594"/><g fill="#FFF"><use x="657.378" y="919.675" xmlns:xlink="http://www.w3.org/1999/xlink" xlink:href="#aj" xlink:type="simple" xlink:actuate="onLoad" xlink:show="embed"/></g><g fill="#FFF"><use x="674.267" y="919.675" xmlns:xlink="http://www.w3.org/1999/xlink" xlink:href="#ak" xlink:type="simple" xlink:actuate="onLoad" xlink:show="embed"/></g><g fill="#FFF"><use x="691.156" y="919.675" xmlns:xlink="http://www.w3.org/1999/xlink" xlink:href="#al" xlink:type="simple" xlink:actuate="onLoad" xlink:show="embed"/></g><g fill="#FFF"><use x="752.824" y="919.675" xmlns:xlink="http://www.w3.org/1999/xlink" xlink:href="#aj" xlink:type="simple" xlink:actuate="onLoad" xlink:show="embed"/></g><g fill="#FFF"><use x="769.713" y="919.675" xmlns:xlink="http://www.w3.org/1999/xlink" xlink:href="#am" xlink:type="simple" xlink:actuate="onLoad" xlink:show="embed"/></g><g fill="#FFF"><use x="786.602" y="919.675" xmlns:xlink="http://www.w3.org/1999/xlink" xlink:href="#al" xlink:type="simple" xlink:actuate="onLoad" xlink:show="embed"/></g><g mask="url(#an)"><g><g clip-path="url(#ao)" transform="translate(698 752)"><g clip-path="url(#ap)"><path stroke-linecap="round" transform="matrix(-3.56172 -6.59707 6.7688 -3.65444 32.038 41.205)" fill="none" d="M 3.000003 -0.000121305 L 3.601464 0.000116569" stroke="#F03612"/></g><path stroke-linecap="round" transform="matrix(-3.56172 -6.59707 6.7688 -3.65444 32.038 41.205)" fill="#F03612" stroke-linejoin="round" d="M 2.499799 -1.500044 L 0.499936 0.000132232 L 2.500088 1.499854 Z M 2.499799 -1.500044" stroke="#F03612"/></g></g></g><g clip-path="url(#aq)"><path fill="#FFFDFD" d="M 466.648438 624.011719 C 469.300781 624.011719 471.453125 621.824219 471.453125 619.121094 C 471.453125 616.421875 469.300781 614.230469 466.648438 614.230469 C 463.996094 614.230469 461.84375 616.421875 461.84375 619.121094 C 461.84375 621.824219 463.996094 624.011719 466.648438 624.011719"/></g><g clip-path="url(#ar)"><path fill="#FFFDFD" d="M 461.507812 625.09375 C 458.105469 625.09375 455.371094 627.917969 455.371094 631.4375 L 455.371094 646.453125 C 455.371094 649.371094 459.566406 649.371094 459.566406 646.453125 L 459.566406 632.722656 L 460.558594 632.722656 L 460.558594 670.3125 C 460.558594 674.214844 466.148438 674.097656 466.148438 670.3125 L 466.148438 648.492188 L 467.109375 648.492188 L 467.109375 670.3125 C 467.109375 674.097656 472.730469 674.214844 472.730469 670.3125 L 472.730469 632.722656 L 473.699219 632.722656 L 473.699219 646.453125 C 473.699219 649.394531 477.875 649.394531 477.867188 646.453125 L 477.867188 631.527344 C 477.867188 628.28125 475.386719 625.097656 471.652344 625.097656 L 461.507812 625.09375"/></g><g clip-path="url(#as)"><path fill="#FFFDFD" d="M 529.621094 623.898438 C 532.285156 623.890625 534.429688 621.730469 534.421875 619.070312 C 534.429688 616.410156 532.285156 614.25 529.621094 614.246094 C 526.988281 614.25 524.84375 616.410156 524.851562 619.070312 C 524.84375 621.730469 526.988281 623.890625 529.621094 623.898438"/></g><g clip-path="url(#at)"><path fill="#FFFDFD" d="M 528.933594 654.476562 L 528.933594 671.152344 C 528.929688 674.1875 524.410156 674.1875 524.417969 671.152344 L 524.417969 654.589844 L 518.324219 654.589844 L 524.820312 631.933594 L 523.816406 631.933594 L 520.050781 644.707031 C 519.144531 647.496094 515.34375 646.355469 516.226562 643.378906 L 520.394531 629.503906 C 520.851562 627.917969 522.84375 625.113281 526.289062 625.113281 L 532.871094 625.113281 C 536.296875 625.113281 538.292969 627.941406 538.820312 629.503906 L 542.992188 643.347656 C 543.84375 646.339844 540.070312 647.574219 539.167969 644.679688 L 535.402344 631.933594 L 534.308594 631.933594 L 540.835938 654.589844 L 534.769531 654.589844 L 534.769531 671.179688 C 534.769531 674.1875 530.265625 674.171875 530.253906 671.179688 L 530.253906 654.476562 L 528.933594 654.476562"/></g><g fill="#FFF"><use x="449.665" y="696.889" xmlns:xlink="http://www.w3.org/1999/xlink" xlink:href="#ac" xlink:type="simple" xlink:actuate="onLoad" xlink:show="embed"/></g><g fill="#FFF"><use x="460.534" y="696.889" xmlns:xlink="http://www.w3.org/1999/xlink" xlink:href="#au" xlink:type="simple" xlink:actuate="onLoad" xlink:show="embed"/></g><g fill="#FFF"><use x="471.403" y="696.889" xmlns:xlink="http://www.w3.org/1999/xlink" xlink:href="#ae" xlink:type="simple" xlink:actuate="onLoad" xlink:show="embed"/></g><g fill="#FFF"><use x="512.497" y="696.889" xmlns:xlink="http://www.w3.org/1999/xlink" xlink:href="#ac" xlink:type="simple" xlink:actuate="onLoad" xlink:show="embed"/></g><g fill="#FFF"><use x="523.366" y="696.889" xmlns:xlink="http://www.w3.org/1999/xlink" xlink:href="#af" xlink:type="simple" xlink:actuate="onLoad" xlink:show="embed"/></g><g fill="#FFF"><use x="534.235" y="696.889" xmlns:xlink="http://www.w3.org/1999/xlink" xlink:href="#ae" xlink:type="simple" xlink:actuate="onLoad" xlink:show="embed"/></g><g fill="#FFF"><use x="627.176" y="646.816" xmlns:xlink="http://www.w3.org/1999/xlink" xlink:href="#av" xlink:type="simple" xlink:actuate="onLoad" xlink:show="embed"/></g><g fill="#FFF"><use x="643.043" y="646.816" xmlns:xlink="http://www.w3.org/1999/xlink" xlink:href="#aw" xlink:type="simple" xlink:actuate="onLoad" xlink:show="embed"/></g><g fill="#FFF"><use x="656.164" y="646.816" xmlns:xlink="http://www.w3.org/1999/xlink" xlink:href="#ax" xlink:type="simple" xlink:actuate="onLoad" xlink:show="embed"/></g><g fill="#FFF"><use x="663.609" y="646.816" xmlns:xlink="http://www.w3.org/1999/xlink" xlink:href="#ay" xlink:type="simple" xlink:actuate="onLoad" xlink:show="embed"/></g><g fill="#FFF"><use x="669.037" y="646.816" xmlns:xlink="http://www.w3.org/1999/xlink" xlink:href="#az" xlink:type="simple" xlink:actuate="onLoad" xlink:show="embed"/></g><g fill="#FFF"><use x="679.518" y="646.816" xmlns:xlink="http://www.w3.org/1999/xlink" xlink:href="#ax" xlink:type="simple" xlink:actuate="onLoad" xlink:show="embed"/></g><g fill="#FFF"><use x="686.963" y="646.816" xmlns:xlink="http://www.w3.org/1999/xlink" xlink:href="#aA" xlink:type="simple" xlink:actuate="onLoad" xlink:show="embed"/></g><g fill="#FFF"><use x="698.941" y="646.816" xmlns:xlink="http://www.w3.org/1999/xlink" xlink:href="#ax" xlink:type="simple" xlink:actuate="onLoad" xlink:show="embed"/></g><g fill="#FFF"><use x="706.385" y="646.816" xmlns:xlink="http://www.w3.org/1999/xlink" xlink:href="#aB" xlink:type="simple" xlink:actuate="onLoad" xlink:show="embed"/></g><g fill="#FFF"><use x="712.271" y="646.816" xmlns:xlink="http://www.w3.org/1999/xlink" xlink:href="#az" xlink:type="simple" xlink:actuate="onLoad" xlink:show="embed"/></g><g fill="#FFF"><use x="722.751" y="646.816" xmlns:xlink="http://www.w3.org/1999/xlink" xlink:href="#ax" xlink:type="simple" xlink:actuate="onLoad" xlink:show="embed"/></g><g fill="#FFF"><use x="730.196" y="646.816" xmlns:xlink="http://www.w3.org/1999/xlink" xlink:href="#aC" xlink:type="simple" xlink:actuate="onLoad" xlink:show="embed"/></g><g fill="#FFF"><use x="742.133" y="646.816" xmlns:xlink="http://www.w3.org/1999/xlink" xlink:href="#aA" xlink:type="simple" xlink:actuate="onLoad" xlink:show="embed"/></g><g fill="#FFF"><use x="754.111" y="646.816" xmlns:xlink="http://www.w3.org/1999/xlink" xlink:href="#aD" xlink:type="simple" xlink:actuate="onLoad" xlink:show="embed"/></g><g fill="#FFF"><use x="760.183" y="646.816" xmlns:xlink="http://www.w3.org/1999/xlink" xlink:href="#aD" xlink:type="simple" xlink:actuate="onLoad" xlink:show="embed"/></g><g fill="#FFF"><use x="766.255" y="646.816" xmlns:xlink="http://www.w3.org/1999/xlink" xlink:href="#aE" xlink:type="simple" xlink:actuate="onLoad" xlink:show="embed"/></g><g fill="#FFF"><use x="649.159" y="675.579" xmlns:xlink="http://www.w3.org/1999/xlink" xlink:href="#az" xlink:type="simple" xlink:actuate="onLoad" xlink:show="embed"/></g><g fill="#FFF"><use x="659.64" y="675.579" xmlns:xlink="http://www.w3.org/1999/xlink" xlink:href="#aB" xlink:type="simple" xlink:actuate="onLoad" xlink:show="embed"/></g><g fill="#FFF"><use x="665.525" y="675.579" xmlns:xlink="http://www.w3.org/1999/xlink" xlink:href="#aF" xlink:type="simple" xlink:actuate="onLoad" xlink:show="embed"/></g><g fill="#FFF"><use x="679.25" y="675.579" xmlns:xlink="http://www.w3.org/1999/xlink" xlink:href="#aG" xlink:type="simple" xlink:actuate="onLoad" xlink:show="embed"/></g><g fill="#FFF"><use x="692.517" y="675.579" xmlns:xlink="http://www.w3.org/1999/xlink" xlink:href="#aB" xlink:type="simple" xlink:actuate="onLoad" xlink:show="embed"/></g><g fill="#FFF"><use x="698.402" y="675.579" xmlns:xlink="http://www.w3.org/1999/xlink" xlink:href="#aH" xlink:type="simple" xlink:actuate="onLoad" xlink:show="embed"/></g><g fill="#FFF"><use x="705.369" y="675.579" xmlns:xlink="http://www.w3.org/1999/xlink" xlink:href="#aB" xlink:type="simple" xlink:actuate="onLoad" xlink:show="embed"/></g><g fill="#FFF"><use x="711.254" y="675.579" xmlns:xlink="http://www.w3.org/1999/xlink" xlink:href="#aC" xlink:type="simple" xlink:actuate="onLoad" xlink:show="embed"/></g><g fill="#FFF"><use x="723.191" y="675.579" xmlns:xlink="http://www.w3.org/1999/xlink" xlink:href="#aA" xlink:type="simple" xlink:actuate="onLoad" xlink:show="embed"/></g><g fill="#FFF"><use x="735.169" y="675.579" xmlns:xlink="http://www.w3.org/1999/xlink" xlink:href="#aG" xlink:type="simple" xlink:actuate="onLoad" xlink:show="embed"/></g><g fill="#FFF"><use x="748.436" y="675.579" xmlns:xlink="http://www.w3.org/1999/xlink" xlink:href="#ax" xlink:type="simple" xlink:actuate="onLoad" xlink:show="embed"/></g><g fill="#FFF"><use x="422.426" y="441.988" xmlns:xlink="http://www.w3.org/1999/xlink" xlink:href="#av" xlink:type="simple" xlink:actuate="onLoad" xlink:show="embed"/></g><g fill="#FFF"><use x="438.293" y="441.988" xmlns:xlink="http://www.w3.org/1999/xlink" xlink:href="#aw" xlink:type="simple" xlink:actuate="onLoad" xlink:show="embed"/></g><g fill="#FFF"><use x="451.414" y="441.988" xmlns:xlink="http://www.w3.org/1999/xlink" xlink:href="#ax" xlink:type="simple" xlink:actuate="onLoad" xlink:show="embed"/></g><g fill="#FFF"><use x="458.859" y="441.988" xmlns:xlink="http://www.w3.org/1999/xlink" xlink:href="#ay" xlink:type="simple" xlink:actuate="onLoad" xlink:show="embed"/></g><g fill="#FFF"><use x="464.287" y="441.988" xmlns:xlink="http://www.w3.org/1999/xlink" xlink:href="#az" xlink:type="simple" xlink:actuate="onLoad" xlink:show="embed"/></g><g fill="#FFF"><use x="474.768" y="441.988" xmlns:xlink="http://www.w3.org/1999/xlink" xlink:href="#ax" xlink:type="simple" xlink:actuate="onLoad" xlink:show="embed"/></g><g fill="#FFF"><use x="482.213" y="441.988" xmlns:xlink="http://www.w3.org/1999/xlink" xlink:href="#aA" xlink:type="simple" xlink:actuate="onLoad" xlink:show="embed"/></g><g fill="#FFF"><use x="494.191" y="441.988" xmlns:xlink="http://www.w3.org/1999/xlink" xlink:href="#ax" xlink:type="simple" xlink:actuate="onLoad" xlink:show="embed"/></g><g fill="#FFF"><use x="501.635" y="441.988" xmlns:xlink="http://www.w3.org/1999/xlink" xlink:href="#aB" xlink:type="simple" xlink:actuate="onLoad" xlink:show="embed"/></g><g fill="#FFF"><use x="507.521" y="441.988" xmlns:xlink="http://www.w3.org/1999/xlink" xlink:href="#az" xlink:type="simple" xlink:actuate="onLoad" xlink:show="embed"/></g><g fill="#FFF"><use x="518.001" y="441.988" xmlns:xlink="http://www.w3.org/1999/xlink" xlink:href="#ax" xlink:type="simple" xlink:actuate="onLoad" xlink:show="embed"/></g><g fill="#FFF"><use x="525.446" y="441.988" xmlns:xlink="http://www.w3.org/1999/xlink" xlink:href="#aC" xlink:type="simple" xlink:actuate="onLoad" xlink:show="embed"/></g><g fill="#FFF"><use x="537.383" y="441.988" xmlns:xlink="http://www.w3.org/1999/xlink" xlink:href="#aA" xlink:type="simple" xlink:actuate="onLoad" xlink:show="embed"/></g><g fill="#FFF"><use x="549.361" y="441.988" xmlns:xlink="http://www.w3.org/1999/xlink" xlink:href="#aD" xlink:type="simple" xlink:actuate="onLoad" xlink:show="embed"/></g><g fill="#FFF"><use x="555.433" y="441.988" xmlns:xlink="http://www.w3.org/1999/xlink" xlink:href="#aD" xlink:type="simple" xlink:actuate="onLoad" xlink:show="embed"/></g><g fill="#FFF"><use x="561.505" y="441.988" xmlns:xlink="http://www.w3.org/1999/xlink" xlink:href="#aE" xlink:type="simple" xlink:actuate="onLoad" xlink:show="embed"/></g><g fill="#FFF"><use x="444.409" y="470.751" xmlns:xlink="http://www.w3.org/1999/xlink" xlink:href="#az" xlink:type="simple" xlink:actuate="onLoad" xlink:show="embed"/></g><g fill="#FFF"><use x="454.89" y="470.751" xmlns:xlink="http://www.w3.org/1999/xlink" xlink:href="#aB" xlink:type="simple" xlink:actuate="onLoad" xlink:show="embed"/></g><g fill="#FFF"><use x="460.775" y="470.751" xmlns:xlink="http://www.w3.org/1999/xlink" xlink:href="#aF" xlink:type="simple" xlink:actuate="onLoad" xlink:show="embed"/></g><g fill="#FFF"><use x="474.5" y="470.751" xmlns:xlink="http://www.w3.org/1999/xlink" xlink:href="#aG" xlink:type="simple" xlink:actuate="onLoad" xlink:show="embed"/></g><g fill="#FFF"><use x="487.767" y="470.751" xmlns:xlink="http://www.w3.org/1999/xlink" xlink:href="#aB" xlink:type="simple" xlink:actuate="onLoad" xlink:show="embed"/></g><g fill="#FFF"><use x="493.652" y="470.751" xmlns:xlink="http://www.w3.org/1999/xlink" xlink:href="#aH" xlink:type="simple" xlink:actuate="onLoad" xlink:show="embed"/></g><g fill="#FFF"><use x="500.619" y="470.751" xmlns:xlink="http://www.w3.org/1999/xlink" xlink:href="#aB" xlink:type="simple" xlink:actuate="onLoad" xlink:show="embed"/></g><g fill="#FFF"><use x="506.504" y="470.751" xmlns:xlink="http://www.w3.org/1999/xlink" xlink:href="#aC" xlink:type="simple" xlink:actuate="onLoad" xlink:show="embed"/></g><g fill="#FFF"><use x="518.441" y="470.751" xmlns:xlink="http://www.w3.org/1999/xlink" xlink:href="#aA" xlink:type="simple" xlink:actuate="onLoad" xlink:show="embed"/></g><g fill="#FFF"><use x="530.419" y="470.751" xmlns:xlink="http://www.w3.org/1999/xlink" xlink:href="#aG" xlink:type="simple" xlink:actuate="onLoad" xlink:show="embed"/></g><g fill="#FFF"><use x="543.686" y="470.751" xmlns:xlink="http://www.w3.org/1999/xlink" xlink:href="#ax" xlink:type="simple" xlink:actuate="onLoad" xlink:show="embed"/></g></svg>