<svg xmlns="http://www.w3.org/2000/svg" xmlns:xlink="http://www.w3.org/1999/xlink" width="1500" viewBox="0 0 1500 1500" height="1500" version="1.0"><defs><g id="l"><path d="M 30.125 -38.636719 L 2.800781 -38.636719 L 2.800781 -34.71875 L 24.246094 -34.71875 L 5.710938 0 L 10.863281 0 L 30.125 -36.398438 Z M 30.125 -38.636719"/></g><g id="m"><path d="M 10.359375 -3.917969 L 20.046875 -13.496094 C 26.597656 -19.933594 29.453125 -23.519531 29.453125 -28.78125 C 29.453125 -34.550781 25.589844 -39.421875 17.695312 -39.421875 C 9.96875 -39.421875 5.152344 -35.164062 4.367188 -27.101562 L 4.3125 -26.542969 L 9.128906 -26.542969 L 9.183594 -27.101562 C 9.742188 -32.53125 12.152344 -35.613281 17.132812 -35.613281 C 21.78125 -35.613281 24.078125 -32.195312 24.078125 -28.222656 C 24.078125 -24.46875 21.894531 -21.671875 17.359375 -17.023438 L 3.359375 -2.742188 L 3.359375 0 L 29.285156 0 L 29.285156 -3.917969 Z M 10.359375 -3.917969"/></g><g id="o"><path d="M 16.238281 -39.421875 C 5.597656 -39.421875 2.296875 -30.574219 2.296875 -19.316406 C 2.296875 -8.121094 5.597656 0.785156 16.238281 0.785156 C 26.878906 0.785156 30.179688 -8.121094 30.179688 -19.316406 C 30.179688 -30.574219 26.878906 -39.421875 16.238281 -39.421875 Z M 16.238281 -3.023438 C 10.078125 -3.023438 7.671875 -9.238281 7.671875 -19.316406 C 7.671875 -29.453125 10.078125 -35.613281 16.238281 -35.613281 C 22.398438 -35.613281 24.804688 -29.453125 24.804688 -19.316406 C 24.804688 -9.238281 22.398438 -3.023438 16.238281 -3.023438 Z M 16.238281 -3.023438"/></g><g id="n"><path d="M 10.582031 -39.195312 C 5.542969 -39.195312 2.296875 -35.78125 2.296875 -30.292969 C 2.296875 -24.863281 5.542969 -21.390625 10.582031 -21.390625 C 15.621094 -21.390625 18.871094 -24.863281 18.871094 -30.292969 C 18.871094 -35.78125 15.621094 -39.195312 10.582031 -39.195312 Z M 10.640625 0 L 35.726562 -38.636719 L 30.851562 -38.636719 L 5.765625 0 Z M 10.582031 -35.835938 C 12.710938 -35.835938 14.167969 -33.933594 14.167969 -30.292969 C 14.167969 -26.710938 12.710938 -24.75 10.582031 -24.75 C 8.457031 -24.75 7 -26.710938 7 -30.292969 C 7 -33.933594 8.457031 -35.835938 10.582031 -35.835938 Z M 30.851562 -17.023438 C 25.8125 -17.023438 22.566406 -13.605469 22.566406 -8.121094 C 22.566406 -2.6875 25.8125 0.785156 30.851562 0.785156 C 35.894531 0.785156 39.140625 -2.6875 39.140625 -8.121094 C 39.140625 -13.605469 35.894531 -17.023438 30.851562 -17.023438 Z M 30.851562 -13.664062 C 32.980469 -13.664062 34.4375 -11.757812 34.4375 -8.121094 C 34.4375 -4.535156 32.980469 -2.574219 30.851562 -2.574219 C 28.726562 -2.574219 27.269531 -4.535156 27.269531 -8.121094 C 27.269531 -11.757812 28.726562 -13.664062 30.851562 -13.664062 Z M 30.851562 -13.664062"/></g><g id="p"><path d="M 31.917969 -26.636719 L 31.917969 -21.039062 L 44.796875 -21.039062 C 44.796875 -11.199219 38.15625 -4.320312 29.199219 -4.320312 C 18.320312 -4.320312 11.4375 -14.078125 11.4375 -27.679688 C 11.4375 -41.039062 18.398438 -50.875 29.679688 -50.875 C 38.878906 -50.875 43.757812 -45.515625 45.355469 -37.597656 L 45.515625 -36.796875 L 52.398438 -36.796875 L 52.316406 -37.597656 C 51.195312 -48.398438 43.835938 -56.316406 29.839844 -56.316406 C 14.160156 -56.316406 3.757812 -44.15625 3.757812 -27.359375 C 3.757812 -11.199219 12.71875 1.121094 28.796875 1.121094 C 35.117188 1.121094 39.996094 -0.960938 43.117188 -4.480469 L 45.597656 -9.597656 L 45.597656 0 L 51.675781 0 L 51.675781 -26.636719 Z M 31.917969 -26.636719"/></g><g id="q"><path d="M 44.71875 -5.601562 L 14.878906 -5.601562 L 14.878906 -24.796875 L 41.515625 -24.796875 L 41.515625 -30.398438 L 14.878906 -30.398438 L 14.878906 -49.597656 L 43.917969 -49.597656 L 43.917969 -55.195312 L 8 -55.195312 L 8 0 L 44.71875 0 Z M 44.71875 -5.601562"/></g><g id="r"><path d="M 51.195312 0 L 51.035156 -55.195312 L 44.316406 -55.195312 L 44.316406 -27.597656 C 44.316406 -21.117188 44.398438 -13.199219 44.558594 -6.71875 L 18.558594 -55.195312 L 8 -55.195312 L 8 0 L 14.878906 0 L 14.878906 -27.597656 C 14.878906 -34.078125 14.800781 -41.996094 14.640625 -48.476562 L 40.636719 0 Z M 51.195312 0"/></g><g id="s"><path d="M 44.316406 -14.480469 C 43.835938 -20 41.675781 -25.039062 37.199219 -27.117188 C 42.316406 -28.71875 47.035156 -32.878906 47.035156 -40.15625 C 47.035156 -49.4375 41.277344 -53.835938 33.277344 -54.875 C 30.796875 -55.195312 28.878906 -55.195312 26.078125 -55.195312 L 8 -55.195312 L 8 0 L 14.878906 0 L 14.878906 -23.757812 L 25.277344 -23.757812 C 26.558594 -23.757812 27.917969 -23.757812 29.199219 -23.679688 C 34.636719 -23.277344 36.796875 -19.519531 37.4375 -13.839844 C 38.15625 -7.039062 38.878906 -3.519531 40.398438 0 L 47.996094 0 C 45.757812 -2.960938 44.957031 -7.28125 44.316406 -14.480469 Z M 14.878906 -29.359375 L 14.878906 -49.597656 L 26.078125 -49.597656 C 28.558594 -49.597656 30.078125 -49.515625 31.597656 -49.277344 C 36.71875 -48.476562 39.675781 -45.675781 39.675781 -39.515625 C 39.675781 -33.277344 35.917969 -30 30.796875 -29.519531 C 29.277344 -29.359375 27.917969 -29.359375 25.4375 -29.359375 Z M 14.878906 -29.359375"/></g><g id="t"><path d="M 36.476562 -19.519531 L 43.039062 0 L 50.476562 0 L 31.4375 -55.195312 L 22.160156 -55.195312 L 2.320312 0 L 9.679688 0 L 16.160156 -19.519531 Z M 18.078125 -25.117188 L 26.636719 -49.757812 L 34.636719 -25.117188 Z M 18.078125 -25.117188"/></g><g id="u"><path d="M 44.71875 -5.601562 L 14.878906 -5.601562 L 14.878906 -55.195312 L 8 -55.195312 L 8 0 L 44.71875 0 Z M 44.71875 -5.601562"/></g><g id="w"><path d="M 32.316406 -54.875 C 29.839844 -55.195312 27.917969 -55.195312 25.117188 -55.195312 L 8 -55.195312 L 8 0 L 14.878906 0 L 14.878906 -22.558594 L 25.117188 -22.558594 C 27.917969 -22.558594 29.839844 -22.558594 32.316406 -22.878906 C 40.316406 -23.917969 46.636719 -29.519531 46.636719 -38.878906 C 46.636719 -48.238281 41.117188 -53.757812 32.316406 -54.875 Z M 31.917969 -28.71875 C 30.398438 -28.398438 28.238281 -28.316406 25.757812 -28.316406 L 14.878906 -28.316406 L 14.878906 -49.4375 L 25.757812 -49.4375 C 28.238281 -49.4375 30.398438 -49.355469 31.917969 -49.035156 C 35.835938 -48.15625 39.277344 -45.277344 39.277344 -38.878906 C 39.277344 -32.476562 35.835938 -29.597656 31.917969 -28.71875 Z M 31.917969 -28.71875"/></g><g id="x"><path d="M 29.839844 -56.316406 C 13.039062 -56.316406 3.757812 -44.476562 3.757812 -27.597656 C 3.757812 -10.800781 13.039062 1.121094 29.839844 1.121094 C 46.636719 1.121094 55.917969 -10.800781 55.917969 -27.597656 C 55.917969 -44.476562 46.636719 -56.316406 29.839844 -56.316406 Z M 29.839844 -4.320312 C 18.238281 -4.320312 11.4375 -13.277344 11.4375 -27.597656 C 11.4375 -41.996094 18.238281 -50.875 29.839844 -50.875 C 41.4375 -50.875 48.238281 -41.996094 48.238281 -27.597656 C 48.238281 -13.277344 41.4375 -4.320312 29.839844 -4.320312 Z M 29.839844 -4.320312"/></g><g id="y"><path d="M 48.957031 -55.195312 L 42.078125 -55.195312 L 42.078125 -21.039062 C 42.078125 -19.277344 42.078125 -17.597656 41.917969 -16.160156 C 41.277344 -9.199219 36.71875 -4.320312 28.238281 -4.320312 C 19.757812 -4.320312 15.199219 -9.199219 14.558594 -16.160156 C 14.398438 -17.597656 14.398438 -19.277344 14.398438 -21.039062 L 14.398438 -55.195312 L 7.519531 -55.195312 L 7.519531 -20.398438 C 7.519531 -18.640625 7.519531 -17.039062 7.679688 -15.4375 C 8.480469 -6.238281 14.71875 1.121094 28.238281 1.121094 C 41.757812 1.121094 47.996094 -6.238281 48.796875 -15.4375 C 48.957031 -17.039062 48.957031 -18.640625 48.957031 -20.398438 Z M 48.957031 -55.195312"/></g><g id="z"><path d="M 48.957031 -49.597656 L 48.957031 -55.195312 L 2.71875 -55.195312 L 2.71875 -49.597656 L 22.398438 -49.597656 L 22.398438 0 L 29.277344 0 L 29.277344 -49.597656 Z M 48.957031 -49.597656"/></g><g id="A"><path d="M 14.878906 0 L 14.878906 -55.195312 L 8 -55.195312 L 8 0 Z M 14.878906 0"/></g><g id="K"><path d="M 19.152344 -10.246094 L 22.597656 0 L 26.503906 0 L 16.507812 -28.980469 L 11.632812 -28.980469 L 1.21875 0 L 5.082031 0 L 8.484375 -10.246094 Z M 9.492188 -13.1875 L 13.984375 -26.125 L 18.1875 -13.1875 Z M 9.492188 -13.1875"/></g><g id="L"><path d="M 23.269531 -7.601562 C 23.015625 -10.5 21.882812 -13.144531 19.53125 -14.238281 C 22.21875 -15.078125 24.695312 -17.261719 24.695312 -21.085938 C 24.695312 -25.957031 21.671875 -28.265625 17.472656 -28.8125 C 16.171875 -28.980469 15.160156 -28.980469 13.691406 -28.980469 L 4.199219 -28.980469 L 4.199219 0 L 7.8125 0 L 7.8125 -12.472656 L 13.273438 -12.472656 C 13.945312 -12.472656 14.65625 -12.472656 15.328125 -12.433594 C 18.1875 -12.222656 19.320312 -10.246094 19.65625 -7.265625 C 20.035156 -3.695312 20.410156 -1.847656 21.210938 0 L 25.199219 0 C 24.023438 -1.554688 23.605469 -3.820312 23.269531 -7.601562 Z M 7.8125 -15.414062 L 7.8125 -26.039062 L 13.691406 -26.039062 C 14.992188 -26.039062 15.792969 -25.996094 16.589844 -25.871094 C 19.277344 -25.453125 20.832031 -23.980469 20.832031 -20.746094 C 20.832031 -17.472656 18.859375 -15.75 16.171875 -15.496094 C 15.371094 -15.414062 14.65625 -15.414062 13.355469 -15.414062 Z M 7.8125 -15.414062"/></g><g id="M"><path d="M 25.703125 -26.039062 L 25.703125 -28.980469 L 1.429688 -28.980469 L 1.429688 -26.039062 L 11.761719 -26.039062 L 11.761719 0 L 15.371094 0 L 15.371094 -26.039062 Z M 25.703125 -26.039062"/></g><g id="N"><path d="M 7.8125 0 L 7.8125 -28.980469 L 4.199219 -28.980469 L 4.199219 0 Z M 7.8125 0"/></g><g id="O"><path d="M 13.1875 -29.566406 C 7.855469 -29.566406 3.527344 -26.417969 3.527344 -21.421875 C 3.527344 -16.632812 7.097656 -14.574219 12.222656 -13.398438 C 17.304688 -12.222656 19.320312 -10.625 19.320312 -7.097656 C 19.320312 -4.074219 16.632812 -2.269531 13.3125 -2.269531 C 9.535156 -2.269531 6.886719 -4.410156 6.046875 -8.230469 L 2.183594 -8.230469 C 2.8125 -2.644531 6.847656 0.589844 13.230469 0.589844 C 18.816406 0.589844 23.183594 -2.6875 23.183594 -7.769531 C 23.183594 -12.683594 19.992188 -15.289062 13.609375 -16.757812 C 9.199219 -17.765625 7.390625 -19.109375 7.390625 -22.261719 C 7.390625 -25.285156 9.828125 -26.710938 12.894531 -26.710938 C 16.546875 -26.710938 18.691406 -24.613281 19.027344 -20.957031 L 22.890625 -20.957031 C 22.34375 -25.914062 19.195312 -29.566406 13.1875 -29.566406 Z M 13.1875 -29.566406"/></g><g id="P"><path d="M 16.96875 -28.8125 C 15.664062 -28.980469 14.65625 -28.980469 13.1875 -28.980469 L 4.199219 -28.980469 L 4.199219 0 L 7.8125 0 L 7.8125 -11.84375 L 13.1875 -11.84375 C 14.65625 -11.84375 15.664062 -11.84375 16.96875 -12.011719 C 21.167969 -12.558594 24.484375 -15.496094 24.484375 -20.410156 C 24.484375 -25.324219 21.589844 -28.222656 16.96875 -28.8125 Z M 16.757812 -15.078125 C 15.960938 -14.910156 14.824219 -14.867188 13.523438 -14.867188 L 7.8125 -14.867188 L 7.8125 -25.957031 L 13.523438 -25.957031 C 14.824219 -25.957031 15.960938 -25.914062 16.757812 -25.746094 C 18.816406 -25.285156 20.621094 -23.773438 20.621094 -20.410156 C 20.621094 -17.050781 18.816406 -15.539062 16.757812 -15.078125 Z M 16.757812 -15.078125"/></g><g id="Q"><path d="M 15.664062 -29.566406 C 6.847656 -29.566406 1.972656 -23.351562 1.972656 -14.488281 C 1.972656 -5.671875 6.847656 0.589844 15.664062 0.589844 C 24.484375 0.589844 29.359375 -5.671875 29.359375 -14.488281 C 29.359375 -23.351562 24.484375 -29.566406 15.664062 -29.566406 Z M 15.664062 -2.269531 C 9.574219 -2.269531 6.007812 -6.972656 6.007812 -14.488281 C 6.007812 -22.050781 9.574219 -26.710938 15.664062 -26.710938 C 21.757812 -26.710938 25.324219 -22.050781 25.324219 -14.488281 C 25.324219 -6.972656 21.757812 -2.269531 15.664062 -2.269531 Z M 15.664062 -2.269531"/></g><g id="R"><path d="M 23.476562 -2.941406 L 7.8125 -2.941406 L 7.8125 -28.980469 L 4.199219 -28.980469 L 4.199219 0 L 23.476562 0 Z M 23.476562 -2.941406"/></g><g id="S"><path d="M 15.664062 -29.566406 C 7.433594 -29.566406 1.972656 -23.183594 1.972656 -14.363281 C 1.972656 -5.878906 6.679688 0.589844 15.121094 0.589844 C 22.765625 0.589844 26.671875 -3.988281 27.214844 -9.238281 L 27.257812 -9.660156 L 23.644531 -9.660156 L 23.5625 -9.238281 C 22.722656 -5.082031 20.160156 -2.269531 15.328125 -2.269531 C 9.617188 -2.269531 6.007812 -7.390625 6.007812 -14.53125 C 6.007812 -21.546875 9.660156 -26.710938 15.582031 -26.710938 C 20.410156 -26.710938 22.972656 -23.898438 23.8125 -19.738281 L 23.898438 -19.320312 L 27.511719 -19.320312 L 27.46875 -19.738281 C 26.878906 -25.410156 23.015625 -29.566406 15.664062 -29.566406 Z M 15.664062 -29.566406"/></g><g id="T"><path d="M 26.878906 0 L 26.796875 -28.980469 L 23.269531 -28.980469 L 23.269531 -14.488281 C 23.269531 -11.089844 23.308594 -6.929688 23.394531 -3.527344 L 9.742188 -28.980469 L 4.199219 -28.980469 L 4.199219 0 L 7.8125 0 L 7.8125 -14.488281 C 7.8125 -17.890625 7.769531 -22.050781 7.6875 -25.453125 L 21.335938 0 Z M 26.878906 0"/></g><g id="U"><path d="M 23.476562 -2.941406 L 7.8125 -2.941406 L 7.8125 -13.019531 L 21.796875 -13.019531 L 21.796875 -15.960938 L 7.8125 -15.960938 L 7.8125 -26.039062 L 23.058594 -26.039062 L 23.058594 -28.980469 L 4.199219 -28.980469 L 4.199219 0 L 23.476562 0 Z M 23.476562 -2.941406"/></g><g id="V"><path d="M 33.097656 -28.980469 L 27.257812 -28.980469 L 18.730469 -3.066406 L 10.164062 -28.980469 L 4.199219 -28.980469 L 4.199219 0 L 7.8125 0 L 7.8125 -14.910156 C 7.8125 -18.480469 7.8125 -22.46875 7.726562 -25.621094 C 8.652344 -22.511719 9.996094 -18.480469 11.171875 -15.035156 L 16.378906 0 L 20.914062 0 L 26.039062 -14.953125 C 27.257812 -18.480469 28.601562 -22.554688 29.566406 -25.703125 C 29.484375 -22.554688 29.484375 -18.523438 29.484375 -14.910156 L 29.484375 0 L 33.097656 0 Z M 33.097656 -28.980469"/></g><g id="Z"><path d="M 7.480469 -17.976562 C 3.90625 -17.976562 1.25 -15.449219 1.25 -11.695312 C 1.25 -8.195312 3.421875 -5.71875 7.097656 -5.71875 C 8.375 -5.71875 9.371094 -6.050781 10.316406 -6.84375 L 11.3125 -8.425781 C 11.132812 -3.292969 9.449219 -1.378906 7.074219 -1.378906 C 5.285156 -1.378906 4.238281 -2.398438 3.832031 -4.390625 L 3.777344 -4.648438 L 1.429688 -4.648438 L 1.457031 -4.390625 C 1.738281 -1.507812 3.882812 0.359375 6.894531 0.359375 C 10.519531 0.359375 13.710938 -2.554688 13.710938 -9.652344 C 13.710938 -15.5 11.414062 -17.976562 7.480469 -17.976562 Z M 7.480469 -7.457031 C 4.800781 -7.457031 3.703125 -9.5 3.703125 -11.949219 C 3.703125 -14.503906 5.285156 -16.242188 7.480469 -16.242188 C 9.703125 -16.242188 11.160156 -14.351562 11.160156 -11.898438 C 11.160156 -8.964844 9.472656 -7.457031 7.480469 -7.457031 Z M 7.480469 -7.457031"/></g><g id="aa"><path d="M 7.710938 -11.898438 C 6.433594 -11.898438 5.4375 -11.566406 4.496094 -10.777344 L 3.5 -9.191406 C 3.675781 -14.324219 5.363281 -16.242188 7.738281 -16.242188 C 9.523438 -16.242188 10.570312 -15.21875 10.980469 -13.226562 L 11.03125 -12.972656 L 13.378906 -12.972656 L 13.355469 -13.226562 C 13.074219 -16.113281 10.929688 -17.976562 7.914062 -17.976562 C 4.289062 -17.976562 1.097656 -15.066406 1.097656 -7.96875 C 1.097656 -2.121094 3.394531 0.359375 7.328125 0.359375 C 10.902344 0.359375 13.558594 -2.171875 13.558594 -5.925781 C 13.558594 -9.421875 11.390625 -11.898438 7.710938 -11.898438 Z M 7.328125 -1.378906 C 5.105469 -1.378906 3.652344 -3.269531 3.652344 -5.71875 C 3.652344 -8.65625 5.335938 -10.164062 7.328125 -10.164062 C 10.011719 -10.164062 11.109375 -8.121094 11.109375 -5.667969 C 11.109375 -3.117188 9.523438 -1.378906 7.328125 -1.378906 Z M 7.328125 -1.378906"/></g><g id="ac"><path d="M 7.839844 -11.617188 C 6.765625 -11.617188 5.898438 -11.390625 5.054688 -10.878906 L 3.957031 -9.703125 L 4.75 -15.832031 L 12.972656 -15.832031 L 12.972656 -17.621094 L 2.960938 -17.621094 L 1.738281 -7.378906 L 3.832031 -7.378906 C 4.699219 -9.191406 5.875 -9.882812 7.507812 -9.882812 C 9.855469 -9.882812 11.261719 -8.222656 11.261719 -5.566406 C 11.261719 -2.910156 9.730469 -1.378906 7.40625 -1.378906 C 5.210938 -1.378906 4.109375 -2.65625 3.703125 -4.671875 L 3.652344 -4.929688 L 1.457031 -4.929688 L 1.480469 -4.671875 C 1.8125 -1.351562 3.882812 0.359375 7.429688 0.359375 C 10.699219 0.359375 13.710938 -1.839844 13.710938 -5.71875 C 13.710938 -9.066406 11.773438 -11.617188 7.839844 -11.617188 Z M 7.839844 -11.617188"/></g><g id="aq"><path d="M 10.113281 -9.371094 C 11.949219 -9.90625 13.226562 -11.492188 13.226562 -13.507812 C 13.226562 -16.164062 11.183594 -17.976562 7.941406 -17.976562 C 4.367188 -17.976562 2.195312 -15.984375 1.863281 -12.792969 L 1.839844 -12.539062 L 4.035156 -12.539062 L 4.058594 -12.792969 C 4.289062 -15.117188 5.796875 -16.242188 7.660156 -16.242188 C 9.523438 -16.242188 10.777344 -15.015625 10.777344 -13.253906 C 10.777344 -11.03125 9.089844 -9.804688 6.996094 -9.804688 L 6.5625 -9.804688 L 6.5625 -8.019531 L 6.996094 -8.019531 C 9.855469 -8.019531 11.183594 -6.84375 11.183594 -4.773438 C 11.183594 -2.628906 9.625 -1.378906 7.457031 -1.378906 C 5.3125 -1.378906 3.625 -2.476562 3.371094 -4.953125 L 3.34375 -5.210938 L 1.148438 -5.210938 L 1.175781 -4.953125 C 1.558594 -1.148438 3.90625 0.359375 7.253906 0.359375 C 10.648438 0.359375 13.636719 -1.609375 13.636719 -4.902344 C 13.636719 -7.199219 12.28125 -8.757812 10.113281 -9.371094 Z M 10.113281 -9.371094"/></g><g id="ab"><path d="M 4.828125 -17.875 C 2.527344 -17.875 1.046875 -16.316406 1.046875 -13.816406 C 1.046875 -11.335938 2.527344 -9.753906 4.828125 -9.753906 C 7.125 -9.753906 8.605469 -11.335938 8.605469 -13.816406 C 8.605469 -16.316406 7.125 -17.875 4.828125 -17.875 Z M 4.851562 0 L 16.292969 -17.621094 L 14.070312 -17.621094 L 2.628906 0 Z M 4.828125 -16.34375 C 5.796875 -16.34375 6.460938 -15.472656 6.460938 -13.816406 C 6.460938 -12.179688 5.796875 -11.285156 4.828125 -11.285156 C 3.855469 -11.285156 3.191406 -12.179688 3.191406 -13.816406 C 3.191406 -15.472656 3.855469 -16.34375 4.828125 -16.34375 Z M 14.070312 -7.761719 C 11.773438 -7.761719 10.289062 -6.207031 10.289062 -3.703125 C 10.289062 -1.226562 11.773438 0.359375 14.070312 0.359375 C 16.367188 0.359375 17.847656 -1.226562 17.847656 -3.703125 C 17.847656 -6.207031 16.367188 -7.761719 14.070312 -7.761719 Z M 14.070312 -6.230469 C 15.039062 -6.230469 15.703125 -5.363281 15.703125 -3.703125 C 15.703125 -2.070312 15.039062 -1.175781 14.070312 -1.175781 C 13.101562 -1.175781 12.4375 -2.070312 12.4375 -3.703125 C 12.4375 -5.363281 13.101562 -6.230469 14.070312 -6.230469 Z M 14.070312 -6.230469"/></g><g id="ag"><path d="M 11.367188 -27.308594 C 5.933594 -27.308594 1.902344 -23.46875 1.902344 -17.765625 C 1.902344 -12.453125 5.199219 -8.6875 10.785156 -8.6875 C 12.722656 -8.6875 14.234375 -9.191406 15.671875 -10.394531 L 17.183594 -12.800781 C 16.914062 -5.003906 14.351562 -2.09375 10.746094 -2.09375 C 8.03125 -2.09375 6.4375 -3.644531 5.820312 -6.671875 L 5.742188 -7.058594 L 2.171875 -7.058594 L 2.210938 -6.671875 C 2.636719 -2.289062 5.894531 0.542969 10.472656 0.542969 C 15.980469 0.542969 20.832031 -3.878906 20.832031 -14.664062 C 20.832031 -23.546875 17.339844 -27.308594 11.367188 -27.308594 Z M 11.367188 -11.328125 C 7.292969 -11.328125 5.625 -14.429688 5.625 -18.152344 C 5.625 -22.03125 8.03125 -24.671875 11.367188 -24.671875 C 14.742188 -24.671875 16.953125 -21.800781 16.953125 -18.078125 C 16.953125 -13.617188 14.390625 -11.328125 11.367188 -11.328125 Z M 11.367188 -11.328125"/></g><g id="ah"><path d="M 15.359375 -14.234375 C 18.152344 -15.050781 20.09375 -17.457031 20.09375 -20.519531 C 20.09375 -24.554688 16.988281 -27.308594 12.0625 -27.308594 C 6.632812 -27.308594 3.335938 -24.28125 2.832031 -19.433594 L 2.792969 -19.046875 L 6.128906 -19.046875 L 6.167969 -19.433594 C 6.515625 -22.964844 8.804688 -24.671875 11.636719 -24.671875 C 14.46875 -24.671875 16.371094 -22.808594 16.371094 -20.132812 C 16.371094 -16.757812 13.808594 -14.894531 10.628906 -14.894531 L 9.96875 -14.894531 L 9.96875 -12.179688 L 10.628906 -12.179688 C 14.972656 -12.179688 16.988281 -10.394531 16.988281 -7.253906 C 16.988281 -3.996094 14.625 -2.09375 11.328125 -2.09375 C 8.070312 -2.09375 5.507812 -3.761719 5.121094 -7.523438 L 5.082031 -7.914062 L 1.746094 -7.914062 L 1.785156 -7.523438 C 2.367188 -1.746094 5.933594 0.542969 11.015625 0.542969 C 16.175781 0.542969 20.714844 -2.445312 20.714844 -7.449219 C 20.714844 -10.9375 18.660156 -13.304688 15.359375 -14.234375 Z M 15.359375 -14.234375"/></g><g id="aj"><path d="M 15.75 -26.765625 L 13.617188 -26.765625 C 12.683594 -26.765625 11.753906 -26.570312 10.707031 -25.910156 L 5.042969 -22.382812 L 5.042969 -18.851562 L 12.414062 -23.234375 L 12.414062 0 L 15.75 0 Z M 15.75 -26.765625"/></g><g id="ai"><path d="M 7.332031 -27.152344 C 3.839844 -27.152344 1.589844 -24.785156 1.589844 -20.984375 C 1.589844 -17.222656 3.839844 -14.816406 7.332031 -14.816406 C 10.824219 -14.816406 13.074219 -17.222656 13.074219 -20.984375 C 13.074219 -24.785156 10.824219 -27.152344 7.332031 -27.152344 Z M 7.371094 0 L 24.75 -26.765625 L 21.375 -26.765625 L 3.996094 0 Z M 7.332031 -24.824219 C 8.804688 -24.824219 9.8125 -23.507812 9.8125 -20.984375 C 9.8125 -18.503906 8.804688 -17.144531 7.332031 -17.144531 C 5.855469 -17.144531 4.847656 -18.503906 4.847656 -20.984375 C 4.847656 -23.507812 5.855469 -24.824219 7.332031 -24.824219 Z M 21.375 -11.792969 C 17.882812 -11.792969 15.632812 -9.425781 15.632812 -5.625 C 15.632812 -1.863281 17.882812 0.542969 21.375 0.542969 C 24.863281 0.542969 27.113281 -1.863281 27.113281 -5.625 C 27.113281 -9.425781 24.863281 -11.792969 21.375 -11.792969 Z M 21.375 -9.464844 C 22.847656 -9.464844 23.855469 -8.144531 23.855469 -5.625 C 23.855469 -3.140625 22.847656 -1.785156 21.375 -1.785156 C 19.898438 -1.785156 18.890625 -3.140625 18.890625 -5.625 C 18.890625 -8.144531 19.898438 -9.464844 21.375 -9.464844 Z M 21.375 -9.464844"/></g><g id="ar"><path d="M 7.484375 -17.976562 C 3.90625 -17.976562 1.25 -15.449219 1.25 -11.695312 C 1.25 -8.199219 3.421875 -5.71875 7.097656 -5.71875 C 8.375 -5.71875 9.371094 -6.050781 10.316406 -6.84375 L 11.3125 -8.425781 C 11.132812 -3.292969 9.449219 -1.378906 7.074219 -1.378906 C 5.285156 -1.378906 4.238281 -2.402344 3.832031 -4.390625 L 3.78125 -4.648438 L 1.429688 -4.648438 L 1.457031 -4.390625 C 1.738281 -1.507812 3.882812 0.359375 6.894531 0.359375 C 10.519531 0.359375 13.714844 -2.554688 13.714844 -9.652344 C 13.714844 -15.5 11.414062 -17.976562 7.484375 -17.976562 Z M 7.484375 -7.457031 C 4.800781 -7.457031 3.703125 -9.5 3.703125 -11.953125 C 3.703125 -14.503906 5.285156 -16.242188 7.484375 -16.242188 C 9.703125 -16.242188 11.160156 -14.351562 11.160156 -11.902344 C 11.160156 -8.964844 9.472656 -7.457031 7.484375 -7.457031 Z M 7.484375 -7.457031"/></g><g id="as"><path d="M 7.839844 -11.621094 C 6.765625 -11.621094 5.898438 -11.390625 5.054688 -10.878906 L 3.957031 -9.703125 L 4.75 -15.832031 L 12.972656 -15.832031 L 12.972656 -17.621094 L 2.960938 -17.621094 L 1.738281 -7.378906 L 3.832031 -7.378906 C 4.699219 -9.195312 5.875 -9.882812 7.507812 -9.882812 C 9.859375 -9.882812 11.261719 -8.222656 11.261719 -5.566406 C 11.261719 -2.910156 9.730469 -1.378906 7.40625 -1.378906 C 5.210938 -1.378906 4.113281 -2.65625 3.703125 -4.671875 L 3.652344 -4.929688 L 1.457031 -4.929688 L 1.480469 -4.671875 C 1.8125 -1.351562 3.882812 0.359375 7.429688 0.359375 C 10.699219 0.359375 13.714844 -1.839844 13.714844 -5.71875 C 13.714844 -9.066406 11.773438 -11.621094 7.839844 -11.621094 Z M 7.839844 -11.621094"/></g><g id="at"><path d="M 4.828125 -17.875 C 2.527344 -17.875 1.046875 -16.320312 1.046875 -13.816406 C 1.046875 -11.339844 2.527344 -9.753906 4.828125 -9.753906 C 7.125 -9.753906 8.605469 -11.339844 8.605469 -13.816406 C 8.605469 -16.320312 7.125 -17.875 4.828125 -17.875 Z M 4.851562 0 L 16.292969 -17.621094 L 14.070312 -17.621094 L 2.628906 0 Z M 4.828125 -16.34375 C 5.796875 -16.34375 6.460938 -15.476562 6.460938 -13.816406 C 6.460938 -12.179688 5.796875 -11.289062 4.828125 -11.289062 C 3.855469 -11.289062 3.191406 -12.179688 3.191406 -13.816406 C 3.191406 -15.476562 3.855469 -16.34375 4.828125 -16.34375 Z M 14.070312 -7.761719 C 11.773438 -7.761719 10.292969 -6.207031 10.292969 -3.703125 C 10.292969 -1.226562 11.773438 0.359375 14.070312 0.359375 C 16.371094 0.359375 17.851562 -1.226562 17.851562 -3.703125 C 17.851562 -6.207031 16.371094 -7.761719 14.070312 -7.761719 Z M 14.070312 -6.230469 C 15.042969 -6.230469 15.707031 -5.363281 15.707031 -3.703125 C 15.707031 -2.070312 15.042969 -1.175781 14.070312 -1.175781 C 13.101562 -1.175781 12.4375 -2.070312 12.4375 -3.703125 C 12.4375 -5.363281 13.101562 -6.230469 14.070312 -6.230469 Z M 14.070312 -6.230469"/></g><g id="au"><path d="M 20.476562 0 L 20.414062 -22.078125 L 17.726562 -22.078125 L 17.726562 -11.039062 C 17.726562 -8.445312 17.757812 -5.277344 17.820312 -2.6875 L 7.421875 -22.078125 L 3.199219 -22.078125 L 3.199219 0 L 5.949219 0 L 5.949219 -11.039062 C 5.949219 -13.628906 5.917969 -16.796875 5.855469 -19.390625 L 16.253906 0 Z M 20.476562 0"/></g><g id="av"><path d="M 9.375 -17.40625 C 3.617188 -17.40625 0.960938 -13.277344 0.960938 -8.480469 C 0.960938 -3.710938 3.617188 0.449219 9.375 0.449219 C 15.132812 0.449219 17.789062 -3.710938 17.789062 -8.480469 C 17.789062 -13.277344 15.132812 -17.40625 9.375 -17.40625 Z M 9.375 -1.664062 C 5.949219 -1.664062 3.96875 -4.511719 3.96875 -8.480469 C 3.96875 -12.476562 5.949219 -15.292969 9.375 -15.292969 C 12.796875 -15.292969 14.78125 -12.476562 14.78125 -8.480469 C 14.78125 -4.511719 12.796875 -1.664062 9.375 -1.664062 Z M 9.375 -1.664062"/></g><g id="aw"><path d="M 5.664062 -14.71875 L 8.832031 -14.71875 L 8.832031 -16.828125 L 5.664062 -16.828125 L 5.664062 -20.765625 L 2.910156 -20.765625 L 2.910156 -16.828125 L 0.640625 -16.828125 L 0.640625 -14.71875 L 2.910156 -14.71875 L 2.910156 -4.832031 C 2.910156 -3.871094 2.910156 -3.167969 2.945312 -2.71875 C 3.101562 -0.609375 4.191406 0.257812 6.304688 0.257812 C 7.070312 0.257812 7.839844 0.222656 8.636719 0.0976562 L 8.636719 -1.917969 C 6.496094 -1.664062 5.824219 -2.015625 5.695312 -3.648438 C 5.664062 -4.09375 5.664062 -4.382812 5.664062 -4.960938 Z M 5.664062 -14.71875"/></g><g id="ay"><path d="M 7.292969 -17.40625 C 3.808594 -17.40625 1.441406 -15.550781 1.441406 -12.445312 C 1.441406 -9.46875 3.871094 -8.222656 6.910156 -7.390625 C 9.757812 -6.621094 10.910156 -5.757812 10.910156 -4.128906 C 10.910156 -2.496094 9.4375 -1.664062 7.613281 -1.664062 C 5.664062 -1.664062 4.09375 -2.527344 3.648438 -4.992188 L 0.769531 -4.992188 C 1.28125 -1.152344 3.933594 0.449219 7.421875 0.449219 C 11.007812 0.449219 13.726562 -1.152344 13.726562 -4.351562 C 13.726562 -7.230469 11.871094 -8.765625 7.964844 -9.789062 C 5.664062 -10.398438 4.253906 -11.070312 4.253906 -12.765625 C 4.253906 -14.238281 5.152344 -15.292969 7.070312 -15.292969 C 9.054688 -15.292969 10.269531 -14.109375 10.65625 -12.125 L 13.535156 -12.125 C 13.183594 -15.230469 11.101562 -17.40625 7.292969 -17.40625 Z M 7.292969 -17.40625"/></g><g id="az"><path d="M 12.09375 0 L 14.84375 0 C 14.589844 -1.886719 14.527344 -3.039062 14.527344 -4.320312 L 14.527344 -10.6875 C 14.527344 -11.421875 14.492188 -12.253906 14.429688 -12.925781 C 14.140625 -15.710938 12.445312 -17.40625 8.414062 -17.40625 C 4.671875 -17.40625 2.144531 -15.324219 1.886719 -11.710938 L 4.765625 -11.710938 C 4.960938 -14.046875 6.109375 -15.292969 8.414062 -15.292969 C 10.6875 -15.292969 11.582031 -14.269531 11.710938 -12.703125 C 11.773438 -12.0625 11.773438 -11.390625 11.773438 -10.65625 L 11.773438 -10.207031 L 10.6875 -10.207031 C 4.03125 -10.207031 1.152344 -8.222656 1.152344 -4.382812 C 1.152344 -1.246094 3.550781 0.449219 6.621094 0.449219 C 8.253906 0.449219 9.726562 0.191406 10.878906 -0.609375 L 11.804688 -2.429688 Z M 7.550781 -1.664062 C 5.472656 -1.664062 4.160156 -2.558594 4.160156 -4.605469 C 4.160156 -7.519531 7.101562 -8.511719 11.773438 -8.160156 L 11.773438 -6.429688 C 11.773438 -3.359375 10.109375 -1.664062 7.550781 -1.664062 Z M 7.550781 -1.664062"/></g><g id="aA"><path d="M 3.742188 -22.523438 C 2.75 -22.523438 1.984375 -21.757812 1.984375 -20.765625 C 1.984375 -19.773438 2.75 -19.003906 3.742188 -19.003906 C 4.734375 -19.003906 5.503906 -19.773438 5.503906 -20.765625 C 5.503906 -21.757812 4.734375 -22.523438 3.742188 -22.523438 Z M 5.121094 0 L 5.121094 -16.957031 L 2.367188 -16.957031 L 2.367188 0 Z M 5.121094 0"/></g><g id="aB"><path d="M 8.925781 -17.40625 C 4.671875 -17.40625 0.960938 -14.171875 0.960938 -8.445312 C 0.960938 -2.238281 4.222656 0.449219 8.511719 0.449219 C 12.285156 0.449219 15.101562 -1.472656 15.933594 -5.40625 L 13.054688 -5.40625 C 12.476562 -2.945312 10.910156 -1.664062 8.671875 -1.664062 C 6.144531 -1.664062 3.96875 -3.710938 3.96875 -8.636719 C 3.96875 -13.214844 6.207031 -15.292969 8.863281 -15.292969 C 11.132812 -15.292969 12.605469 -13.980469 13.214844 -11.261719 L 16.09375 -11.261719 C 15.582031 -14.972656 12.988281 -17.40625 8.925781 -17.40625 Z M 8.925781 -17.40625"/></g><g id="aC"><path d="M 4.992188 -23.515625 L 2.238281 -23.515625 L 2.238281 -4.765625 C 2.238281 -3.839844 2.238281 -3.101562 2.273438 -2.527344 C 2.367188 -0.382812 3.550781 0.128906 5.152344 0.128906 C 5.792969 0.128906 6.496094 0.0976562 7.101562 0 L 7.101562 -1.984375 C 5.597656 -1.824219 5.085938 -2.175781 5.023438 -3.261719 C 4.992188 -3.808594 4.992188 -4.351562 4.992188 -4.863281 Z M 4.992188 -23.515625"/></g><g id="aD"><path d="M 16.222656 -16.957031 L 13.214844 -16.957031 L 8.191406 -2.046875 L 3.136719 -16.957031 L 0.03125 -16.957031 L 6.78125 0.863281 L 6.558594 1.472656 C 5.695312 3.710938 4.574219 4.449219 2.878906 4.449219 C 2.589844 4.449219 2.304688 4.449219 1.886719 4.414062 L 1.886719 6.65625 C 2.304688 6.71875 2.6875 6.71875 3.296875 6.71875 C 6.046875 6.71875 7.871094 5.023438 9.246094 1.441406 Z M 16.222656 -16.957031"/></g><g id="aE"><path d="M 17.179688 -16.957031 L 14.429688 -16.957031 L 14.429688 -14.621094 L 13.308594 -16.285156 C 12.445312 -16.988281 10.65625 -17.40625 9.246094 -17.40625 C 4.863281 -17.40625 0.960938 -14.492188 0.960938 -8.222656 C 0.960938 -3.261719 3.710938 0.449219 8.671875 0.449219 C 10.398438 0.449219 12.191406 -0.0976562 13.148438 -0.894531 L 14.429688 -2.71875 L 14.429688 -2.429688 C 14.429688 -1.917969 14.429688 -1.375 14.398438 -0.574219 C 14.269531 2.6875 12.445312 4.605469 9.085938 4.605469 C 6.175781 4.605469 4.511719 3.167969 4.289062 1.085938 L 4.253906 0.800781 L 1.472656 0.800781 L 1.503906 1.121094 C 1.855469 4.703125 4.253906 6.71875 9.085938 6.71875 C 13.980469 6.71875 16.988281 4.09375 17.148438 -0.863281 C 17.179688 -1.792969 17.179688 -3.101562 17.179688 -4.160156 Z M 9.085938 -1.664062 C 5.695312 -1.664062 3.96875 -4.703125 3.96875 -8.542969 C 3.96875 -12.988281 6.269531 -15.292969 9.246094 -15.292969 C 11.679688 -15.292969 14.429688 -13.628906 14.429688 -9.246094 L 14.429688 -8.320312 C 14.429688 -3.457031 11.902344 -1.664062 9.085938 -1.664062 Z M 9.085938 -1.664062"/></g><g id="aF"><path d="M 16.636719 -12.445312 C 16.382812 -15.421875 14.300781 -17.40625 10.589844 -17.40625 C 8.863281 -17.40625 7.613281 -17.117188 6.175781 -15.996094 L 5.121094 -14.046875 L 5.121094 -16.957031 L 2.367188 -16.957031 L 2.367188 0 L 5.121094 0 L 5.121094 -7.453125 C 5.121094 -13.246094 7.359375 -15.230469 10.015625 -15.230469 C 12.636719 -15.230469 13.726562 -13.757812 13.886719 -11.773438 C 13.949219 -10.910156 13.949219 -10.207031 13.949219 -9.34375 L 13.949219 0 L 16.703125 0 L 16.703125 -9.535156 C 16.703125 -10.910156 16.703125 -11.582031 16.636719 -12.445312 Z M 16.636719 -12.445312"/></g><g id="aG"><path d="M 5.34375 -20.222656 C 5.566406 -21.597656 6.941406 -22.078125 9.023438 -21.691406 L 9.023438 -23.964844 C 8.445312 -24.058594 7.773438 -24.125 7.070312 -24.125 C 4.542969 -24.125 2.878906 -22.75 2.589844 -20.285156 C 2.527344 -19.707031 2.496094 -18.878906 2.496094 -18.238281 L 2.496094 -16.828125 L 0.671875 -16.828125 L 0.671875 -14.71875 L 2.496094 -14.71875 L 2.496094 0 L 5.246094 0 L 5.246094 -14.71875 L 8.734375 -14.71875 L 8.734375 -16.828125 L 5.246094 -16.828125 L 5.246094 -18.492188 C 5.246094 -18.972656 5.277344 -19.773438 5.34375 -20.222656 Z M 5.34375 -20.222656"/></g><clipPath id="c"><path d="M0 0H829V831H0z"/></clipPath><clipPath id="e"><path d="M0 0H1500V1500H0z"/></clipPath><clipPath id="f"><path d="M 1073 604.789062 L 1107 604.789062 L 1107 638 L 1073 638 Z M 1073 604.789062"/></clipPath><clipPath id="g"><path d="M 1051.476562 641 L 1128.726562 641 L 1128.726562 804 L 1051.476562 804 Z M 1051.476562 641"/></clipPath><clipPath id="h"><path d="M 1285 604.789062 L 1319 604.789062 L 1319 638 L 1285 638 Z M 1285 604.789062"/></clipPath><clipPath id="k"><path d="M 1 1 L 315.238281 1 L 315.238281 315.160156 L 1 315.160156 Z M 1 1"/></clipPath><clipPath id="j"><path d="M0 0H316V316H0z"/></clipPath><clipPath id="D"><path d="M 1 0.121094 L 315.121094 0.121094 L 315.121094 314.28125 L 1 314.28125 Z M 1 0.121094"/></clipPath><clipPath id="C"><path d="M0 0H316V315H0z"/></clipPath><clipPath id="G"><path d="M 0.28125 1 L 314.441406 1 L 314.441406 314.839844 L 0.28125 314.839844 Z M 0.28125 1"/></clipPath><clipPath id="F"><path d="M0 0H315V315H0z"/></clipPath><clipPath id="J"><path d="M 1 1 L 315.121094 1 L 315.121094 314.839844 L 1 314.839844 Z M 1 1"/></clipPath><clipPath id="I"><path d="M0 0H316V315H0z"/></clipPath><clipPath id="W"><path d="M 666 631.316406 L 682 631.316406 L 682 647 L 666 647 Z M 666 631.316406"/></clipPath><clipPath id="X"><path d="M 656.515625 647 L 691.765625 647 L 691.765625 722 L 656.515625 722 Z M 656.515625 647"/></clipPath><clipPath id="Y"><path d="M 763 631.316406 L 778 631.316406 L 778 647 L 763 647 Z M 763 631.316406"/></clipPath><clipPath id="ad"><path d="M 683 1220.453125 L 706 1220.453125 L 706 1244 L 683 1244 Z M 683 1220.453125"/></clipPath><clipPath id="ae"><path d="M 667.800781 1245 L 721.050781 1245 L 721.050781 1358 L 667.800781 1358 Z M 667.800781 1245"/></clipPath><clipPath id="af"><path d="M 830 1220.453125 L 853 1220.453125 L 853 1243 L 830 1243 Z M 830 1220.453125"/></clipPath><clipPath id="am"><path d="M 0.558594 0.160156 L 67.039062 0.160156 L 67.039062 71.199219 L 0.558594 71.199219 Z M 0.558594 0.160156"/></clipPath><clipPath id="al"><path d="M0 0H68V72H0z"/></clipPath><clipPath id="an"><path d="M 353 944.949219 L 369 944.949219 L 369 960 L 353 960 Z M 353 944.949219"/></clipPath><clipPath id="ao"><path d="M 342.878906 961 L 378.128906 961 L 378.128906 1035 L 342.878906 1035 Z M 342.878906 961"/></clipPath><clipPath id="ap"><path d="M 449 944.949219 L 465 944.949219 L 465 960 L 449 960 Z M 449 944.949219"/></clipPath><mask id="b"><g filter="url(#a)"><path fill-opacity=".427" d="M-150 -150H1650V1650H-150z"/></g></mask><mask id="d"><g filter="url(#a)"><path fill-opacity=".4" d="M-150 -150H1650V1650H-150z"/></g></mask><mask id="i"><g filter="url(#a)"><path fill-opacity=".388" d="M-150 -150H1650V1650H-150z"/></g></mask><mask id="B"><g filter="url(#a)"><path fill-opacity=".388" d="M-150 -150H1650V1650H-150z"/></g></mask><mask id="E"><g filter="url(#a)"><path fill-opacity=".388" d="M-150 -150H1650V1650H-150z"/></g></mask><mask id="H"><g filter="url(#a)"><path fill-opacity=".388" d="M-150 -150H1650V1650H-150z"/></g></mask><mask id="ak"><g filter="url(#a)"><path fill-opacity=".427" d="M-150 -150H1650V1650H-150z"/></g></mask><filter x="0%" y="0%" width="100%" xmlns:xlink="http://www.w3.org/1999/xlink" xlink:type="simple" xlink:actuate="onLoad" height="100%" id="a" xlink:show="other"><feColorMatrix values="0 0 0 0 1 0 0 0 0 1 0 0 0 0 1 0 0 0 1 0" color-interpolation-filters="sRGB"/></filter></defs><g mask="url(#b)"><g><g clip-path="url(#c)" transform="translate(150 390)"><path fill="#F03612" d="M 413.875 829.792969 C 303.375 829.792969 199.328125 786.785156 121.25 708.542969 C 43.007812 630.464844 0 526.417969 0 415.917969 C 0 305.421875 43.007812 201.371094 121.25 123.296875 C 199.328125 45.054688 303.375 2.046875 413.875 2.046875 C 524.371094 2.046875 628.417969 45.054688 706.496094 123.296875 C 784.738281 201.539062 827.746094 305.421875 827.746094 415.917969 C 827.746094 526.417969 784.738281 630.464844 706.496094 708.542969 C 628.417969 786.785156 524.371094 829.792969 413.875 829.792969 Z M 413.875 26.859375 C 309.992188 26.859375 212.230469 67.386719 138.785156 140.832031 C 65.339844 214.277344 24.8125 312.035156 24.8125 415.917969 C 24.8125 519.800781 65.339844 617.5625 138.785156 691.007812 C 212.230469 764.453125 309.992188 804.980469 413.875 804.980469 C 517.753906 804.980469 615.515625 764.453125 688.960938 691.007812 C 762.40625 617.5625 802.933594 519.800781 802.933594 415.917969 C 802.933594 312.035156 762.40625 214.277344 688.960938 140.832031 C 615.515625 67.386719 517.753906 26.859375 413.875 26.859375 Z M 413.875 26.859375"/></g></g></g><g mask="url(#d)"><g><g clip-path="url(#e)"><path fill="#F00" d="M 750 0 C 335.785156 0 0 335.785156 0 750 C 0 1164.214844 335.785156 1500 750 1500 C 1164.214844 1500 1500 1164.214844 1500 750 C 1500 335.785156 1164.214844 0 750 0 Z M 750 0"/></g></g></g><g clip-path="url(#f)"><path fill="#FFFDFD" d="M 1090.191406 637.71875 C 1099.296875 637.71875 1106.683594 630.355469 1106.683594 621.273438 C 1106.683594 612.195312 1099.296875 604.832031 1090.191406 604.832031 C 1081.082031 604.832031 1073.699219 612.195312 1073.699219 621.273438 C 1073.699219 630.355469 1081.082031 637.71875 1090.191406 637.71875"/></g><g clip-path="url(#g)"><path fill="#FFFDFD" d="M 1072.542969 641.351562 C 1060.863281 641.351562 1051.472656 650.847656 1051.472656 662.691406 L 1051.472656 713.175781 C 1051.472656 722.992188 1065.878906 722.992188 1065.878906 713.175781 L 1065.878906 667.015625 L 1069.289062 667.015625 L 1069.289062 793.410156 C 1069.289062 806.53125 1088.472656 806.148438 1088.472656 793.410156 L 1088.472656 720.035156 L 1091.777344 720.035156 L 1091.777344 793.410156 C 1091.777344 806.148438 1111.070312 806.53125 1111.070312 793.410156 L 1111.070312 667.015625 L 1114.398438 667.015625 L 1114.398438 713.175781 C 1114.398438 723.070312 1128.730469 723.066406 1128.707031 713.175781 L 1128.707031 662.996094 C 1128.707031 652.070312 1120.199219 641.375 1107.375 641.375 L 1072.542969 641.351562"/></g><g clip-path="url(#h)"><path fill="#FFFDFD" d="M 1301.894531 637.347656 C 1310.855469 637.320312 1318.085938 630.066406 1318.066406 621.121094 C 1318.085938 612.171875 1310.855469 604.917969 1301.894531 604.894531 C 1293.023438 604.917969 1285.792969 612.171875 1285.816406 621.121094 C 1285.792969 630.066406 1293.023438 637.320312 1301.894531 637.347656"/></g><path fill="#FFFDFD" d="M 1299.570312 740.152344 L 1299.570312 796.21875 C 1299.558594 806.421875 1284.332031 806.421875 1284.367188 796.21875 L 1284.367188 740.542969 L 1263.835938 740.542969 L 1285.722656 664.359375 L 1282.332031 664.359375 L 1269.644531 707.308594 C 1266.601562 716.691406 1253.792969 712.847656 1256.765625 702.839844 L 1270.808594 656.199219 C 1272.351562 650.863281 1279.058594 641.4375 1290.660156 641.429688 L 1312.835938 641.429688 C 1324.371094 641.4375 1331.105469 650.945312 1332.882812 656.199219 L 1346.921875 702.742188 C 1349.792969 712.796875 1337.082031 716.945312 1334.042969 707.210938 L 1321.359375 664.359375 L 1317.679688 664.359375 L 1339.660156 740.542969 L 1319.226562 740.542969 L 1319.226562 796.316406 C 1319.226562 806.421875 1304.066406 806.371094 1304.023438 796.316406 L 1304.023438 740.152344 L 1299.570312 740.152344"/><g mask="url(#i)"><g><g clip-path="url(#j)" transform="translate(249 491)"><g clip-path="url(#k)"><path fill="#FFFDFD" d="M 158.316406 1.613281 C 71.746094 1.613281 1.566406 71.792969 1.566406 158.363281 C 1.566406 244.933594 71.746094 315.113281 158.316406 315.113281 C 244.890625 315.113281 315.066406 244.933594 315.066406 158.363281 C 315.066406 71.792969 244.890625 1.613281 158.316406 1.613281 Z M 158.316406 1.613281"/></g></g></g></g><g fill="#FFF"><use x="1034.219" y="884.743" xmlns:xlink="http://www.w3.org/1999/xlink" xlink:href="#l" xlink:type="simple" xlink:actuate="onLoad" xlink:show="embed"/></g><g fill="#FFF"><use x="1069.214" y="884.743" xmlns:xlink="http://www.w3.org/1999/xlink" xlink:href="#m" xlink:type="simple" xlink:actuate="onLoad" xlink:show="embed"/></g><g fill="#FFF"><use x="1104.209" y="884.743" xmlns:xlink="http://www.w3.org/1999/xlink" xlink:href="#n" xlink:type="simple" xlink:actuate="onLoad" xlink:show="embed"/></g><g fill="#FFF"><use x="1246.186" y="884.743" xmlns:xlink="http://www.w3.org/1999/xlink" xlink:href="#l" xlink:type="simple" xlink:actuate="onLoad" xlink:show="embed"/></g><g fill="#FFF"><use x="1281.181" y="884.743" xmlns:xlink="http://www.w3.org/1999/xlink" xlink:href="#o" xlink:type="simple" xlink:actuate="onLoad" xlink:show="embed"/></g><g fill="#FFF"><use x="1316.177" y="884.743" xmlns:xlink="http://www.w3.org/1999/xlink" xlink:href="#n" xlink:type="simple" xlink:actuate="onLoad" xlink:show="embed"/></g><g fill="#FFF"><use x="294.298" y="278.202" xmlns:xlink="http://www.w3.org/1999/xlink" xlink:href="#p" xlink:type="simple" xlink:actuate="onLoad" xlink:show="embed"/></g><g fill="#FFF"><use x="354.692" y="278.202" xmlns:xlink="http://www.w3.org/1999/xlink" xlink:href="#q" xlink:type="simple" xlink:actuate="onLoad" xlink:show="embed"/></g><g fill="#FFF"><use x="405.248" y="278.202" xmlns:xlink="http://www.w3.org/1999/xlink" xlink:href="#r" xlink:type="simple" xlink:actuate="onLoad" xlink:show="embed"/></g><g fill="#FFF"><use x="466.282" y="278.202" xmlns:xlink="http://www.w3.org/1999/xlink" xlink:href="#q" xlink:type="simple" xlink:actuate="onLoad" xlink:show="embed"/></g><g fill="#FFF"><use x="516.838" y="278.202" xmlns:xlink="http://www.w3.org/1999/xlink" xlink:href="#s" xlink:type="simple" xlink:actuate="onLoad" xlink:show="embed"/></g><g fill="#FFF"><use x="569.953" y="278.202" xmlns:xlink="http://www.w3.org/1999/xlink" xlink:href="#t" xlink:type="simple" xlink:actuate="onLoad" xlink:show="embed"/></g><g fill="#FFF"><use x="624.668" y="278.202" xmlns:xlink="http://www.w3.org/1999/xlink" xlink:href="#u" xlink:type="simple" xlink:actuate="onLoad" xlink:show="embed"/></g><g fill="#FFF"><use x="674.263" y="278.202" xmlns:xlink="http://www.w3.org/1999/xlink" xlink:href="#v" xlink:type="simple" xlink:actuate="onLoad" xlink:show="embed"/></g><g fill="#FFF"><use x="695.142" y="278.202" xmlns:xlink="http://www.w3.org/1999/xlink" xlink:href="#w" xlink:type="simple" xlink:actuate="onLoad" xlink:show="embed"/></g><g fill="#FFF"><use x="746.577" y="278.202" xmlns:xlink="http://www.w3.org/1999/xlink" xlink:href="#x" xlink:type="simple" xlink:actuate="onLoad" xlink:show="embed"/></g><g fill="#FFF"><use x="809.131" y="278.202" xmlns:xlink="http://www.w3.org/1999/xlink" xlink:href="#w" xlink:type="simple" xlink:actuate="onLoad" xlink:show="embed"/></g><g fill="#FFF"><use x="860.567" y="278.202" xmlns:xlink="http://www.w3.org/1999/xlink" xlink:href="#y" xlink:type="simple" xlink:actuate="onLoad" xlink:show="embed"/></g><g fill="#FFF"><use x="918.721" y="278.202" xmlns:xlink="http://www.w3.org/1999/xlink" xlink:href="#u" xlink:type="simple" xlink:actuate="onLoad" xlink:show="embed"/></g><g fill="#FFF"><use x="968.317" y="278.202" xmlns:xlink="http://www.w3.org/1999/xlink" xlink:href="#t" xlink:type="simple" xlink:actuate="onLoad" xlink:show="embed"/></g><g fill="#FFF"><use x="1023.032" y="278.202" xmlns:xlink="http://www.w3.org/1999/xlink" xlink:href="#z" xlink:type="simple" xlink:actuate="onLoad" xlink:show="embed"/></g><g fill="#FFF"><use x="1075.587" y="278.202" xmlns:xlink="http://www.w3.org/1999/xlink" xlink:href="#A" xlink:type="simple" xlink:actuate="onLoad" xlink:show="embed"/></g><g fill="#FFF"><use x="1100.305" y="278.202" xmlns:xlink="http://www.w3.org/1999/xlink" xlink:href="#x" xlink:type="simple" xlink:actuate="onLoad" xlink:show="embed"/></g><g fill="#FFF"><use x="1162.859" y="278.202" xmlns:xlink="http://www.w3.org/1999/xlink" xlink:href="#r" xlink:type="simple" xlink:actuate="onLoad" xlink:show="embed"/></g><g mask="url(#B)"><g><g clip-path="url(#C)" transform="translate(564 483)"><g clip-path="url(#D)"><path fill="#FFFDFD" d="M 158.316406 0.75 C 71.746094 0.75 1.566406 70.929688 1.566406 157.5 C 1.566406 244.070312 71.746094 314.25 158.316406 314.25 C 244.890625 314.25 315.066406 244.070312 315.066406 157.5 C 315.066406 70.929688 244.890625 0.75 158.316406 0.75 Z M 158.316406 0.75"/></g></g></g></g><g mask="url(#E)"><g><g clip-path="url(#F)" transform="translate(251 805)"><g clip-path="url(#G)"><path fill="#FFFDFD" d="M 157.683594 1.25 C 71.109375 1.25 0.933594 71.429688 0.933594 158 C 0.933594 244.570312 71.109375 314.75 157.683594 314.75 C 244.253906 314.75 314.433594 244.570312 314.433594 158 C 314.433594 71.429688 244.253906 1.25 157.683594 1.25 Z M 157.683594 1.25"/></g></g></g></g><g mask="url(#H)"><g><g clip-path="url(#I)" transform="translate(564 805)"><g clip-path="url(#J)"><path fill="#FFFDFD" d="M 158.316406 1.25 C 71.746094 1.25 1.566406 71.429688 1.566406 158 C 1.566406 244.570312 71.746094 314.75 158.316406 314.75 C 244.890625 314.75 315.066406 244.570312 315.066406 158 C 315.066406 71.429688 244.890625 1.25 158.316406 1.25 Z M 158.316406 1.25"/></g></g></g></g><g fill="#FFF"><use x="332.71" y="588.157" xmlns:xlink="http://www.w3.org/1999/xlink" xlink:href="#K" xlink:type="simple" xlink:actuate="onLoad" xlink:show="embed"/></g><g fill="#FFF"><use x="361.438" y="588.157" xmlns:xlink="http://www.w3.org/1999/xlink" xlink:href="#L" xlink:type="simple" xlink:actuate="onLoad" xlink:show="embed"/></g><g fill="#FFF"><use x="389.326" y="588.157" xmlns:xlink="http://www.w3.org/1999/xlink" xlink:href="#M" xlink:type="simple" xlink:actuate="onLoad" xlink:show="embed"/></g><g fill="#FFF"><use x="416.92" y="588.157" xmlns:xlink="http://www.w3.org/1999/xlink" xlink:href="#N" xlink:type="simple" xlink:actuate="onLoad" xlink:show="embed"/></g><g fill="#FFF"><use x="429.898" y="588.157" xmlns:xlink="http://www.w3.org/1999/xlink" xlink:href="#O" xlink:type="simple" xlink:actuate="onLoad" xlink:show="embed"/></g><g fill="#FFF"><use x="456.358" y="588.157" xmlns:xlink="http://www.w3.org/1999/xlink" xlink:href="#M" xlink:type="simple" xlink:actuate="onLoad" xlink:show="embed"/></g><g fill="#FFF"><use x="286.111" y="912.193" xmlns:xlink="http://www.w3.org/1999/xlink" xlink:href="#P" xlink:type="simple" xlink:actuate="onLoad" xlink:show="embed"/></g><g fill="#FFF"><use x="313.117" y="912.193" xmlns:xlink="http://www.w3.org/1999/xlink" xlink:href="#Q" xlink:type="simple" xlink:actuate="onLoad" xlink:show="embed"/></g><g fill="#FFF"><use x="345.961" y="912.193" xmlns:xlink="http://www.w3.org/1999/xlink" xlink:href="#R" xlink:type="simple" xlink:actuate="onLoad" xlink:show="embed"/></g><g fill="#FFF"><use x="372.001" y="912.193" xmlns:xlink="http://www.w3.org/1999/xlink" xlink:href="#N" xlink:type="simple" xlink:actuate="onLoad" xlink:show="embed"/></g><g fill="#FFF"><use x="384.979" y="912.193" xmlns:xlink="http://www.w3.org/1999/xlink" xlink:href="#M" xlink:type="simple" xlink:actuate="onLoad" xlink:show="embed"/></g><g fill="#FFF"><use x="412.573" y="912.193" xmlns:xlink="http://www.w3.org/1999/xlink" xlink:href="#N" xlink:type="simple" xlink:actuate="onLoad" xlink:show="embed"/></g><g fill="#FFF"><use x="425.551" y="912.193" xmlns:xlink="http://www.w3.org/1999/xlink" xlink:href="#S" xlink:type="simple" xlink:actuate="onLoad" xlink:show="embed"/></g><g fill="#FFF"><use x="456.799" y="912.193" xmlns:xlink="http://www.w3.org/1999/xlink" xlink:href="#N" xlink:type="simple" xlink:actuate="onLoad" xlink:show="embed"/></g><g fill="#FFF"><use x="469.777" y="912.193" xmlns:xlink="http://www.w3.org/1999/xlink" xlink:href="#K" xlink:type="simple" xlink:actuate="onLoad" xlink:show="embed"/></g><g fill="#FFF"><use x="498.505" y="912.193" xmlns:xlink="http://www.w3.org/1999/xlink" xlink:href="#T" xlink:type="simple" xlink:actuate="onLoad" xlink:show="embed"/></g><g fill="#FFF"><use x="611.376" y="588.157" xmlns:xlink="http://www.w3.org/1999/xlink" xlink:href="#O" xlink:type="simple" xlink:actuate="onLoad" xlink:show="embed"/></g><g fill="#FFF"><use x="637.836" y="588.157" xmlns:xlink="http://www.w3.org/1999/xlink" xlink:href="#S" xlink:type="simple" xlink:actuate="onLoad" xlink:show="embed"/></g><g fill="#FFF"><use x="669.084" y="588.157" xmlns:xlink="http://www.w3.org/1999/xlink" xlink:href="#N" xlink:type="simple" xlink:actuate="onLoad" xlink:show="embed"/></g><g fill="#FFF"><use x="682.062" y="588.157" xmlns:xlink="http://www.w3.org/1999/xlink" xlink:href="#U" xlink:type="simple" xlink:actuate="onLoad" xlink:show="embed"/></g><g fill="#FFF"><use x="708.606" y="588.157" xmlns:xlink="http://www.w3.org/1999/xlink" xlink:href="#T" xlink:type="simple" xlink:actuate="onLoad" xlink:show="embed"/></g><g fill="#FFF"><use x="740.652" y="588.157" xmlns:xlink="http://www.w3.org/1999/xlink" xlink:href="#M" xlink:type="simple" xlink:actuate="onLoad" xlink:show="embed"/></g><g fill="#FFF"><use x="768.246" y="588.157" xmlns:xlink="http://www.w3.org/1999/xlink" xlink:href="#N" xlink:type="simple" xlink:actuate="onLoad" xlink:show="embed"/></g><g fill="#FFF"><use x="781.224" y="588.157" xmlns:xlink="http://www.w3.org/1999/xlink" xlink:href="#O" xlink:type="simple" xlink:actuate="onLoad" xlink:show="embed"/></g><g fill="#FFF"><use x="807.684" y="588.157" xmlns:xlink="http://www.w3.org/1999/xlink" xlink:href="#M" xlink:type="simple" xlink:actuate="onLoad" xlink:show="embed"/></g><g fill="#FFF"><use x="592.919" y="913.643" xmlns:xlink="http://www.w3.org/1999/xlink" xlink:href="#U" xlink:type="simple" xlink:actuate="onLoad" xlink:show="embed"/></g><g fill="#FFF"><use x="619.463" y="913.643" xmlns:xlink="http://www.w3.org/1999/xlink" xlink:href="#S" xlink:type="simple" xlink:actuate="onLoad" xlink:show="embed"/></g><g fill="#FFF"><use x="650.711" y="913.643" xmlns:xlink="http://www.w3.org/1999/xlink" xlink:href="#Q" xlink:type="simple" xlink:actuate="onLoad" xlink:show="embed"/></g><g fill="#FFF"><use x="683.555" y="913.643" xmlns:xlink="http://www.w3.org/1999/xlink" xlink:href="#T" xlink:type="simple" xlink:actuate="onLoad" xlink:show="embed"/></g><g fill="#FFF"><use x="715.601" y="913.643" xmlns:xlink="http://www.w3.org/1999/xlink" xlink:href="#Q" xlink:type="simple" xlink:actuate="onLoad" xlink:show="embed"/></g><g fill="#FFF"><use x="748.445" y="913.643" xmlns:xlink="http://www.w3.org/1999/xlink" xlink:href="#V" xlink:type="simple" xlink:actuate="onLoad" xlink:show="embed"/></g><g fill="#FFF"><use x="786.707" y="913.643" xmlns:xlink="http://www.w3.org/1999/xlink" xlink:href="#N" xlink:type="simple" xlink:actuate="onLoad" xlink:show="embed"/></g><g fill="#FFF"><use x="799.685" y="913.643" xmlns:xlink="http://www.w3.org/1999/xlink" xlink:href="#O" xlink:type="simple" xlink:actuate="onLoad" xlink:show="embed"/></g><g fill="#FFF"><use x="826.145" y="913.643" xmlns:xlink="http://www.w3.org/1999/xlink" xlink:href="#M" xlink:type="simple" xlink:actuate="onLoad" xlink:show="embed"/></g><g clip-path="url(#W)"><path fill="#FFFDFD" d="M 674.183594 646.246094 C 678.335938 646.246094 681.707031 642.90625 681.707031 638.785156 C 681.707031 634.667969 678.335938 631.328125 674.183594 631.328125 C 670.027344 631.328125 666.65625 634.667969 666.65625 638.785156 C 666.65625 642.90625 670.027344 646.246094 674.183594 646.246094"/></g><g clip-path="url(#X)"><path fill="#FFFDFD" d="M 666.128906 647.894531 C 660.800781 647.894531 656.515625 652.199219 656.515625 657.574219 L 656.515625 680.472656 C 656.515625 684.921875 663.089844 684.921875 663.089844 680.472656 L 663.089844 659.535156 L 664.644531 659.535156 L 664.644531 716.863281 C 664.644531 722.816406 673.398438 722.640625 673.398438 716.863281 L 673.398438 683.582031 L 674.90625 683.582031 L 674.90625 716.863281 C 674.90625 722.640625 683.707031 722.816406 683.707031 716.863281 L 683.707031 659.535156 L 685.226562 659.535156 L 685.226562 680.472656 C 685.226562 684.957031 691.769531 684.957031 691.757812 680.472656 L 691.757812 657.710938 C 691.757812 652.753906 687.875 647.902344 682.023438 647.902344 L 666.128906 647.894531"/></g><g clip-path="url(#Y)"><path fill="#FFFDFD" d="M 770.574219 646.078125 C 774.636719 646.066406 777.910156 642.777344 777.902344 638.71875 C 777.910156 634.660156 774.636719 631.371094 770.574219 631.359375 C 766.554688 631.371094 763.277344 634.660156 763.289062 638.71875 C 763.277344 642.777344 766.554688 646.066406 770.574219 646.078125"/></g><path fill="#FFFDFD" d="M 769.519531 692.707031 L 769.519531 718.136719 C 769.515625 722.761719 762.617188 722.761719 762.632812 718.136719 L 762.632812 692.882812 L 753.328125 692.882812 L 763.246094 658.332031 L 761.710938 658.332031 L 755.960938 677.808594 C 754.582031 682.066406 748.777344 680.320312 750.125 675.78125 L 756.488281 654.628906 C 757.1875 652.210938 760.226562 647.933594 765.484375 647.929688 L 775.53125 647.929688 C 780.761719 647.933594 783.8125 652.246094 784.617188 654.628906 L 790.980469 675.738281 C 792.277344 680.296875 786.519531 682.179688 785.144531 677.765625 L 779.394531 658.332031 L 777.726562 658.332031 L 787.6875 692.882812 L 778.429688 692.882812 L 778.429688 718.179688 C 778.429688 722.761719 771.558594 722.742188 771.539062 718.179688 L 771.539062 692.707031 L 769.519531 692.707031"/><g fill="#FFF"><use x="649.029" y="758.982" xmlns:xlink="http://www.w3.org/1999/xlink" xlink:href="#Z" xlink:type="simple" xlink:actuate="onLoad" xlink:show="embed"/></g><g fill="#FFF"><use x="664.605" y="758.982" xmlns:xlink="http://www.w3.org/1999/xlink" xlink:href="#aa" xlink:type="simple" xlink:actuate="onLoad" xlink:show="embed"/></g><g fill="#FFF"><use x="680.181" y="758.982" xmlns:xlink="http://www.w3.org/1999/xlink" xlink:href="#ab" xlink:type="simple" xlink:actuate="onLoad" xlink:show="embed"/></g><g fill="#FFF"><use x="745.693" y="758.982" xmlns:xlink="http://www.w3.org/1999/xlink" xlink:href="#Z" xlink:type="simple" xlink:actuate="onLoad" xlink:show="embed"/></g><g fill="#FFF"><use x="761.269" y="758.982" xmlns:xlink="http://www.w3.org/1999/xlink" xlink:href="#ac" xlink:type="simple" xlink:actuate="onLoad" xlink:show="embed"/></g><g fill="#FFF"><use x="776.845" y="758.982" xmlns:xlink="http://www.w3.org/1999/xlink" xlink:href="#ab" xlink:type="simple" xlink:actuate="onLoad" xlink:show="embed"/></g><g clip-path="url(#ad)"><path fill="#FFFDFD" d="M 694.484375 1243.226562 C 700.761719 1243.226562 705.851562 1238.136719 705.851562 1231.859375 C 705.851562 1225.582031 700.761719 1220.492188 694.484375 1220.492188 C 688.207031 1220.492188 683.117188 1225.582031 683.117188 1231.859375 C 683.117188 1238.136719 688.207031 1243.226562 694.484375 1243.226562"/></g><g clip-path="url(#ae)"><path fill="#FFFDFD" d="M 682.320312 1245.738281 C 674.269531 1245.738281 667.796875 1252.304688 667.796875 1260.492188 L 667.796875 1295.398438 C 667.796875 1302.183594 677.726562 1302.183594 677.726562 1295.398438 L 677.726562 1263.480469 L 680.078125 1263.480469 L 680.078125 1350.867188 C 680.078125 1359.941406 693.300781 1359.675781 693.300781 1350.867188 L 693.300781 1300.140625 L 695.578125 1300.140625 L 695.578125 1350.867188 C 695.578125 1359.675781 708.875 1359.941406 708.875 1350.867188 L 708.875 1263.480469 L 711.171875 1263.480469 L 711.171875 1295.398438 C 711.171875 1302.238281 721.050781 1302.234375 721.035156 1295.398438 L 721.035156 1260.703125 C 721.035156 1253.152344 715.171875 1245.753906 706.332031 1245.753906 L 682.320312 1245.738281"/></g><g clip-path="url(#af)"><path fill="#FFFDFD" d="M 841.398438 1242.964844 C 847.628906 1242.949219 852.65625 1237.933594 852.640625 1231.746094 C 852.65625 1225.558594 847.628906 1220.542969 841.398438 1220.527344 C 835.230469 1220.542969 830.203125 1225.558594 830.21875 1231.746094 C 830.203125 1237.933594 835.230469 1242.949219 841.398438 1242.964844"/></g><path fill="#FFFDFD" d="M 839.78125 1314.050781 L 839.78125 1352.816406 C 839.773438 1359.871094 829.1875 1359.871094 829.210938 1352.816406 L 829.210938 1314.320312 L 814.9375 1314.320312 L 830.152344 1261.644531 L 827.796875 1261.644531 L 818.976562 1291.339844 C 816.859375 1297.828125 807.953125 1295.167969 810.019531 1288.25 L 819.785156 1256 C 820.859375 1252.3125 825.519531 1245.792969 833.585938 1245.789062 L 849.007812 1245.789062 C 857.027344 1245.792969 861.707031 1252.367188 862.945312 1256 L 872.707031 1288.183594 C 874.703125 1295.132812 865.867188 1298.003906 863.753906 1291.273438 L 854.933594 1261.644531 L 852.375 1261.644531 L 867.65625 1314.320312 L 853.449219 1314.320312 L 853.449219 1352.882812 C 853.449219 1359.871094 842.90625 1359.835938 842.878906 1352.882812 L 842.878906 1314.050781 L 839.78125 1314.050781"/><g fill="#FFF"><use x="655.843" y="1414.391" xmlns:xlink="http://www.w3.org/1999/xlink" xlink:href="#ag" xlink:type="simple" xlink:actuate="onLoad" xlink:show="embed"/></g><g fill="#FFF"><use x="680.086" y="1414.391" xmlns:xlink="http://www.w3.org/1999/xlink" xlink:href="#ah" xlink:type="simple" xlink:actuate="onLoad" xlink:show="embed"/></g><g fill="#FFF"><use x="704.329" y="1414.391" xmlns:xlink="http://www.w3.org/1999/xlink" xlink:href="#ai" xlink:type="simple" xlink:actuate="onLoad" xlink:show="embed"/></g><g fill="#FFF"><use x="802.683" y="1414.391" xmlns:xlink="http://www.w3.org/1999/xlink" xlink:href="#ag" xlink:type="simple" xlink:actuate="onLoad" xlink:show="embed"/></g><g fill="#FFF"><use x="826.926" y="1414.391" xmlns:xlink="http://www.w3.org/1999/xlink" xlink:href="#aj" xlink:type="simple" xlink:actuate="onLoad" xlink:show="embed"/></g><g fill="#FFF"><use x="851.169" y="1414.391" xmlns:xlink="http://www.w3.org/1999/xlink" xlink:href="#ai" xlink:type="simple" xlink:actuate="onLoad" xlink:show="embed"/></g><g mask="url(#ak)"><g><g clip-path="url(#al)" transform="translate(718 1160)"><g clip-path="url(#am)"><path stroke-linecap="round" transform="matrix(-5.33667 -9.88466 9.89937 -5.34461 47.181 60.452)" fill="none" d="M 3.000032 0.0000692686 L 3.70673 -0.000135276" stroke="#F03612"/></g><path stroke-linecap="round" transform="matrix(-5.33667 -9.88466 9.89937 -5.34461 47.181 60.452)" fill="#F03612" stroke-linejoin="round" d="M 2.499856 -1.499921 L 0.500166 -0.0000436835 L 2.500078 1.499915 Z M 2.499856 -1.499921" stroke="#F03612"/></g></g></g><g clip-path="url(#an)"><path fill="#FFFDFD" d="M 360.546875 959.882812 C 364.703125 959.882812 368.070312 956.542969 368.070312 952.421875 C 368.070312 948.304688 364.703125 944.964844 360.546875 944.964844 C 356.390625 944.964844 353.019531 948.304688 353.019531 952.421875 C 353.019531 956.542969 356.390625 959.882812 360.546875 959.882812"/></g><g clip-path="url(#ao)"><path fill="#FFFDFD" d="M 352.492188 961.53125 C 347.164062 961.53125 342.878906 965.835938 342.878906 971.210938 L 342.878906 994.109375 C 342.878906 998.558594 349.453125 998.558594 349.453125 994.109375 L 349.453125 973.167969 L 351.007812 973.167969 L 351.007812 1030.5 C 351.007812 1036.453125 359.761719 1036.277344 359.761719 1030.5 L 359.761719 997.21875 L 361.269531 997.21875 L 361.269531 1030.5 C 361.269531 1036.277344 370.074219 1036.453125 370.074219 1030.5 L 370.074219 973.167969 L 371.59375 973.167969 L 371.59375 994.109375 C 371.59375 998.59375 378.132812 998.59375 378.121094 994.109375 L 378.121094 971.347656 C 378.121094 966.390625 374.238281 961.539062 368.386719 961.539062 L 352.492188 961.53125"/></g><g clip-path="url(#ap)"><path fill="#FFFDFD" d="M 456.9375 959.714844 C 461 959.703125 464.273438 956.414062 464.265625 952.355469 C 464.273438 948.296875 461 945.003906 456.9375 944.996094 C 452.917969 945.003906 449.640625 948.296875 449.652344 952.355469 C 449.640625 956.414062 452.917969 959.703125 456.9375 959.714844"/></g><path fill="#FFFDFD" d="M 455.886719 1006.34375 L 455.886719 1031.773438 C 455.878906 1036.398438 448.980469 1036.398438 448.996094 1031.773438 L 448.996094 1006.519531 L 439.691406 1006.519531 L 449.609375 971.964844 L 448.074219 971.964844 L 442.324219 991.445312 C 440.945312 995.703125 435.140625 993.957031 436.488281 989.417969 L 442.851562 968.265625 C 443.550781 965.84375 446.589844 961.570312 451.847656 961.566406 L 461.898438 961.566406 C 467.125 961.570312 470.175781 965.882812 470.980469 968.265625 L 477.34375 989.375 C 478.640625 993.933594 472.882812 995.816406 471.507812 991.402344 L 465.757812 971.964844 L 464.089844 971.964844 L 474.050781 1006.519531 L 464.792969 1006.519531 L 464.792969 1031.816406 C 464.792969 1036.398438 457.921875 1036.375 457.902344 1031.816406 L 457.902344 1006.34375 L 455.886719 1006.34375"/><g fill="#FFF"><use x="335.393" y="1072.618" xmlns:xlink="http://www.w3.org/1999/xlink" xlink:href="#Z" xlink:type="simple" xlink:actuate="onLoad" xlink:show="embed"/></g><g fill="#FFF"><use x="350.969" y="1072.618" xmlns:xlink="http://www.w3.org/1999/xlink" xlink:href="#aq" xlink:type="simple" xlink:actuate="onLoad" xlink:show="embed"/></g><g fill="#FFF"><use x="366.545" y="1072.618" xmlns:xlink="http://www.w3.org/1999/xlink" xlink:href="#ab" xlink:type="simple" xlink:actuate="onLoad" xlink:show="embed"/></g><g fill="#FFF"><use x="432.088" y="1072.598" xmlns:xlink="http://www.w3.org/1999/xlink" xlink:href="#ar" xlink:type="simple" xlink:actuate="onLoad" xlink:show="embed"/></g><g fill="#FFF"><use x="447.664" y="1072.598" xmlns:xlink="http://www.w3.org/1999/xlink" xlink:href="#as" xlink:type="simple" xlink:actuate="onLoad" xlink:show="embed"/></g><g fill="#FFF"><use x="463.241" y="1072.598" xmlns:xlink="http://www.w3.org/1999/xlink" xlink:href="#at" xlink:type="simple" xlink:actuate="onLoad" xlink:show="embed"/></g><g fill="#FFF"><use x="607.194" y="995.102" xmlns:xlink="http://www.w3.org/1999/xlink" xlink:href="#au" xlink:type="simple" xlink:actuate="onLoad" xlink:show="embed"/></g><g fill="#FFF"><use x="631.604" y="995.102" xmlns:xlink="http://www.w3.org/1999/xlink" xlink:href="#av" xlink:type="simple" xlink:actuate="onLoad" xlink:show="embed"/></g><g fill="#FFF"><use x="651.791" y="995.102" xmlns:xlink="http://www.w3.org/1999/xlink" xlink:href="#aw" xlink:type="simple" xlink:actuate="onLoad" xlink:show="embed"/></g><g fill="#FFF"><use x="663.245" y="995.102" xmlns:xlink="http://www.w3.org/1999/xlink" xlink:href="#ax" xlink:type="simple" xlink:actuate="onLoad" xlink:show="embed"/></g><g fill="#FFF"><use x="671.595" y="995.102" xmlns:xlink="http://www.w3.org/1999/xlink" xlink:href="#ay" xlink:type="simple" xlink:actuate="onLoad" xlink:show="embed"/></g><g fill="#FFF"><use x="687.719" y="995.102" xmlns:xlink="http://www.w3.org/1999/xlink" xlink:href="#aw" xlink:type="simple" xlink:actuate="onLoad" xlink:show="embed"/></g><g fill="#FFF"><use x="699.173" y="995.102" xmlns:xlink="http://www.w3.org/1999/xlink" xlink:href="#az" xlink:type="simple" xlink:actuate="onLoad" xlink:show="embed"/></g><g fill="#FFF"><use x="717.601" y="995.102" xmlns:xlink="http://www.w3.org/1999/xlink" xlink:href="#aw" xlink:type="simple" xlink:actuate="onLoad" xlink:show="embed"/></g><g fill="#FFF"><use x="729.054" y="995.102" xmlns:xlink="http://www.w3.org/1999/xlink" xlink:href="#aA" xlink:type="simple" xlink:actuate="onLoad" xlink:show="embed"/></g><g fill="#FFF"><use x="738.109" y="995.102" xmlns:xlink="http://www.w3.org/1999/xlink" xlink:href="#ay" xlink:type="simple" xlink:actuate="onLoad" xlink:show="embed"/></g><g fill="#FFF"><use x="754.233" y="995.102" xmlns:xlink="http://www.w3.org/1999/xlink" xlink:href="#aw" xlink:type="simple" xlink:actuate="onLoad" xlink:show="embed"/></g><g fill="#FFF"><use x="765.686" y="995.102" xmlns:xlink="http://www.w3.org/1999/xlink" xlink:href="#aB" xlink:type="simple" xlink:actuate="onLoad" xlink:show="embed"/></g><g fill="#FFF"><use x="784.05" y="995.102" xmlns:xlink="http://www.w3.org/1999/xlink" xlink:href="#az" xlink:type="simple" xlink:actuate="onLoad" xlink:show="embed"/></g><g fill="#FFF"><use x="802.478" y="995.102" xmlns:xlink="http://www.w3.org/1999/xlink" xlink:href="#aC" xlink:type="simple" xlink:actuate="onLoad" xlink:show="embed"/></g><g fill="#FFF"><use x="811.82" y="995.102" xmlns:xlink="http://www.w3.org/1999/xlink" xlink:href="#aC" xlink:type="simple" xlink:actuate="onLoad" xlink:show="embed"/></g><g fill="#FFF"><use x="821.162" y="995.102" xmlns:xlink="http://www.w3.org/1999/xlink" xlink:href="#aD" xlink:type="simple" xlink:actuate="onLoad" xlink:show="embed"/></g><g fill="#FFF"><use x="641.014" y="1039.352" xmlns:xlink="http://www.w3.org/1999/xlink" xlink:href="#ay" xlink:type="simple" xlink:actuate="onLoad" xlink:show="embed"/></g><g fill="#FFF"><use x="657.138" y="1039.352" xmlns:xlink="http://www.w3.org/1999/xlink" xlink:href="#aA" xlink:type="simple" xlink:actuate="onLoad" xlink:show="embed"/></g><g fill="#FFF"><use x="666.192" y="1039.352" xmlns:xlink="http://www.w3.org/1999/xlink" xlink:href="#aE" xlink:type="simple" xlink:actuate="onLoad" xlink:show="embed"/></g><g fill="#FFF"><use x="687.308" y="1039.352" xmlns:xlink="http://www.w3.org/1999/xlink" xlink:href="#aF" xlink:type="simple" xlink:actuate="onLoad" xlink:show="embed"/></g><g fill="#FFF"><use x="707.719" y="1039.352" xmlns:xlink="http://www.w3.org/1999/xlink" xlink:href="#aA" xlink:type="simple" xlink:actuate="onLoad" xlink:show="embed"/></g><g fill="#FFF"><use x="716.773" y="1039.352" xmlns:xlink="http://www.w3.org/1999/xlink" xlink:href="#aG" xlink:type="simple" xlink:actuate="onLoad" xlink:show="embed"/></g><g fill="#FFF"><use x="727.491" y="1039.352" xmlns:xlink="http://www.w3.org/1999/xlink" xlink:href="#aA" xlink:type="simple" xlink:actuate="onLoad" xlink:show="embed"/></g><g fill="#FFF"><use x="736.545" y="1039.352" xmlns:xlink="http://www.w3.org/1999/xlink" xlink:href="#aB" xlink:type="simple" xlink:actuate="onLoad" xlink:show="embed"/></g><g fill="#FFF"><use x="754.909" y="1039.352" xmlns:xlink="http://www.w3.org/1999/xlink" xlink:href="#az" xlink:type="simple" xlink:actuate="onLoad" xlink:show="embed"/></g><g fill="#FFF"><use x="773.337" y="1039.352" xmlns:xlink="http://www.w3.org/1999/xlink" xlink:href="#aF" xlink:type="simple" xlink:actuate="onLoad" xlink:show="embed"/></g><g fill="#FFF"><use x="793.748" y="1039.352" xmlns:xlink="http://www.w3.org/1999/xlink" xlink:href="#aw" xlink:type="simple" xlink:actuate="onLoad" xlink:show="embed"/></g><g fill="#FFF"><use x="292.194" y="679.982" xmlns:xlink="http://www.w3.org/1999/xlink" xlink:href="#au" xlink:type="simple" xlink:actuate="onLoad" xlink:show="embed"/></g><g fill="#FFF"><use x="316.604" y="679.982" xmlns:xlink="http://www.w3.org/1999/xlink" xlink:href="#av" xlink:type="simple" xlink:actuate="onLoad" xlink:show="embed"/></g><g fill="#FFF"><use x="336.791" y="679.982" xmlns:xlink="http://www.w3.org/1999/xlink" xlink:href="#aw" xlink:type="simple" xlink:actuate="onLoad" xlink:show="embed"/></g><g fill="#FFF"><use x="348.245" y="679.982" xmlns:xlink="http://www.w3.org/1999/xlink" xlink:href="#ax" xlink:type="simple" xlink:actuate="onLoad" xlink:show="embed"/></g><g fill="#FFF"><use x="356.595" y="679.982" xmlns:xlink="http://www.w3.org/1999/xlink" xlink:href="#ay" xlink:type="simple" xlink:actuate="onLoad" xlink:show="embed"/></g><g fill="#FFF"><use x="372.72" y="679.982" xmlns:xlink="http://www.w3.org/1999/xlink" xlink:href="#aw" xlink:type="simple" xlink:actuate="onLoad" xlink:show="embed"/></g><g fill="#FFF"><use x="384.173" y="679.982" xmlns:xlink="http://www.w3.org/1999/xlink" xlink:href="#az" xlink:type="simple" xlink:actuate="onLoad" xlink:show="embed"/></g><g fill="#FFF"><use x="402.601" y="679.982" xmlns:xlink="http://www.w3.org/1999/xlink" xlink:href="#aw" xlink:type="simple" xlink:actuate="onLoad" xlink:show="embed"/></g><g fill="#FFF"><use x="414.054" y="679.982" xmlns:xlink="http://www.w3.org/1999/xlink" xlink:href="#aA" xlink:type="simple" xlink:actuate="onLoad" xlink:show="embed"/></g><g fill="#FFF"><use x="423.109" y="679.982" xmlns:xlink="http://www.w3.org/1999/xlink" xlink:href="#ay" xlink:type="simple" xlink:actuate="onLoad" xlink:show="embed"/></g><g fill="#FFF"><use x="439.233" y="679.982" xmlns:xlink="http://www.w3.org/1999/xlink" xlink:href="#aw" xlink:type="simple" xlink:actuate="onLoad" xlink:show="embed"/></g><g fill="#FFF"><use x="450.687" y="679.982" xmlns:xlink="http://www.w3.org/1999/xlink" xlink:href="#aB" xlink:type="simple" xlink:actuate="onLoad" xlink:show="embed"/></g><g fill="#FFF"><use x="469.05" y="679.982" xmlns:xlink="http://www.w3.org/1999/xlink" xlink:href="#az" xlink:type="simple" xlink:actuate="onLoad" xlink:show="embed"/></g><g fill="#FFF"><use x="487.478" y="679.982" xmlns:xlink="http://www.w3.org/1999/xlink" xlink:href="#aC" xlink:type="simple" xlink:actuate="onLoad" xlink:show="embed"/></g><g fill="#FFF"><use x="496.82" y="679.982" xmlns:xlink="http://www.w3.org/1999/xlink" xlink:href="#aC" xlink:type="simple" xlink:actuate="onLoad" xlink:show="embed"/></g><g fill="#FFF"><use x="506.162" y="679.982" xmlns:xlink="http://www.w3.org/1999/xlink" xlink:href="#aD" xlink:type="simple" xlink:actuate="onLoad" xlink:show="embed"/></g><g fill="#FFF"><use x="326.014" y="724.232" xmlns:xlink="http://www.w3.org/1999/xlink" xlink:href="#ay" xlink:type="simple" xlink:actuate="onLoad" xlink:show="embed"/></g><g fill="#FFF"><use x="342.138" y="724.232" xmlns:xlink="http://www.w3.org/1999/xlink" xlink:href="#aA" xlink:type="simple" xlink:actuate="onLoad" xlink:show="embed"/></g><g fill="#FFF"><use x="351.192" y="724.232" xmlns:xlink="http://www.w3.org/1999/xlink" xlink:href="#aE" xlink:type="simple" xlink:actuate="onLoad" xlink:show="embed"/></g><g fill="#FFF"><use x="372.308" y="724.232" xmlns:xlink="http://www.w3.org/1999/xlink" xlink:href="#aF" xlink:type="simple" xlink:actuate="onLoad" xlink:show="embed"/></g><g fill="#FFF"><use x="392.719" y="724.232" xmlns:xlink="http://www.w3.org/1999/xlink" xlink:href="#aA" xlink:type="simple" xlink:actuate="onLoad" xlink:show="embed"/></g><g fill="#FFF"><use x="401.773" y="724.232" xmlns:xlink="http://www.w3.org/1999/xlink" xlink:href="#aG" xlink:type="simple" xlink:actuate="onLoad" xlink:show="embed"/></g><g fill="#FFF"><use x="412.491" y="724.232" xmlns:xlink="http://www.w3.org/1999/xlink" xlink:href="#aA" xlink:type="simple" xlink:actuate="onLoad" xlink:show="embed"/></g><g fill="#FFF"><use x="421.545" y="724.232" xmlns:xlink="http://www.w3.org/1999/xlink" xlink:href="#aB" xlink:type="simple" xlink:actuate="onLoad" xlink:show="embed"/></g><g fill="#FFF"><use x="439.909" y="724.232" xmlns:xlink="http://www.w3.org/1999/xlink" xlink:href="#az" xlink:type="simple" xlink:actuate="onLoad" xlink:show="embed"/></g><g fill="#FFF"><use x="458.337" y="724.232" xmlns:xlink="http://www.w3.org/1999/xlink" xlink:href="#aF" xlink:type="simple" xlink:actuate="onLoad" xlink:show="embed"/></g><g fill="#FFF"><use x="478.748" y="724.232" xmlns:xlink="http://www.w3.org/1999/xlink" xlink:href="#aw" xlink:type="simple" xlink:actuate="onLoad" xlink:show="embed"/></g></svg>